<svg xmlns="http://www.w3.org/2000/svg" width="518" height="417" viewBox="0 0 518 417">
    <g fill="none" fill-rule="evenodd">
        <g fill-rule="nonzero">
            <g transform="translate(-165 -1322) translate(165 1322)">
                <ellipse cx="261.623" cy="396.658" fill="#3F3D56" rx="255.482" ry="19.959"/>
                <path fill="#A0616A" d="M478.64 359.578L481.035 377.138 464.273 378.734 466.668 357.184zM399.62 118.53s1.597 21.55 1.597 22.348c0 .798-11.174 55.872-11.174 55.872s-15.964 30.331 0 29.533c15.963-.798 11.174-28.734 11.174-28.734l16.762-46.295-7.184-32.725h-11.174zM425.961 359.578L423.566 377.138 440.328 378.734 437.934 357.184z"/>
                <path fill="#2F2E41" d="M407.603 195.154l-3.991 5.587s-2.395 23.945 0 31.927c2.394 7.982 7.183 44.698 7.183 47.093 0 2.394.798 3.99 0 4.789-.798.798-3.192.798-1.596 2.394 1.596 1.597 1.596 6.386 1.596 6.386v3.99l10.377 59.066s-6.386 7.183-1.597 7.183c4.79 0 22.35 0 21.55-7.982l-1.595-.798s-2.395-52.68-1.597-55.074c.798-2.394 0-7.184 0-7.184s-1.596-2.394 0-3.192c1.597-.798 1.597-7.184 1.597-7.184l7.183-48.689s6.386 32.726 10.376 35.918c3.991 3.193 3.193 11.175 3.193 11.175l3.193 70.24s-3.193 7.981 0 9.577c3.193 1.597 16.762 7.184 17.56-.798.798-7.982 4.789-77.423 4.789-80.616 0-3.192-.798-4.789 0-7.183.798-2.395-.798-2.395 0-2.395s-1.597-2.394-1.597-3.99v-39.111s.799-7.982 1.597-9.578c.798-1.597-.798-3.193 0-5.587.798-2.395-1.597-10.377-1.597-10.377l-35.917-9.578-40.707 3.991zM435.539 373.945s3.99-3.99-1.597-3.99c-3.587.073-7.12.888-10.376 2.394l-3.99 14.367s-16.363 13.17 1.995 11.574c18.358-1.597 15.564-.4 15.564-.4s5.587-1.596 6.385-3.192c.799-1.596-1.596-24.743-1.596-24.743s-2.394 6.385-6.385 3.99zM469.86 373.945s-3.99-3.99 1.597-3.99c3.587.073 7.12.888 10.376 2.394l3.99 14.367s16.363 13.17-1.995 11.574c-18.358-1.597-17.959-.4-17.959-.4s-5.587-1.596-6.385-3.192 3.99-24.743 3.99-24.743 2.395 6.385 6.386 3.99z"/>
                <circle cx="417.979" cy="34.721" r="20.753" fill="#A0616A"/>
                <path fill="#A0616A" d="M410.795 49.886s3.193 15.963 3.193 18.358c0 2.395 13.569 9.578 13.569 9.578l15.165-19.156s-9.578-13.57-9.578-16.762l-22.349 7.982z"/>
                <path fill="#D0CDE1" d="M422.768 70.639s-6.957-1.852-9.066-4.917c0 0-22.063 21.678-22.063 25.67l17.56 31.128s0 11.174 1.596 11.973c1.597.798 0 0 0 3.192 0 3.193-4.789 23.946-3.192 27.138 1.596 3.193 3.192.798 1.596 5.588-1.596 4.789-5.587 30.33-5.587 30.33s14.367-4.789 35.12 3.193c20.752 7.982 45.495-3.193 45.495-3.193s-6.385-14.367-4.789-19.156c1.597-4.789-3.99-13.569-3.99-13.569l-3.991-73.432s5.587-32.725 1.596-34.322l-7.982-3.192-25.56-3.142s-6.367 15.912-16.743 16.71z"/>
                <path fill="#D0CDE1" d="M399.62 85.804l-7.981 5.587s-3.99 11.973 0 17.56c3.99 5.587 5.587 13.569 5.587 13.569l15.964-1.596-13.57-35.12z"/>
                <path fill="#2F2E41" d="M402.134 12.789l-3.6-1.441s7.527-8.287 18-7.566L413.588.539s7.2-2.882 13.745 4.684c3.44 3.977 7.421 8.652 9.903 13.918h3.855l-1.609 3.543 5.632 3.543-5.78-.636c.547 3.058.36 6.203-.547 9.175l.155 2.8s-6.7-10.366-6.7-11.807v3.603s-3.6-3.243-3.6-5.404l-1.964 2.522-.981-3.964-12.109 3.964 1.964-3.243-7.527 1.08 2.945-3.962s-8.508 4.683-8.836 8.647c-.327 3.963-4.581 9.007-4.581 9.007l-1.964-3.603s-2.945-16.213 6.545-21.617z"/>
                <path fill="#F2F2F2" d="M89.768 173.698H406.948V396.506H89.768z"/>
                <path fill="#CCC" d="M116.468 258.71H196.108V397.735H116.468z"/>
                <path fill="#F2F2F2" d="M131.199 267.05H152.65200000000002V287.048H131.199zM159.924 267.05H181.377V287.048H159.924zM131.199 294.32H152.65200000000002V315.046H131.199zM159.924 294.32H181.377V315.046H159.924z"/>
                <circle cx="185.981" cy="337.582" r="5.064" fill="#34AD9A"/>
                <path fill="#3F3D56" d="M222.809 245.512H380.248V377.632H222.809zM440.093 215.645L56.623 215.645 82.191 162.189 87.913 150.22 95.398 134.568 101.12 122.599 107.754 108.734 409.88 108.734 413.798 122.599 417.181 134.568 421.605 150.22 424.989 162.189z"/>
                <path fill="#34AD9A" d="M228.333 300.294H233.857V334.36H228.333z"/>
                <path fill="#F2F2F2" d="M228.333 305.357H233.857V309.5H228.333zM228.333 325.152H233.857V329.29499999999996H228.333z"/>
                <path fill="#34AD9A" d="M236.619 300.294H249.969V334.36H236.619z"/>
                <path fill="#F2F2F2" d="M236.619 305.357H249.969V309.5H236.619zM236.619 325.152H249.969V329.29499999999996H236.619z"/>
                <path fill="#34AD9A" d="M253.192 300.294H258.716V334.36H253.192z"/>
                <path fill="#F2F2F2" d="M253.192 305.357H258.716V309.5H253.192zM253.192 325.152H258.716V329.29499999999996H253.192z"/>
                <path fill="#34AD9A" d="M261.478 300.294H267.002V334.36H261.478z"/>
                <path fill="#F2F2F2" d="M261.478 305.357H267.002V309.5H261.478zM261.478 325.152H267.002V329.29499999999996H261.478z"/>
                <path fill="#34AD9A" d="M272.987 300.294H278.511V334.36H272.987z" transform="rotate(-20.654 275.749 317.327)"/>
                <path fill="#F2F2F2" d="M269.495 305.994H275.019V310.137H269.495z" transform="rotate(-20.654 272.258 308.065)"/>
                <path fill="#F2F2F2" d="M276.478 324.516H282.002V328.659H276.478z" transform="rotate(-20.654 279.24 326.588)"/>
                <path fill="#34AD9A" d="M361.834 300.294H375.184V334.36H361.834z"/>
                <path fill="#F2F2F2" d="M361.834 305.357H375.184V309.5H361.834zM361.834 325.152H375.184V329.29499999999996H361.834z"/>
                <path fill="#34AD9A" d="M353.087 300.294H358.611V334.36H353.087z"/>
                <path fill="#F2F2F2" d="M353.087 305.357H358.611V309.5H353.087zM353.087 325.152H358.611V329.29499999999996H353.087z"/>
                <path fill="#34AD9A" d="M344.801 300.294H350.325V334.36H344.801z"/>
                <path fill="#F2F2F2" d="M344.801 305.357H350.325V309.5H344.801zM344.801 325.152H350.325V329.29499999999996H344.801z"/>
                <path fill="#34AD9A" d="M319.021 314.564H353.087V320.088H319.021z" transform="rotate(-69.346 336.054 317.327)"/>
                <path fill="#F2F2F2" d="M337.474 305.303H341.61699999999996V310.827H337.474z" transform="rotate(-69.346 339.545 308.065)"/>
                <path fill="#F2F2F2" d="M330.492 323.826H334.635V329.35H330.492z" transform="rotate(-69.346 332.563 326.588)"/>
                <path fill="#F2F2F2" d="M222.809 334.359H380.248V337.58099999999996H222.809z"/>
                <path fill="#34AD9A" d="M291.4 300.294H320.402V334.36H291.4z"/>
                <path fill="#F2F2F2" d="M298.536 307.659H313.267V314.104H298.536zM300.147 245.512H302.909V274.974H300.147z"/>
                <circle cx="301.528" cy="274.975" r="4.603" fill="#F2F2F2"/>
                <path fill="#34AD9A" d="M417.181 134.568L95.398 134.568 101.12 122.599 413.798 122.599zM424.989 162.189L82.191 162.189 87.913 150.22 421.605 150.22z"/>
                <path fill="#A0616A" d="M458.686 92.987s-4.622 11.886-3.657 23.645c.177 2.106.886 4.132 2.06 5.888l-56.626 26.883s-25.586 2.65-19.2 13.824c6.385 11.174 29.532-5.587 29.532-5.587s60.662-8.78 65.45-17.56c4.79-8.78 7.982-45.496 7.982-45.496l-25.541-1.597z"/>
                <path fill="#D0CDE1" d="M461.08 60.262h11.973s8.78 1.597 11.174 17.56c2.395 15.964 4.79 19.955 2.395 19.955s-31.129-.799-31.129-1.597c0-.798 5.587-35.918 5.587-35.918z"/>
                <circle cx="61.414" cy="237.289" r="61.414" fill="#34AD9A"/>
                <circle cx="61.414" cy="237.289" r="52.816" fill="#000" opacity=".1"/>
                <path fill="#F2F2F2" d="M58.883 268.455v-7.687c-3.886-.076-7.906-1.447-10.25-3.35l1.607-5.099c2.787 2.089 6.166 3.235 9.648 3.273 4.757 0 7.973-3.12 7.973-7.459 0-4.186-2.613-6.774-7.571-9.057-6.834-3.045-11.055-6.546-11.055-13.167 0-6.318 3.953-11.113 10.117-12.254v-7.687h4.154v7.382c3.097.043 6.119.967 8.71 2.664l-1.675 5.024c-2.486-1.702-5.43-2.604-8.442-2.588-5.159 0-7.102 3.5-7.102 6.545 0 3.958 2.48 5.937 8.308 8.677 6.9 3.197 10.385 7.154 10.385 13.928 0 6.013-3.685 11.645-10.586 12.939v7.916h-4.221z"/>
            </g>
        </g>
    </g>
</svg>
