<?xml version="1.0" encoding="UTF-8"?>
<svg width="80px" height="81px" viewBox="0 0 80 81" version="1.1" xmlns="http://www.w3.org/2000/svg" xmlns:xlink="http://www.w3.org/1999/xlink">
    <title>data-mining</title>
    <g id="Page-1" stroke="none" stroke-width="1" fill="none" fill-rule="evenodd">
        <g id="FAQ" transform="translate(-253.000000, -659.000000)" fill-rule="nonzero">
            <g id="Group-4" transform="translate(165.000000, 467.000000)">
                <g id="Group-40" transform="translate(0.000000, 152.000000)">
                    <g id="data-mining" transform="translate(88.000000, 40.000000)">
                        <g id="Group" transform="translate(0.000000, 10.156250)" fill="#B0ECE5">
                            <polygon id="Path" points="10.0775147 3.39172359 13.3612061 0.0463867188 21.7987061 8.32763672 18.515625 11.6729736"></polygon>
                            <polygon id="Path" points="0 27.5 11.71875 27.5 11.71875 32.1875 0 32.1875"></polygon>
                            <polygon id="Path" points="10.0457764 56.6357422 18.3447266 48.1982422 21.6864014 51.4849853 13.3874512 59.9224853"></polygon>
                            <polygon id="Path" points="37.65625 58.125 42.34375 58.125 42.34375 69.84375 37.65625 69.84375"></polygon>
                        </g>
                        <polygon id="Path" fill="#B0ECE5" points="40 68.28125 42.34375 68.28125 42.34375 80 40 80"></polygon>
                        <polygon id="Path" fill="#B0ECE5" points="58.3416748 61.6571045 61.6564941 58.3428955 69.9377441 66.6241455 66.6229248 69.9383545"></polygon>
                        <polygon id="Path" fill="#B0ECE5" points="68.28125 37.65625 80 37.65625 80 42.34375 68.28125 42.34375"></polygon>
                        <polygon id="Path" fill="#B0ECE5" points="58.3734131 18.3306884 66.6357422 10.2062988 69.9224853 13.5485841 61.6595459 21.6729736"></polygon>
                        <polygon id="Path" fill="#B0ECE5" points="37.65625 0 42.34375 0 42.34375 11.71875 37.65625 11.71875"></polygon>
                        <polygon id="Path" fill="#B0ECE5" points="40 0 42.34375 0 42.34375 11.71875 40 11.71875"></polygon>
                        <path d="M40,9.375 C23.1134033,9.375 9.375,23.1134033 9.375,40 C9.375,56.8865967 23.1134033,70.625 40,70.625 C56.8865967,70.625 70.625,56.8865967 70.625,40 C70.625,23.1134033 56.8865967,9.375 40,9.375 Z" id="Path" fill="#08413C"></path>
                        <path d="M40,9.375 L40,70.625 C56.8865967,70.625 70.625,56.8865967 70.625,40 C70.625,23.1134033 56.8865967,9.375 40,9.375 Z" id="Path" fill="#08413C"></path>
                        <path d="M18.2427978,42.5067139 L21.4447022,45.9301758 C25.5413819,42.0996094 30.1068116,38.7207031 35,35.8746338 L35,30.5041503 C28.9086914,33.7823486 23.2470703,37.8271484 18.2427978,42.5067139 L18.2427978,42.5067139 Z" id="Path" fill="#B0ECE5"></path>
                        <path d="M55.5645752,27.3864747 L54.1229248,22.9260253 L48.4533691,24.7583008 C46.1187744,25.5126953 43.8189697,26.3775634 41.5625,27.3425294 L41.5625,32.4694825 C44.2730712,31.2243653 47.0568847,30.1354981 49.8950195,29.21875 L55.5645752,27.3864747 Z" id="Path" fill="#B0ECE5"></path>
                        <polygon id="Path" fill="#38AA9D" points="31.8371581 23.9111328 36.1395264 22.0507812 51.6027831 57.8112794 47.2998047 59.6722412"></polygon>
                        <polygon id="Path" fill="#38AA9D" points="51.6015625 57.8082275 40 30.9802247 40 42.789917 47.2991944 59.6685791"></polygon>
                        <polygon id="Path" fill="#B0ECE5" points="28.8360595 28.7835694 41.7443847 23.2019044 47.3254394 36.1102295 34.4177247 41.6912842"></polygon>
                        <polygon id="Path" fill="#B0ECE5" points="41.7425538 23.2000733 40 23.9538575 40 39.2749023 47.3242188 36.1077881"></polygon>
                        <polygon id="Path" fill="#38AA9D" points="65.9375 65.9375 80 65.9375 80 80 65.9375 80"></polygon>
                        <polygon id="Path" fill="#38AA9D" points="0 65.9375 14.0625 65.9375 14.0625 80 0 80"></polygon>
                        <polygon id="Path" fill="#38AA9D" points="0 0 14.0625 0 14.0625 14.0625 0 14.0625"></polygon>
                        <polygon id="Path" fill="#38AA9D" points="65.9375 0 80 0 80 14.0625 65.9375 14.0625"></polygon>
                    </g>
                </g>
            </g>
        </g>
    </g>
</svg>