<svg xmlns="http://www.w3.org/2000/svg" width="51" height="60" viewBox="0 0 51 60">
    <g fill="none">
        <g>
            <path fill="#B0ECE5" d="M2.03 5.063h36c1.104 0 2 .895 2 2v49c0 1.104-.896 2-2 2h-36c-1.105 0-2-.896-2-2v-49c0-1.105.895-2 2-2z" transform="translate(1.055 .938)"/>
            <path fill="#ECFCF7" d="M2.03 5.063h33c1.104 0 2 .895 2 2v49c0 1.104-.896 2-2 2h-33c-1.105 0-2-.896-2-2v-49c0-1.105.895-2 2-2z" transform="translate(1.055 .938)"/>
            <path fill="#FFF" d="M36.03 10.063v38h-20c0 3.313-2.687 6-6 6-3.314 0-6-2.687-6-6v-38c.001-.552.448-.999 1-1h30c.551.001.998.448 1 1z" transform="translate(1.055 .938)"/>
            <path fill="#B0ECE5" d="M30.03 5.063v4c-.002.551-.449.998-1 1h-18c-.552-.002-.999-.449-1-1v-4c.001-.552.448-.999 1-1h5c-.003-1.63.987-3.095 2.5-3.7.474-.202.984-.304 1.5-.3 1.06 0 2.078.42 2.828 1.17.75.751 1.172 1.769 1.172 2.83h5c.55.001.998.448 1 1z" transform="translate(1.055 .938)"/>
            <path fill="#ECFCF7" d="M27.03 5.063v4c-.002.551-.449.998-1 1h-15c-.552-.002-.999-.449-1-1v-4c.001-.552.448-.999 1-1h5c-.003-1.63.987-3.095 2.5-3.7 1.512.605 2.502 2.07 2.5 3.7h5c.55.001.998.448 1 1zM48.03 48.062c-.003 3.313-2.688 5.998-6 6h-32c.681.002 1.359-.116 2-.35 2.398-.842 4.002-3.108 4-5.65h32z" transform="translate(1.055 .938)"/>
            <path fill="#B0ECE5" d="M45.03 48.062c-.003 3.313-2.688 5.998-6 6h-29c.681.002 1.359-.116 2-.35 2.398-.842 4.002-3.108 4-5.65h29z" transform="translate(1.055 .938)"/>
            <g fill="#ECFCF7">
                <path d="M1.06.062h8c.553 0 1 .448 1 1v8c0 .553-.447 1-1 1h-8c-.552 0-1-.447-1-1v-8c0-.552.448-1 1-1zM1.06 14.063h8c.553 0 1 .447 1 1v8c0 .552-.447 1-1 1h-8c-.552 0-1-.448-1-1v-8c0-.553.448-1 1-1zM10.06 29.063v4h-2c.003 2.541-1.6 4.807-4 5.65-2.398-.843-4.002-3.109-4-5.65v-4c.002-.552.45-.999 1-1h8c.552.001.999.448 1 1z" transform="translate(1.055 .938) translate(7.969 15)"/>
            </g>
            <path fill="#ECFCF7" d="M36.03 10.063v38h-3v-38c-.002-.552-.449-.999-1-1h3c.551.001.998.448 1 1z" transform="translate(1.055 .938)"/>
        </g>
        <g fill="#FFF">
            <path d="M5.03 1.078h-3c-1.104.003-1.997.897-2 2v49c.003 1.103.896 1.997 2 2h3c-1.104-.003-1.997-.897-2-2v-49c.003-1.103.896-1.997 2-2zM14.03.078h-3c-.552.002-1 .449-1 1h3c.001-.551.448-.998 1-1z" transform="translate(1.055 4.922)"/>
        </g>
        <path fill="#FFF" d="M2.084 8L2.084 21 2.084 57 0.084 57 0.084 21 0.084 8z"/>
        <g fill="#38AA9D">
            <path d="M.084 57c.002 1.656 1.344 2.998 3 3h36c1.656-.002 2.998-1.344 3-3v-1h1c3.864-.004 6.995-3.136 7-7 0-.265-.105-.52-.293-.707-.187-.188-.442-.293-.707-.293h-7V8c-.002-1.656-1.344-2.998-3-3h-7.278c-.355-.617-1.01-.998-1.722-1h-4.1c-.476-2.328-2.524-4-4.9-4-2.376 0-4.424 1.672-4.9 4h-4.1c-.711.002-1.367.383-1.722 1H3.084c-1.656.002-2.998 1.344-3 3v4c0 .552.448 1 1 1s1-.448 1-1V8c0-.552.448-1 1-1h7v2h-4c-1.104.001-1.999.896-2 2v38c.004 3.864 3.136 6.996 7 7h29v1c0 .552-.448 1-1 1h-36c-.552 0-1-.448-1-1V20c0-.552-.448-1-1-1s-1 .448-1 1v37zm43-3h-27.11c1.098-1.074 1.812-2.48 2.03-4h29.98c-.479 2.326-2.525 3.997-4.9 4zm-25-6h-1c-.265 0-.52.105-.707.293-.188.187-.293.442-.293.707-.004 1.98-1.174 3.77-2.985 4.568-1.828-.782-3.014-2.58-3.015-4.568v-4h8v3zm22-40v40h-2V11c-.001-1.104-.896-1.999-2-2h-4V7h7c.552 0 1 .448 1 1zm-23-2c.265 0 .52-.105.707-.293.188-.187.293-.442.293-.707 0-1.657 1.343-3 3-3s3 1.343 3 3c0 .265.105.52.293.707.187.188.442.293.707.293l5 .003V10h-18V6h5zm-11 43V11h4.278c.355.617 1.01.998 1.722 1h18c.711-.002 1.367-.383 1.722-1h4.278v37h-16v-3c-.001-1.104-.896-1.999-2-2h-8c-1.104.001-1.999.896-2 2v4c0 1.833.72 3.592 2.004 4.9-2.328-.477-4-2.524-4.004-4.9z"/>
            <path d="M1.084 17c.404-.002.768-.246.923-.619.155-.373.071-.803-.213-1.091l-.15-.12c-.056-.038-.116-.068-.18-.09-.057-.03-.118-.05-.18-.06-.066-.011-.133-.018-.2-.02-.265.004-.518.107-.71.29-.243.234-.349.575-.282.905.067.33.297.604.612.725.12.051.25.078.38.08zM10.084 27h8c1.104-.001 1.999-.896 2-2v-4.946l3.53-2.206c.303-.19.482-.526.47-.883-.013-.357-.215-.68-.53-.848-.316-.167-.697-.154-1 .035l-2.47 1.544V17c-.001-1.104-.896-1.999-2-2h-8c-1.104.001-1.999.896-2 2v8c.001 1.104.896 1.999 2 2zm0-10h8v1.946L15.23 20.73l-1.438-1.437c-.391-.384-1.02-.382-1.408.006-.388.388-.39 1.017-.006 1.408l2 2c.33.33.842.388 1.237.14l2.471-1.544V25h-8v-8zM23.084 21c0 .265.105.52.293.707.187.188.442.293.707.293h9c.552 0 1-.448 1-1s-.448-1-1-1h-9c-.265 0-.52.105-.707.293-.188.187-.293.442-.293.707zM10.084 41h8c1.104-.001 1.999-.896 2-2v-4.946l3.53-2.206c.303-.19.482-.526.47-.883-.013-.357-.215-.68-.53-.848-.316-.167-.697-.154-1 .035l-2.47 1.544V31c-.001-1.104-.896-1.999-2-2h-8c-1.104.001-1.999.896-2 2v8c.001 1.104.896 1.999 2 2zm0-10h8v1.946L15.23 34.73l-1.438-1.437c-.391-.385-1.02-.382-1.408.006-.388.388-.39 1.016-.006 1.408l2 2c.33.33.842.388 1.237.14l2.471-1.544V39h-8v-8zM33.084 34h-9c-.552 0-1 .448-1 1s.448 1 1 1h9c.552 0 1-.448 1-1s-.448-1-1-1z"/>
        </g>
    </g>
</svg>
