<?xml version="1.0" encoding="UTF-8"?>
<svg width="56px" height="60px" viewBox="0 0 56 60" version="1.1" xmlns="http://www.w3.org/2000/svg" xmlns:xlink="http://www.w3.org/1999/xlink">
    <!-- Generator: Sketch 57.1 (83088) - https://sketch.com -->
    <title>icon</title>
    <desc>Created with Sketch.</desc>
    <g id="Final-Template" stroke="none" stroke-width="1" fill="none" fill-rule="evenodd">
        <g id="01-Home-Page" transform="translate(-971.000000, -6776.000000)" fill-rule="nonzero">
            <g id="09-offer-section-" transform="translate(193.000000, 6776.000000)">
                <g id="2" transform="translate(556.000000, 0.000000)">
                    <g id="icon" transform="translate(222.000000, 0.000000)">
                        <polygon id="Path" fill="#38AA9D" points="42.4997429 59.8457584 0.136349614 59.8457584 0.136349614 0 33.5543445 0 42.4997429 8.94539846"></polygon>
                        <polygon id="Path" fill="#B0ECE5" points="33.5543445 8.94539846 42.4997429 8.94539846 42.4997429 59.8457584 33.5543445 59.8457584"></polygon>
                        <polygon id="Path" fill="#ECFCF7" points="42.4997429 8.94539846 33.5543445 8.94539846 33.5543445 -7.10542736e-15"></polygon>
                        <polygon id="Path" fill="#FFFFFF" points="16.4440103 5.71002571 7.95208226 10.2027763 7.95208226 23.7020051 13.5405656 23.7020051 13.5405656 17.6717738 19.346838 17.6717738 19.346838 23.7020051 24.9353213 23.7020051 24.9353213 10.2441131"></polygon>
                        <g id="Group" transform="translate(4.318766, 28.226221)" fill="#FFFFFF">
                            <path d="M24.4275578,0.0555269923 L1.19753213,0.0555269923 C0.601234974,0.0555269923 0.117840617,0.53892135 0.117840617,1.13521851 C0.117840617,1.73151567 0.601234974,2.21491003 1.19753213,2.21491003 L24.4275578,2.21491003 C25.023855,2.21491003 25.5072494,1.73151567 25.5072494,1.13521851 C25.5072494,0.53892135 25.023855,0.0555269923 24.4275578,0.0555269923 L24.4275578,0.0555269923 Z" id="Path"></path>
                            <path d="M1.19753213,7.30056555 L12.2511054,7.30056555 C12.8474026,7.30056555 13.3307969,6.8171712 13.3307969,6.22087404 C13.3307969,5.62457688 12.8474026,5.14118252 12.2511054,5.14118252 L1.19753213,5.14118252 C0.601234974,5.14118252 0.117840617,5.62457688 0.117840617,6.22087404 C0.117840617,6.8171712 0.601234974,7.30056555 1.19753213,7.30056555 L1.19753213,7.30056555 Z" id="Path"></path>
                            <path d="M20.6165553,10.227455 L1.19753213,10.227455 C0.601234974,10.227455 0.117840617,10.7108494 0.117840617,11.3071465 C0.117840617,11.9034437 0.601234974,12.386838 1.19753213,12.386838 L20.6165553,12.386838 C21.2128524,12.386838 21.6962468,11.9034437 21.6962468,11.3071465 C21.6962468,10.7108494 21.2128524,10.227455 20.6165553,10.227455 Z" id="Path"></path>
                            <path d="M1.19753213,17.4724936 L12.2511054,17.4724936 C12.8474026,17.4724936 13.3307969,16.9890992 13.3307969,16.3928021 C13.3307969,15.7965049 12.8474026,15.3131105 12.2511054,15.3131105 L1.19753213,15.3131105 C0.601234974,15.3131105 0.117840617,15.7965049 0.117840617,16.3928021 C0.117840617,16.9890992 0.601234974,17.4724936 1.19753213,17.4724936 L1.19753213,17.4724936 Z" id="Path"></path>
                            <path d="M20.6165553,20.399383 L1.19753213,20.399383 C0.601234974,20.399383 0.117840617,20.8827774 0.117840617,21.4790746 C0.117840617,22.0753717 0.601234974,22.5587661 1.19753213,22.5587661 L20.6165553,22.5587661 C21.2128524,22.5587661 21.6962468,22.0753717 21.6962468,21.4790746 C21.6962468,20.8827774 21.2128524,20.399383 20.6165553,20.399383 Z" id="Path"></path>
                            <path d="M12.2511054,25.4850386 L1.28205656,25.4850386 C0.685759396,25.4850386 0.202365039,25.9684329 0.202365039,26.5647301 C0.202365039,27.1610272 0.685759396,27.6444216 1.28205656,27.6444216 L12.2511054,27.6444216 C12.8474026,27.6444216 13.3307969,27.1610272 13.3307969,26.5647301 C13.3307969,25.9684329 12.8474026,25.4850386 12.2511054,25.4850386 L12.2511054,25.4850386 Z" id="Path"></path>
                        </g>
                        <path d="M55.237635,47.1245244 L52.245964,32.1365553 C50.53879,33.2057627 48.4289647,33.4123612 46.5468098,32.6946283 C44.6646549,31.9768954 43.2281001,30.4179354 42.6663239,28.4834961 L42.332545,28.4834961 C41.7707688,30.4179354 40.334214,31.9768954 38.4520591,32.6946283 C36.5699042,33.4123612 34.4600789,33.2057627 32.7529049,32.1365553 L29.7618509,47.1245244 C28.9974293,50.954653 31.1555784,54.77491 35.0714653,56.5264781 L42.4997429,59.8463753 L49.9280206,56.5264781 C53.8439075,54.776144 56.0026735,50.954653 55.237635,47.1245244 L55.237635,47.1245244 Z" id="Path" fill="#ECFCF7"></path>
                        <path d="M41.0128535,51.285347 C40.7343759,51.285347 40.4666882,51.177644 40.2657069,50.9848843 L35.7994859,46.7012853 C35.3691297,46.2884773 35.3549041,45.6049577 35.7677121,45.1746015 C36.1805201,44.7442454 36.8640397,44.7300198 37.2943959,45.1428278 L40.9221594,48.6231362 L47.2719794,40.9493059 C47.6520763,40.4893053 48.3331099,40.4245304 48.7931105,40.8046273 C49.2531112,41.1847241 49.317886,41.8657577 48.9377892,42.3257584 L41.8445244,50.8941902 C41.6531228,51.1253257 41.3741582,51.2663727 41.0745501,51.2834961 L41.0128535,51.285347 Z" id="Path" fill="#38AA9D"></path>
                        <polygon id="Path" fill="#ECFCF7" points="21.3180463 8.74056555 24.9353213 9.54940874 24.9353213 23.7020051 21.3180463 23.7020051"></polygon>
                        <path d="M27.2970694,12.5756298 C27.1212924,12.5763151 26.9480212,12.5339505 26.7923907,12.4522365 L16.3810797,6.93347044 L6.11167095,12.443599 C5.77178188,12.6259973 5.36040307,12.6132116 5.03249695,12.4100582 C4.70459082,12.2069048 4.50997413,11.8442475 4.52195709,11.4586957 C4.53394006,11.073144 4.75070218,10.7232723 5.09059126,10.540874 L15.8671465,4.75804627 C16.1847752,4.58902414 16.5656618,4.58902414 16.8832905,4.75804627 L27.803599,10.5439589 C28.2445869,10.7750798 28.4703538,11.2777837 28.3501508,11.7609384 C28.2299478,12.2440931 27.7949461,12.5824058 27.2970694,12.5799619 L27.2970694,12.5756298 Z" id="Path" fill="#38AA9D"></path>
                        <polygon id="Path" fill="#ECFCF7" points="9.94858612 17.6717738 13.5405656 17.6717738 13.5405656 23.7020051 9.94858612 23.7020051"></polygon>
                        <path d="M47.0807198,55.6263239 L42.4997429,59.8457584 L49.9280206,56.5264781 C53.8439075,54.7767609 56.0020566,50.954653 55.237635,47.1245244 L52.245964,32.1365553 C50.53879,33.2057627 48.4289647,33.4123612 46.5468098,32.6946283 C44.6646549,31.9768954 43.2281001,30.4179354 42.6663239,28.4834961 L42.332545,28.4834961 C41.8294704,30.1925731 40.6431853,31.618169 39.0539846,32.4234447 C41.0329064,35.6312101 44.6870101,37.406816 48.4318766,36.9803599 L50.1766581,46.3095116 C50.8183891,49.741068 49.6486252,53.2613164 47.0807198,55.6263239 L47.0807198,55.6263239 Z" id="Path" fill="#38AA9D"></path>
                    </g>
                </g>
            </g>
        </g>
    </g>
</svg>