<?xml version="1.0" encoding="UTF-8"?>
<svg width="90px" height="80px" viewBox="0 0 90 80" version="1.1" xmlns="http://www.w3.org/2000/svg" xmlns:xlink="http://www.w3.org/1999/xlink">
    <title>tuscany</title>
    <g id="Page-1" stroke="none" stroke-width="1" fill="none" fill-rule="evenodd">
        <g id="FAQ" transform="translate(-1103.000000, -659.000000)" fill-rule="nonzero">
            <g id="Group-4" transform="translate(165.000000, 467.000000)">
                <g id="Group-40" transform="translate(0.000000, 152.000000)">
                    <g id="Group-35-Copy-3" transform="translate(855.000000, 0.000000)">
                        <g id="Feature-title" transform="translate(33.000000, 40.000000)">
                            <g id="tuscany" transform="translate(50.000000, 0.000000)">
                                <g id="Group" transform="translate(19.136236, 16.678371)">
                                    <g transform="translate(0.000000, 2.282303)" id="Path">
                                        <polygon fill="#B0ECE5" points="22.1878511 0.126404494 20.1896067 16.9710323 22.1878511 41.0891854 46.2970506 41.0891854 46.2970506 14.9148525 22.2050562 0.117099719"></polygon>
                                        <polygon fill="#38AA9D" points="22.1878511 0.126404494 0.167837079 14.9847261 0.167837079 41.0891854 22.1878511 41.0891854"></polygon>
                                    </g>
                                    <polygon id="Path" fill="#08413C" points="13.1083216 16.5398525 18.3751756 16.5398525 18.3751756 21.8067065 13.1083216 21.8067065"></polygon>
                                    <polygon id="Path" fill="#08413C" points="28.0897121 16.5398525 33.356566 16.5398525 33.356566 21.8067065 28.0897121 21.8067065"></polygon>
                                    <g fill="#08413C" id="Path">
                                        <polygon points="22.2050562 0.065133427 22.1878511 0.074613764 20.1896067 2.98455056 22.1878511 5.32672051 22.2050562 5.31741573 46.2970506 17.1971559 46.2970506 11.9450492"></polygon>
                                        <polygon points="22.1878511 0.074613764 0.167837079 12.0149228 0.167837079 17.2670295 22.1878511 5.32672051"></polygon>
                                    </g>
                                </g>
                                <g id="Group" transform="translate(68.469101, 12.289326)">
                                    <polygon id="Path" fill="#08413C" points="6.51825843 34.1601124 11.7851124 34.1601124 11.7851124 42.0761938 6.51825843 42.0761938"></polygon>
                                    <path d="M12.9864817,5.84849017 C11.6351826,3.2210323 9.15625,0.0265098315 9.15625,0.0265098315 L9.14712079,0.0265098315 L9.14536517,0.0249297753 C9.14536517,0.0249297753 6.66801264,3.2210323 5.31688904,5.84849017 C0.75,14.7284059 0.0619733146,19.5976124 0.0619733146,26.1925913 C0.0619733146,31.2020716 4.13746489,35.2777388 9.14712079,35.2777388 L9.15625,35.2777388 C14.1659059,35.2777388 18.2413975,31.2020716 18.2413975,26.1925913 C18.2413975,19.5974368 17.5533708,14.7284059 12.9864817,5.84849017 Z" id="Path" fill="#38AA9D"></path>
                                </g>
                                <g id="Group">
                                    <polygon id="Path" fill="#08413C" points="7.98999298 40.7110253 13.2568469 40.7110253 13.2568469 54.833743 7.98999298 54.833743"></polygon>
                                    <path d="M15.1128862,6.93469101 C13.5328301,3.86235955 10.6341292,0.12693118 10.6341292,0.12693118 L10.6234199,0.12693118 L10.6214888,0.125 C10.6214888,0.125 7.7247191,3.86235955 6.14466292,6.93469101 C0.804599719,17.318118 0,23.0117626 0,30.7234902 C0,36.5812851 4.765625,41.3469101 10.6234199,41.3469101 L10.6341292,41.3469101 C16.4919242,41.3469101 21.2575492,36.5812851 21.2575492,30.7234902 C21.2575492,23.0117626 20.4529494,17.318118 15.1128862,6.93469101 Z" id="Path" fill="#38AA9D"></path>
                                </g>
                                <path d="M89.8876404,79.2289326 L81.9873596,79.2289326 L57.2951194,50.5064958 C59.6142907,50.0883076 61.9834972,49.8757022 64.3816713,49.8757022 C73.3711376,49.8757022 81.8446278,52.8149579 88.8864115,58.3753511 L89.8876404,59.1660815 L89.8876404,79.2289326 Z" id="Path" fill="#38AA9D"></path>
                                <g id="Group" transform="translate(0.000000, 43.539326)">
                                    <g fill="#B0ECE5" id="Path">
                                        <path d="M81.9511938,35.6896067 L80.9819171,32.3268961 C78.3583216,23.2234902 72.541257,15.0158006 64.6025281,9.21541433 C57.7703652,4.22349017 49.8038975,1.20277388 41.323736,0.349894663 L39.3258427,22.3548104 L41.3240871,33.4069522 L69.6102528,35.6896067 L81.9511938,35.6896067 Z"></path>
                                        <path d="M0.653265449,15.9522472 L0,16.6973315 L0,35.6896067 L3.07233146,35.6896067 L41.3240871,33.4071278 L41.3240871,0.349894663 C39.671875,0.18363764 38.0007022,0.0983146067 36.3140801,0.0983146067 C22.4834972,0.0983146067 9.48560393,5.87675562 0.653265449,15.9522472 L0.653265449,15.9522472 Z"></path>
                                    </g>
                                    <path d="M69.5925211,35.6896067 L68.0951545,32.0533708 C65.6871489,26.2061096 61.4322331,21.2122542 55.7902037,17.6116573 C51.4452247,14.8388343 46.5166784,13.0595154 41.3239115,12.3628862 L41.3239115,35.6896067 L69.5925211,35.6896067 Z" id="Path" fill="#38AA9D"></path>
                                    <path d="M16.8376053,17.6116573 C11.1955758,21.2122542 6.94066011,26.2061096 4.53265449,32.0533708 L3.03528792,35.6896067 L41.3239115,35.6896067 L41.3239115,12.3627107 C39.6769663,12.1418539 38.0038624,12.0286166 36.3139045,12.0286166 C29.2956461,12.0286166 22.5607444,13.9592697 16.8376053,17.6116573 L16.8376053,17.6116573 Z" id="Path" fill="#38AA9D"></path>
                                </g>
                            </g>
                        </g>
                    </g>
                </g>
            </g>
        </g>
    </g>
</svg>