<svg xmlns="http://www.w3.org/2000/svg" width="54" height="60" viewBox="0 0 54 60">
    <g fill="none">
        <g>
            <path fill="#9BC9FF" d="M32.025 49.157c.025.207.059.41.1.612-.041-.201-.074-.406-.1-.612zM32.192 50.112c.048.212.1.42.167.625-.062-.205-.123-.413-.167-.625zM41.096 37.963c.244-.021.49-.036.738-.038-.244.002-.49.017-.738.038zM32.352 45.015c-.175.602-.296 1.219-.36 1.842.495-4.685 4.196-8.386 8.881-8.88-.625.063-1.244.184-1.847.36-3.213.951-5.725 3.465-6.674 6.678zM31.937 47.82c0-.252.017-.499.038-.75-.017.252-.032.503-.038.75zM43.784 38.106c-.2-.038-.405-.071-.612-.1.207.029.41.062.612.1zM42.814 37.968c-.22-.02-.442-.029-.665-.035.227.006.45.016.665.035zM31.949 48.136c.006.224.015.447.036.667-.02-.22-.03-.443-.036-.667zM32.775 51.892c-.125-.282-.233-.572-.331-.867.098.295.206.585.331.867zM44.751 38.342c-.2-.06-.411-.117-.622-.166.21.044.417.105.622.166zM45.908 38.76c-.282-.126-.572-.234-.868-.332.296.098.586.206.868.331z" transform="translate(.998 .998)"/>
            <path fill="#ECFCF7" d="M43.912 0H12.976v9.98c0 1.101-.893 1.995-1.995 1.995H.003v37.921c0 1.102.894 1.996 1.996 1.996h30.776c-.125-.282-.233-.572-.331-.867-.031-.095-.056-.192-.085-.288-.062-.205-.119-.413-.167-.625-.026-.112-.048-.227-.07-.343-.039-.2-.072-.403-.1-.612-.014-.117-.03-.235-.04-.354-.02-.22-.029-.443-.035-.667 0-.079-.012-.156-.012-.236v-.08c0-.247.017-.499.037-.75.007-.07.007-.143.014-.213.064-.623.185-1.24.36-1.842.95-3.213 3.463-5.727 6.676-6.677.603-.176 1.222-.297 1.847-.361.074-.008.15-.008.225-.014.247-.021.499-.036.738-.038h.082c.08 0 .157.011.236.012.224.006.445.016.666.035.119.01.236.026.354.04.207.027.41.06.612.1.116.022.23.044.345.072.21.047.417.099.622.165.1.03.2.054.29.086.299.1.585.207.867.331V1.996C45.906.894 45.013 0 43.912 0z" transform="translate(.998 .998)"/>
            <path fill="#9BC9FF" d="M32.359 50.737c.029.1.054.193.085.288-.031-.095-.056-.192-.085-.288zM32.123 49.77c.021.115.043.23.07.342-.027-.116-.049-.227-.07-.343zM45.04 38.428c-.095-.032-.192-.057-.289-.086.097.03.194.054.29.086zM31.949 48.136c0-.1-.01-.21-.008-.316v.08c-.004.08.006.157.008.236zM44.13 38.176c-.115-.026-.23-.048-.346-.07.116.022.228.045.345.07zM41.834 37.921c.107 0 .213.006.318.008-.08 0-.156-.012-.236-.012-.028.004-.054.004-.082.004zM31.985 48.803c.01.119.024.237.04.354-.016-.117-.03-.235-.04-.354zM41.096 37.963c-.075.006-.151.006-.225.014.075-.008.147-.008.225-.014zM31.991 46.857c-.006.07-.006.143-.012.214.006-.069.006-.142.012-.214zM43.172 38.009c-.117-.015-.235-.03-.354-.041.119.011.237.026.354.04z" transform="translate(.998 .998)"/>
        </g>
        <path fill="#38AA9D" d="M47.904 39.13V2.994C47.904 1.34 46.564 0 44.91 0H13.974c-.02 0-.04.01-.062.012-.079.005-.157.02-.233.044-.034.008-.067.019-.1.03-.105.044-.201.104-.285.18L.32 12.24c-.09.085-.16.187-.212.299-.015.032-.027.066-.038.1-.033.089-.052.182-.058.277 0 .02-.013.04-.013.06v37.917c0 1.653 1.34 2.994 2.994 2.994h30.152c2.159 4.234 6.798 6.596 11.491 5.853 4.694-.744 8.376-4.426 9.12-9.12.743-4.693-1.62-9.332-5.853-11.49zM12.976 3.277v7.7c0 .551-.446.998-.998.998H3.554l9.422-8.698zM2.997 51.892c-.55 0-.998-.447-.998-.998V13.971h9.98c1.653 0 2.993-1.34 2.993-2.994V1.996H44.91c.551 0 .998.447.998.998v35.344c-.067-.019-.136-.025-.2-.042-.37-.099-.745-.177-1.123-.234-.1-.015-.199-.034-.293-.046-.457-.06-.917-.092-1.378-.095h-.1c-.453.005-.904.038-1.352.1-.128.016-.254.037-.381.058-.333.057-.66.129-.983.214-.118.03-.238.043-.356.077-3.537 1.05-6.304 3.818-7.35 7.357-.033.115-.046.232-.076.348-.086.324-.159.655-.214.991-.021.124-.041.248-.057.372-.066.46-.102.925-.108 1.39v.07c.004.463.037.924.1 1.382.011.093.029.185.043.277.058.384.137.764.237 1.14.017.063.023.131.04.199l-29.36-.004zm39.917 5.987c-3.57 0-6.802-2.115-8.229-5.388-.115-.26-.213-.524-.3-.792-.036-.115-.066-.231-.099-.347-.043-.152-.086-.3-.12-.456-.036-.156-.06-.288-.085-.431-.025-.144-.044-.265-.062-.4-.02-.15-.036-.3-.047-.452-.01-.136-.016-.275-.021-.412-.006-.138-.01-.3-.009-.443.002-.142.014-.299.023-.446.009-.132.014-.263.028-.399.465-4.17 3.754-7.464 7.923-7.937.144-.016.289-.022.433-.03.145-.008.27-.02.407-.021.155 0 .31 0 .463.008.132 0 .264.01.4.02.154.012.309.028.463.048.131.017.262.039.393.062.13.022.29.05.432.083.158.036.316.08.473.126.11.031.22.059.328.095.27.089.538.189.799.305 3.89 1.706 6.054 5.903 5.186 10.062-.868 4.158-4.531 7.14-8.779 7.145z"/>
        <path fill="#38AA9D" d="M8.985 27.942h29.937c.551 0 .998-.447.998-.998 0-.551-.447-.998-.998-.998H8.985c-.551 0-.998.447-.998.998 0 .551.447.998.998.998zM8.985 33.93h29.937c.551 0 .998-.448.998-.999 0-.55-.447-.998-.998-.998H8.985c-.551 0-.998.447-.998.998 0 .551.447.998.998.998zM8.985 39.917h24.948c.55 0 .998-.447.998-.998 0-.551-.447-.998-.998-.998H8.985c-.551 0-.998.447-.998.998 0 .551.447.998.998.998zM29.941 43.909H8.985c-.551 0-.998.446-.998.997 0 .552.447.998.998.998H29.94c.551 0 .998-.446.998-.998 0-.55-.447-.997-.998-.997zM16.968 21.954h21.954c.551 0 .998-.447.998-.998 0-.55-.447-.998-.998-.998H16.968c-.551 0-.998.447-.998.998 0 .551.447.998.998.998zM8.985 21.954h3.991c.551 0 .998-.447.998-.998 0-.55-.447-.998-.998-.998H8.985c-.551 0-.998.447-.998.998 0 .551.447.998.998.998zM47.682 44.715l-6.764 6.764-2.53-2.53c-.391-.378-1.014-.373-1.399.012s-.39 1.008-.012 1.399l3.236 3.235c.39.39 1.02.39 1.41 0l7.47-7.469c.378-.392.373-1.014-.012-1.399s-1.007-.39-1.4-.012z"/>
    </g>
</svg>
