<svg xmlns="http://www.w3.org/2000/svg" width="60" height="48" viewBox="0 0 60 48">
    <g fill="none">
        <path fill="#ECFCF7" d="M19.085 46.902L32.595 33.492 24.075 30.936z"/>
        <path fill="#ECFCF7" d="M58.004 1.996L24.075 30.936 32.595 33.492 32.597 33.49 32.595 33.492 44.033 36.923 59.002 0.998 1.123 21.954 15.094 26.944z"/>
        <path fill="#38AA9D" d="M59.725.31c-.274-.287-.69-.385-1.062-.25L.783 21.016c-.396.143-.66.518-.66.94 0 .42.264.796.66.938l13.442 4.8 3.882 19.408c.09.446.471.774.925.798h.053c.254-.003.496-.103.678-.28.008-.005 13.115-13.002 13.115-13.002l10.869 3.261c.49.147 1.01-.1 1.207-.572l14.97-35.925c.152-.365.074-.786-.2-1.073zm-8.92 4.718L14.993 25.846 4.072 21.948l46.732-16.92zM19.297 42.877l-3.086-15.43L48.923 8.43 23.427 30.176c-.124.138-.227.294-.305.462l-3.824 12.239zm1.94.482l3.492-11.184 5.969 1.79-9.461 9.394zm22.22-7.65l-17.341-5.203L56.383 4.69 43.458 35.71z"/>
    </g>
</svg>
