<?xml version="1.0" encoding="UTF-8"?>
<svg width="60px" height="60px" viewBox="0 0 60 60" version="1.1" xmlns="http://www.w3.org/2000/svg" xmlns:xlink="http://www.w3.org/1999/xlink">
    <!-- Generator: Sketch 57.1 (83088) - https://sketch.com -->
    <title>street-map</title>
    <desc>Created with Sketch.</desc>
    <g id="Final-Template" stroke="none" stroke-width="1" fill="none" fill-rule="evenodd">
        <g id="01-Home-Page" transform="translate(-676.000000, -5503.000000)" fill-rule="nonzero">
            <g id="08-How-does-it-work?" transform="translate(0.000000, 5139.000000)">
                <g id="Section" transform="translate(0.000000, 230.000000)">
                    <g id="7" transform="translate(660.000000, 118.000000)">
                        <g id="street-map" transform="translate(16.000000, 16.000000)">
                            <path d="M59,23 L59,37 L1,37 L1,23 L13,23 L12.98,22.23 C12.9876786,22.2292708 12.9948095,22.2257054 13,22.22 L13,1 L27,1 L27,21 C27.0032948,22.1032019 27.8967981,22.9967052 29,23 L59,23 Z" id="Shape"></path>
                            <path d="M56,23 L56,37 L1,37 L1,23 L13,23 L12.98,22.23 C12.9876786,22.2292708 12.9948095,22.2257054 13,22.22 L13,1 L24,1 L24,21 C24.0032948,22.1032019 24.8967981,22.9967052 26,23 L56,23 Z" id="Shape" fill="#ECFCF7"></path>
                            <path d="M24,43 L24,53 C23.9967052,54.1032019 23.1032019,54.9967052 22,55 L8,55 C6.89679813,54.9967052 6.0032948,54.1032019 6,53 L6,43 C6.00193165,41.9232472 6.853999,41.0402759 7.93,41 L22,41 C23.1032019,41.0032948 23.9967052,41.8967981 24,43 Z" id="Shape" fill="#ECFCF7"></path>
                            <path d="M21,43 L21,53 C20.9967052,54.1032019 20.1032019,54.9967052 19,55 L8,55 C6.89679813,54.9967052 6.0032948,54.1032019 6,53 L6,43 C6.00193165,41.9232472 6.853999,41.0402759 7.93,41 L19,41 C20.1032019,41.0032948 20.9967052,41.8967981 21,43 Z" id="Shape" fill="#FFFFFF"></path>
                            <rect id="Rectangle-path" fill="#ECFCF7" x="34" y="5" width="18" height="14" rx="2"></rect>
                            <rect id="Rectangle-path" fill="#FFFFFF" x="34" y="5" width="15" height="14" rx="2"></rect>
                            <rect id="Rectangle-path" fill="#ECFCF7" x="30" y="41" width="10" height="14" rx="2"></rect>
                            <rect id="Rectangle-path" fill="#FFFFFF" x="30" y="41" width="7" height="14" rx="2"></rect>
                            <rect id="Rectangle-path" fill="#ECFCF7" x="45" y="41" width="9" height="14" rx="2"></rect>
                            <rect id="Rectangle-path" fill="#FFFFFF" x="45" y="41" width="6" height="14" rx="2"></rect>
                            <path d="M24,30.9999932 C24,35.03 18.09,44.9999932 15.85,48.64 C15.6702046,48.9376918 15.347774,49.1196298 15,49.1196298 C14.652226,49.1196298 14.3297954,48.9376918 14.15,48.64 C13.96,48.33 13.74,47.98 13.5,47.58 C10.95,43.35 6,34.69 6,30.9999932 C6.00042832,26.6072552 9.16924597,22.8553751 13.5,22.12 C13.9959346,22.0395217 14.4975784,21.9993902 15,21.9999932 C19.9705627,21.9999932 24,26.0294373 24,30.9999932 Z" id="Shape" fill="#ECFCF7"></path>
                            <path d="M21,31 C21,34.69 16.05,43.35 13.5,47.58 C10.95,43.35 6,34.69 6,31 C6.00042832,26.6072552 9.16924597,22.8553751 13.5,22.12 C17.830754,22.8553751 20.9995717,26.6072552 21,31 Z" id="Shape" fill="#FFFFFF"></path>
                            <circle id="Oval" fill="#ECFCF7" cx="15" cy="31" r="6"></circle>
                            <path d="M3,59 L6,59 C4.89679813,58.9967052 4.0032948,58.1032019 4,57 L4,3 C4.0032948,1.89679813 4.89679813,1.0032948 6,1 L3,1 C1.89679813,1.0032948 1.0032948,1.89679813 1,3 L1,57 C1.0032948,58.1032019 1.89679813,58.9967052 3,59 Z" id="Shape" fill="#FFFFFF"></path>
                            <polygon id="Shape" fill="#FFFFFF" points="2 3 2 16 2 57 0 57 0 16 0 3"></polygon>
                            <path d="M1,12 C1.26472686,11.9961196 1.51825702,11.892565 1.71,11.71 C2.09674033,11.3156639 2.09674033,10.6843361 1.71,10.29 L1.56,10.17 C1.50427287,10.1321227 1.44373808,10.1018554 1.38,10.08 C1.32333758,10.0511123 1.26266255,10.0308873 1.2,10.02 C1.13385548,10.0088692 1.06703885,10.0021875 1,10 C0.735273141,10.0038804 0.481742984,10.107435 0.29,10.29 C0.199603156,10.3856071 0.12832305,10.4976187 0.08,10.62 C-0.0708765757,10.9929737 0.0113519394,11.4197788 0.29,11.71 C0.385607086,11.8003968 0.497618681,11.871677 0.62,11.92 C0.740222313,11.971241 0.869322743,11.99842 1,12 Z" id="Shape" fill="#38AA9D"></path>
                            <path d="M57,0 L3,0 C1.34314575,0 0,1.34314575 0,3 L0,7 C0,7.55228475 0.44771525,8 1,8 C1.55228475,8 2,7.55228475 2,7 L2,3 C2,2.44771525 2.44771525,2 3,2 L12,2 L12,21.461 C11.5442676,21.6084104 11.0997778,21.7885458 10.67,22 L2,22 L2,15 C2,14.4477153 1.55228475,14 1,14 C0.44771525,14 0,14.4477153 0,15 L0,57 C0,58.6568542 1.34314575,60 3,60 L57,60 C58.6568542,60 60,58.6568542 60,57 L60,3 C60,1.34314575 58.6568542,0 57,0 Z M58,3 L58,22 L29,22 C28.4477153,22 28,21.5522847 28,21 L28,2 L57,2 C57.5522847,2 58,2.44771525 58,3 Z M14,2 L19,2 L19,4 C19,4.55228475 19.4477153,5 20,5 C20.5522847,5 21,4.55228475 21,4 L21,2 L26,2 L26,21 C26,22.6568542 27.3431458,24 29,24 L58,24 L58,29 L54,29 C53.4477153,29 53,29.4477153 53,30 C53,30.5522847 53.4477153,31 54,31 L58,31 L58,36 L23.7,36 C24.4195133,34.4211566 24.8593815,32.729356 25,31 C25.002256,28.1731736 23.8070307,25.4776689 21.7105166,23.5814672 C19.6140024,21.6852655 16.8124062,20.7658268 14,21.051 L14,2 Z M15,23 C19.4162219,23.0049599 22.9950401,26.5837781 23,31 C22.7622826,32.9494292 22.1784574,34.8407654 21.276,36.585 C21.268,36.603 21.26,36.619 21.253,36.637 C19.3971065,40.5850366 17.3091209,44.4197442 15,48.121 C12.6906512,44.4205663 10.6026568,40.5865104 8.747,36.639 L8.723,36.583 C7.82069796,34.8394877 7.23719472,32.9487747 7,31 C7.00495988,26.5837781 10.5837781,23.0049599 15,23 Z M14.158,50.54 C14.341856,50.8269568 14.6591962,51.0005225 15,51.0005225 C15.3408038,51.0005225 15.658144,50.8269568 15.842,50.54 C16.316,49.801 18.653,46.12 20.847,42 L22,42 C22.5522847,42 23,42.4477153 23,43 L23,53 C23,53.5522847 22.5522847,54 22,54 L8,54 C7.44771525,54 7,53.5522847 7,53 L7,43 C7,42.4477153 7.44771525,42 8,42 L9.153,42 C11.347,46.12 13.684,49.8 14.158,50.54 Z M7.871,24 C6.03079854,25.8650548 4.99934073,28.3799293 5,31 C5.1406185,32.729356 5.58048666,34.4211566 6.3,36 L2,36 L2,24 L7.871,24 Z M57,58 L3,58 C2.44771525,58 2,57.5522847 2,57 L2,38 L7.161,38 C7.461,38.661 7.785,39.331 8.12,40 L8,40 C6.34314575,40 5,41.3431458 5,43 L5,53 C5,54.6568542 6.34314575,56 8,56 L22,56 C23.6568542,56 25,54.6568542 25,53 L25,43 C25,41.3431458 23.6568542,40 22,40 L21.88,40 C22.215,39.331 22.536,38.661 22.839,38 L58,38 L58,57 C58,57.5522847 57.5522847,58 57,58 Z" id="Shape" fill="#38AA9D"></path>
                            <path d="M36,20 L50,20 C51.6568542,20 53,18.6568542 53,17 L53,7 C53,5.34314575 51.6568542,4 50,4 L36,4 C34.3431458,4 33,5.34314575 33,7 L33,17 C33,18.6568542 34.3431458,20 36,20 Z M35,7 C35,6.44771525 35.4477153,6 36,6 L50,6 C50.5522847,6 51,6.44771525 51,7 L51,17 C51,17.5522847 50.5522847,18 50,18 L36,18 C35.4477153,18 35,17.5522847 35,17 L35,7 Z" id="Shape" fill="#38AA9D"></path>
                            <path d="M38,40 L32,40 C30.3431458,40 29,41.3431458 29,43 L29,53 C29,54.6568542 30.3431458,56 32,56 L38,56 C39.6568542,56 41,54.6568542 41,53 L41,43 C41,41.3431458 39.6568542,40 38,40 Z M39,53 C39,53.5522847 38.5522847,54 38,54 L32,54 C31.4477153,54 31,53.5522847 31,53 L31,43 C31,42.4477153 31.4477153,42 32,42 L38,42 C38.5522847,42 39,42.4477153 39,43 L39,53 Z" id="Shape" fill="#38AA9D"></path>
                            <path d="M52,40 L47,40 C45.3431458,40 44,41.3431458 44,43 L44,53 C44,54.6568542 45.3431458,56 47,56 L52,56 C53.6568542,56 55,54.6568542 55,53 L55,43 C55,41.3431458 53.6568542,40 52,40 Z M53,53 C53,53.5522847 52.5522847,54 52,54 L47,54 C46.4477153,54 46,53.5522847 46,53 L46,43 C46,42.4477153 46.4477153,42 47,42 L52,42 C52.5522847,42 53,42.4477153 53,43 L53,53 Z" id="Shape" fill="#38AA9D"></path>
                            <path d="M15,37 C18.3137085,37 21,34.3137085 21,31 C21,27.6862915 18.3137085,25 15,25 C11.6862915,25 9,27.6862915 9,31 C9.00330738,34.3123376 11.6876624,36.9966926 15,37 Z M15,27 C17.209139,27 19,28.790861 19,31 C19,33.209139 17.209139,35 15,35 C12.790861,35 11,33.209139 11,31 C11,28.790861 12.790861,27 15,27 Z" id="Shape" fill="#38AA9D"></path>
                            <path d="M28,31 L35,31 C35.5522847,31 36,30.5522847 36,30 C36,29.4477153 35.5522847,29 35,29 L28,29 C27.4477153,29 27,29.4477153 27,30 C27,30.5522847 27.4477153,31 28,31 Z" id="Shape" fill="#38AA9D"></path>
                            <path d="M20,18 C20.5522847,18 21,17.5522847 21,17 L21,10 C21,9.44771525 20.5522847,9 20,9 C19.4477153,9 19,9.44771525 19,10 L19,17 C19,17.5522847 19.4477153,18 20,18 Z" id="Shape" fill="#38AA9D"></path>
                            <path d="M41,31 L48,31 C48.5522847,31 49,30.5522847 49,30 C49,29.4477153 48.5522847,29 48,29 L41,29 C40.4477153,29 40,29.4477153 40,30 C40,30.5522847 40.4477153,31 41,31 Z" id="Shape" fill="#38AA9D"></path>
                        </g>
                    </g>
                </g>
            </g>
        </g>
    </g>
</svg>