<svg xmlns="http://www.w3.org/2000/svg" width="45" height="60" viewBox="0 0 45 60">
    <g fill="#38AA9D">
        <path d="M11.414 10.21c2.815 0 5.105-2.29 5.105-5.105C16.52 2.29 14.23 0 11.414 0 8.599 0 6.308 2.29 6.308 5.105c0 2.815 2.291 5.106 5.106 5.106zm0-7.855c1.516 0 2.75 1.234 2.75 2.75 0 1.517-1.234 2.75-2.75 2.75s-2.75-1.233-2.75-2.75c0-1.516 1.234-2.75 2.75-2.75zM25.382 0c-2.816 0-5.106 2.29-5.106 5.105 0 2.815 2.29 5.106 5.106 5.106 2.815 0 5.105-2.29 5.105-5.106C30.487 2.29 28.197 0 25.382 0zm0 7.855c-1.517 0-2.75-1.233-2.75-2.75 0-1.516 1.233-2.75 2.75-2.75 1.516 0 2.75 1.234 2.75 2.75 0 1.517-1.234 2.75-2.75 2.75zM39.349 10.21c2.815 0 5.105-2.29 5.105-5.105C44.454 2.29 42.164 0 39.35 0c-2.815 0-5.106 2.29-5.106 5.105 0 2.815 2.29 5.106 5.106 5.106zm0-7.855c1.516 0 2.75 1.234 2.75 2.75 0 1.517-1.234 2.75-2.75 2.75-1.517 0-2.75-1.233-2.75-2.75 0-1.516 1.233-2.75 2.75-2.75zM25.382 12.144c-2.816 0-5.106 2.29-5.106 5.105 0 2.816 2.29 5.106 5.106 5.106 2.815 0 5.105-2.29 5.105-5.106 0-2.815-2.29-5.105-5.105-5.105zm0 7.856c-1.517 0-2.75-1.234-2.75-2.75 0-1.517 1.233-2.75 2.75-2.75 1.516 0 2.75 1.233 2.75 2.75 0 1.516-1.234 2.75-2.75 2.75zM39.349 12.144c-2.815 0-5.106 2.29-5.106 5.105 0 2.816 2.29 5.106 5.106 5.106 2.815 0 5.105-2.29 5.105-5.106 0-2.815-2.29-5.105-5.105-5.105zm0 7.856c-1.517 0-2.75-1.234-2.75-2.75 0-1.517 1.233-2.75 2.75-2.75 1.516 0 2.75 1.233 2.75 2.75 0 1.516-1.234 2.75-2.75 2.75zM39.349 24.288c-2.815 0-5.106 2.29-5.106 5.105 0 2.816 2.29 5.106 5.106 5.106 2.815 0 5.105-2.29 5.105-5.106 0-2.814-2.29-5.105-5.105-5.105zm0 7.856c-1.517 0-2.75-1.234-2.75-2.75 0-1.517 1.233-2.75 2.75-2.75 1.516 0 2.75 1.233 2.75 2.75 0 1.516-1.234 2.75-2.75 2.75z"/>
        <path d="M27.94 47.84l.447-.618c.726-1 1.175-1.897 1.175-3.27 0-.651-.527-1.179-1.177-1.179s-1.178.528-1.178 1.178c0 .687-.163 1.11-.727 1.889l-.448.618c-.526.726-.804 1.583-.804 2.48v3.157H10.519v-2.514c0-1.367-.532-2.652-1.498-3.618L6.869 43.81c-.815-.815-1.264-1.9-1.264-3.052v-1.202c0-2.195-.423-4.337-1.258-6.366L2.41 28.48c-.09-.217-.068-.464.057-.661.173-.273.509-.398.818-.306 1.01.303 1.84.98 2.338 1.908l.429.798c.622 1.158 1.06 2.4 1.302 3.693l.216 1.149c.112.598.661 1.013 1.266.956.606-.056 1.07-.565 1.07-1.173v-19.18c0-.32.118-.626.335-.86l.015-.018c.23-.25.544-.396.884-.41.34-.014.664.105.914.335.26.24.41.581.41.935v15.171c0 .65.527 1.178 1.178 1.178.65 0 1.178-.527 1.178-1.178v-7.152c0-.304.135-.59.37-.782.544-.443 1.321-.398 1.81.105.244.25.379.583.379.933V31.5c0 .65.527 1.177 1.177 1.177s1.178-.527 1.178-1.177v-4.643c0-.453.108-.862.32-1.217.165-.273.425-.466.733-.54.293-.072.592-.026.842.128l.086.053c.319.2.51.543.51.92v6.527c0 .65.527 1.178 1.177 1.178s1.178-.527 1.178-1.178V30.64c0-.429.13-.842.375-1.195.288-.415.77-.63 1.23-.544.223.041.432.144.603.297.267.237.42.578.42.934v4.538c0 .65.527 1.178 1.177 1.178s1.177-.527 1.177-1.178v-4.538c0-1.027-.44-2.008-1.206-2.692-.493-.44-1.096-.736-1.744-.855-.694-.128-1.4-.038-2.032.236V26.2c0-1.194-.605-2.284-1.617-2.917l-.097-.06c-.792-.488-1.729-.635-2.638-.413-.21.051-.412.12-.606.206-.156-.624-.474-1.199-.933-1.671-1.037-1.067-2.547-1.386-3.87-.918v-4.782c0-1.01-.426-1.983-1.17-2.667-.713-.657-1.64-.998-2.608-.956-.968.04-1.863.455-2.52 1.17l-.015.017c-.617.67-.957 1.542-.957 2.454v12.382c-.807-1.349-2.07-2.334-3.588-2.789-1.315-.395-2.748.14-3.484 1.302-.533.841-.625 1.895-.246 2.817l1.938 4.71c.717 1.745 1.08 3.585 1.08 5.47v1.203c0 1.782.695 3.457 1.954 4.718l2.152 2.151c.522.522.81 1.215.81 1.953v2.547h-.68c-.312 0-.612.124-.832.346-.221.221-.345.52-.345.833l.01 5.517c0 .65.527 1.176 1.177 1.176l20.44-.005c.313-.001.613-.125.834-.347.22-.22.344-.52.344-.833l-.009-5.517c0-.65-.528-1.176-1.178-1.176h-.343v-3.184c0-.397.124-.777.356-1.098zM8.67 57.644l-.005-3.161 18.085-.005.005 3.161-18.085.005zM2.539 11.375l1.813 1.046c.186.108.388.158.588.158.407 0 .803-.21 1.021-.588.325-.564.132-1.284-.431-1.61L3.716 9.336c-.563-.326-1.283-.133-1.608.43-.325.564-.133 1.284.43 1.61zM2.472 17.536c.078 0 .156-.007.235-.023l2.052-.414c.638-.129 1.05-.75.922-1.387-.128-.638-.75-1.05-1.387-.922l-2.053.414c-.637.129-1.05.75-.922 1.387.113.56.605.945 1.153.945z"/>
        <path d="M29.471 38.837c-.243-.603-.93-.894-1.533-.65-.603.243-.894.93-.65 1.533l.01.027c.186.458.627.736 1.093.736.147 0 .296-.028.44-.086.604-.244.895-.93.651-1.533l-.01-.027z"/>
    </g>
</svg>
