<svg xmlns="http://www.w3.org/2000/svg" width="60" height="35" viewBox="0 0 60 35">
    <g fill="#38AA9D">
        <path d="M54.14.003H5.86C2.628.003 0 2.63 0 5.863V21.33c0 3.23 2.629 5.86 5.86 5.86h16.967l3.625 5.178c.81 1.156 2.136 1.847 3.548 1.847s2.738-.69 3.548-1.847l3.625-5.179H54.14c3.23 0 5.859-2.628 5.859-5.86V5.863c0-3.23-2.629-5.86-5.86-5.86zm3.516 21.328c0 1.938-1.577 3.515-3.515 3.515H36.563c-.383 0-.741.187-.96.5l-3.975 5.679c-.782 1.116-2.477 1.113-3.256 0l-3.974-5.679c-.22-.313-.578-.5-.96-.5H5.859c-1.938 0-3.515-1.577-3.515-3.515V5.862c0-1.938 1.577-3.516 3.515-3.516h48.282c1.938 0 3.515 1.578 3.515 3.516v15.469z"/>
        <path d="M15.625 6.917h-.004c-1.28 0-2.44.461-3.318 1.28-.879-.817-2.039-1.275-3.316-1.275h-.004c-2.571.002-4.297 1.821-4.296 4.528.002 2.572 2.84 5.05 4.205 6.24.249.217.893.862 2.411 2.737.564.696 1.467.677 2.012.002 1.516-1.88 2.161-2.526 2.411-2.744 1.363-1.193 4.197-3.675 4.196-6.246-.002-2.505-1.73-4.522-4.297-4.522zm-1.442 9.004c-.424.37-1.041 1.042-1.874 2.039-.835-.997-1.453-1.667-1.876-2.036-.93-.812-3.4-2.968-3.402-4.475 0-1.08.587-2.024 1.716-2.163 1.053-.13 2.04.433 2.51 1.37.426.846 1.671.844 2.095-.002.26-.52.902-1.392 2.273-1.393 1.294-.002 1.952.963 1.953 2.18.001 1.506-2.467 3.667-3.395 4.48zM28.072 6.384l-1.937 1.174c-.485.294-.542.971-.22 1.408.145.196.325.268.513.262.275-.007.567-.18.791-.367.004 2.49.002 4.98.002 7.469 0 .558.711.704 1.144.704.432 0 1.144-.153 1.144-.704V7c0-.61-.993-.898-1.437-.616zM39.744 15.04H35.876c-.05-.001.06-.356.071-.389.072-.213.239-.377.404-.524.77-.685 1.678-1.2 2.48-1.846.9-.724 1.607-1.815 1.607-2.996 0-1.838-1.708-2.974-3.433-2.974-.886 0-1.658.257-2.315.77-.657.514-.985 1.196-.985 2.046 0 .793.337 1.189 1.013 1.189.493 0 1.187-.26 1.187-.868 0-.396.104-.685.312-.868.425-.373 1.26-.396 1.65.045.5.564.24 1.3-.2 1.802-.715.812-1.667 1.416-2.529 2.061-.728.546-1.61 1.41-1.61 2.406v1.432c0 .455.62.708.998.708h5.223c.476 0 .689-.627.689-1.012 0-.373-.225-.983-.694-.983zM50.09 6.311h-5.208c-.375 0-.997.25-.997.704V9.29c0 .24.135.404.322.514.24.14.57.19.807.19.382 0 1.16-.189 1.16-.704v-.983h2.625v1.027l-3.609 6.249c-.236.44-.029.921.345 1.203.386.29 1.35.603 1.65.03l3.433-6.573c.313-.586.47-1.05.47-1.393V7.015c0-.441-.635-.704-.998-.704zM33.75 20.159h-7.031c-.646 0-1.172.526-1.172 1.171 0 .647.526 1.172 1.172 1.172h7.031c.646 0 1.172-.525 1.172-1.172 0-.645-.526-1.171-1.172-1.171zM38.438 20.159c-.646 0-1.172.526-1.172 1.171 0 .647.526 1.172 1.172 1.172.645 0 1.171-.525 1.171-1.172 0-.645-.526-1.171-1.172-1.171zM50.156 20.159h-7.031c-.646 0-1.172.526-1.172 1.171 0 .647.526 1.172 1.172 1.172h7.031c.646 0 1.172-.525 1.172-1.172 0-.645-.526-1.171-1.172-1.171z"/>
    </g>
</svg>
