<?xml version="1.0" encoding="UTF-8"?>
<svg width="20px" height="20px" viewBox="0 0 20 20" version="1.1" xmlns="http://www.w3.org/2000/svg" xmlns:xlink="http://www.w3.org/1999/xlink">
    <!-- Generator: Sketch 57.1 (83088) - https://sketch.com -->
    <title>Group 9</title>
    <desc>Created with Sketch.</desc>
    <g id="Final-Template" stroke="none" stroke-width="1" fill="none" fill-rule="evenodd">
        <g id="2.0.1-Search-" transform="translate(-955.000000, -794.000000)" fill="#9AA3A2" fill-rule="nonzero">
            <g id="Form" transform="translate(450.000000, 779.000000)">
                <g id="Group-9" transform="translate(505.000000, 15.000000)">
                    <g id="Close-Circle-F">
                        <path d="M11.414,10 L14.243,7.172 L14.2430001,7.17199993 C14.6337411,6.78125893 14.6337411,6.14773993 14.2429999,5.75699993 C13.8522589,5.36625893 13.2187399,5.36625893 12.8279999,5.75700007 L9.99999993,8.58600007 L7.17199993,5.75700007 L7.172,5.75700014 C6.781259,5.36625914 6.14774,5.36625814 5.757,5.757 C5.366259,6.147741 5.366258,6.78126 5.75699986,7.172 C5.75699986,7.172 5.75699986,7.172 5.75699986,7.172 L8.58599986,10 L5.75699986,12.828 L5.75699986,12.828 C5.36625886,13.218741 5.36625886,13.85226 5.75699987,14.243 C6.14774087,14.633741 6.78125987,14.633741 7.17199987,14.243 L9.99999987,11.414 L12.8279999,14.243 L12.8279999,14.243 C13.2187409,14.633741 13.8522599,14.633741 14.2429999,14.243 C14.6337409,13.852259 14.6337409,13.21874 14.2429999,12.828 C14.2429999,12.828 14.2429999,12.828 14.2429999,12.828 L11.4139999,10 L11.414,10 Z M10,20 C4.477,20 0,15.523 0,10 C0,4.477 4.477,0 10,0 C15.523,0 20,4.477 20,10 C20,15.523 15.523,20 10,20 Z" id="Shape"></path>
                    </g>
                </g>
            </g>
        </g>
    </g>
</svg>