<?xml version="1.0" encoding="UTF-8"?>
<svg width="51px" height="60px" viewBox="0 0 51 60" version="1.1" xmlns="http://www.w3.org/2000/svg" xmlns:xlink="http://www.w3.org/1999/xlink">
    <!-- Generator: Sketch 57.1 (83088) - https://sketch.com -->
    <title>Group</title>
    <desc>Created with Sketch.</desc>
    <g id="Final-Template" stroke="none" stroke-width="1" fill="none" fill-rule="evenodd">
        <g id="01-Home-Page" transform="translate(-281.000000, -6128.000000)" fill="#38AA9D" fill-rule="nonzero">
            <g id="08-How-does-it-work?" transform="translate(0.000000, 5139.000000)">
                <g id="Section" transform="translate(0.000000, 230.000000)">
                    <g id="3" transform="translate(260.000000, 743.000000)">
                        <g id="clipboard" transform="translate(21.000000, 16.000000)">
                            <g id="Group">
                                <g>
                                    <path d="M0.0840234375,57 C0.08578125,58.6560937 1.42792969,59.9982422 3.08402344,60 L39.0840234,60 C40.7401172,59.9982422 42.0822656,58.6560937 42.0840234,57 L42.0840234,56.0000391 L43.0839844,56.0000391 C46.948125,55.9955859 50.0794922,52.8642187 50.0839454,49.0000781 C50.0839454,48.7348828 49.9787109,48.4804687 49.7910937,48.2928516 C49.6035937,48.1053516 49.3491797,48 49.0838672,48 L42.0839062,48 L42.0839062,8.00003906 C42.0821484,6.34394531 40.74,5.00179687 39.0839062,5.00003906 L31.8058594,5.00003906 C31.4513672,4.38339844 30.7953516,4.00242187 30.0841406,4.00007812 L25.9835156,4.00007812 C25.5080859,1.67203125 23.4601172,0 21.0840234,0 C18.7079297,0 16.6600781,1.67203125 16.1846484,3.99996094 L12.0840234,3.99996094 C11.3728125,4.00230469 10.7166797,4.38339844 10.3623047,4.99992188 L3.08402344,4.99992188 C1.42792969,5.00167969 0.08578125,6.34382812 0.0840234375,7.99992188 L0.0840234375,12 C0.0840234375,12.5523047 0.531796875,12.9999609 1.08398437,12.9999609 C1.63617187,12.9999609 2.08394531,12.5521875 2.08394531,12 L2.08394531,8.00003906 C2.08453125,7.44796875 2.53183594,7.00054687 3.08390625,7.00007812 L10.0838672,7.00007812 L10.0838672,9 L6.08402344,9 C4.98,9.00128906 4.08527344,9.89589844 4.08398437,11.0000391 L4.08398437,49.0000781 C4.0884375,52.8642187 7.21980469,55.9955859 11.0839453,56.0000391 L40.0839844,56.0000391 L40.0839844,57 C40.0833984,57.5520703 39.6360937,57.9994922 39.0840234,57.9999609 L3.08402344,57.9999609 C2.53195312,57.999375 2.08453125,57.5520703 2.0840625,57 L2.0840625,20.0000391 C2.0840625,19.4477344 1.63628906,19.0000781 1.08410156,19.0000781 C0.531914062,19.0000781 0.0840234375,19.4477344 0.0840234375,20.0000391 L0.0840234375,57 L0.0840234375,57 Z M43.0841016,54 L15.9734766,54 C17.071875,52.9263281 17.7856641,51.5204297 18.0041016,50.0000391 L47.9833594,50.0000391 C47.5052344,52.3263281 45.4590234,53.9968359 43.0841016,54 Z M18.0840234,48 L17.0840625,48 C16.8188672,47.9998828 16.5644531,48.1052344 16.3768359,48.2928516 C16.1893359,48.4803516 16.0839844,48.7347656 16.0839844,49.0000781 C16.0803516,50.9792578 14.9098828,52.7702344 13.09875,53.5681641 C11.2705078,52.7857031 10.0845703,50.98875 10.0839844,49.0000781 L10.0839844,45 L18.0840234,45 L18.0840234,48 L18.0840234,48 Z M40.0841016,8.00003906 L40.0841016,48 L38.0840625,48 L38.0840625,11.0000391 C38.0827734,9.89601562 37.1881641,9.00128906 36.0840234,9 L32.0840625,9 L32.0840625,6.99996094 L39.0840234,6.99996094 C39.6360938,7.00054687 40.0835156,7.44796875 40.0841016,8.00003906 Z M17.0840625,6 C17.3492578,6.00011719 17.6036719,5.89476562 17.7912891,5.70714844 C17.9787891,5.51964844 18.0841406,5.26523438 18.0841406,4.99992188 C18.0841406,3.343125 19.4273437,1.99992188 21.0841406,1.99992188 C22.7409375,1.99992188 24.0841406,3.343125 24.0841406,4.99992188 C24.0840234,5.26511719 24.189375,5.51953125 24.3769922,5.70714844 C24.5644922,5.89464844 24.8189062,6 25.0842187,6 L30.0842578,6.00292969 L30.0842578,9.99996094 L12.0842578,9.99996094 L12.0842578,6 L17.0840625,6 Z M6.08402344,48.9999609 L6.08402344,11.0000391 L10.3623047,11.0000391 C10.7167969,11.6166797 11.3728125,11.9976562 12.0840234,12 L30.0840234,12 C30.7952344,11.9976562 31.4513672,11.6165625 31.8057422,11.0000391 L36.0840234,11.0000391 L36.0840234,48 L20.0840625,48 L20.0840625,45 C20.0827734,43.8959766 19.1881641,43.00125 18.0840234,42.9999609 L10.0839844,42.9999609 C8.97996094,43.00125 8.08523437,43.8958594 8.08394531,45 L8.08394531,48.9999609 C8.08441406,50.8326562 8.8040625,52.591875 10.0882031,53.8993359 C7.76027344,53.4230859 6.08742187,51.3762891 6.08402344,48.9999609 Z" id="Shape"></path>
                                    <path d="M1.08410156,17.0000391 C1.48839844,16.9983984 1.85238281,16.7544141 2.00742187,16.3810547 C2.16246094,16.0075781 2.0784375,15.5776172 1.79414062,15.2900391 L1.64425781,15.1699219 C1.58847656,15.1319531 1.52789062,15.1016016 1.46402344,15.0795703 C1.40730469,15.0507422 1.34648437,15.0307031 1.28378906,15.0200391 C1.2178125,15.0087891 1.15101562,15.0021094 1.08410156,15 C0.819375,15.0036328 0.56578125,15.1072266 0.3740625,15.2900391 C0.131484375,15.5237109 0.0249609375,15.8651953 0.0917578125,16.1954297 C0.158554688,16.5256641 0.389296875,16.7988281 0.703710937,16.92 C0.823945312,16.9712109 0.953203125,16.9983984 1.08410156,17.0000391 Z" id="Path"></path>
                                    <path d="M10.0841016,27 L18.0841406,27 C19.1881641,26.9987109 20.0828906,26.1041016 20.0841797,24.9999609 L20.0841797,20.0537109 L23.6139844,17.8476562 C23.9167969,17.6583984 24.095625,17.3219531 24.0832031,16.965 C24.0706641,16.6080469 23.86875,16.2849609 23.5533984,16.1173828 C23.2380469,15.9498047 22.8573047,15.9630469 22.554375,16.1523047 L20.0841797,17.6958984 L20.0841797,16.9999219 C20.0828906,15.8958984 19.1882812,15.0011719 18.0841406,14.9998828 L10.0841016,14.9998828 C8.98007812,15.0011719 8.08535156,15.8957813 8.0840625,16.9999219 L8.0840625,24.9999609 C8.08535156,26.1039844 8.97996094,26.9987109 10.0841016,27 Z M10.0841016,17.0000391 L18.0841406,17.0000391 L18.0844922,18.9458203 L15.2286328,20.7304687 L13.7910937,19.2930469 C13.3995703,18.9085547 12.7714453,18.9114844 12.3834375,19.299375 C11.9954297,19.6873828 11.9926172,20.3155078 12.3771094,20.7070312 L14.3771484,22.7070703 C14.7062109,23.0366016 15.219375,23.0949609 15.6139453,22.8476953 L18.0849609,21.3032812 L18.0855469,25.0000781 L10.0841016,25.0000781 L10.0841016,17.0000391 Z" id="Shape"></path>
                                    <path d="M23.0840624,21 C23.0839453,21.2651953 23.1892969,21.5196094 23.3769141,21.7072266 C23.5644141,21.8947266 23.8188281,22.0000781 24.0841406,22.0000781 L33.0841406,22.0000781 C33.6364453,22.0000781 34.0841016,21.5524219 34.0841016,21.0001172 C34.0841016,20.4478125 33.6364453,20.0001562 33.0841406,20.0001562 L24.0841406,20.0001562 C23.8189453,20.0000391 23.5645312,20.1053906 23.3769141,20.2930078 C23.1892969,20.4803906 23.0839453,20.7348047 23.0840624,21 Z" id="Path"></path>
                                    <path d="M10.0841016,41.0000391 L18.0841406,41.0000391 C19.1881641,40.99875 20.0828906,40.1041406 20.0841797,39 L20.0841797,34.05375 L23.6139844,31.8476953 C23.9167969,31.6584375 24.095625,31.3219922 24.0832031,30.9650391 C24.0706641,30.6080859 23.86875,30.285 23.5533984,30.1174219 C23.2380469,29.9498438 22.8573047,29.9630859 22.554375,30.1524609 L20.0841797,31.6961719 L20.0841797,31.0001953 C20.0828906,29.8961719 19.1882812,29.0014453 18.0841406,29.0001562 L10.0841016,29.0001562 C8.98007812,29.0014453 8.08535156,29.8960547 8.0840625,31.0001953 L8.0840625,39 C8.08535156,40.1040234 8.97996094,40.99875 10.0841016,41.0000391 Z M10.0841016,30.9999609 L18.0841406,30.9999609 L18.0844922,32.9457422 L15.2286328,34.7303906 L13.7910937,33.2929688 C13.3995703,32.9084766 12.7714453,32.9114063 12.3834375,33.2992969 C11.9954297,33.6873047 11.9926172,34.3154297 12.3771094,34.7069531 L14.3771484,36.7069922 C14.7062109,37.0365234 15.219375,37.0948828 15.6139453,36.8476172 L18.0849609,35.3032031 L18.0855469,39 L10.0841016,39 L10.0841016,30.9999609 Z" id="Shape"></path>
                                    <path d="M33.0840234,33.9999609 L24.0840234,33.9999609 C23.5317187,33.9999609 23.0840625,34.4476172 23.0840625,34.9999219 C23.0840625,35.5522266 23.5318359,35.9998828 24.0840234,35.9998828 L33.0840234,35.9998828 C33.6363281,35.9998828 34.0839844,35.5522266 34.0839844,34.9999219 C34.0839844,34.4476172 33.6363281,33.9999609 33.0840234,33.9999609 Z" id="Path"></path>
                                </g>
                            </g>
                        </g>
                    </g>
                </g>
            </g>
        </g>
    </g>
</svg>