<?xml version="1.0" encoding="UTF-8"?>
<svg width="60px" height="60px" viewBox="0 0 60 60" version="1.1" xmlns="http://www.w3.org/2000/svg" xmlns:xlink="http://www.w3.org/1999/xlink">
    <!-- Generator: Sketch 57.1 (83088) - https://sketch.com -->
    <title>email (2)</title>
    <desc>Created with Sketch.</desc>
    <g id="Final-Template" stroke="none" stroke-width="1" fill="none" fill-rule="evenodd">
        <g id="01-Home-Page" transform="translate(-976.000000, -5778.000000)" fill-rule="nonzero">
            <g id="08-How-does-it-work?" transform="translate(0.000000, 5139.000000)">
                <g id="Section" transform="translate(0.000000, 230.000000)">
                    <g id="5" transform="translate(960.000000, 393.000000)">
                        <g id="email-(2)" transform="translate(16.000000, 16.000000)">
                            <g id="Group" transform="translate(0.937500, 0.937500)">
                                <path d="M58.0625391,22.0603125 L58.0625391,56.0602734 C58.0592578,57.1634766 57.1657031,58.0570313 56.0625,58.0603125 L2.0625,58.0603125 C0.959296875,58.0570313 0.0657421875,57.1634766 0.0624609375,56.0602734 L0.0624609375,22.0603125 L0.482460938,21.7402734 L0.732421875,22.0603125 L57.3925781,22.0603125 L57.6425391,21.7402734 L58.0625391,22.0603125 Z" id="Path" fill="#B0ECE5"></path>
                                <path d="M55.0625391,22.0603125 L55.0625391,56.0602734 C55.0592578,57.1634766 54.1657031,58.0570313 53.0625,58.0603125 L2.0625,58.0603125 C0.959296875,58.0570313 0.0657421875,57.1634766 0.0624609375,56.0602734 L0.0624609375,22.0603125 L54.3925781,22.0603125 L54.6425391,21.7402734 L55.0625391,22.0603125 Z" id="Path" fill="#ECFCF7"></path>
                                <g transform="translate(0.468750, 0.000000)" id="Path">
                                    <path d="M57.1737891,21.7402734 L56.9238281,22.0603223 L29.5938281,43.0603223 L27.5937891,43.0603223 L0.263789062,22.0603223 L0.013828125,21.7402734 L9.59378906,14.2903125 L22.77375,4.06032227 L27.3837891,0.480351562 C28.0932422,-0.0796875 29.0942578,-0.0796875 29.8038281,0.480351562 L34.4138672,4.06032227 L47.5938281,14.2903125 L57.1737891,21.7402734 Z" fill="#B0ECE5"></path>
                                    <path d="M47.5938281,6.06023437 L47.5938281,29.2301953 L44.5938281,31.5401953 L29.5938281,43.0601953 L27.5937891,43.0601953 L9.59378906,29.2301953 L9.59378906,6.06023437 C9.59707031,4.95703125 10.490625,4.06347656 11.5938281,4.06019531 L45.5937891,4.06019531 C46.6969922,4.06359375 47.5905469,4.95703125 47.5938281,6.06023437 Z" fill="#ECFCF7"></path>
                                </g>
                                <path d="M45.0625781,6.06023437 L45.0625781,31.5401953 L30.0625781,43.0601953 L28.0625391,43.0601953 L10.0625391,29.2301953 L10.0625391,6.06023437 C10.0658203,4.95703125 10.959375,4.06347656 12.0625781,4.06019531 L43.0625391,4.06019531 C44.1657422,4.06359375 45.0592969,4.95703125 45.0625781,6.06023437 Z" id="Path" fill="#FFFFFF"></path>
                                <path d="M57.6725391,57.2402344 C57.2992969,57.7569141 56.7,58.0620703 56.0625,58.0602039 L2.0625,58.0602039 C1.42511719,58.0620703 0.825820313,57.7569141 0.452460938,57.2402344 L23.3625,39.4502344 L27.8525391,35.9602734 C28.5619922,35.4002344 29.5630078,35.4002344 30.2725781,35.9602734 L34.7626172,39.4502344 L57.6725391,57.2402344 Z" id="Path" fill="#B0ECE5"></path>
                                <g fill="#FFFFFF" id="Path">
                                    <path d="M0.452578125,57.2402344 C0.468632813,57.2622656 0.491601563,57.2792578 0.507539062,57.3012891 C0.570585937,57.3808594 0.639492187,57.4557422 0.713554687,57.5252344 C0.7575,57.5653125 0.803554687,57.6030469 0.851601562,57.6382031 C0.915351563,57.6882422 0.982148438,57.7342969 1.05164063,57.77625 C1.10566406,57.8073047 1.15863281,57.8382422 1.21464844,57.8642578 C1.2965625,57.9021094 1.38105469,57.9338672 1.46765625,57.9592969 C1.51863281,57.9753516 1.56761719,57.9952734 1.61964844,58.0073437 C1.76484375,58.0414453 1.9134375,58.0592578 2.06261719,58.0603125 L5.06261719,58.0603125 C4.91414062,58.0590234 4.76625,58.0413281 4.62164063,58.0073437 C4.56867188,57.9953906 4.52167969,57.9753516 4.46964844,57.9592969 C4.38304688,57.9338672 4.29855469,57.9022266 4.21664063,57.8642578 C4.160625,57.8382422 4.10765625,57.8073047 4.05363281,57.77625 C3.98425781,57.7342969 3.91746094,57.6882422 3.85359375,57.6382031 C3.80554688,57.6030469 3.75949219,57.5653125 3.71554688,57.5252344 C3.64148438,57.4557422 3.57269531,57.3808594 3.50953125,57.3012891 C3.49347656,57.2792578 3.47050781,57.2622656 3.45457031,57.2402344 C3.20039063,56.8993359 3.06292969,56.4855469 3.06257813,56.0602734 L3.06257813,22.0603125 L3.48257813,21.7402734 L13.0625391,14.2903125 L13.0625391,6.06023438 C13.0658203,4.95703125 13.959375,4.06347656 15.0625781,4.06019531 L12.0625781,4.06019531 C10.959375,4.06347656 10.0658203,4.95703125 10.0625391,6.06023438 L10.0625391,14.2901953 L0.482578125,21.7401563 L0.062578125,22.0601953 L0.062578125,56.0601563 C0.0638671875,56.4844922 0.201679688,56.8971094 0.455625,57.2371875 L0.452578125,57.2402344 Z"></path>
                                    <path d="M30.5625,0.705234375 L30.2724609,0.480234375 C29.5630078,-0.0798046875 28.5619922,-0.0798046875 27.8524219,0.480234375 L23.2423828,4.06020508 L26.2423828,4.06020508 L30.5625,0.705234375 Z"></path>
                                </g>
                            </g>
                            <g id="Group">
                                <polygon id="Path" fill="#FFFFFF" points="0 56.9977734 0 43.9978125 0 22.9978125 2.00003906 22.9978125 2.00003906 43.9978125 2.00003906 56.9977734"></polygon>
                                <g>
                                    <path d="M0.620039063,49.9177734 C0.676757813,49.9466016 0.73734375,49.966875 0.800039063,49.9777734 C0.866132813,49.9889062 0.933046875,49.9955859 1.00007813,49.9978125 C1.26480469,49.9939453 1.51828125,49.8903516 1.71011719,49.7077734 C1.80046875,49.6121484 1.87183594,49.5001172 1.92011719,49.3777734 C2.0709375,49.0047656 1.98878906,48.5779687 1.71011719,48.2878125 C1.61449219,48.1974609 1.50246094,48.1260937 1.38011719,48.0778125 C1.25988281,48.0266016 1.13074219,47.9994141 1.00007813,47.9977734 C0.735351563,48.0016406 0.481875,48.1052344 0.290039063,48.2878125 C-0.0966796875,48.6821484 -0.0966796875,49.3134375 0.290039063,49.7077734 L0.440039063,49.8277734 C0.495820313,49.865625 0.556289063,49.8959766 0.620039063,49.9177734 Z" id="Path" fill="#428DFF"></path>
                                    <path d="M59.9470313,22.7347266 C59.9332031,22.6755469 59.9141016,22.6176562 59.8900781,22.5617578 C59.8614844,22.5087891 59.8280859,22.4585156 59.7901172,22.4117578 C59.7505078,22.3544531 59.7049219,22.3014844 59.6540625,22.2537891 C59.6380078,22.2398437 59.6310937,22.2207422 59.6141016,22.2077344 L50.0001563,14.7387891 L50.0001563,6.99773438 C50.0001563,5.3409375 48.6569531,3.99773437 47.0001562,3.99773437 L36.163125,3.99773437 L31.8240234,0.628828125 C30.751875,-0.206484375 29.2491797,-0.206484375 28.1770312,0.628828125 L23.8371094,3.99773437 L13.0000781,3.99773437 C11.3432812,3.99773437 10.0000781,5.3409375 10.0000781,6.99773438 L10.0000781,14.7387891 L0.387070313,22.2077344 C0.14671875,22.3986328 0.0094921875,22.6908984 0.0160546875,22.9976953 L0,22.9976953 L0,44.9976563 C0,45.5499609 0.447773438,45.9976172 0.999960937,45.9976172 C1.55214844,45.9976172 1.99992187,45.5498438 1.99992187,44.9976563 L1.99992187,24.5207812 L18.3869531,37.2458203 C18.8234766,37.584375 19.4519531,37.5049219 19.7905078,37.0682813 C20.1290625,36.6317578 20.0496094,36.0032813 19.6129688,35.6647266 L2.96507812,22.7368359 L10.0000781,17.2708594 L10.0000781,24.9978516 C10.0000781,25.5501563 10.4478516,25.9978125 11.0000391,25.9978125 C11.5523438,25.9978125 12,25.5500391 12,24.9978516 L12,6.99785156 C12,6.44554687 12.4477734,5.99789063 12.9999609,5.99789063 L46.9999219,5.99789063 C47.5522266,5.99789063 47.9998828,6.44566406 47.9998828,6.99785156 L47.9998828,24.9978516 C47.9998828,25.5501563 48.4475391,25.9978125 48.9998438,25.9978125 C49.5521484,25.9978125 49.9998047,25.5500391 49.9998047,24.9978516 L49.9998047,17.2708594 L57.0348047,22.7368359 L40.3570312,35.6878125 C39.9207422,36.0266016 39.8417578,36.6549609 40.1805469,37.0913672 C40.5193359,37.5276562 41.1476953,37.6066406 41.5841016,37.2678516 L58.0000781,24.5208984 L58.0000781,56.4358594 L31.8220313,36.1047656 C30.7505859,35.270625 29.2495313,35.270625 28.1780859,36.1047656 L2.00003906,56.4357422 L2.00003906,52.9976953 C2.00003906,52.4453906 1.55226562,51.9977344 1.00007813,51.9977344 C0.447890625,51.9977344 0,52.4455078 0,52.9978125 L0,56.9977734 C0.003984375,57.3198047 0.0603515625,57.6389062 0.166992188,57.9427734 C-0.062578125,58.2889453 -0.051796875,58.7415234 0.193828125,59.0764453 C0.439453125,59.4113672 0.867890625,59.5576172 1.26703125,59.4427734 C1.77269531,59.8040625 2.37855469,59.9977739 3,59.9977739 L57,59.9977739 C57.6236719,59.9964844 58.2311719,59.7996094 58.7369531,59.4348047 C58.8222656,59.4610547 58.9107422,59.4754687 58.9999219,59.4778125 C59.3651953,59.4799219 59.7019922,59.2809375 59.8763672,58.9599609 C60.0507422,58.6389844 60.0344531,58.2481641 59.8339453,57.9428906 C59.9402344,57.6390234 59.99625,57.3198047 60,56.9978906 L60,22.9978125 C60,22.9768359 59.9889844,22.9587891 59.9880469,22.9388672 C59.9818359,22.8694922 59.968125,22.8010547 59.9470313,22.7347266 Z M29.4,2.20675781 C29.7492188,1.92925781 30.24375,1.92925781 30.5929688,2.20675781 L32.8999219,3.99773437 L27.0999609,3.99773437 L29.4,2.20675781 Z M29.4,37.68375 C29.7494531,37.4078906 30.2425781,37.4078906 30.5920313,37.68375 L56.7520313,57.9977344 L3.24808594,57.9977344 L29.4,37.68375 Z" id="Shape" fill="#38AA9D"></path>
                                    <path d="M20.0000391,12.9977344 L40.0000781,12.9977344 C40.5523828,12.9977344 41.0000391,12.5499609 41.0000391,11.9977734 C41.0000391,11.4454688 40.5523828,10.9978125 40.0000781,10.9978125 L20.0000391,10.9978125 C19.4477344,10.9978125 19.0000781,11.4455859 19.0000781,11.9977734 C19.0000781,12.5500781 19.4477344,12.9977344 20.0000391,12.9977344 Z" id="Path" fill="#38AA9D"></path>
                                    <path d="M20.0000391,18.9977344 L40.0000781,18.9977344 C40.5523828,18.9977344 41.0000391,18.5499609 41.0000391,17.9977734 C41.0000391,17.4454687 40.5523828,16.9978125 40.0000781,16.9978125 L20.0000391,16.9978125 C19.4477344,16.9978125 19.0000781,17.4455859 19.0000781,17.9977734 C19.0000781,18.5500781 19.4477344,18.9977344 20.0000391,18.9977344 Z" id="Path" fill="#38AA9D"></path>
                                    <path d="M40.0000781,22.9978125 L31.0000781,22.9978125 C30.4477734,22.9978125 30.0001172,23.4455859 30.0001172,23.9977734 C30.0001172,24.5500781 30.4477734,24.9977344 31.0000781,24.9977344 L40.0000781,24.9977344 C40.5523828,24.9977344 41.0000391,24.5499609 41.0000391,23.9977734 C41.0000391,23.4454687 40.5523828,22.9978125 40.0000781,22.9978125 Z" id="Path" fill="#38AA9D"></path>
                                </g>
                            </g>
                        </g>
                    </g>
                </g>
            </g>
        </g>
    </g>
</svg>