<?xml version="1.0" encoding="UTF-8"?>
<svg width="14px" height="12px" viewBox="0 0 14 12" version="1.1" xmlns="http://www.w3.org/2000/svg" xmlns:xlink="http://www.w3.org/1999/xlink">
    <!-- Generator: Sketch 58 (84663) - https://sketch.com -->
    <title></title>
    <desc>Created with Sketch.</desc>
    <g id="Page-1" stroke="none" stroke-width="1" fill="none" fill-rule="evenodd">
        <g id="01-Home-Page-Copy" transform="translate(-938.000000, -4856.000000)" fill="#FFFFFF" fill-rule="nonzero">
            <g id="07-Working-with-us" transform="translate(165.000000, 4293.000000)">
                <g id="Icon-set" transform="translate(0.000000, 134.000000)">
                    <g id="10" transform="translate(760.000000, 415.000000)">
                        <g id="Group-4">
                            <path d="M20.34375,25.859375 C20.2499995,25.9531255 20.1354173,26 20,26 C19.8645827,26 19.7500005,25.9531255 19.65625,25.859375 L14.78125,21.15625 C14.7291664,21.1145831 14.6575525,21.0468755 14.5664062,20.953125 L14.4574653,20.8337674 C14.3729748,20.7371242 14.2647576,20.6063376 14.1328125,20.4414062 C13.9348948,20.1940092 13.7578133,19.9401055 13.6015625,19.6796875 C13.4453117,19.4192695 13.3059902,19.1041685 13.1835938,18.734375 C13.0611973,18.3645815 13,18.0052101 13,17.65625 C13,16.5104109 13.3307259,15.6145866 13.9921875,14.96875 C14.6536491,14.3229134 15.5677025,14 16.734375,14 C17.0572933,14 17.3867171,14.055989 17.7226562,14.1679688 C18.0585954,14.2799485 18.3710923,14.4309886 18.6601562,14.6210938 C18.9492202,14.8111989 19.1979156,14.9895825 19.40625,15.15625 C19.6145844,15.3229175 19.8124991,15.5 20,15.6875 C20.1875009,15.5 20.3854156,15.3229175 20.59375,15.15625 C20.8020844,14.9895825 21.0507798,14.8111989 21.3398438,14.6210938 C21.6289077,14.4309886 21.9414046,14.2799485 22.2773438,14.1679688 C22.6132829,14.055989 22.9427067,14 23.265625,14 C24.4322975,14 25.3463509,14.3229134 26.0078125,14.96875 C26.6692741,15.6145866 27,16.5104109 27,17.65625 C27,18.8072974 26.4036518,19.9791607 25.2109375,21.171875 L20.34375,25.859375 Z" id=""></path>
                        </g>
                    </g>
                </g>
            </g>
        </g>
    </g>
</svg>