<?xml version="1.0" encoding="UTF-8"?>
<svg width="60px" height="60px" viewBox="0 0 60 60" version="1.1" xmlns="http://www.w3.org/2000/svg" xmlns:xlink="http://www.w3.org/1999/xlink">
    <!-- Generator: Sketch 57.1 (83088) - https://sketch.com -->
    <title>icon</title>
    <desc>Created with Sketch.</desc>
    <g id="Final-Template" stroke="none" stroke-width="1" fill="none" fill-rule="evenodd">
        <g id="01-Home-Page" transform="translate(-413.000000, -6776.000000)" fill-rule="nonzero">
            <g id="09-offer-section-" transform="translate(193.000000, 6776.000000)">
                <g id="1">
                    <g id="icon" transform="translate(220.000000, 0.000000)">
                        <polygon id="Path" fill="#38AA9D" points="0 7.16536082 54.3556701 7.16536082 54.3556701 60 0 60"></polygon>
                        <path d="M54.3556701,0 L5.6443299,0 L7.42762887,14.3307216 L54.3556701,14.3307216 C57.4731959,14.3307216 60,11.1228866 60,7.16536082 C60,3.20783505 57.4731959,0 54.3556701,0 Z" id="Path" fill="#B0ECE5"></path>
                        <polygon id="Path" fill="#FFFFFF" points="21.9272165 22.1202062 12.8585567 26.917732 12.8585567 41.3338144 18.8270103 41.3338144 18.8270103 34.8940206 25.0274227 34.8940206 25.0274227 41.3338144 30.9952577 41.3338144 30.9952577 26.962268"></polygon>
                        <g id="Group" transform="translate(9.123711, 21.030928)" fill="#FFFFFF">
                            <path d="M4.31690722,27.78 L1.22412371,27.78 C0.626289704,27.78 0.141649485,27.2953598 0.141649485,26.6975258 C0.141649485,26.0996918 0.626289704,25.6150515 1.22412371,25.6150515 L4.31690722,25.6150515 C4.91474122,25.6150515 5.39938144,26.0996918 5.39938144,26.6975258 C5.39938144,27.2953598 4.91474122,27.78 4.31690722,27.78 L4.31690722,27.78 Z" id="Path"></path>
                            <path d="M26.9381443,27.78 L21.2808247,27.78 C20.6829907,27.78 20.1983505,27.2953598 20.1983505,26.6975258 C20.1983505,26.0996918 20.6829907,25.6150515 21.2808247,25.6150515 L26.9381443,25.6150515 C27.5359783,25.6150515 28.0206186,26.0996918 28.0206186,26.6975258 C28.0206186,27.2953598 27.5359783,27.78 26.9381443,27.78 L26.9381443,27.78 Z M15.6290722,27.78 L9.97175258,27.78 C9.37391857,27.78 8.88927835,27.2953598 8.88927835,26.6975258 C8.88927835,26.0996918 9.37391857,25.6150515 9.97175258,25.6150515 L15.6265979,25.6150515 C16.2244319,25.6150515 16.7090722,26.0996918 16.7090722,26.6975258 C16.7090722,27.2953598 16.2244319,27.78 15.6265979,27.78 L15.6290722,27.78 Z" id="Shape"></path>
                            <path d="M35.6826804,27.78 L32.5898969,27.78 C31.9920629,27.78 31.5074227,27.2953598 31.5074227,26.6975258 C31.5074227,26.0996918 31.9920629,25.6150515 32.5898969,25.6150515 L35.6826804,25.6150515 C36.2805144,25.6150515 36.7651546,26.0996918 36.7651546,26.6975258 C36.7651546,27.2953598 36.2805144,27.78 35.6826804,27.78 L35.6826804,27.78 Z" id="Path"></path>
                            <path d="M30.5257732,5.26453608 C29.9279392,5.26453608 29.443299,4.77989586 29.443299,4.18206186 L29.443299,1.08927835 C29.443299,0.491444343 29.9279392,0.00680412371 30.5257732,0.00680412371 C31.1236072,0.00680412371 31.6082474,0.491444343 31.6082474,1.08927835 L31.6082474,4.18206186 C31.6082474,4.77989586 31.1236072,5.26453608 30.5257732,5.26453608 L30.5257732,5.26453608 Z" id="Path"></path>
                            <path d="M30.5257732,24.5969072 C29.9279392,24.5969072 29.443299,24.112267 29.443299,23.514433 L29.443299,18.6804124 C29.443299,18.0825784 29.9279392,17.5979381 30.5257732,17.5979381 C31.1236072,17.5979381 31.6082481,18.0825784 31.6082481,18.6804124 L31.6082481,23.5131959 C31.6085758,23.8005002 31.4946747,24.0761497 31.2916358,24.2794206 C31.0885969,24.4826915 30.8130777,24.5969072 30.5257732,24.5969072 Z M30.5257732,14.9307216 C29.9279392,14.9307216 29.443299,14.4460814 29.443299,13.8482474 L29.443299,9.01484536 C29.443299,8.41701135 29.9279392,7.93237113 30.5257732,7.93237113 C31.1236072,7.93237113 31.6082476,8.41701135 31.6082476,9.01484536 L31.6082476,13.8476289 C31.6084115,14.134826 31.4944379,14.4103165 31.2914168,14.6134536 C31.0883958,14.8165907 30.8129704,14.9307216 30.5257732,14.9307216 Z" id="Shape"></path>
                            <path d="M30.5257732,32.5224742 C29.9279392,32.5224742 29.443299,32.037834 29.443299,31.44 L29.443299,28.3472165 C29.443299,27.7493825 29.9279392,27.2647423 30.5257732,27.2647423 C31.1236072,27.2647423 31.6082474,27.7493825 31.6082474,28.3472165 L31.6082474,31.44 C31.6082474,32.037834 31.1236072,32.5224742 30.5257732,32.5224742 L30.5257732,32.5224742 Z" id="Path"></path>
                        </g>
                        <polygon id="Path" fill="#B0ECE5" points="48.556701 14.3307216 54.3556701 14.3307216 54.3556701 60 48.556701 60"></polygon>
                        <polygon id="Path" fill="#38AA9D" transform="translate(27.100515, 57.100515) rotate(-90.000000) translate(-27.100515, -57.100515) " points="24.2010309 30 30 30 30 84.2010309 24.2010309 84.2010309"></polygon>
                        <path d="M54.2010309,7.16536082 C54.2010309,3.20659794 51.6742268,0 48.556701,0 L5.6443299,0 L7.42762887,14.3307216 L48.556701,14.3307216 C51.6742268,14.3307216 54.2010309,11.1228866 54.2010309,7.16536082 Z" id="Path" fill="#B0ECE5"></path>
                        <path d="M5.6443299,0 C2.52680412,0 0,3.20783505 0,7.16536082 L7.38494845,13.9837113 C9.64948454,13.0515464 11.2886598,10.3515464 11.2886598,7.16536082 C11.2886598,3.20783505 8.76185567,0 5.6443299,0 Z" id="Path" fill="#299D90"></path>
                        <path d="M11.2639175,8.15690722 L3.96989691,8.15690722 C3.96989691,11.0152577 5.41546392,13.4387629 7.42762887,14.3313402 C9.5214433,13.4449485 11.0684536,11.0480412 11.2639175,8.15690722 L11.2639175,8.15690722 Z" id="Path" fill="#38AA9D"></path>
                        <polygon id="Path" fill="#ECFCF7" points="26.7692784 25.3094845 30.9952577 25.9484536 30.9952577 41.3338144 26.7692784 41.3338144"></polygon>
                        <path d="M33.5171134,29.3814566 C33.3410925,29.3820293 33.1675991,29.3395585 33.0117526,29.257732 L21.8591753,23.3468041 L10.86,29.2490722 C10.5190139,29.4321616 10.1062528,29.4194293 9.77719963,29.2156714 C9.44814651,29.0119135 9.25279243,28.6480857 9.26472539,28.2612384 C9.27665835,27.8743911 9.49406546,27.5232956 9.83505155,27.3402062 L21.3402062,21.1651546 C21.6584619,20.9958068 22.0400948,20.9958068 22.3583505,21.1651546 L34.0249485,27.3402062 C34.4670729,27.5719228 34.6934218,28.0759224 34.5729089,28.5603223 C34.4523961,29.0447222 34.0162732,29.3839068 33.5171134,29.3814566 L33.5171134,29.3814566 Z" id="Path" fill="#38AA9D"></path>
                        <polygon id="Path" fill="#ECFCF7" points="14.602268 34.8940206 18.8282474 34.8940206 18.8282474 41.3338144 14.602268 41.3338144"></polygon>
                    </g>
                </g>
            </g>
        </g>
    </g>
</svg>