<?xml version="1.0" encoding="UTF-8"?>
<svg width="14px" height="12px" viewBox="0 0 14 12" version="1.1" xmlns="http://www.w3.org/2000/svg" xmlns:xlink="http://www.w3.org/1999/xlink">
    <!-- Generator: Sketch 58 (84663) - https://sketch.com -->
    <title></title>
    <desc>Created with Sketch.</desc>
    <g id="Page-1" stroke="none" stroke-width="1" fill="none" fill-rule="evenodd">
        <g id="01-Home-Page-Copy" transform="translate(-559.000000, -4856.000000)" fill="#FFFFFF" fill-rule="nonzero">
            <g id="07-Working-with-us" transform="translate(165.000000, 4293.000000)">
                <g id="Icon-set" transform="translate(0.000000, 134.000000)">
                    <g id="9" transform="translate(381.000000, 415.000000)">
                        <g id="Group-4">
                            <path d="M25.2265625,14 C25.5651059,14 25.8515613,14.1184884 26.0859375,14.3554688 C26.3203137,14.5924491 26.4375,14.8802066 26.4375,15.21875 L26.4375,19.2734375 C26.4375,20.1901088 26.2604184,21.0651 25.90625,21.8984375 C25.5520816,22.731775 25.0768259,23.4479137 24.4804688,24.046875 C23.8841116,24.6458363 23.1705771,25.121092 22.3398438,25.4726562 C21.5091104,25.8242205 20.6380254,26 19.7265625,26 C18.8098912,26 17.9362021,25.8242205 17.1054688,25.4726562 C16.2747354,25.121092 15.5598988,24.6458363 14.9609375,24.046875 C14.3619762,23.4479137 13.8854184,22.731775 13.53125,21.8984375 C13.1770816,21.0651 13,20.1901088 13,19.2734375 L13,15.21875 C13,14.885415 13.1197905,14.5989595 13.359375,14.359375 C13.5989595,14.1197905 13.885415,14 14.21875,14 L25.2265625,14 Z M19.7265625,22.3125 C19.4765612,22.3125 19.2656259,22.2265634 19.09375,22.0546875 L15.9296875,19.0234375 C15.7421866,18.8463533 15.6484375,18.6250013 15.6484375,18.359375 C15.6484375,18.1041654 15.7382804,17.8867196 15.9179688,17.7070312 C16.0976571,17.5273429 16.3151029,17.4375 16.5703125,17.4375 C16.809897,17.4375 17.0208324,17.5234366 17.203125,17.6953125 L19.7265625,20.1171875 L22.25,17.6953125 C22.4322926,17.5234366 22.6458321,17.4375 22.890625,17.4375 C23.1458346,17.4375 23.3632804,17.5273429 23.5429688,17.7070312 C23.7226571,17.8867196 23.8125,18.1041654 23.8125,18.359375 C23.8125,18.619793 23.7161468,18.8411449 23.5234375,19.0234375 L20.3671875,22.0546875 C20.1848949,22.2265634 19.9713554,22.3125 19.7265625,22.3125 Z" id=""></path>
                        </g>
                    </g>
                </g>
            </g>
        </g>
    </g>
</svg>