<?xml version="1.0" encoding="UTF-8"?>
<svg width="14px" height="11px" viewBox="0 0 14 11" version="1.1" xmlns="http://www.w3.org/2000/svg" xmlns:xlink="http://www.w3.org/1999/xlink">
    <!-- Generator: Sketch 58 (84663) - https://sketch.com -->
    <title></title>
    <desc>Created with Sketch.</desc>
    <g id="Page-1" stroke="none" stroke-width="1" fill="none" fill-rule="evenodd">
        <g id="01-Home-Page-Copy" transform="translate(-179.000000, -4857.000000)" fill="#FFFFFF" fill-rule="nonzero">
            <g id="07-Working-with-us" transform="translate(165.000000, 4293.000000)">
                <g id="Icon-set" transform="translate(0.000000, 134.000000)">
                    <g id="8" transform="translate(1.000000, 415.000000)">
                        <g id="Group-4">
                            <path d="M27,18.546875 L27,24.75 C27,25.0937517 26.8776054,25.3880196 26.6328125,25.6328125 C26.3880196,25.8776054 26.0937517,26 25.75,26 L14.25,26 C13.9062483,26 13.6119804,25.8776054 13.3671875,25.6328125 C13.1223946,25.3880196 13,25.0937517 13,24.75 L13,18.546875 C13.2291678,18.8020846 13.492186,19.0286448 13.7890625,19.2265625 L15.2992574,20.2577337 C16.294229,20.9410705 17.0416921,21.4641262 17.5416572,21.8269082 L18.0012504,22.1612503 C18.1525001,22.2693751 18.2835932,22.3601559 18.3945312,22.4335938 C18.579428,22.5559902 18.8255193,22.6809889 19.1328125,22.8085938 C19.3786471,22.9106776 19.6111455,22.9719273 19.8303121,22.9923438 L20.0078125,23 C20.2734388,23 20.5598943,22.9361986 20.8671875,22.8085938 C21.1744807,22.6809889 21.420572,22.5559902 21.6054688,22.4335938 L21.8542187,22.2635938 L21.8542187,22.2635938 L22.9087509,21.5065618 C23.7487501,20.9115623 24.8520765,20.1515671 26.21875,19.2265625 C26.5156265,19.0234365 26.7760405,18.7968763 27,18.546875 Z M27,16.25 C27,16.6614604 26.8723971,17.0546856 26.6171875,17.4296875 C26.3619779,17.8046894 26.0442727,18.1249987 25.6640625,18.390625 L21.9695312,20.9567188 L21.9695312,20.9567188 L21.3432618,21.4038085 L21.3432618,21.4038085 L21.2539062,21.4648438 C21.1419265,21.540365 21.0065112,21.6249995 20.8476562,21.71875 C20.6888013,21.8125005 20.5390632,21.8828123 20.3984375,21.9296875 C20.304687,21.9609377 20.2155671,21.9817709 20.1310765,21.9921876 L19.9921875,22 C19.8723952,22 19.7421882,21.9765627 19.6015625,21.9296875 C19.4609368,21.8828123 19.3111987,21.8125005 19.1523438,21.71875 C19.0464404,21.6562497 18.9509548,21.5978009 18.8658855,21.5434028 L18.7460938,21.4648438 C18.662109,21.4082028 18.562012,21.3383791 18.4458011,21.2553713 L17.9921875,20.9296875 L17.9921875,20.9296875 L14.34375,18.390625 L14.34375,18.390625 C14.0208317,18.1718739 13.7161473,17.8710957 13.4296875,17.4882812 C13.1432277,17.1054668 13,16.7500016 13,16.421875 C13,16.015623 13.1080718,15.6770847 13.3242188,15.40625 C13.5403657,15.1354153 13.8489563,15 14.25,15 L25.75,15 C26.0885434,15 26.3815092,15.1223946 26.6289062,15.3671875 C26.8763033,15.6119804 27,15.9062483 27,16.25 Z" id=""></path>
                        </g>
                    </g>
                </g>
            </g>
        </g>
    </g>
</svg>