<?xml version="1.0" encoding="UTF-8"?>
<svg width="16px" height="17px" viewBox="0 0 16 17" version="1.1" xmlns="http://www.w3.org/2000/svg" xmlns:xlink="http://www.w3.org/1999/xlink">
    <!-- Generator: Sketch 57.1 (83088) - https://sketch.com -->
    <title></title>
    <desc>Created with Sketch.</desc>
    <defs>
        <path d="M8,217.285714 C7.38094929,216.119042 6.90476357,215.291669 6.57142857,214.803571 C5.74404348,213.601184 4.71131571,212.654765 3.47321429,211.964286 C3.27083232,211.85119 3.06250107,211.744048 2.84821429,211.642857 C2.31844973,211.404761 2.03869062,211.309524 2.00892857,211.357143 C1.97916652,211.404762 2.08035598,211.517856 2.3125,211.696429 L2.66071429,211.973214 C3.02976375,212.229168 3.36458183,212.507439 3.66517857,212.808036 C3.96577531,213.108632 4.2470225,213.455355 4.50892857,213.848214 C4.77083464,214.241073 4.98065397,214.57738 5.13839286,214.857143 C5.29613174,215.136906 5.50595107,215.526783 5.76785714,216.026786 C5.82142884,216.127977 5.86011893,216.202381 5.88392857,216.25 C6.14583464,216.750002 6.39583214,217.205355 6.63392857,217.616071 C6.872025,218.026788 7.16368875,218.485117 7.50892857,218.991071 C7.85416839,219.497026 8.19791496,219.94345 8.54017857,220.330357 C8.88244219,220.717264 9.27231924,221.08482 9.70982143,221.433036 C10.1473236,221.781252 10.5892835,222.050594 11.0357143,222.241071 C11.9464331,222.633931 12.4047619,222.8125 12.4107143,222.776786 C12.4166667,222.758928 12.2708348,222.648811 11.9732143,222.446429 C11.6577365,222.232142 11.4166675,222.062501 11.25,221.9375 C10.7916644,221.59226 10.2589316,220.96429 9.65178571,220.053571 C9.04463982,219.142853 8.49405009,218.220243 8,217.285714 Z M4.90178571,222.133929 C4.4494025,221.776784 4.05506121,221.404764 3.71875,221.017857 C3.38243879,220.63095 3.09077504,220.203871 2.84375,219.736607 C2.59672496,219.269343 2.38541754,218.809526 2.20982143,218.357143 C2.03422531,217.90476 1.86011991,217.351194 1.6875,216.696429 C1.51488009,216.041663 1.36011973,215.419646 1.22321429,214.830357 C1.08630884,214.241068 0.906251116,213.491076 0.683035714,212.580357 C0.459820312,211.669638 0.232144018,210.809528 0,210 C1.62500812,210 3.10564808,210.107142 4.44196429,210.321429 C5.77828049,210.535715 6.9062454,210.809522 7.82589286,211.142857 C8.74554031,211.476192 9.55207987,211.906247 10.2455357,212.433036 C10.9389916,212.959824 11.4910694,213.473212 11.9017857,213.973214 C12.3125021,214.473217 12.6398797,215.063985 12.8839286,215.745536 C13.1279774,216.427087 13.2946424,217.020831 13.3839286,217.526786 C13.4732147,218.032741 13.5104167,218.623509 13.4955357,219.299107 C13.4806547,219.974706 13.4523812,220.489582 13.4107143,220.84375 C13.3690474,221.197918 13.3095242,221.624998 13.2321429,222.125 C13.1547615,222.625002 13.1160714,222.943452 13.1160714,223.080357 L16,226 L15.0714286,226 L12.5625,223.455357 C12.431547,223.467262 12.1592283,223.508928 11.7455357,223.580357 C11.3318432,223.651786 10.9702396,223.708333 10.6607143,223.75 C10.3511889,223.791667 9.94047875,223.809524 9.42857143,223.803571 C8.91666411,223.797619 8.43899031,223.747024 7.99553571,223.651786 C7.55208112,223.556547 7.0535742,223.380954 6.5,223.125 C5.9464258,222.869046 5.41369304,222.538692 4.90178571,222.133929 Z" id="path-1"></path>
    </defs>
    <g id="Final-Template" stroke="none" stroke-width="1" fill="none" fill-rule="evenodd">
        <g id="04-Thank-you-" transform="translate(-196.000000, -1551.000000)">
            <g id="Group-5" transform="translate(166.000000, 1196.000000)">
                <g id="Group-4" transform="translate(30.000000, 30.000000)">
                    <g id="-Wasting-a-ton-of-m" transform="translate(0.000000, 115.285714)">
                        <mask id="mask-2" fill="white">
                            <use xlink:href="#path-1"></use>
                        </mask>
                        <use id="" fill="#38AA9D" fill-rule="nonzero" xlink:href="#path-1"></use>
                    </g>
                </g>
            </g>
        </g>
    </g>
</svg>