<?xml version="1.0" encoding="UTF-8"?>
<svg width="87px" height="80px" viewBox="0 0 87 80" version="1.1" xmlns="http://www.w3.org/2000/svg" xmlns:xlink="http://www.w3.org/1999/xlink">
    <title>email (6)</title>
    <g id="Page-1" stroke="none" stroke-width="1" fill="none" fill-rule="evenodd">
        <g id="FAQ" transform="translate(-535.000000, -659.000000)" fill-rule="nonzero">
            <g id="Group-4" transform="translate(165.000000, 467.000000)">
                <g id="Group-40" transform="translate(0.000000, 152.000000)">
                    <g id="Group-35-Copy" transform="translate(285.000000, 0.000000)">
                        <g id="Feature-title" transform="translate(69.000000, 40.000000)">
                            <g id="email-(6)" transform="translate(16.000000, 0.000000)">
                                <polygon id="Path" fill="#08413C" points="86.0215054 30.7694892 83.5013441 62.7940188 2.52016129 62.7940188 0 30.7694892 14.3363575 20.5292339 71.6851478 20.5292339"></polygon>
                                <polygon id="Path" fill="#08413C" points="86.0215054 30.7694892 83.5013441 62.7940188 43.0107527 62.7940188 43.0107527 20.5292339 71.6851478 20.5292339"></polygon>
                                <polygon id="Path" fill="#B0ECE5" points="14.3363575 0.0487231183 71.6851478 0.0487231183 71.6851478 64.563172 14.3363575 64.563172"></polygon>
                                <polygon id="Path" fill="#B0ECE5" points="43.0107527 0.0487231183 71.6851478 0.0487231183 71.6851478 64.563172 43.0107527 64.563172"></polygon>
                                <g id="Group" transform="translate(24.529570, 9.744624)" fill="#38AA9D">
                                    <polygon id="Path" points="0.048219086 0.0724126344 18.4811828 0.0724126344 18.4811828 5.11273522 0.048219086 5.11273522"></polygon>
                                    <polygon id="Path" points="0.0487231183 12.3605511 36.9136425 12.3605511 36.9136425 17.4008737 0.0487231183 17.4008737"></polygon>
                                    <polygon id="Path" points="0.0487231183 24.6488575 36.9136425 24.6488575 36.9136425 29.6891801 0.0487231183 29.6891801"></polygon>
                                </g>
                                <polygon id="Path" fill="#38AA9D" points="43.0107527 22.1051747 61.4432124 22.1051747 61.4432124 27.1454973 43.0107527 27.1454973"></polygon>
                                <polygon id="Path" fill="#38AA9D" points="43.0107527 34.3934812 61.4432124 34.3934812 61.4432124 39.4338038 43.0107527 39.4338038"></polygon>
                                <polygon id="Path" fill="#38AA9D" points="86.0215054 30.7694892 86.0215054 79.9243952 43.0107527 75.9290995 0 79.9243952 0 30.7694892 34.4086022 55.3477823 51.6129032 55.3477823"></polygon>
                                <polygon id="Path" fill="#38AA9D" points="86.0215054 30.7694892 86.0215054 79.9243952 43.0107527 75.9290995 43.0107527 55.3477823 51.6129032 55.3477823"></polygon>
                                <polygon id="Path" fill="#08413C" points="86.0215054 79.9243952 0 79.9243952 43.0107527 49.203629"></polygon>
                                <polygon id="Path" fill="#08413C" points="86.0215054 79.9243952 43.0107527 79.9243952 43.0107527 49.203629"></polygon>
                            </g>
                        </g>
                    </g>
                </g>
            </g>
        </g>
    </g>
</svg>