<?xml version="1.0" encoding="UTF-8"?>
<svg width="48px" height="60px" viewBox="0 0 48 60" version="1.1" xmlns="http://www.w3.org/2000/svg" xmlns:xlink="http://www.w3.org/1999/xlink">
    <!-- Generator: Sketch 57.1 (83088) - https://sketch.com -->
    <title>Shape</title>
    <desc>Created with Sketch.</desc>
    <g id="Final-Template" stroke="none" stroke-width="1" fill="none" fill-rule="evenodd">
        <g id="01-Home-Page" transform="translate(-1042.000000, -5385.000000)" fill="#38AA9D" fill-rule="nonzero">
            <g id="08-How-does-it-work?" transform="translate(0.000000, 5139.000000)">
                <g id="Section" transform="translate(0.000000, 230.000000)">
                    <g id="6" transform="translate(1020.000000, 0.000000)">
                        <g id="timeline" transform="translate(22.000000, 16.000000)">
                            <g id="Group">
                                <path d="M34.0218385,7.98474047 C34.545413,11.6113853 37.7818896,14.2173794 41.4368604,13.9551352 C45.0918311,13.6924342 47.9230629,10.6510416 47.9230629,6.98647661 C47.9230629,3.32236842 45.0918311,0.280519064 41.4368604,0.0182748538 C37.7818896,-0.244426199 34.545413,2.3620248 34.0218385,5.98866959 L27.9536732,5.98866959 L27.9536732,3.99259871 C27.9536732,1.78773754 26.1663925,5.36214771e-05 23.9615315,5.36214771e-05 C21.7566703,5.36214771e-05 19.9693896,1.78773754 19.9693896,3.99259871 L19.9693896,5.98866959 L17.9733187,5.98866959 C17.4223319,5.98866959 16.9755117,6.43548982 16.9755117,6.98647661 C16.9755117,7.53792035 17.4223319,7.98474047 17.9733187,7.98474047 L19.9693896,7.98474047 L19.9693896,14.9712171 L13.9012244,14.9712171 C13.3776498,11.3441156 10.1411732,8.7381214 6.48620246,9.00082234 C2.8312317,9.26306655 0.000456871345,12.3049159 0.000456871345,15.9690241 C0.000456871345,19.6335892 2.8312317,22.6749818 6.48620246,22.9376828 C10.1411732,23.1999269 13.3776498,20.5939327 13.9012244,16.967288 L19.9693896,16.967288 L19.9693896,32.9358552 L13.9012244,32.9358552 C13.3776498,29.3092105 10.1411732,26.7032164 6.48620246,26.9654606 C2.8312317,27.2281615 0.000456871345,30.2695542 0.000456871345,33.9341192 C0.000456871345,37.5982274 2.8312317,40.6400767 6.48620246,40.9023209 C10.1411732,41.165022 13.3776498,38.5585709 13.9012244,34.9319262 L19.9693896,34.9319262 L19.9693896,42.9162098 L17.9733187,42.9162098 C17.4223319,42.9162098 16.9755117,43.3634868 16.9755117,43.9144737 C16.9755117,44.4654606 17.4223319,44.9127375 17.9733187,44.9127375 L19.9693896,44.9127375 L19.9693896,51.8987573 L13.9012244,51.8987573 C13.3776498,48.2721125 10.1411732,45.6661184 6.48620246,45.9283626 C2.8312317,46.1910636 0.000456871345,49.2324561 0.000456871345,52.8970212 C0.000456871345,56.5611294 2.8312317,59.6029788 6.48620246,59.8652229 C10.1411732,60.127924 13.3776498,57.5219298 13.9012244,53.8948282 L19.9693896,53.8948282 L19.9693896,55.8908992 C19.9693896,58.0957602 21.7566703,59.8834978 23.9615315,59.8834978 C26.1663925,59.8834978 27.9536732,58.0957602 27.9536732,55.8908992 L27.9536732,53.8948282 L29.9497441,53.8948282 C30.5011878,53.8948282 30.9480081,53.4480081 30.9480081,52.8970212 C30.9480081,52.3455775 30.5011878,51.8987573 29.9497441,51.8987573 L27.9536732,51.8987573 L27.9536732,44.9127375 L34.0218385,44.9127375 C34.545413,48.5393823 37.7818896,51.1453765 41.4368604,50.8826754 C45.0918311,50.6204313 47.9230629,47.5785819 47.9230629,43.9144737 C47.9230629,40.2503655 45.0918311,37.208516 41.4368604,36.9462719 C37.7818896,36.6835709 34.545413,39.289565 34.0218385,42.9162098 L27.9536732,42.9162098 L27.9536732,34.9319262 L29.9497441,34.9319262 C30.5011878,34.9319262 30.9480081,34.485106 30.9480081,33.9341192 C30.9480081,33.3826754 30.5011878,32.9358552 29.9497441,32.9358552 L27.9536732,32.9358552 L27.9536732,25.9493787 L34.0218385,25.9493787 C34.545413,29.5764802 37.7818896,32.1824744 41.4368604,31.9197733 C45.0918311,31.6575292 47.9230629,28.6156798 47.9230629,24.9515717 C47.9230629,21.2870065 45.0918311,18.245614 41.4368604,17.982913 C37.7818896,17.7206689 34.545413,20.326663 34.0218385,23.9533077 L27.9536732,23.9533077 L27.9536732,16.967288 L29.9497441,16.967288 C30.5011878,16.967288 30.9480081,16.5204678 30.9480081,15.9690241 C30.9480081,15.4180373 30.5011878,14.9712171 29.9497441,14.9712171 L27.9536732,14.9712171 L27.9536732,7.98474047 L34.0218385,7.98474047 Z M40.9283626,1.99652772 C43.6846674,1.99652772 45.9187683,4.23062865 45.9187683,6.98647661 C45.9187683,9.7427814 43.6846674,11.9768823 40.9283626,11.9768823 C38.1725146,11.9768823 35.9384138,9.7427814 35.9384138,6.98647661 C35.9416118,4.2319993 38.1738853,1.99972585 40.9283626,1.99652772 Z M6.99470035,20.9594298 C4.2388524,20.9594298 2.00475146,18.724872 2.00475146,15.9690241 C2.00475146,13.2131761 4.2388524,10.9786185 6.99470035,10.9786185 C9.75100515,10.9786185 11.985106,13.2131761 11.985106,15.9690241 C11.9819078,18.7239584 9.7496345,20.9562317 6.99470035,20.9594298 Z M6.99470035,38.924068 C4.2388524,38.924068 2.00475146,36.6899671 2.00475146,33.9341192 C2.00475146,31.1778143 4.2388524,28.9437135 6.99470035,28.9437135 C9.75100515,28.9437135 11.985106,31.1778143 11.985106,33.9341192 C11.9819078,36.6885965 9.7496345,38.9208699 6.99470035,38.924068 Z M6.99470035,57.8869701 C4.2388524,57.8869701 2.00475146,55.6528691 2.00475146,52.8970212 C2.00475146,50.1407164 4.2388524,47.9066154 6.99470035,47.9066154 C9.75100515,47.9066154 11.985106,50.1407164 11.985106,52.8970212 C11.9819078,55.6514985 9.7496345,57.8837719 6.99470035,57.8869701 Z M40.9283626,38.924068 C43.6846674,38.924068 45.9187683,41.1586257 45.9187683,43.9144737 C45.9187683,46.6703216 43.6846674,48.9048794 40.9283626,48.9048794 C38.1725146,48.9048794 35.9384138,46.6703216 35.9384138,43.9144737 C35.9416118,41.1599964 38.1738853,38.9277229 40.9283626,38.924068 Z M40.9283626,19.961166 C43.6846674,19.961166 45.9187683,22.1952668 45.9187683,24.9515717 C45.9187683,27.7074196 43.6846674,29.9419773 40.9283626,29.9419773 C38.1725146,29.9419773 35.9384138,27.7074196 35.9384138,24.9515717 C35.9416118,22.1966374 38.1738853,19.964364 40.9283626,19.961166 Z M25.9576023,55.8908992 C25.9576023,56.9933297 25.063962,57.8869701 23.9615315,57.8869701 C22.8591008,57.8869701 21.9654606,56.9933297 21.9654606,55.8908992 L21.9654606,3.99259871 C21.9654606,2.89016819 22.8591008,1.99652772 23.9615315,1.99652772 C25.063962,1.99652772 25.9576023,2.89016819 25.9576023,3.99259871 L25.9576023,55.8908992 Z" id="Shape"></path>
                            </g>
                        </g>
                    </g>
                </g>
            </g>
        </g>
    </g>
</svg>