<?xml version="1.0" encoding="UTF-8"?>
<svg width="12px" height="14px" viewBox="0 0 12 14" version="1.1" xmlns="http://www.w3.org/2000/svg" xmlns:xlink="http://www.w3.org/1999/xlink">
    <!-- Generator: Sketch 58 (84663) - https://sketch.com -->
    <title></title>
    <desc>Created with Sketch.</desc>
    <g id="Page-1" stroke="none" stroke-width="1" fill="none" fill-rule="evenodd">
        <g id="01-Home-Page-Copy" transform="translate(-560.000000, -4441.000000)" fill="#FFFFFF" fill-rule="nonzero">
            <g id="07-Working-with-us" transform="translate(165.000000, 4293.000000)">
                <g id="Icon-set" transform="translate(0.000000, 134.000000)">
                    <g id="3" transform="translate(381.000000, 1.000000)">
                        <g id="Group-4">
                            <path d="M16.5390625,18.6640625 C17.6119845,18.888022 18.7656188,19 20,19 C21.2343812,19 22.3880155,18.888022 23.4609375,18.6640625 C24.5338595,18.440103 25.3802052,18.1093772 26,17.671875 L26,19 C26,19.3593768 25.7317735,19.6927068 25.1953125,20 C24.6588515,20.3072932 23.9296921,20.5507804 23.0078125,20.7304688 C22.0859329,20.9101571 21.0833387,21 20,21 C18.9166613,21 17.9140671,20.9101571 16.9921875,20.7304688 C16.0703079,20.5507804 15.3411485,20.3072932 14.8046875,20 C14.2682265,19.6927068 14,19.3593768 14,19 L14,17.671875 C14.6197948,18.1093772 15.4661405,18.440103 16.5390625,18.6640625 Z M16.5390625,24.6640625 C17.6119845,24.888022 18.7656188,25 20,25 C21.2343812,25 22.3880155,24.888022 23.4609375,24.6640625 C24.5338595,24.440103 25.3802052,24.1093772 26,23.671875 L26,25 C26,25.3593768 25.7317735,25.6927068 25.1953125,26 C24.6588515,26.3072932 23.9296921,26.5507804 23.0078125,26.7304688 C22.0859329,26.9101571 21.0833387,27 20,27 C18.9166613,27 17.9140671,26.9101571 16.9921875,26.7304688 C16.0703079,26.5507804 15.3411485,26.3072932 14.8046875,26 C14.2682265,25.6927068 14,25.3593768 14,25 L14,23.671875 C14.6197948,24.1093772 15.4661405,24.440103 16.5390625,24.6640625 Z M16.5390625,21.6640625 C17.6119845,21.888022 18.7656188,22 20,22 C21.2343812,22 22.3880155,21.888022 23.4609375,21.6640625 C24.5338595,21.440103 25.3802052,21.1093772 26,20.671875 L26,22 C26,22.3593768 25.7317735,22.6927068 25.1953125,23 C24.6588515,23.3072932 23.9296921,23.5507804 23.0078125,23.7304688 C22.0859329,23.9101571 21.0833387,24 20,24 C18.9166613,24 17.9140671,23.9101571 16.9921875,23.7304688 C16.0703079,23.5507804 15.3411485,23.3072932 14.8046875,23 C14.2682265,22.6927068 14,22.3593768 14,22 L14,20.671875 C14.6197948,21.1093772 15.4661405,21.440103 16.5390625,21.6640625 Z M16.9921875,13.2734375 C17.9140671,13.0911449 18.9166613,13 20,13 C21.0833387,13 22.0859329,13.0898429 23.0078125,13.2695312 C23.9296921,13.4492196 24.6588515,13.6927068 25.1953125,14 C25.7317735,14.3072932 26,14.6406232 26,15 L26,16 C26,16.3593768 25.7317735,16.6927068 25.1953125,17 C24.6588515,17.3072932 23.9296921,17.5507804 23.0078125,17.7304688 C22.0859329,17.9101571 21.0833387,18 20,18 C18.9166613,18 17.9140671,17.9101571 16.9921875,17.7304688 C16.0703079,17.5507804 15.3411485,17.3072932 14.8046875,17 C14.2682265,16.6927068 14,16.3593768 14,16 L14,15 C14,14.6406232 14.2682265,14.3072932 14.8046875,14 C15.3411485,13.6927068 16.0703079,13.4505217 16.9921875,13.2734375 Z" id=""></path>
                        </g>
                    </g>
                </g>
            </g>
        </g>
    </g>
</svg>