<?xml version="1.0" encoding="UTF-8"?>
<svg width="13px" height="13px" viewBox="0 0 13 13" version="1.1" xmlns="http://www.w3.org/2000/svg" xmlns:xlink="http://www.w3.org/1999/xlink">
    <!-- Generator: Sketch 58 (84663) - https://sketch.com -->
    <title></title>
    <desc>Created with Sketch.</desc>
    <g id="Page-1" stroke="none" stroke-width="1" fill="none" fill-rule="evenodd">
        <g id="01-Home-Page-Copy" transform="translate(-938.000000, -4441.000000)" fill="#FFFFFF" fill-rule="nonzero">
            <g id="07-Working-with-us" transform="translate(165.000000, 4293.000000)">
                <g id="Icon-set" transform="translate(0.000000, 134.000000)">
                    <g id="4" transform="translate(760.000000, 1.000000)">
                        <g id="Group-4">
                            <path d="M16.4296875,22.9296875 L14.4296875,24.9296875 C14.3723955,24.9765627 14.3125003,25 14.25,25 C14.1874997,25 14.1276045,24.9765627 14.0703125,24.9296875 C14.0234373,24.8776039 14,24.8177087 14,24.75 C14,24.6822913 14.0234373,24.6223961 14.0703125,24.5703125 L16.0703125,22.5703125 C16.1223961,22.5234373 16.1822913,22.5 16.25,22.5 C16.3177087,22.5 16.3776039,22.5234373 16.4296875,22.5703125 C16.4765627,22.6223961 16.5,22.6822913 16.5,22.75 C16.5,22.8177087 16.4765627,22.8776039 16.4296875,22.9296875 Z M17.75,23.25 L17.75,25.75 C17.75,25.822917 17.7265627,25.8828123 17.6796875,25.9296875 C17.6328123,25.9765627 17.572917,26 17.5,26 C17.427083,26 17.3671877,25.9765627 17.3203125,25.9296875 C17.2734373,25.8828123 17.25,25.822917 17.25,25.75 L17.25,23.25 C17.25,23.177083 17.2734373,23.1171877 17.3203125,23.0703125 C17.3671877,23.0234373 17.427083,23 17.5,23 C17.572917,23 17.6328123,23.0234373 17.6796875,23.0703125 C17.7265627,23.1171877 17.75,23.177083 17.75,23.25 Z M15.9296875,21.3203125 C15.9765627,21.3671877 16,21.427083 16,21.5 C16,21.572917 15.9765627,21.6328123 15.9296875,21.6796875 C15.8828123,21.7265627 15.822917,21.75 15.75,21.75 L13.25,21.75 C13.177083,21.75 13.1171877,21.7265627 13.0703125,21.6796875 C13.0234373,21.6328123 13,21.572917 13,21.5 C13,21.427083 13.0234373,21.3671877 13.0703125,21.3203125 C13.1171877,21.2734373 13.177083,21.25 13.25,21.25 L15.75,21.25 C15.822917,21.25 15.8828123,21.2734373 15.9296875,21.3203125 Z M25.875,22.5 C25.875,23.1250031 25.653648,23.6536437 25.2109375,24.0859375 L24.0625,25.2265625 C23.6302062,25.6588563 23.1015656,25.875 22.4765625,25.875 C21.846351,25.875 21.3151063,25.653648 20.8828125,25.2109375 L18.2734375,22.59375 C18.164062,22.4843745 18.054688,22.3385426 17.9453125,22.15625 L19.8125,22.015625 L21.9453125,24.15625 C22.0859382,24.2968757 22.2630198,24.3684896 22.4765625,24.3710938 C22.6901052,24.3736979 22.8671868,24.3046882 23.0078125,24.1640625 L24.15625,23.0234375 C24.3020841,22.8776034 24.375,22.703126 24.375,22.5 C24.375,22.2916656 24.3020841,22.1145841 24.15625,21.96875 L22.015625,19.8203125 L22.15625,17.953125 C22.3385426,18.0625005 22.4843745,18.1718745 22.59375,18.28125 L25.21875,20.90625 C25.6562522,21.3541689 25.875,21.8854136 25.875,22.5 Z M21.0546875,16.84375 L19.1875,16.984375 L17.0546875,14.84375 C16.9088534,14.6979159 16.7317719,14.625 16.5234375,14.625 C16.3203115,14.625 16.1432299,14.6953118 15.9921875,14.8359375 L14.84375,15.9765625 C14.6979159,16.1223966 14.625,16.296874 14.625,16.5 C14.625,16.7083344 14.6979159,16.8854159 14.84375,17.03125 L16.984375,19.171875 L16.84375,21.046875 C16.6614574,20.9374995 16.5156255,20.8281255 16.40625,20.71875 L13.78125,18.09375 C13.3437478,17.6458311 13.125,17.1145864 13.125,16.5 C13.125,15.8749969 13.346352,15.3463563 13.7890625,14.9140625 L14.9375,13.7734375 C15.3697938,13.3411437 15.8984344,13.125 16.5234375,13.125 C17.153649,13.125 17.6848937,13.346352 18.1171875,13.7890625 L20.7265625,16.40625 C20.835938,16.5156255 20.945312,16.6614574 21.0546875,16.84375 Z M25.9296875,17.3203125 C25.9765627,17.3671877 26,17.427083 26,17.5 C26,17.572917 25.9765627,17.6328123 25.9296875,17.6796875 C25.8828123,17.7265627 25.822917,17.75 25.75,17.75 L23.25,17.75 C23.177083,17.75 23.1171877,17.7265627 23.0703125,17.6796875 C23.0234373,17.6328123 23,17.572917 23,17.5 C23,17.427083 23.0234373,17.3671877 23.0703125,17.3203125 C23.1171877,17.2734373 23.177083,17.25 23.25,17.25 L25.75,17.25 C25.822917,17.25 25.8828123,17.2734373 25.9296875,17.3203125 Z M21.75,13.25 L21.75,15.75 C21.75,15.822917 21.7265627,15.8828123 21.6796875,15.9296875 C21.6328123,15.9765627 21.572917,16 21.5,16 C21.427083,16 21.3671877,15.9765627 21.3203125,15.9296875 C21.2734373,15.8828123 21.25,15.822917 21.25,15.75 L21.25,13.25 C21.25,13.177083 21.2734373,13.1171877 21.3203125,13.0703125 C21.3671877,13.0234373 21.427083,13 21.5,13 C21.572917,13 21.6328123,13.0234373 21.6796875,13.0703125 C21.7265627,13.1171877 21.75,13.177083 21.75,13.25 Z M24.9296875,14.4296875 L22.9296875,16.4296875 C22.8723955,16.4765627 22.8125003,16.5 22.75,16.5 C22.6874997,16.5 22.6276045,16.4765627 22.5703125,16.4296875 C22.5234373,16.3776039 22.5,16.3177087 22.5,16.25 C22.5,16.1822913 22.5234373,16.1223961 22.5703125,16.0703125 L24.5703125,14.0703125 C24.6223961,14.0234373 24.6822913,14 24.75,14 C24.8177087,14 24.8776039,14.0234373 24.9296875,14.0703125 C24.9765627,14.1223961 25,14.1822913 25,14.25 C25,14.3177087 24.9765627,14.3776039 24.9296875,14.4296875 Z" id=""></path>
                        </g>
                    </g>
                </g>
            </g>
        </g>
    </g>
</svg>