<svg xmlns="http://www.w3.org/2000/svg" width="13" height="11" viewBox="0 0 13 11">
    <path fill="#FFF" d="M4.75 11c.073 0 .133-.023.18-.07.047-.047.07-.107.07-.18v-4.5c0-.073-.023-.133-.07-.18-.047-.047-.107-.07-.18-.07h-.5c-.073 0-.133.023-.18.07-.047.047-.07.107-.07.18v.25c-.37 0-.708.092-1.016.277-.307.185-.55.434-.726.746l-.531-.093c-.151-.495-.227-.998-.227-1.508 0-.771.23-1.498.688-2.18.458-.682 1.074-1.226 1.847-1.633C4.81 1.703 5.63 1.5 6.5 1.5c.87 0 1.691.203 2.465.61.773.406 1.39.95 1.848 1.632.458.682.687 1.409.687 2.18 0 .51-.076 1.013-.227 1.508l-.53.093c-.178-.312-.42-.56-.727-.746C9.708 6.592 9.37 6.5 9 6.5v-.25c0-.073-.023-.133-.07-.18-.047-.047-.107-.07-.18-.07h-.5c-.073 0-.133.023-.18.07-.047.047-.07.107-.07.18v4.5c0 .073.023.133.07.18.047.047.107.07.18.07h.5c.073 0 .133-.023.18-.07.047-.047.07-.107.07-.18v-.25c.458 0 .866-.14 1.223-.418.356-.279.592-.634.707-1.066l1.445-.258.156-.383c.313-.77.469-1.589.469-2.453 0-.787-.174-1.544-.523-2.274-.35-.729-.816-1.36-1.399-1.894C10.495 1.22 9.802.794 9 .477 8.198.159 7.365 0 6.5 0S4.802.159 4 .477c-.802.317-1.495.743-2.078 1.277-.583.534-1.05 1.165-1.399 1.894C.174 4.378 0 5.135 0 5.922c0 .864.156 1.682.469 2.453l.156.383 1.445.258c.115.432.35.787.707 1.066S3.542 10.5 4 10.5v.25c0 .073.023.133.07.18.047.047.107.07.18.07h.5z"/>
</svg>
