<?xml version="1.0" encoding="UTF-8"?>
<svg width="9px" height="14px" viewBox="0 0 9 14" version="1.1" xmlns="http://www.w3.org/2000/svg" xmlns:xlink="http://www.w3.org/1999/xlink">
    <!-- Generator: Sketch 58 (84663) - https://sketch.com -->
    <title></title>
    <desc>Created with Sketch.</desc>
    <g id="Page-1" stroke="none" stroke-width="1" fill="none" fill-rule="evenodd">
        <g id="01-Home-Page-Copy" transform="translate(-561.000000, -4648.000000)" fill="#FFFFFF" fill-rule="nonzero">
            <g id="07-Working-with-us" transform="translate(165.000000, 4293.000000)">
                <g id="Icon-set" transform="translate(0.000000, 134.000000)">
                    <g id="6" transform="translate(381.000000, 208.000000)">
                        <g id="Group-4">
                            <path d="M23.8515625,21.1484375 C24.0130216,21.3046883 24.0494796,21.484374 23.9609375,21.6875 C23.8723954,21.8958344 23.7187511,22 23.5,22 L20.515625,22 L22.0859375,25.71875 C22.1380211,25.848959 22.1380211,25.9765619 22.0859375,26.1015625 C22.0338539,26.2265631 21.9453131,26.317708 21.8203125,26.375 L20.4375,26.9609375 C20.307291,27.0130211 20.1796881,27.0130211 20.0546875,26.9609375 C19.9296869,26.9088539 19.838542,26.8203131 19.78125,26.6953125 L18.2890625,23.1640625 L15.8515625,25.6015625 C15.7526037,25.7005213 15.6354173,25.75 15.5,25.75 C15.4374997,25.75 15.3750003,25.7369793 15.3125,25.7109375 C15.1041656,25.6223954 15,25.4687511 15,25.25 L15,13.5 C15,13.2812489 15.1041656,13.1276046 15.3125,13.0390625 C15.3750003,13.0130207 15.4374997,13 15.5,13 C15.6406257,13 15.757812,13.0494787 15.8515625,13.1484375 L23.8515625,21.1484375 Z" id=""></path>
                        </g>
                    </g>
                </g>
            </g>
        </g>
    </g>
</svg>