<?xml version="1.0" encoding="UTF-8"?>
<svg width="12px" height="14px" viewBox="0 0 12 14" version="1.1" xmlns="http://www.w3.org/2000/svg" xmlns:xlink="http://www.w3.org/1999/xlink">
    <!-- Generator: Sketch 58 (84663) - https://sketch.com -->
    <title></title>
    <desc>Created with Sketch.</desc>
    <g id="Page-1" stroke="none" stroke-width="1" fill="none" fill-rule="evenodd">
        <g id="01-Home-Page-Copy" transform="translate(-179.000000, -4440.000000)" fill="#FFFFFF" fill-rule="nonzero">
            <g id="07-Working-with-us" transform="translate(165.000000, 4293.000000)">
                <g id="Icon-set" transform="translate(0.000000, 134.000000)">
                    <g id="2">
                        <g id="1">
                            <path d="M25,14 C25,15.3593818 24.722659,16.5611927 24.1679688,17.6054688 C23.6132785,18.6497448 22.919275,19.4479139 22.0859375,20 C22.919275,20.5520861 23.6132785,21.3502552 24.1679688,22.3945312 C24.722659,23.4388073 25,24.6406182 25,26 L25.75,26 C25.822917,26 25.8828123,26.0234373 25.9296875,26.0703125 C25.9765627,26.1171877 26,26.177083 26,26.25 L26,26.75 C26,26.822917 25.9765627,26.8828123 25.9296875,26.9296875 C25.8828123,26.9765627 25.822917,27 25.75,27 L14.25,27 C14.177083,27 14.1171877,26.9765627 14.0703125,26.9296875 C14.0234373,26.8828123 14,26.822917 14,26.75 L14,26.25 C14,26.177083 14.0234373,26.1171877 14.0703125,26.0703125 C14.1171877,26.0234373 14.177083,26 14.25,26 L15,26 C15,24.6406182 15.277341,23.4388073 15.8320312,22.3945312 C16.3867215,21.3502552 17.080725,20.5520861 17.9140625,20 C17.080725,19.4479139 16.3867215,18.6497448 15.8320312,17.6054688 C15.277341,16.5611927 15,15.3593818 15,14 L14.25,14 C14.177083,14 14.1171877,13.9765627 14.0703125,13.9296875 C14.0234373,13.8828123 14,13.822917 14,13.75 L14,13.25 C14,13.177083 14.0234373,13.1171877 14.0703125,13.0703125 C14.1171877,13.0234373 14.177083,13 14.25,13 L25.75,13 C25.822917,13 25.8828123,13.0234373 25.9296875,13.0703125 C25.9765627,13.1171877 26,13.177083 26,13.25 L26,13.75 C26,13.822917 25.9765627,13.8828123 25.9296875,13.9296875 C25.8828123,13.9765627 25.822917,14 25.75,14 L25,14 Z M24,14 L16,14 C16,15.072922 16.221352,16.072912 16.6640625,17 L23.3359375,17 C23.778648,16.072912 24,15.072922 24,14 Z M23.5546875,23.5 L16.4453125,23.5 C16.7265639,22.7656213 17.1054664,22.1367214 17.5820312,21.6132812 C18.0585961,21.0898411 18.5651015,20.7187511 19.1015625,20.5 L20.8984375,20.5 C21.4348985,20.7187511 21.9414039,21.0898411 22.4179688,21.6132812 C22.8945336,22.1367214 23.2734361,22.7656213 23.5546875,23.5 Z" id=""></path>
                        </g>
                    </g>
                </g>
            </g>
        </g>
    </g>
</svg>