<svg xmlns="http://www.w3.org/2000/svg" width="16" height="14" viewBox="0 0 16 14">
    <path fill="#FFF" d="M2.992 5.5l.727-3.219c.057-.229.176-.416.355-.562.18-.146.387-.219.621-.219H6c0 .135.05.253.148.352.1.099.217.148.352.148h3c.135 0 .253-.05.352-.148.099-.1.148-.217.148-.352h1.305c.234 0 .441.073.62.219.18.146.299.333.356.562l.727 3.219h1.031l-.789-3.445c-.099-.459-.33-.832-.695-1.121C12.19.644 11.773.5 11.305.5H10c0-.135-.05-.253-.148-.352C9.752.05 9.635 0 9.5 0h-3c-.135 0-.253.05-.352.148C6.05.248 6 .365 6 .5H4.695c-.468 0-.885.145-1.25.434-.364.289-.596.662-.695 1.12L1.96 5.5h1.032zM13 14c.24 0 .453-.078.64-.234.188-.157.303-.355.344-.594L14.883 8H15c.276 0 .512-.098.707-.293.195-.195.293-.431.293-.707 0-.276-.098-.512-.293-.707C15.512 6.098 15.276 6 15 6H1c-.276 0-.512.098-.707.293C.098 6.488 0 6.724 0 7c0 .276.098.512.293.707C.488 7.902.724 8 1 8h.117l.899 5.172c.041.24.156.437.343.594.188.156.401.234.641.234h10zm-9.21-1.75h-.04c-.13 0-.243-.044-.34-.133-.096-.088-.15-.198-.16-.328L3 8.54c-.01-.135.03-.256.121-.363.091-.107.205-.166.34-.176.135-.01.256.03.363.121.107.091.166.205.176.34l.25 3.25c.01.135-.03.256-.121.363-.091.107-.205.166-.34.176zm2.71 0c-.135 0-.253-.05-.352-.148-.099-.1-.148-.217-.148-.352V8.5c0-.135.05-.253.148-.352.1-.099.217-.148.352-.148.135 0 .253.05.352.148.099.1.148.217.148.352v3.25c0 .135-.05.253-.148.352-.1.099-.217.148-.352.148zm3 0c-.135 0-.253-.05-.352-.148-.099-.1-.148-.217-.148-.352V8.5c0-.135.05-.253.148-.352.1-.099.217-.148.352-.148.135 0 .253.05.352.148.099.1.148.217.148.352v3.25c0 .135-.05.253-.148.352-.1.099-.217.148-.352.148zm2.75 0h-.04c-.134-.01-.248-.069-.339-.176-.091-.107-.131-.228-.121-.363L12 8.46c.01-.135.069-.249.176-.34.107-.091.228-.131.363-.121.135.01.249.069.34.176.091.107.131.228.121.363l-.25 3.25c-.01.13-.064.24-.16.328-.097.089-.21.133-.34.133z"/>
</svg>
