<?xml version="1.0" encoding="UTF-8"?>
<svg width="60px" height="60px" viewBox="0 0 60 60" version="1.1" xmlns="http://www.w3.org/2000/svg" xmlns:xlink="http://www.w3.org/1999/xlink">
    <!-- Generator: Sketch 57.1 (83088) - https://sketch.com -->
    <title>printer</title>
    <desc>Created with Sketch.</desc>
    <g id="Final-Template" stroke="none" stroke-width="1" fill="none" fill-rule="evenodd">
        <g id="01-Home-Page" transform="translate(-786.000000, -6248.000000)" fill-rule="nonzero">
            <g id="08-How-does-it-work?" transform="translate(0.000000, 5139.000000)">
                <g id="Section" transform="translate(0.000000, 230.000000)">
                    <g id="2" transform="translate(770.000000, 863.000000)">
                        <g id="printer" transform="translate(16.000000, 16.000000)">
                            <polygon id="Path" fill="#B0ECE5" points="50.0000391 0.999960938 50.0000391 8.00003906 50.0000391 18 30 18 30 0.999960938"></polygon>
                            <polygon id="Path" fill="#FFFFFF" points="30 0.999960938 30 8.00003906 30 18 9.99996094 18 9.99996094 0.999960938"></polygon>
                            <polygon id="Path" fill="#ECFCF7" points="47.0000391 0.999960938 47.0000391 8.00003906 47.0000391 18 12.9999609 18 12.9999609 0.999960938"></polygon>
                            <polygon id="Path" fill="#B0ECE5" points="50.0000391 36 50.0000391 45.4709766 50.0000391 59.0000391 30 59.0000391 30 36"></polygon>
                            <polygon id="Path" fill="#FFFFFF" points="30 36 30 45.4709766 30 59.0000391 9.99996094 59.0000391 9.99996094 36"></polygon>
                            <polygon id="Path" fill="#ECFCF7" points="47.0000391 36 47.0000391 45.4709766 47.0000391 59.0000391 12.9999609 59.0000391 12.9999609 36"></polygon>
                            <polygon id="Path" fill="#FFFFFF" points="36.9999609 18 36.9999609 36 30.9999609 36 9.99996094 36 9.99996094 53.0000391 6.99996094 53.0000391 6.99996094 50.0000391 0.999960937 50.0000391 0.999960937 18"></polygon>
                            <polygon id="Path" fill="#B0ECE5" points="23.0000391 18 23.0000391 36 29.0000391 36 50.0000391 36 50.0000391 53.0000391 53.0000391 53.0000391 53.0000391 50.0000391 59.0000391 50.0000391 59.0000391 18"></polygon>
                            <polyline id="Path" fill="#FFFFFF" points="50.0000391 36 50.0000391 53.0000391 53.0000391 53.0000391 53.0000391 50.0000391 56.0000391 50.0000391 56.0000391 18 3.99996094 18 3.99996094 50.0000391 6.99996094 50.0000391 6.99996094 53.0000391 9.99996094 53.0000391 9.99996094 36"></polyline>
                            <circle id="Oval" fill="#B0ECE5" cx="50.0000391" cy="27" r="3.99996094"></circle>
                            <ellipse id="Oval" fill="#FFFFFF" cx="48.5000391" cy="27" rx="2.49996094" ry="3.99996094"></ellipse>
                            <g id="Group" fill="#38AA9D">
                                <path d="M50.0000391,18.9999613 L9.99996094,18.9999613 C9.73464844,18.9999613 9.48023438,18.8948437 9.29273438,18.7072266 C9.10511719,18.5196094 8.9999999,18.2651953 8.9999999,17.9999999 L8.9999999,0.999960937 C8.9999999,0.734648437 9.10511719,0.480234375 9.29273438,0.292734375 C9.48035156,0.105117187 9.73476562,-9.77688296e-08 9.99996094,-9.77688296e-08 L49.9999219,-9.77688296e-08 C50.2652344,-9.77688296e-08 50.5196484,0.105117187 50.7071484,0.292734375 C50.8947656,0.480351562 50.9998829,0.734765625 50.9998829,0.999960938 L50.9998829,17.9999999 C50.9998829,18.2653125 50.8947656,18.5197266 50.7071484,18.7072266 C50.5197656,18.8948437 50.2652344,19.0001953 50.0000391,18.9999613 L50.0000391,18.9999613 Z M11.0000391,17.0000391 L49.0000781,17.0000391 L49.0000781,2.00003906 L11.0000391,2.00003906 L11.0000391,17.0000391 Z" id="Shape"></path>
                                <path d="M50.0000391,60.0000001 L9.99996094,60.0000001 C9.73464844,60.0000001 9.48023438,59.8948828 9.29273438,59.7072656 C9.10511719,59.5196484 8.9999999,59.2652344 8.9999999,59.0000391 L8.9999999,36 C8.9999999,35.4476953 9.44777344,35.0000391 9.99996094,35.0000391 C10.5521484,35.0000391 10.9999219,35.4476953 10.9999219,36 L10.9999219,57.9999609 L48.9999609,57.9999609 L48.9999609,36 C48.9999609,35.4476953 49.4476172,35.0000391 49.9999219,35.0000391 C50.5522266,35.0000391 50.9998829,35.4476953 50.9998829,36 L50.9998829,59.0000391 C50.9998829,59.2653516 50.8947656,59.5197656 50.7071484,59.7072656 C50.5197656,59.8948828 50.2652344,60.0000001 50.0000391,60.0000001 Z" id="Path"></path>
                                <path d="M50.0000391,32.0000391 C47.2386328,32.0000391 45,29.7614063 45,27 C45,24.2385937 47.2386328,21.9999609 50.0000391,21.9999609 C52.7614453,21.9999609 55.0000781,24.2385937 55.0000781,27 C54.9967969,29.7601172 52.7600391,31.9967578 50.0000391,32.0000391 Z M50.0000391,24 C48.3432422,24 47.0000391,25.3432031 47.0000391,27 C47.0000391,28.6569141 48.3432422,30 50.0000391,30 C51.6568359,30 53.0000391,28.6569141 53.0000391,27 C52.9981641,25.3439062 51.6561328,24.0017578 50.0000391,24 L50.0000391,24 Z" id="Shape"></path>
                                <path d="M42,45 L18,45 C17.4476953,45 17.0000391,44.5522266 17.0000391,44.0000391 C17.0000391,43.4477344 17.4476953,43.0000781 18,43.0000781 L42,43.0000781 C42.5523047,43.0000781 42.9999609,43.4478516 42.9999609,44.0000391 C42.9999609,44.5523437 42.5523047,45 42,45 Z" id="Path"></path>
                                <path d="M42,50.0000391 L18,50.0000391 C17.4476953,50.0000391 17.0000391,49.5523828 17.0000391,49.0000781 C17.0000391,48.4477734 17.4476953,48.0001172 18,48.0001172 L42,48.0001172 C42.5523047,48.0001172 42.9999609,48.4477734 42.9999609,49.0000781 C42.9999609,49.5523828 42.5523047,50.0000391 42,50.0000391 Z" id="Path"></path>
                                <path d="M59.0000391,36.9999609 L0.999960937,36.9999609 C0.44765625,36.9999609 0,36.5523047 0,36 C0,35.4476953 0.447773437,35.0000391 0.999960937,35.0000391 L58.9999219,35.0000391 C59.5522266,35.0000391 59.9998828,35.4476953 59.9998828,36 C59.9998828,36.5523047 59.5523437,36.9999609 59.0000391,36.9999609 Z" id="Path"></path>
                                <path d="M53.0000391,54.0000001 L50.0000391,54.0000001 C49.7347266,54.0000001 49.4803125,53.8948828 49.2928125,53.7072656 C49.1051953,53.5196484 48.9999609,53.2652344 49.0000781,53.000039 L49.0000781,36 C49.0000781,35.4476953 49.4477344,35.000039 50.0000391,35.000039 C50.5523437,35.000039 50.9999999,35.4476953 50.9999999,36 L50.9999999,51.9999609 L51.9999609,51.9999609 L51.9999609,49.9999219 C51.9998437,49.7346094 52.1050781,49.4801953 52.2926953,49.2926953 C52.4803125,49.1050781 52.7347266,48.9998437 52.9999219,48.9999609 L57.9999609,48.9999609 L57.9999609,18.9999609 L2.00003906,18.9999609 L2.00003906,48.9999609 L7.00007813,48.9999609 C7.26539063,48.9998437 7.51980469,49.1050781 7.70730469,49.2926953 C7.89492188,49.4803125 8.00015625,49.7347266 8.00003906,49.9999219 L8.00003906,51.9999609 L8.9999999,51.9999609 L8.9999999,36 C8.9999999,35.4476953 9.44777344,35.000039 9.99996094,35.000039 C10.5521484,35.000039 10.9999219,35.4476953 10.9999219,36 L10.9999219,53.000039 C11.0000391,53.2653516 10.8948047,53.5197656 10.7071875,53.7072656 C10.5195703,53.8948828 10.2651562,54.0000001 9.99996094,54.0000001 L6.99996094,54.0000001 C6.73464844,54.0000001 6.48023438,53.8948828 6.29273437,53.7072656 C6.10511719,53.5196484 5.99988281,53.2652344 5.9999999,53.000039 L5.9999999,51 L0.999960938,51 C0.734648438,51.0001172 0.480234375,50.8948828 0.292734375,50.7072656 C0.105117187,50.5196484 -9.77688297e-08,50.2652344 -9.77688297e-08,50.000039 L-9.77688297e-08,18 C-9.77688297e-08,17.7346875 0.105117187,17.4802734 0.292734375,17.2927734 C0.480351562,17.1052734 0.734765625,17.000039 0.999960938,17.000039 L58.9999219,17.000039 C59.2652344,17.000039 59.5196484,17.1051563 59.7071484,17.2927734 C59.8947656,17.4803906 59.9998829,17.7348047 59.9998829,18 L59.9998829,50.000039 C59.9998829,50.2653516 59.8947656,50.5197656 59.7071484,50.7072656 C59.5195312,50.8948828 59.2651172,51.0001172 58.9999219,51 L53.9999999,51 L53.9999999,53.000039 C54.0001172,53.2653516 53.8948828,53.5197656 53.7072656,53.7072656 C53.5196484,53.8948828 53.2652344,54.0000001 53.0000391,54.0000001 Z" id="Path"></path>
                                <path d="M6.99996094,51.0000001 C6.73464844,51.0001172 6.48023437,50.8948828 6.29273437,50.7072656 C6.10511719,50.5196484 5.99988281,50.2652344 5.9999999,50.0000391 L5.9999999,45 C5.9999999,44.4476953 6.44777344,44.0000391 6.99996094,44.0000391 C7.55214844,44.0000391 7.99992197,44.4478125 7.99992197,45 L7.99992197,50.0000391 C8.00003906,50.2653516 7.89480469,50.5197656 7.7071875,50.7072656 C7.5196875,50.8948828 7.26527344,51.0001172 6.99996094,51.0000001 L6.99996094,51.0000001 Z" id="Path"></path>
                                <path d="M53.0000391,51.0000001 C52.7347266,51.0001172 52.4803125,50.8948828 52.2928125,50.7072656 C52.1051953,50.5196484 51.9999609,50.2652344 52.000078,50.0000391 L52.000078,45 C52.000078,44.4476953 52.4477344,44.0000391 53.0000391,44.0000391 C53.5523437,44.0000391 54.0000001,44.4478125 54.0000001,45 L54.0000001,50.0000391 C54.0001172,50.2653516 53.8948828,50.5197656 53.7072656,50.7072656 C53.5196484,50.8948828 53.2652344,51.0001172 53.0000391,51.0000001 L53.0000391,51.0000001 Z" id="Path"></path>
                            </g>
                        </g>
                    </g>
                </g>
            </g>
        </g>
    </g>
</svg>