<?xml version="1.0" encoding="UTF-8"?>
<svg width="60px" height="60px" viewBox="0 0 60 60" version="1.1" xmlns="http://www.w3.org/2000/svg" xmlns:xlink="http://www.w3.org/1999/xlink">
    <!-- Generator: Sketch 57.1 (83088) - https://sketch.com -->
    <title>Group</title>
    <desc>Created with Sketch.</desc>
    <g id="Final-Template" stroke="none" stroke-width="1" fill="none" fill-rule="evenodd">
        <g id="01-Home-Page" transform="translate(-546.000000, -5858.000000)" fill="#38AA9D" fill-rule="nonzero">
            <g id="08-How-does-it-work?" transform="translate(0.000000, 5139.000000)">
                <g id="Section" transform="translate(0.000000, 230.000000)">
                    <g id="4" transform="translate(530.000000, 473.000000)">
                        <g id="letter" transform="translate(16.000000, 16.000000)">
                            <g id="Group">
                                <path d="M12.9235198,25.9507492 C12.9431651,26.0110563 12.9719481,26.0677083 13.0084978,26.1193347 C13.046875,26.1741593 13.089364,26.2262427 13.1350512,26.275128 C13.3241959,26.4610746 13.5768457,26.5679825 13.8418311,26.5743787 C14.3859649,26.5579312 14.8231908,26.1207054 14.8396381,25.5765717 C14.8355263,25.4454496 14.8067434,25.3166118 14.755117,25.1964547 C14.7057749,25.0753837 14.6340461,24.9648209 14.5431287,24.8707054 C14.2584978,24.5819627 13.8267544,24.4942434 13.451663,24.6491228 C13.0765717,24.8040022 12.8326023,25.1708699 12.8344196,25.5765717 L12.8568165,25.767087 C12.8709795,25.831049 12.8933662,25.8927265 12.9235198,25.9507492 Z" id="Path"></path>
                                <path d="M41.3651316,0.868969357 C40.8159722,0.335343626 40.0826937,0.0333515789 39.3169773,0.0264984795 C39.2991593,0.0264984795 39.2859101,0.0114217778 39.2680922,0.0086805614 C39.1109284,-0.0123355556 38.9514802,0.00548245614 38.8029971,0.0603070175 C38.1720578,0.140716374 37.5845212,0.42443345 37.1290205,0.868969357 L15.958516,22.0403874 C15.5957602,22.4337537 15.6080958,23.04322 15.9863853,23.4219663 C16.3642178,23.8007127 16.9736842,23.813962 17.3679642,23.451663 L37.808845,3.01260959 L34.1351426,27.5109649 L9.63404608,31.1874087 L11.7237756,29.0976791 C11.9832785,28.8468567 12.0874451,28.4758772 11.9960709,28.1268275 C11.9046966,27.7782346 11.6319444,27.5054825 11.2833516,27.4141082 C10.9343019,27.3227339 10.5633223,27.4269006 10.3125,27.6864035 L7.4872076,30.5080409 C7.02028515,30.9786185 6.72468936,31.5921966 6.64793497,32.2505483 C6.52595029,33.1665753 6.83616596,34.087628 7.4872076,34.7436952 L25.1324926,52.3889802 C25.6935308,52.950932 26.455592,53.2657164 27.2496345,53.2643502 C27.294408,53.2643502 27.3382676,53.2533808 27.3821273,53.2515533 L27.3990315,53.2515533 C27.4122807,53.2515533 27.4241593,53.245614 27.4369518,53.245614 C28.163834,53.2054094 28.8505117,52.9002193 29.3672332,52.3880665 L59.0095029,22.7462537 C60.1781799,21.576663 60.1781799,19.6815607 59.0095029,18.5124269 L41.3651316,0.868969357 Z M57.5963999,19.9237025 C57.6142178,19.9415205 57.6210709,19.9666484 57.6370614,19.9844664 L36.7169226,23.7449744 L39.9378655,2.27019368 C39.9378655,2.27019368 39.9488304,2.2761331 39.9524854,2.28024491 L57.5963999,19.9237025 Z M8.90122444,33.3324196 C8.90122444,33.3324196 8.89528515,33.3214547 8.89117322,33.3173428 L30.3622989,30.0954861 L26.6059028,51.0169956 C26.5867142,51.0000913 26.5629568,50.9936952 26.5437683,50.9749635 L8.90122444,33.3324196 Z M28.792489,50.138432 L32.4474598,29.783443 L34.4334795,29.4837354 C35.2997076,29.3594664 35.9804458,28.6791849 36.1051718,27.8129568 L36.4044225,25.8251097 L56.764894,22.1701389 L28.792489,50.138432 Z" id="Shape"></path>
                                <path d="M13.2689145,45.1959978 L2.29029602,56.1746163 C2.0307931,56.4254386 1.92662643,56.7964181 2.0180007,57.1454678 C2.10937497,57.4945175 2.38212725,57.7668129 2.73072,57.8581871 C3.07976971,57.9495614 3.45074924,57.8453947 3.7015717,57.5858918 L14.6801901,46.6072735 C15.0584795,46.2157346 15.0529971,45.5934759 14.6678545,45.2083333 C14.282712,44.8231908 13.6604532,44.8181651 13.2689145,45.1959978 Z" id="Path"></path>
                                <path d="M0.999634503,45.9018641 C1.26461988,45.9018641 1.51818351,45.7967836 1.7055007,45.6094664 L7.69371345,39.6212537 C8.07200292,39.2297149 8.06652047,38.6069993 7.68137789,38.2218567 C7.29669228,37.837171 6.67397661,37.8316887 6.28243789,38.209978 L0.294225146,44.1981908 C0.0086805614,44.4837354 -0.076754386,44.9127375 0.0776680702,45.2855446 C0.232547485,45.6588084 0.596217076,45.9018641 0.999634503,45.9018641 L0.999634503,45.9018641 Z" id="Path"></path>
                                <path d="M14.2667215,59.5819627 C14.6564327,59.9716739 15.2882858,59.9716739 15.6779971,59.5819627 L21.6662098,53.5937499 C22.0444993,53.2022112 22.0390168,52.5794957 21.6543311,52.1948099 C21.2691885,51.8096674 20.6469298,51.8041849 20.2549343,52.1824744 L14.2667215,58.1706871 C13.8770103,58.5603984 13.8770103,59.1922515 14.2667215,59.5819627 L14.2667215,59.5819627 Z" id="Path"></path>
                                <path d="M0.999634503,51.8900767 C1.26461988,51.8900767 1.51818351,51.7849964 1.7055007,51.5976791 L4.69937871,48.6033443 C5.07766807,48.2118056 5.07218573,47.5895468 4.6875,47.2044042 C4.30235743,46.8197186 3.68009871,46.8142361 3.28810304,47.1925256 L0.294225146,50.1864035 C0.0086805614,50.4719481 -0.076754386,50.9009503 0.0776680702,51.2742142 C0.232547485,51.6470212 0.596217076,51.8900767 0.999634503,51.8900767 L0.999634503,51.8900767 Z" id="Path"></path>
                                <path d="M11.2728435,55.1768092 L8.27850877,58.1706871 C8.01900585,58.4215095 7.91483918,58.792489 8.00621345,59.1415387 C8.09758772,59.4905884 8.37033988,59.7628837 8.71938959,59.854258 C9.06798246,59.9456323 9.43941883,59.8414656 9.68978433,59.5819627 L12.6841192,56.5880848 C13.0619518,56.1965461 13.0569262,55.5738304 12.6717836,55.1886878 C12.2866411,54.8040022 11.6643823,54.7985198 11.2728435,55.1768092 Z" id="Path"></path>
                                <path d="M18.6723319,27.6443713 L23.6622807,22.6544225 C24.0405702,22.2624269 24.0355446,21.6401682 23.6504021,21.2550256 C23.2652595,20.8703399 22.6430007,20.8648574 22.251462,21.2431469 L17.2610563,26.2330958 C17.0015533,26.4839181 16.8973867,26.8548977 16.9887609,27.2039474 C17.0801352,27.5529971 17.3528875,27.8252924 17.7014802,27.9166667 C18.0505299,28.0080409 18.4215095,27.9038743 18.6723319,27.6443713 Z" id="Path"></path>
                                <path d="M26.6566154,19.6600877 L27.6548794,18.6618239 C28.032712,18.2702851 28.0276864,17.6480263 27.6425439,17.2628837 C27.2574013,16.8781981 26.6351426,16.8727157 26.2436037,17.2510051 L25.2453399,18.2488122 C24.985837,18.4996345 24.8821273,18.870614 24.9730446,19.2196637 C25.0644188,19.5682566 25.337171,19.8410088 25.6862208,19.932383 C26.0348136,20.0237573 26.4062501,19.9195906 26.6566154,19.6600877 Z" id="Path"></path>
                            </g>
                        </g>
                    </g>
                </g>
            </g>
        </g>
    </g>
</svg>