<?xml version="1.0" encoding="UTF-8"?>
<svg width="60px" height="60px" viewBox="0 0 60 60" version="1.1" xmlns="http://www.w3.org/2000/svg" xmlns:xlink="http://www.w3.org/1999/xlink">
    <!-- Generator: Sketch 57.1 (83088) - https://sketch.com -->
    <title>magnifying-glass</title>
    <desc>Created with Sketch.</desc>
    <g id="Final-Template" stroke="none" stroke-width="1" fill="none" fill-rule="evenodd">
        <g id="01-Home-Page" transform="translate(-181.000000, -5631.000000)" fill-rule="nonzero">
            <g id="08-How-does-it-work?" transform="translate(0.000000, 5139.000000)">
                <g id="Section" transform="translate(0.000000, 230.000000)">
                    <g id="1" transform="translate(165.000000, 66.000000)">
                        <g id="magnifying-glass" transform="translate(16.000000, 196.000000)">
                            <path d="M54.0843665,47.0905263 L47.0580897,54.1068226 L47.0281481,54.1467446 L47.0181676,54.1367641 L47.0081871,54.1367641 L43.7146199,50.8332164 C43.3276521,50.4439392 43.3276521,49.8152421 43.7146199,49.4259649 L48.0062378,45.134347 L49.3635867,43.7769981 C49.7528639,43.3900302 50.381561,43.3900302 50.7708382,43.7769981 L54.0843665,47.0905263 Z" id="Shape" fill="#ECFCF7"></path>
                            <path d="M57.4278363,57.4902144 C57.177522,57.7433203 56.8996649,57.9676145 56.5994542,58.1589084 C54.6246865,59.4288206 52.0317741,59.1504149 50.3716179,57.4902144 L47.0281481,54.1467446 L47.0580897,54.1068226 L54.0843665,47.0905263 L57.4278363,50.4339961 C59.3759411,52.3826894 59.3759411,55.5415212 57.4278363,57.4902144 Z" id="Shape" fill="#ECFCF7"></path>
                            <path d="M51.4794542,49.5766706 L47.0181676,54.1367641 L47.0081871,54.1367641 L43.7146199,50.8332164 C43.3276521,50.4439392 43.3276521,49.8152421 43.7146199,49.4259649 L46.9083821,46.1323977 C47.3063402,45.8763025 47.8286395,45.9301906 48.1659259,46.2621442 L51.4794542,49.5766706 Z" id="Shape" fill="#FFFFFF"></path>
                            <path d="M56.5994542,58.1589084 C54.6246865,59.4288206 52.0317741,59.1504149 50.3716179,57.4902144 L47.0281481,54.1467446 L51.5592982,49.6155945 L54.8927875,52.9590643 C56.5794932,54.64577 57.8470175,56.2226901 56.5994542,58.1589084 Z" id="Shape" fill="#FFFFFF"></path>
                            <rect id="Rectangle-path" fill="#ECFCF7" transform="translate(43.290315, 43.353180) rotate(-45.000000) translate(-43.290315, -43.353180) " x="40.2981592" y="38.7586534" width="5.98431189" height="9.18905263"></rect>
                            <rect id="Rectangle-path" fill="#FFFFFF" transform="translate(42.292265, 44.351443) rotate(-45.000000) translate(-42.292265, -44.351443) " x="40.7113526" y="39.756917" width="3.16182456" height="9.18905263"></rect>
                            <path d="M15.9688109,21.3507992 L24.2117115,14.1827992 L31.9376218,21.3507992 L31.9376218,32.9980507 C31.9376218,33.5492588 31.4907793,33.9961014 30.9395712,33.9961014 L16.9668616,33.9961014 C16.4156535,33.9961014 15.9688109,33.5492588 15.9688109,32.9980507 L15.9688109,21.3507992 Z" id="Shape" fill="#F18D46"></path>
                            <path d="M16.9668616,19.9824717 L24.1797739,12.0389864 L30.9395712,19.9824717 L30.9395712,32.8902612 C30.9955858,33.4344319 30.6086106,33.9244532 30.0662768,33.9961014 L17.8401559,33.9961014 C17.2978222,33.9244532 16.9108469,33.4344319 16.9668616,32.8902612 L16.9668616,19.9824717 Z" id="Shape" fill="#ECFCF7"></path>
                            <path d="M34.3778558,22.981614 L24.5071345,16.4004678 C24.1717526,16.1767054 23.7346801,16.1767054 23.3992982,16.4004678 L13.528577,22.981614 C13.2221676,23.186047 12.8280667,23.2050914 12.503373,23.0311558 C12.1786793,22.8572202 11.9761845,22.5185847 11.9766075,22.1502378 L11.9766075,19.555306 C11.9766075,19.2216792 12.1432131,18.9100908 12.4207407,18.7249279 L23.3992982,11.4062222 C23.7346801,11.1824598 24.1717526,11.1824598 24.5071345,11.4062222 L35.485692,18.7249279 C35.7632197,18.9100908 35.9298252,19.2216792 35.9298252,19.555306 L35.9298252,22.1502378 C35.9302482,22.5185847 35.7277534,22.8572202 35.4030597,23.0311558 C35.0783661,23.2050914 34.6842652,23.186047 34.3778558,22.981614 Z" id="Shape" fill="#ECFCF7"></path>
                            <path d="M21.957115,26.0116959 L25.9493177,26.0116959 C26.5005259,26.0116959 26.9473684,26.4585385 26.9473684,27.0097466 L26.9473684,33.9961014 L20.9590643,33.9961014 L20.9590643,27.0097466 C20.9590643,26.4585385 21.4059069,26.0116959 21.957115,26.0116959 Z" id="Shape" fill="#ECFCF7"></path>
                            <path d="M22.4561404,46.9108772 C23.4498065,46.9757497 24.4466457,46.9757497 25.4403119,46.9108772 C16.4501304,46.3233906 8.63586718,40.5286002 5.46304359,32.0964182 C2.29021999,23.6642362 4.34615323,14.1555326 10.7190643,7.78729045 C14.646015,3.84004191 19.8832326,1.46855879 25.4403119,1.12130994 C12.7958721,0.297253726 1.87749871,9.87956797 1.0534425,22.5240078 C0.229386279,35.1684476 9.8117005,46.086821 22.4561404,46.9108772 Z" id="Shape" fill="#FFFFFF"></path>
                            <path d="M8.42753996,8.48991813 C6.97989156,9.9706878 5.73419492,11.6362029 4.72277583,13.4432437 C3.72241909,15.2557468 2.98862153,17.2030164 2.54403119,19.2249513 C1.74163205,22.8334828 1.85347316,26.5853059 2.86939571,30.1396335 C3.92703499,33.6798775 5.83529415,36.9073677 8.42753996,39.5402729 L7.01529825,40.9535127 C4.18554556,38.0820468 2.10362102,34.5600816 0.952140351,30.6965458 C-0.155700847,26.8200597 -0.277150634,22.7281625 0.598830409,18.7927953 C1.08349404,16.5854597 1.88349071,14.4594181 2.97419103,12.4801248 C4.07692651,10.5088733 5.43576592,8.69227716 7.01529825,7.07767641 L8.42753996,8.48991813 Z" id="Shape" fill="#FFFFFF"></path>
                            <path d="M4.0251384,13.8025419 C3.9910019,13.743818 3.9497723,13.6895157 3.90237817,13.6408577 C3.86421257,13.589091 3.81884115,13.5430474 3.76764133,13.5041248 C3.71385227,13.4639189 3.65751032,13.4272466 3.59897076,13.3943392 C3.36594666,13.2739766 3.09411666,13.2530943 2.8454425,13.3364522 C2.72186935,13.3863533 2.60903909,13.4595405 2.51309162,13.5520312 C2.21381204,13.8371348 2.1037284,14.2681666 2.22964522,14.6618635 C2.32923789,14.904362 2.51879207,15.0989232 2.75861209,15.2048031 C3.00644387,15.3011436 3.28028345,15.3071503 3.53210136,15.22177 C3.77566854,15.1358834 3.97430586,14.9553984 4.08307024,14.7211512 C4.19183461,14.4869039 4.20153359,14.2186921 4.10997271,13.9772008 L4.0251384,13.8025419 Z" id="Shape" fill="#38AA9D"></path>
                            <path d="M9.83778558,38.1300273 C17.6329715,45.9257644 30.271912,45.9262113 38.0676491,38.1310253 C45.8633863,30.3358394 45.8638331,17.6968989 38.0686472,9.90116179 C33.0260461,4.85820396 25.6761045,2.88851446 18.7874743,4.73405628 C11.8988442,6.57959809 6.51807232,11.9599895 4.67204342,18.8484891 C2.82601452,25.7369887 4.79518431,33.0870696 9.83778558,38.1300273 Z M11.2490292,11.3114074 C18.2649323,4.29614151 29.639389,4.29648584 36.6548673,11.3121765 C43.6703456,18.3278672 43.6703456,29.7023238 36.6548673,36.7180145 C29.639389,43.7337052 18.2649323,43.7340495 11.2490292,36.7187836 C7.85169165,33.3645457 5.93942216,28.7892776 5.93942216,24.0150955 C5.93942216,19.2409134 7.85169165,14.6656454 11.2490292,11.3114074 Z" id="Shape" fill="#38AA9D"></path>
                            <path d="M51.47646,43.0693801 C50.6969828,42.2901382 49.43345,42.2901382 48.6539727,43.0693801 L43.4581209,37.8795166 C50.6897566,27.7357284 48.9330413,13.741132 39.4186171,5.69944501 C29.904193,-2.34224192 15.81251,-1.74287122 7.01529825,7.07767641 L5.61902534,8.62166082 C5.15093957,9.13465887 4.77966472,9.72650292 4.35649123,10.2764288 C4.19073699,10.4905957 4.12369087,10.7650593 4.1720356,11.0315264 C4.22038034,11.2979934 4.37957068,11.5314113 4.6099961,11.6736998 C5.06624241,11.9520162 5.65858121,11.8447862 5.98830409,11.4241871 C6.37854191,10.9251618 6.71488499,10.3762339 7.14604288,9.9071501 L8.42654191,8.48991813 C17.0015183,-0.0843408059 30.9036606,-0.0839530582 39.4781587,8.4907842 C48.0526568,17.0655214 48.0526568,30.9676638 39.4781587,39.5424009 C30.9036606,48.1171382 17.0015183,48.117526 8.42654191,39.5432671 C5.8342961,36.9103618 3.92603694,33.6828716 2.86839766,30.1426277 C1.85229953,26.5872737 1.74079961,22.8343578 2.54403119,19.2249513 L2.77058869,18.2977622 C2.88615777,17.77605 2.58950598,17.2512044 2.08293177,17.0811384 C1.82576472,16.9961902 1.54470404,17.023566 1.3087634,17.1565438 C1.07282276,17.2895217 0.90385614,17.5157844 0.843352827,17.7797739 L0.598830409,18.7927953 C-0.277193326,22.727823 -0.155742608,26.8194084 0.952140351,30.6955478 C2.10362102,34.5590836 4.18554556,38.0810488 7.01529825,40.9525146 C15.2783791,49.2111175 28.2968797,50.2962035 37.8131462,43.519501 L43.0030097,48.7153528 C42.2237678,49.4948301 42.2237678,50.7583629 43.0030097,51.5378402 L49.6570136,58.1918441 C51.1657689,59.7250114 53.3809147,60.3311848 55.4600918,59.779853 C57.5392689,59.2285212 59.1630106,57.6043967 59.7138523,55.5250897 C60.264694,53.4457827 59.6579985,51.2307797 58.1244756,49.722386 L51.47646,43.0693801 Z M44.4192437,47.3041092 L39.4080312,42.2928967 C39.9130448,41.865731 40.4140663,41.4295828 40.8911345,40.9535127 C41.3682027,40.4774425 41.8033528,39.975423 42.2305185,39.4704094 L47.242729,44.4816218 L45.8304873,45.8928655 L44.4192437,47.3041092 Z M50.0652164,44.4816218 L52.6731228,47.0895283 L47.0231579,52.7315088 L44.4192437,50.1275945 L50.0652164,44.4816218 Z M56.7182222,56.7815984 C55.137751,58.2872293 52.6537188,58.2872293 51.0732476,56.7815984 L48.4344016,54.1427524 L54.0843665,48.50177 L56.7182222,51.1346277 C57.4672553,51.8833573 57.8880832,52.8990349 57.8880832,53.9581131 C57.8880832,55.0171912 57.4672553,56.0328688 56.7182222,56.7815984 Z" id="Shape" fill="#38AA9D"></path>
                            <path d="M11.5055283,24.8958752 C11.8302344,25.0696208 12.2242336,25.0504388 12.5305263,24.8459727 L14.9707602,23.217154 L14.9707602,32.9980507 C14.9707602,34.100467 15.8644453,34.994152 16.9668616,34.994152 L30.9395712,34.994152 C32.0419875,34.994152 32.9356725,34.100467 32.9356725,32.9980507 L32.9356725,23.217154 L35.3759064,24.8439766 C35.681869,25.0481119 36.0753104,25.0674206 36.3997911,24.8942251 C36.7242717,24.7210296 36.9271951,24.3834042 36.9278753,24.0155945 L36.9278753,19.0253411 C36.9278753,18.6917142 36.7612703,18.3801259 36.4837427,18.194963 L24.5071345,10.2105575 C24.1717526,9.98679504 23.7346801,9.98679504 23.3992982,10.2105575 L11.4226901,18.194963 C11.1451624,18.3801259 10.9785574,18.6917142 10.9785574,19.0253411 L10.9785574,24.0155945 C10.9785574,24.3837571 11.1809567,24.7221025 11.5055283,24.8958752 Z M21.957115,32.9980507 L21.957115,27.0097466 L25.9493177,27.0097466 L25.9493177,32.9980507 L21.957115,32.9980507 Z M30.9395712,32.9980507 L27.9454191,32.9980507 L27.9454191,27.0097466 C27.9454191,25.9073302 27.0517341,25.0136452 25.9493177,25.0136452 L21.957115,25.0136452 C20.8546987,25.0136452 19.9610136,25.9073302 19.9610136,27.0097466 L19.9610136,32.9980507 L16.9668616,32.9980507 L16.9668616,21.8877505 L23.9532164,17.2288499 L30.9395712,21.8857544 L30.9395712,32.9980507 Z M12.9746589,19.5592982 L23.9532164,12.2385965 L34.9317739,19.5573021 L34.9317739,22.1522339 L24.5071345,15.2008109 C24.1717526,14.9770485 23.7346801,14.9770485 23.3992982,15.2008109 L12.9746589,22.1502378 L12.9746589,19.5592982 Z" id="Shape" fill="#38AA9D"></path>
                        </g>
                    </g>
                </g>
            </g>
        </g>
    </g>
</svg>