<?xml version="1.0" encoding="UTF-8"?>
<svg width="16px" height="16px" viewBox="0 0 16 16" version="1.1" xmlns="http://www.w3.org/2000/svg" xmlns:xlink="http://www.w3.org/1999/xlink">
    <!-- Generator: Sketch 57.1 (83088) - https://sketch.com -->
    <title>Shape</title>
    <desc>Created with Sketch.</desc>
    <g id="Final-Template" stroke="none" stroke-width="1" fill="none" fill-rule="evenodd">
        <g id="3.1.0-Upsell-Copy-2" transform="translate(-333.000000, -467.000000)" fill="#FFFFFF" fill-rule="nonzero">
            <g id="Group-5" transform="translate(165.000000, 239.000000)">
                <g id="Group-8" transform="translate(155.000000, 215.000000)">
                    <g id="Search" transform="translate(12.000000, 12.000000)">
                        <path d="M12.239925,11.1792 L16.2803625,15.2196375 L15.219705,16.280295 L11.1792675,12.2398575 C10.1632575,13.0296525 8.88657,13.4999625 7.5000375,13.4999625 C4.1863275,13.4999625 1.5000375,10.8136725 1.5000375,7.4999625 C1.5000375,4.1862525 4.1863275,1.4999625 7.5000375,1.4999625 C10.8137475,1.4999625 13.5000375,4.1862525 13.5000375,7.4999625 C13.5000375,8.886495 13.029726,10.1631825 12.2399325,11.1791925 L12.239925,11.1792 Z M7.50003,11.99997 C9.9853125,11.99997 12.00003,9.9852525 12.00003,7.49997 C12.00003,5.0146875 9.9853125,2.99997 7.50003,2.99997 C5.0147475,2.99997 3.00003,5.0146875 3.00003,7.49997 C3.00003,9.9852525 5.0147475,11.99997 7.50003,11.99997 Z" id="Shape"></path>
                    </g>
                </g>
            </g>
        </g>
    </g>
</svg>