<?xml version="1.0" encoding="UTF-8"?>
<svg width="10px" height="13px" viewBox="0 0 10 13" version="1.1" xmlns="http://www.w3.org/2000/svg" xmlns:xlink="http://www.w3.org/1999/xlink">
    <!-- Generator: Sketch 57.1 (83088) - https://sketch.com -->
    <title></title>
    <desc>Created with Sketch.</desc>
    <g id="Final-Template" stroke="none" stroke-width="1" fill="none" fill-rule="evenodd">
        <g id="01-Home-Page" transform="translate(-878.000000, -586.000000)" fill="#08413C" fill-rule="nonzero">
            <g id="02-Header" transform="translate(1.000000, -80.000000)">
                <g id="Form" transform="translate(497.000000, 472.000000)">
                    <g id="Text-fill" transform="translate(30.000000, 30.000000)">
                        <g id="4" transform="translate(0.000000, 146.000000)">
                            <path d="M358.973214,25.5982143 C359.08631,25.7113101 359.142857,25.8452373 359.142857,26 C359.142857,26.1547627 359.08631,26.2886899 358.973214,26.4017857 L354.973214,30.4017857 C354.860118,30.5148815 354.726191,30.5714286 354.571429,30.5714286 C354.416666,30.5714286 354.282739,30.5148815 354.169643,30.4017857 L350.169643,26.4017857 C350.056547,26.2886899 350,26.1547627 350,26 C350,25.8452373 350.056547,25.7113101 350.169643,25.5982143 C350.282739,25.4851185 350.416666,25.4285714 350.571429,25.4285714 L358.571429,25.4285714 C358.726191,25.4285714 358.860118,25.4851185 358.973214,25.5982143 Z M358.973214,22.1696429 C359.08631,22.2827387 359.142857,22.4166659 359.142857,22.5714286 C359.142857,22.7261912 359.08631,22.8601185 358.973214,22.9732143 C358.860118,23.0863101 358.726191,23.1428571 358.571429,23.1428571 L350.571429,23.1428571 C350.416666,23.1428571 350.282739,23.0863101 350.169643,22.9732143 C350.056547,22.8601185 350,22.7261912 350,22.5714286 C350,22.4166659 350.056547,22.2827387 350.169643,22.1696429 L354.169643,18.1696429 C354.282739,18.0565471 354.416666,18 354.571429,18 C354.726191,18 354.860118,18.0565471 354.973214,18.1696429 L358.973214,22.1696429 Z" id=""></path>
                        </g>
                    </g>
                </g>
            </g>
        </g>
    </g>
</svg>