<?xml version="1.0" encoding="UTF-8"?>
<svg width="80px" height="80px" viewBox="0 0 80 80" version="1.1" xmlns="http://www.w3.org/2000/svg" xmlns:xlink="http://www.w3.org/1999/xlink">
    <title>stay-at-home</title>
    <g id="Page-1" stroke="none" stroke-width="1" fill="none" fill-rule="evenodd">
        <g id="FAQ" transform="translate(-823.000000, -659.000000)" fill-rule="nonzero">
            <g id="Group-4" transform="translate(165.000000, 467.000000)">
                <g id="Group-40" transform="translate(0.000000, 152.000000)">
                    <g id="Group-35-Copy-2" transform="translate(570.000000, 0.000000)">
                        <g id="Feature-title" transform="translate(46.000000, 40.000000)">
                            <g id="stay-at-home" transform="translate(42.000000, 0.000000)">
                                <g id="Group" transform="translate(8.353960, 2.939356)" fill="#B0ECE5">
                                    <polygon id="Path" points="0.0527537129 30.8737624 0.0527537129 73.8852104 31.25 73.8852104 34.6845606 35.4382735 31.25 0.341893564"></polygon>
                                    <polygon id="Path" points="62.5334158 30.8737624 31.5167079 0.0809096535 31.25 0.341893564 31.25 73.8852104 62.5334158 73.8852104"></polygon>
                                </g>
                                <polygon id="Path" fill="#08413C" points="9.45095916 31.2080755 9.45095916 6.20250619 22.5433168 6.20250619 22.5433168 19.6711015"></polygon>
                                <g id="Group">
                                    <polygon id="Path" fill="#38AA9D" points="0.0041769802 39.6471225 3.28233292 42.9252785 39.6039604 6.55646658 41.3012067 4.14433787 39.6039604 0"></polygon>
                                    <polygon id="Path" fill="#38AA9D" points="79.2037438 39.5524443 39.6039604 0 39.6039604 6.55646658 75.9255879 42.8306002"></polygon>
                                    <path d="M24.7851176,72.4543626 L24.7851176,76.6319616 L39.6039604,76.7334468 L42.5275371,69.3409653 L39.6039604,57.5660582 C31.4263614,57.6041151 24.7851176,64.2679455 24.7851176,72.4543626 Z" id="Path" fill="#08413C"></path>
                                </g>
                                <g id="Group" transform="translate(45.792079, 0.000000)" fill="#38AA9D">
                                    <path d="M0.107673267,16.6239171 C0.107673267,25.7903775 7.56512995,33.2478342 16.7315903,33.2478342 L21.2608292,17.7356126 L16.7315903,-2.19846143e-15 C7.56512995,-2.19846143e-15 0.107673267,7.45745668 0.107673267,16.6239171 Z" id="Path"></path>
                                    <path d="M16.7315903,0 L16.7315903,33.2478342 C25.8980507,33.2478342 33.3555074,25.7903775 33.3555074,16.6239171 C33.3555074,7.45745668 25.8980507,0 16.7315903,0 Z" id="Path"></path>
                                </g>
                                <polygon id="Path" fill="#B0ECE5" points="61.0436262 16.6092203 57.4766399 13.0423886 54.1984839 16.3205446 61.0436262 23.1656869 62.5236696 21.6854889 63.782797 17.5310953 62.5236696 15.129177"></polygon>
                                <polygon id="Path" fill="#B0ECE5" points="67.5706993 10.0821473 62.5236696 15.129177 62.5236696 21.6854889 70.8488552 13.3603032"></polygon>
                                <path d="M54.5632735,76.8360149 L54.5632735,72.4543626 C54.5632735,64.2444307 47.8839728,57.5652847 39.6741955,57.5652847 C39.6506807,57.5652847 39.6274752,57.5660582 39.6039604,57.5662129 L39.6039604,76.7336015 L54.5632735,76.8360149 Z" id="Path" fill="#08413C"></path>
                                <path d="M39.6039604,44.9155322 C35.5181002,44.9155322 32.1941522,48.2396349 32.1941522,52.3253403 C32.1941522,56.4110458 35.5181002,59.7351485 39.6039604,59.7351485 L42.1188119,53.2971844 L39.6039604,44.9155322 Z" id="Path" fill="#FDF9F9"></path>
                                <path d="M47.0137686,52.3253403 C47.0137686,48.2394802 43.6896658,44.9155322 39.6039604,44.9155322 L39.6039604,59.7351485 C43.6898205,59.7351485 47.0137686,56.4112005 47.0137686,52.3253403 Z" id="Path" fill="#FDF9F9"></path>
                                <g id="Group" transform="translate(0.000000, 74.566832)" fill="#38AA9D">
                                    <polygon id="Path" points="0 0 0 4.64108911 39.6039604 4.64108911 41.1991027 2.43827351 39.6039604 0"></polygon>
                                    <polygon id="Path" points="39.6039604 0 79.2079208 0 79.2079208 4.64108911 39.6039604 4.64108911"></polygon>
                                </g>
                            </g>
                        </g>
                    </g>
                </g>
            </g>
        </g>
    </g>
</svg>