<?xml version="1.0" encoding="UTF-8"?>
<svg width="12px" height="14px" viewBox="0 0 12 14" version="1.1" xmlns="http://www.w3.org/2000/svg" xmlns:xlink="http://www.w3.org/1999/xlink">
    <!-- Generator: Sketch 58 (84663) - https://sketch.com -->
    <title></title>
    <desc>Created with Sketch.</desc>
    <g id="Page-1" stroke="none" stroke-width="1" fill="none" fill-rule="evenodd">
        <g id="01-Home-Page-Copy" transform="translate(-180.000000, -4648.000000)" fill="#FFFFFF" fill-rule="nonzero">
            <g id="07-Working-with-us" transform="translate(165.000000, 4293.000000)">
                <g id="Icon-set" transform="translate(0.000000, 134.000000)">
                    <g id="5" transform="translate(1.000000, 208.000000)">
                        <g id="Group-4">
                            <path d="M25.46875,16.71875 C25.541667,16.791667 25.614583,16.8854161 25.6875,17 L22,17 L22,13.3125 C22.1145839,13.385417 22.208333,13.458333 22.28125,13.53125 L25.46875,16.71875 Z M21.75,18 L26,18 L26,26.25 C26,26.4583344 25.9270841,26.6354159 25.78125,26.78125 C25.6354159,26.9270841 25.4583344,27 25.25,27 L14.75,27 C14.5416656,27 14.3645841,26.9270841 14.21875,26.78125 C14.0729159,26.6354159 14,26.4583344 14,26.25 L14,13.75 C14,13.5416656 14.0729159,13.3645841 14.21875,13.21875 C14.3645841,13.0729159 14.5416656,13 14.75,13 L21,13 L21,17.25 C21,17.4583344 21.0729159,17.6354159 21.21875,17.78125 C21.3645841,17.9270841 21.5416656,18 21.75,18 Z M23,23.75 L23,23.25 C23,23.177083 22.9765627,23.1171877 22.9296875,23.0703125 C22.8828123,23.0234373 22.822917,23 22.75,23 L17.25,23 C17.177083,23 17.1171877,23.0234373 17.0703125,23.0703125 C17.0234373,23.1171877 17,23.177083 17,23.25 L17,23.75 C17,23.822917 17.0234373,23.8828123 17.0703125,23.9296875 C17.1171877,23.9765627 17.177083,24 17.25,24 L22.75,24 C22.822917,24 22.8828123,23.9765627 22.9296875,23.9296875 C22.9765627,23.8828123 23,23.822917 23,23.75 Z M23,21.75 L23,21.25 C23,21.177083 22.9765627,21.1171877 22.9296875,21.0703125 C22.8828123,21.0234373 22.822917,21 22.75,21 L17.25,21 C17.177083,21 17.1171877,21.0234373 17.0703125,21.0703125 C17.0234373,21.1171877 17,21.177083 17,21.25 L17,21.75 C17,21.822917 17.0234373,21.8828123 17.0703125,21.9296875 C17.1171877,21.9765627 17.177083,22 17.25,22 L22.75,22 C22.822917,22 22.8828123,21.9765627 22.9296875,21.9296875 C22.9765627,21.8828123 23,21.822917 23,21.75 Z M23,19.75 C23,19.822917 22.9765627,19.8828123 22.9296875,19.9296875 C22.8828123,19.9765627 22.822917,20 22.75,20 L17.25,20 C17.177083,20 17.1171877,19.9765627 17.0703125,19.9296875 C17.0234373,19.8828123 17,19.822917 17,19.75 L17,19.25 C17,19.177083 17.0234373,19.1171877 17.0703125,19.0703125 C17.1171877,19.0234373 17.177083,19 17.25,19 L22.75,19 C22.822917,19 22.8828123,19.0234373 22.9296875,19.0703125 C22.9765627,19.1171877 23,19.177083 23,19.25 L23,19.75 Z" id=""></path>
                        </g>
                    </g>
                </g>
            </g>
        </g>
    </g>
</svg>