<?xml version="1.0" encoding="UTF-8"?>
<svg width="40px" height="27px" viewBox="0 0 40 27" version="1.1" xmlns="http://www.w3.org/2000/svg" xmlns:xlink="http://www.w3.org/1999/xlink">
    <!-- Generator: Sketch 57.1 (83088) - https://sketch.com -->
    <title>visa (4)</title>
    <desc>Created with Sketch.</desc>
    <g id="Final-Template" stroke="none" stroke-width="1" fill="none" fill-rule="evenodd">
        <g id="3.3--Upsell" transform="translate(-563.000000, -1309.000000)" fill-rule="nonzero">
            <g id="Group-11" transform="translate(513.000000, 1011.000000)">
                <g id="Group-10" transform="translate(30.000000, 83.000000)">
                    <g id="5-copy-5" transform="translate(0.000000, 205.000000)">
                        <g id="visa-(4)" transform="translate(20.000000, 10.000000)">
                            <path d="M40,24.6855963 C40,25.963806 38.9414062,27 37.6355469,27 L2.36445312,27 C1.05859375,27 0,25.963806 0,24.6855963 L0,2.31432722 C0,1.03611755 1.05859375,0 2.36445312,0 L37.6355469,0 C38.9414844,0 40,1.03619402 40,2.31432722 L40,24.6855963 L40,24.6855963 Z" id="Path" fill="#FFFFFF"></path>
                            <path d="M9,14 L8.1323823,9.77829671 C7.98407467,9.19611144 7.55250307,9.02291261 7.01325507,9 L3.03543506,9 L3,9.1928905 C6.09815006,9.95471648 8.14811518,11.7925567 9,14 Z" id="Path" fill="#F79F1A"></path>
                            <g id="Group" fill="#2D4990">
                                <polygon id="Path" points="18.8373854 8.503792 16.0578341 8.503792 14.3218732 18.423844 17.0968195 18.423844"></polygon>
                                <path d="M10.5635122,18.413888 L14.9350244,8.510556 L11.9932878,8.510556 L9.27383415,15.276684 L8.98357073,14.255092 C8.45049756,13.026096 6.92698537,11.257196 5.13841951,10.143644 L7.62427317,18.417232 L10.5635122,18.413888 Z" id="Path"></path>
                                <path d="M26.7653463,15.181 C26.7756488,14.054756 26.0330146,13.195728 24.4327024,12.486192 C23.4601366,12.027912 22.8673561,11.722316 22.8744585,11.257272 C22.8744585,10.846416 23.3764683,10.405084 24.4641561,10.405084 C25.3742829,10.39148 26.0295805,10.584976 26.5421268,10.785312 L26.7932878,10.897412 L27.1699512,8.74836 C26.6190049,8.547948 25.7577366,8.334084 24.6805854,8.334084 C21.9366244,8.334084 20.0051512,9.6786 19.9876683,11.606948 C19.9701854,13.032936 21.3685073,13.827364 22.4213073,14.302592 C23.5020488,14.787016 23.8646634,15.09702 23.8577171,15.531588 C23.8507707,16.196056 22.9964488,16.499068 22.1980878,16.499068 C21.0858927,16.499068 20.4966244,16.349728 19.5827512,15.979 L19.2276293,15.82016 L18.8375415,18.043084 C19.4855805,18.318888 20.6848,18.55996 21.929678,18.569992 C24.8476878,18.569992 26.7444293,17.242576 26.7653463,15.181 Z" id="Path"></path>
                                <path d="M30.0669659,16.93698 C30.3842341,16.93698 33.2187317,16.9404 33.6233366,16.9404 C33.7070049,17.28582 33.961522,18.42734 33.961522,18.42734 L36.5379902,18.42734 L34.2891707,8.514052 L32.1450146,8.514052 C31.4790244,8.514052 30.9841171,8.6906 30.691122,9.335536 L26.5666341,18.42734 L29.4850341,18.42734 C29.4848,18.42734 29.9588683,17.205336 30.0669659,16.93698 Z M31.9704976,12.13302 C31.956761,12.160152 32.2007415,11.559296 32.3402146,11.185832 L32.5283902,12.041288 C32.5283902,12.041288 33.0584976,14.41112 33.1699512,14.906792 L30.8653268,14.906792 C31.0954927,14.336488 31.9704976,12.13302 31.9704976,12.13302 Z" id="Shape"></path>
                                <path d="M37.5988293,0.034276 L2.36214634,0.034276 C1.05756098,0.034276 0,1.064076 0,2.334492 L0,4.721804 L39.9609756,4.721804 L39.9609756,2.334492 C39.9609756,1.064076 38.9034927,0.034276 37.5988293,0.034276 Z" id="Path"></path>
                            </g>
                            <path d="M37.6355469,27 L2.36445312,27 C1.05859375,27 0,25.9014722 0,24.5464509 L0,22 L40,22 L40,24.5464509 C40,25.9014722 38.9414844,27 37.6355469,27 Z" id="Path" fill="#F89F1B"></path>
                        </g>
                    </g>
                </g>
            </g>
        </g>
    </g>
</svg>