<?xml version="1.0" encoding="UTF-8"?>
<svg width="1447px" height="269px" viewBox="0 0 1447 269" version="1.1" xmlns="http://www.w3.org/2000/svg" xmlns:xlink="http://www.w3.org/1999/xlink">
    <defs>
        <path d="M1,0.499065479 L1441,0.499065479 L1440,247.872063 C1163.59931,222.277868 910.199741,222.650003 679.801278,248.988466 C449.402816,275.32693 222.80239,274.998555 0,248.003341 L1,0.499065479 Z" id="path-1"></path>
        <linearGradient x1="99.797366%" y1="0%" x2="0.202634037%" y2="100%" id="linearGradient-3">
            <stop stop-color="#38A89D" offset="0%"></stop>
            <stop stop-color="#24C790" offset="100%"></stop>
        </linearGradient>
    </defs>
    <g id="Page-1" stroke="none" stroke-width="1" fill="none" fill-rule="evenodd">
        <g id="About-Us" transform="translate(6.000000, -78.000000)">
            <g id="Shape" transform="translate(-6.000000, 78.000000)">
                <g id="Bg" transform="translate(6.000000, 0.000000)">
                    <mask id="mask-2" fill="white">
                        <use xlink:href="#path-1"></use>
                    </mask>
                    <use id="Rectangle" fill="#ECFCF7" xlink:href="#path-1"></use>
                    <path d="M-113.52782,423.92677 L382.846807,-90.4022277 C384.762215,-92.3913681 387.927541,-92.4475977 389.914536,-90.5299656 C389.915277,-90.5292501 389.916018,-90.5285345 389.914612,-90.5255967 L863.404375,367.001054 C865.387167,368.921299 865.442389,372.084957 863.52782,374.07323 L367.153193,888.402228 C365.237785,890.391368 362.072459,890.447598 360.085464,888.529966 C360.084723,888.52925 360.083982,888.528534 360.085388,888.525597 L-113.404375,430.998946 C-115.387167,429.078701 -115.442389,425.915043 -113.52782,423.92677 Z" id="Rectangle" fill="url(#linearGradient-3)" opacity="0.0505952381" mask="url(#mask-2)"></path>
                    <path d="M736.47218,101.92677 L1232.84681,-412.402228 C1234.76222,-414.391368 1237.92754,-414.447598 1239.91454,-412.529966 C1239.91528,-412.52925 1239.91602,-412.528534 1239.91461,-412.525597 L1713.40437,45.0010544 C1715.38717,46.921299 1715.44239,50.0849568 1713.52782,52.0732301 L1217.15319,566.402228 C1215.23778,568.391368 1212.07246,568.447598 1210.08546,566.529966 C1210.08472,566.52925 1210.08398,566.528534 1210.08539,566.525597 L736.595625,108.998946 C734.612833,107.078701 734.557611,103.915043 736.47218,101.92677 Z" id="Rectangle-Copy-5" fill="url(#linearGradient-3)" opacity="0.0382486979" mask="url(#mask-2)"></path>
                </g>
                <g id="Group-2" transform="translate(596.000000, 205.000000)" fill-rule="nonzero">
                    <rect id="Rectangle" fill="#3F3D56" x="17.8478681" y="15.944235" width="1" height="31.5999981"></rect>
                    <path d="M26.0309596,19.9712908 C26.0818876,31.0210222 18.307816,40.0146176 18.307816,40.0146176 C18.307816,40.0146176 10.4511765,31.0930621 10.4002485,20.0433308 C10.3493205,8.99359946 18.1233961,1.77635684e-14 18.1233961,1.77635684e-14 C18.1233961,1.77635684e-14 25.9800356,8.92155947 26.0309596,19.9712908 Z" id="Path" fill="#000000" opacity="0.1"></path>
                    <rect id="Rectangle" fill="#3F3D56" x="7.44786869" y="15.944235" width="1" height="31.5999981"></rect>
                    <path d="M15.6309602,19.9712908 C15.6818882,31.0210222 7.90781666,40.0146176 7.90781666,40.0146176 C7.90781666,40.0146176 0.0511771307,31.0930621 0.000249133772,20.0433308 C-0.0506788632,8.99359946 7.72339667,1.77635684e-14 7.72339667,1.77635684e-14 C7.72339667,1.77635684e-14 15.5800362,8.92155947 15.6309602,19.9712908 Z" id="Path" fill="#34AD9A"></path>
                </g>
                <g id="Group-2-Copy" transform="translate(13.500000, 218.000000) scale(-1, 1) translate(-13.500000, -218.000000) translate(0.000000, 194.000000)" fill-rule="nonzero">
                    <rect id="Rectangle" fill="#3F3D56" x="17.8478681" y="15.944235" width="1" height="31.5999981"></rect>
                    <path d="M26.0309596,19.9712908 C26.0818876,31.0210222 18.307816,40.0146176 18.307816,40.0146176 C18.307816,40.0146176 10.4511765,31.0930621 10.4002485,20.0433308 C10.3493205,8.99359946 18.1233961,1.77635684e-14 18.1233961,1.77635684e-14 C18.1233961,1.77635684e-14 25.9800356,8.92155947 26.0309596,19.9712908 Z" id="Path" fill="#000000" opacity="0.1"></path>
                    <rect id="Rectangle" fill="#3F3D56" x="7.44786869" y="15.944235" width="1" height="31.5999981"></rect>
                    <path d="M15.6309602,19.9712908 C15.6818882,31.0210222 7.90781666,40.0146176 7.90781666,40.0146176 C7.90781666,40.0146176 0.0511771307,31.0930621 0.000249133772,20.0433308 C-0.0506788632,8.99359946 7.72339667,1.77635684e-14 7.72339667,1.77635684e-14 C7.72339667,1.77635684e-14 15.5800362,8.92155947 15.6309602,19.9712908 Z" id="Path" fill="#34AD9A"></path>
                </g>
            </g>
        </g>
    </g>
</svg>