<?xml version="1.0" encoding="UTF-8"?>
<svg width="1113px" height="250px" viewBox="0 0 1113 250" version="1.1" xmlns="http://www.w3.org/2000/svg" xmlns:xlink="http://www.w3.org/1999/xlink">
    <title>Bg</title>
    <defs>
        <linearGradient x1="100%" y1="47.4773344%" x2="0%" y2="52.5226656%" id="linearGradient-1">
            <stop stop-color="#24C790" offset="0%"></stop>
            <stop stop-color="#38A89D" offset="100%"></stop>
        </linearGradient>
        <rect id="path-2" x="0" y="0" width="1113" height="250" rx="4"></rect>
        <linearGradient x1="99.797366%" y1="0%" x2="0.202634037%" y2="100%" id="linearGradient-4">
            <stop stop-color="#38A89D" offset="0%"></stop>
            <stop stop-color="#24C790" offset="100%"></stop>
        </linearGradient>
        <linearGradient x1="99.6962032%" y1="1.05475548e-30%" x2="0.303796765%" y2="100%" id="linearGradient-5">
            <stop stop-color="#24C790" offset="0%"></stop>
            <stop stop-color="#38A89D" offset="100%"></stop>
        </linearGradient>
        <linearGradient x1="99.8985287%" y1="100%" x2="0.101471308%" y2="2.83276945e-14%" id="linearGradient-6">
            <stop stop-color="#24C790" offset="0%"></stop>
            <stop stop-color="#38A89D" offset="100%"></stop>
        </linearGradient>
    </defs>
    <g id="Page-1" stroke="none" stroke-width="1" fill="none" fill-rule="evenodd">
        <g id="About-Us" transform="translate(-165.000000, -2254.000000)">
            <g id="Group-12" transform="translate(165.000000, 2040.000000)">
                <g id="Bg" transform="translate(0.000000, 214.000000)">
                    <mask id="mask-3" fill="white">
                        <use xlink:href="#path-2"></use>
                    </mask>
                    <use id="Rectangle" fill="url(#linearGradient-1)" xlink:href="#path-2"></use>
                    <path d="M43.7006469,-164.461273 L540.075273,-678.790271 C541.990682,-680.779411 545.156008,-680.835641 547.143003,-678.918009 C547.143744,-678.917293 547.144485,-678.916578 547.143079,-678.91364 L1020.63284,-221.386989 C1022.61563,-219.466744 1022.67086,-216.303086 1020.75629,-214.314813 L524.38166,300.014185 C522.466251,302.003325 519.300926,302.059555 517.313931,300.141922 C517.31319,300.141207 517.312449,300.140491 517.313855,300.137554 L43.8240922,-157.389098 C41.8412994,-159.309342 41.7860776,-162.473 43.7006469,-164.461273 Z" id="Rectangle" fill="url(#linearGradient-4)" mask="url(#mask-3)"></path>
                    <path d="M452.693152,741.542841 L948.559923,227.21738 C950.476545,225.229412 953.641841,225.171574 955.62981,227.088196 C955.631771,227.090087 955.63373,227.091979 955.635688,227.093873 L1428.64048,684.616861 C1430.62302,686.534512 1430.67819,689.695401 1428.76378,691.681073 L932.897011,1206.00653 C930.980389,1207.9945 927.815092,1208.05234 925.827124,1206.13572 C925.825163,1206.13383 925.823203,1206.13193 925.821245,1206.13004 L452.816458,748.607052 C450.833917,746.689402 450.778744,743.528513 452.693152,741.542841 Z" id="Rectangle-Copy-14" fill="url(#linearGradient-5)" mask="url(#mask-3)"></path>
                    <path d="M893.702471,48.0115583 L1390.07345,-465.792032 C1391.99298,-467.776122 1395.15724,-467.831355 1397.14484,-465.915463 L1870.63108,-8.85623555 C1872.61924,-6.93980683 1872.67511,-3.77447511 1870.75726,-1.78769338 C1870.7568,-1.78721858 1870.75635,-1.78674387 1870.75446,-1.78764452 L1374.38348,512.015946 C1372.46396,514.000036 1369.29969,514.055268 1367.31209,512.139377 L893.825853,55.0801493 C891.837697,53.1637206 891.781819,49.9983888 893.699672,48.0116071 C893.70013,48.0111323 893.700589,48.0106576 893.702471,48.0115583 Z" id="Rectangle-Copy-12" fill="url(#linearGradient-6)" mask="url(#mask-3)"></path>
                    <path d="M-365.297529,559.011558 L131.07345,45.2079682 C132.992976,43.2238778 136.157239,43.1686454 138.14484,45.0845366 L611.63108,502.143764 C613.619237,504.060193 613.675115,507.225525 611.757262,509.212307 C611.756804,509.212781 611.756345,509.213256 611.754463,509.212355 L115.383484,1023.01595 C113.463958,1025.00004 110.299694,1025.05527 108.312094,1023.13938 L-365.174147,566.080149 C-367.162303,564.163721 -367.218181,560.998389 -365.300328,559.011607 C-365.29987,559.011132 -365.299411,559.010658 -365.297529,559.011558 Z" id="Rectangle-Copy-13" fill="url(#linearGradient-6)" mask="url(#mask-3)"></path>
                </g>
            </g>
        </g>
    </g>
</svg>