<?xml version="1.0" encoding="UTF-8"?>
<svg width="453px" height="240px" viewBox="0 0 453 240" version="1.1" xmlns="http://www.w3.org/2000/svg" xmlns:xlink="http://www.w3.org/1999/xlink">
    <!-- Generator: Sketch 57.1 (83088) - https://sketch.com -->
    <title>Group 2</title>
    <desc>Created with Sketch.</desc>
    <defs>
        <polygon id="path-1" points="0.428489141 0.236556173 10.6964733 0.236556173 10.6964733 35.7428571 0.428489141 35.7428571"></polygon>
    </defs>
    <g id="Final-Template" stroke="none" stroke-width="1" fill="none" fill-rule="evenodd">
        <g id="04-Thank-you-" transform="translate(-479.000000, -896.000000)">
            <g id="Group-2" transform="translate(479.000000, 896.000000)">
                <g id="Group-45">
                    <g id="Group-3" transform="translate(237.000000, 203.500000)">
                        <mask id="mask-2" fill="white">
                            <use xlink:href="#path-1"></use>
                        </mask>
                        <g id="Clip-2"></g>
                        <path d="M10.6964733,31.8303257 C10.6370733,32.1034114 10.5160733,33.1864971 10.1552733,34.1700686 C9.64267333,35.5563257 7.74847333,36.1534114 6.53187333,35.4406114 C0.754673333,32.04324 -0.0483266667,30.45564 0.631473333,23.4803829 C1.25847333,17.04204 1.93607333,10.6152686 2.59167333,4.18386857 C2.63567333,3.75341143 2.63567333,3.31601143 2.73247333,2.89944 C3.01847333,1.67286857 4.82907333,0.0760114286 5.91367333,0.249582857 C7.21167333,0.460182857 8.27427333,1.26786857 8.54047333,2.65644 C8.98487333,4.97766857 9.54587333,7.35212571 9.49747333,9.69186857 C9.36987333,15.7714971 9.91327333,21.7770686 10.6106733,27.7895829 C10.7360733,28.8564686 10.6634733,29.9488114 10.6964733,31.8303257" id="Fill-1" fill="#38AA9D" mask="url(#mask-2)"></path>
                    </g>
                    <path d="M231.904993,28.9222239 C231.869733,29.4334711 231.803914,31.1452366 231.615861,32.8433079 C231.441911,34.4204144 230.092626,35.5068149 228.489469,35.5 C226.757025,35.4954031 225.179725,34.4706262 225.257297,32.9848138 C225.584041,26.7585524 223.134642,20.7445498 223.83044,14.5068766 C224.027897,12.7448994 223.647088,11.1221458 222.913679,9.52906273 C222.375375,8.36049753 221.837072,7.18280291 221.442159,5.96402593 C220.177499,2.05891839 221.623161,0.28552941 225.812056,0.520611863 C226.902767,0.582235418 227.995828,0.637011912 229.086539,0.73515313 C231.159831,0.920023796 232.135359,1.63440057 231.984916,3.39637778 C231.289117,11.5055812 232.295204,19.6147846 231.904993,28.9222239" id="Fill-4" fill="#38AA9D"></path>
                    <path d="M277.325702,38.4247989 C276.582423,38.3009655 275.726527,38.228917 274.913425,38.0060168 C273.478673,37.6165043 272.688095,36.0066696 273.116043,34.4981532 C273.174604,34.2955167 273.289474,34.1108923 273.36155,33.9127588 C275.640937,27.543217 277.90681,21.1691723 280.210974,14.8086366 C280.569099,13.8224722 281.026328,12.8520683 281.584913,11.9649706 C282.382248,10.695115 284.046741,10.1547509 285.431942,10.7288877 C286.783357,11.291767 287.990622,12.0978101 289.490693,12.4265316 C291.060587,12.7710137 291.290328,13.669369 290.706967,15.3512522 C290.429927,16.1527923 290.236224,17.0173749 289.794761,17.7220997 C286.190987,23.4904864 283.368781,29.6101097 281.215526,36.0652091 C280.4272,38.4202959 279.717707,38.6702143 277.325702,38.4247989" id="Fill-6" fill="#38AA9D"></path>
                    <path d="M174.392614,189.500962 C176.251274,189.453599 177.904187,191.163169 177.992034,192.753204 C178.109934,194.900315 176.903192,196.388858 175.428285,197.631566 C174.300144,198.585587 172.922331,199.28024 171.593065,199.974894 C168.056063,201.813019 165.330491,204.413459 163.407102,207.848385 C162.889266,208.768576 162.269713,209.64817 161.603924,210.471379 C160.600618,211.711832 158.83674,211.85392 157.599945,210.769088 C156.802386,210.069923 156.090362,209.262502 155.436132,208.432526 C153.297748,205.717062 153.461884,204.122517 156.50648,202.27537 C160.209929,200.024512 163.485702,197.320325 166.479439,194.271067 C168.303422,192.412643 170.407129,190.996272 172.81599,189.994888 C173.400867,189.749053 174.031979,189.611475 174.392614,189.500962" id="Fill-8" fill="#38AA9D"></path>
                    <path d="M175.102063,31.5 C175.73921,31.8766863 176.40121,32.0912834 176.807899,32.5387411 C178.098009,33.9564515 179.34293,35.4221038 180.515552,36.9425469 C182.849497,39.9788671 184.693156,43.4032884 187.982822,45.6565576 C189.381382,46.6153955 189.288748,49.2887271 188.005416,50.8616779 C187.675546,51.2680426 186.905095,51.3273992 186.319914,51.4894885 C186.15046,51.5351474 185.906447,51.423283 185.727955,51.3228333 C180.163087,48.2248735 174.562069,45.1931192 169.060464,41.9878609 C166.459911,40.4719838 166.346942,38.4766876 168.574696,36.287341 C170.093004,34.7942933 171.742356,33.4336566 173.398486,32.0981323 C173.845844,31.7374265 174.537216,31.6872017 175.102063,31.5" id="Fill-10" fill="#38AA9D"></path>
                    <path d="M316.939941,201.995141 C316.798773,202.35364 316.504866,203.131134 316.199388,203.904147 C314.429001,208.369698 313.21403,208.528782 309.404807,205.196983 C304.753204,201.128022 300.175656,196.938067 294.494221,194.15522 C293.917977,193.872902 293.364876,193.512162 292.869631,193.108851 C291.920797,192.344801 291.726401,190.713631 292.395214,189.644856 C293.874007,187.281005 295.813332,186.857528 298.282616,188.441645 C300.27054,189.718797 302.186723,191.101258 304.172332,192.376169 C306.882296,194.117129 309.661687,195.631787 312.940951,196.310694 C316.391469,197.025451 317.254677,198.40119 316.939941,201.995141" id="Fill-12" fill="#38AA9D"></path>
                    <g id="Group-8" transform="translate(0.000000, 10.500000)" fill="#B0ECE5">
                        <path d="M448.901271,69.3340933 C448.628186,69.3252933 448.5009,69.2328933 448.278729,69.0788933 C448.2255,69.0194933 448.1931,68.9512933 448.186157,68.8742933 C448.174586,69.0524933 448.186157,69.0854933 448.220871,68.9710933 C448.248643,68.9248933 448.285671,68.8918933 448.331957,68.8654933 C448.459243,68.8368933 448.408329,68.8368933 448.1769,68.8676933 C448.068129,68.7334933 447.845957,68.7906933 447.843643,68.6168933 C447.841329,68.4914933 448.156071,68.2582933 448.179214,68.2472933 C448.341214,68.1460933 448.510157,68.1394933 448.6791,68.2296933 C448.644386,68.2340933 448.609671,68.2274933 448.577271,68.2142933 C448.558757,68.2362933 448.586529,67.9744933 448.618929,67.9282933 C448.827214,67.6400933 449.021614,67.4926933 449.336357,67.3188933 C448.510157,67.2154933 447.686271,67.1142933 446.860071,67.0130933 C447.327557,67.4750933 447.746443,67.9106933 448.012586,68.5002933 C447.785786,67.9964933 448.100529,68.9688933 447.954729,68.8720933 C448.093586,68.6630933 448.311129,68.5926933 448.609671,68.6520933 C448.514786,68.4034933 448.658271,68.6256933 449.042443,69.3164933 C448.9707,66.8194933 444.883671,66.8106933 444.9531,69.3164933 C445.036414,72.2248933 448.903586,73.5690933 450.9957,71.4460933 C453.249814,69.1580933 451.664529,66.1528933 449.750614,64.2652933 C449.121129,63.6470933 448.0473,63.5348933 447.272014,63.9638933 C444.439329,65.5302933 443.196557,69.5122933 446.374071,71.4482933 C449.211386,73.1752933 452.594871,70.7860933 451.808014,67.7280933 C450.988757,64.5314933 446.705014,64.2080933 444.860529,66.7710933 C442.731386,69.7300933 445.554814,73.1070933 448.901271,73.2214933 C451.532614,73.3094933 451.527986,69.4220933 448.901271,69.3340933" id="Fill-14"></path>
                        <path d="M360.589689,177.04979 C360.594392,177.112364 360.59204,177.177173 360.582636,177.237512 C360.632008,176.888886 360.68373,176.538025 360.733102,176.187164 C360.723698,176.247503 360.707241,176.303373 360.686081,176.357008 C360.824792,176.044138 360.965853,175.729034 361.104563,175.416165 C361.066947,175.498851 361.02698,175.561425 360.970555,175.635173 C361.186849,175.369234 361.403143,175.103295 361.619437,174.837356 C361.558311,174.902165 361.497184,174.955799 361.421951,175.011669 C361.701723,174.806069 361.981495,174.600469 362.261266,174.394869 C362.181332,174.446269 362.103748,174.486495 362.014409,174.524487 C362.345903,174.394869 362.677397,174.260782 363.00654,174.126695 C362.881936,174.173626 362.759683,174.207148 362.628026,174.227261 C362.994785,174.18033 363.363896,174.1334 363.730655,174.086469 C363.561382,174.106582 363.39681,174.108817 363.227537,174.088704 C363.594296,174.1334 363.963407,174.182565 364.330166,174.227261 C364.196158,174.207148 364.073905,174.173626 363.946949,174.124461 C364.278444,174.258548 364.607587,174.3904 364.939081,174.522252 C364.849742,174.482026 364.769807,174.435095 364.687521,174.381461 C364.967293,174.584826 365.247065,174.790426 365.529187,174.99826 C365.449253,174.935686 365.388126,174.873113 365.324648,174.79713 C365.538592,175.063069 365.757237,175.329008 365.973531,175.597182 C365.933563,175.545782 365.898298,175.489912 365.870086,175.431808 C366.011147,175.746912 366.149857,176.062016 366.288568,176.374886 C366.234494,176.249738 366.199229,176.135764 366.173368,176.001677 C366.222739,176.352538 366.27211,176.703399 366.321482,177.052025 C366.307376,176.920173 366.305025,176.806199 366.314429,176.672112 C366.265057,177.022973 366.215686,177.373833 366.166314,177.722459 C366.194527,177.550381 366.241547,177.391712 366.309727,177.228573 C366.171017,177.543677 366.029955,177.856546 365.891245,178.17165 C365.973531,178.010746 366.067572,177.863251 366.180421,177.720225 C365.964127,177.986164 365.747832,178.252103 365.531538,178.518042 C365.656143,178.379485 365.785449,178.254337 365.935914,178.135894 C365.653792,178.341494 365.376371,178.549329 365.094248,178.754929 C365.249416,178.645424 365.406934,178.553798 365.583261,178.473346 L364.591129,178.871137 C364.725138,178.819737 364.852093,178.779511 364.993154,178.745989 C363.92579,178.614137 362.858426,178.482285 361.793413,178.348198 C361.828678,178.372781 361.863944,178.399598 361.899209,178.421946 L361.057543,177.807381 C361.125723,177.858781 361.184498,177.921355 361.236221,177.988398 C361.019927,177.722459 360.803633,177.45652 360.587338,177.188346 C360.639061,177.25539 360.686081,177.326903 360.723698,177.400651 C360.582636,177.087781 360.443926,176.772677 360.302865,176.457573 C360.356938,176.580486 360.392204,176.68999 360.420416,176.817373 C360.371044,176.466512 360.321673,176.117886 360.272301,175.76926 C360.286408,175.896643 360.288759,176.010617 360.277004,176.142469 C360.326375,175.793843 360.375746,175.442982 360.425118,175.092121 C360.413363,175.174808 360.392204,175.25526 360.36164,175.333478 C360.500351,175.020608 360.641412,174.705504 360.780122,174.392634 C360.749559,174.470852 360.711943,174.5446 360.662571,174.613878 C359.921999,175.843008 359.907893,177.373833 360.662571,178.598494 C361.445462,179.870085 362.757332,180.448893 364.250231,180.553928 C366.337939,180.703658 368.190545,179.137076 368.792406,177.331373 C369.424831,175.434043 368.573761,173.250661 366.763474,172.233835 C364.939081,171.20807 362.555144,171.541053 361.076351,172.975783 C359.677493,174.327826 359.106194,176.821842 360.363991,178.444294 C361.02698,179.297981 361.727584,179.96618 362.84432,180.258937 C363.838802,180.518171 365.162428,180.399728 366.046412,179.861146 C366.932748,179.315859 367.713287,178.506868 367.953091,177.501216 C368.185843,176.529086 368.185843,175.297721 367.534609,174.459678 C367.51345,174.430626 367.492291,174.403808 367.471132,174.376991 C367.609842,174.68986 367.748552,175.004965 367.889614,175.320069 C367.8567,175.25973 367.837891,175.199391 367.837891,175.132347 C367.887263,175.480973 367.936634,175.831834 367.986006,176.18046 C367.988357,176.149173 367.990708,176.115651 367.99541,176.08213 C367.946038,176.43299 367.894316,176.783851 367.844944,177.132477 C367.8567,177.098955 367.866104,177.067668 367.875508,177.034147 C367.734446,177.349251 367.595736,177.66212 367.454675,177.977224 C367.482887,177.912416 367.515801,177.852077 367.560471,177.796207 C367.346528,178.062146 367.127883,178.328085 366.911589,178.594024 C366.956258,178.540389 367.00798,178.493459 367.069107,178.450998 C366.789335,178.658833 366.509564,178.864433 366.227441,179.067798 C366.260355,179.052155 366.288568,179.036511 366.321482,179.018633 C365.989988,179.150485 365.658494,179.282337 365.329351,179.416424 C365.359914,179.40525 365.392828,179.394076 365.425742,179.382902 C365.056632,179.429833 364.689872,179.476763 364.320762,179.523693 C364.388942,179.50805 364.457121,179.50805 364.525301,179.521459 C364.158541,179.476763 363.789431,179.427598 363.422671,179.382902 C363.455586,179.394076 363.4885,179.407485 363.523765,179.420893 C363.192271,179.286807 362.860777,179.15272 362.531634,179.023102 C362.557495,179.040981 362.585707,179.058859 362.61392,179.076737 L361.772254,178.462172 C361.793413,178.48452 361.814572,178.506868 361.835731,178.529216 C361.619437,178.263277 361.403143,177.997338 361.186849,177.731398 C361.200955,177.758216 361.215061,177.785033 361.229168,177.811851 C361.090457,177.496746 360.951747,177.183877 360.813037,176.868773 C360.82009,176.897825 360.829494,176.926877 360.836547,176.955929 C360.787175,176.607303 360.737804,176.258677 360.688432,175.905582 C360.700188,175.97039 360.702539,176.032964 360.693134,176.095538 C360.742506,175.746912 360.791877,175.396052 360.841249,175.047426 C360.831845,175.112234 360.813037,175.172573 360.784824,175.235147 C360.923535,174.920043 361.064596,174.604939 361.203306,174.292069 C361.177445,174.350174 361.139829,174.403808 361.095159,174.455208 C361.313804,174.189269 361.527747,173.92333 361.746392,173.652922 C361.722882,173.677504 361.699372,173.699852 361.675862,173.7222 C361.955633,173.514365 362.235405,173.308765 362.515177,173.103165 L362.437593,173.1568 C362.766736,173.022713 363.09823,172.890861 363.429724,172.756774 C363.3733,172.788061 363.312173,172.805939 363.246345,172.808174 C363.615455,172.761244 363.982215,172.714313 364.351325,172.667383 C364.31606,172.665148 364.283146,172.662913 364.250231,172.658444 C365.444551,174.640695 366.63887,176.620712 367.83554,178.598494 C368.583165,177.355955 368.851182,175.726799 368.312798,174.361348 C367.988357,173.538948 367.586332,172.85287 366.930397,172.224896 C365.830118,171.16561 364.151488,170.734297 362.646834,171.16561 C360.025444,171.918731 357.942438,174.251843 358.001214,176.924642 C358.064691,179.827624 360.533265,181.975249 363.528467,181.999832 C366.368502,182.022179 368.964031,179.81645 368.8935,177.04979 C368.867639,176.024025 368.449157,174.991556 367.678022,174.258548 C366.956258,173.574704 365.776045,173.05847 364.741595,173.103165 C362.536336,173.197026 360.535616,174.839591 360.589689,177.04979" id="Fill-17"></path>
                        <path d="M336.510886,6.18454036 C336.526197,6.2136213 336.543695,6.24046523 336.559005,6.26954617 C336.429958,5.9541299 336.30091,5.64095063 336.169675,5.32553437 C336.209045,5.42172514 336.230918,5.50001996 336.244041,5.60292172 C336.198109,5.25395053 336.152177,4.90497935 336.106245,4.55377117 C336.112806,4.61864402 336.110619,4.68127987 336.10187,4.74615272 C336.147802,4.39494454 336.193735,4.04597335 336.239667,3.69700216 C336.222169,3.79766693 336.195922,3.88490973 336.158739,3.97886351 C336.289974,3.66568424 336.419021,3.35026797 336.550256,3.03485171 C336.504324,3.12880549 336.456205,3.20710031 336.394962,3.28986911 C336.598376,3.02366673 336.799603,2.75746436 337.00083,2.49126198 C336.959272,2.54047586 336.915527,2.58968975 336.86522,2.62995565 C337.125503,2.42415213 337.385786,2.22058561 337.646068,2.01254509 C337.567327,2.07518095 337.495148,2.11992084 337.403284,2.16242374 C337.711686,2.03044105 338.017901,1.89845836 338.326303,1.76423867 C338.269434,1.78884561 338.208191,1.80450458 338.144761,1.81568955 C338.488159,1.76647567 338.82937,1.71949878 339.172768,1.67252188 C339.107151,1.68146986 339.04372,1.68146986 338.98029,1.67252188 C340.091413,2.32572436 341.204723,2.97668984 342.315845,3.62989232 C342.287411,3.58291543 342.263351,3.53146455 342.243666,3.48001367 C342.372714,3.79542993 342.503949,4.1086092 342.632996,4.42402547 C342.615498,4.37257459 342.600188,4.3233607 342.591439,4.27190982 C342.637371,4.62311801 342.683303,4.97208919 342.729235,5.32106038 C342.718299,5.24500256 342.716112,5.17565572 342.720486,5.0973609 C342.674554,5.44633209 342.628622,5.79530327 342.58269,6.14651145 C342.598,6.04584669 342.62206,5.95189291 342.659243,5.85793913 C342.528009,6.1711184 342.398961,6.48653466 342.269913,6.79971393 C342.313658,6.70352315 342.366152,6.61851735 342.429582,6.53351155 C342.226168,6.79971393 342.024941,7.0681533 341.823714,7.33435568 C341.911204,7.22697993 342.005256,7.13526315 342.112431,7.04802035 C341.852148,7.25606087 341.591866,7.45962739 341.331583,7.66543091 C341.443133,7.5848991 341.559057,7.51778926 341.68373,7.4573904 C341.375328,7.59161008 341.066926,7.72135578 340.760711,7.85557547 C340.885384,7.80636158 341.010058,7.76833267 341.14348,7.74596272 C340.800082,7.79293961 340.456683,7.8399165 340.115473,7.8868934 C340.218273,7.87570842 340.314512,7.87570842 340.417313,7.8846564 C340.073915,7.83767951 339.732704,7.79070262 339.389306,7.74372573 C339.46586,7.7571477 339.531477,7.77504366 339.603656,7.7996506 C339.295254,7.66766791 338.989039,7.53568521 338.680637,7.40146553 C338.750629,7.43502045 338.809685,7.46633838 338.873115,7.51331527 C338.612832,7.30751175 338.35255,7.09947123 338.09008,6.89366771 C338.15351,6.94959258 338.203817,7.00104346 338.254123,7.06591631 C338.052897,6.79747694 337.85167,6.53127456 337.650443,6.26507218 C337.698562,6.338893 337.735745,6.40823984 337.770741,6.48877166 C337.641694,6.17335539 337.512646,5.85793913 337.381411,5.54252286 C337.407658,5.62081768 337.422969,5.68792752 337.433905,5.76845933 L337.296108,4.72154578 C337.300483,4.7976036 337.296108,4.86695044 337.285172,4.94300826 C337.331104,4.59403707 337.379224,4.24506589 337.425156,3.89385771 C337.407658,3.96991553 337.387973,4.03702537 337.359539,4.1108462 C337.490774,3.79542993 337.619821,3.48001367 337.748869,3.16459741 C337.705124,3.26302518 337.65263,3.34803098 337.593574,3.43527377 C337.792614,3.1668344 337.996028,2.90063202 338.197255,2.63442964 C338.109765,2.74180539 338.015713,2.83575917 337.910725,2.92076497 L338.693761,2.30559141 C338.580024,2.38836022 338.466287,2.45547006 338.341613,2.51363192 C338.650016,2.38164923 338.956231,2.24966654 339.264633,2.11768385 C339.139959,2.16913473 339.017473,2.20716364 338.881864,2.22953359 C339.225262,2.1825567 339.566473,2.13557981 339.909871,2.08860291 C339.80707,2.09978789 339.710831,2.10202488 339.608031,2.0930769 C339.949242,2.1378168 340.29264,2.18703069 340.633851,2.23177058 C340.559484,2.2228226 340.493867,2.20492664 340.421687,2.17808271 L341.344707,2.57850477 C341.274715,2.54494985 341.215659,2.51139493 341.152229,2.46889203 L341.933077,3.08406559 C341.869646,3.03261471 341.81934,2.97892684 341.769033,2.91629098 C341.97026,3.18249336 342.171487,3.44869574 342.372714,3.71489812 C342.355216,3.69252817 342.342092,3.66792123 342.324594,3.64555128 C341.749348,2.78654529 341.023181,2.11320986 340.017046,1.82911152 C339.09184,1.56962012 337.860419,1.68594385 337.038013,2.22729659 C336.21342,2.77312332 335.487253,3.58067844 335.264154,4.58956308 C335.043242,5.58055177 335.067301,6.76392201 335.653484,7.63187599 C336.134679,8.34995132 336.578691,8.88459307 337.313606,9.33422902 C338.013526,9.76373202 338.800936,9.95163958 339.608031,9.99414248 C340.576982,10.0478304 341.629049,9.7279401 342.458017,9.22014229 C344.780875,7.80859858 345.754201,4.7551007 344.345613,2.31453939 C342.956709,-0.0991779844 339.79176,-0.645004712 337.532331,0.771012987 C336.432145,1.46224438 335.539747,2.54718685 335.181038,3.82674786 C334.741401,5.39264421 335.104485,7.24934988 336.248416,8.41929815 C338.149136,10.3610096 341.248468,9.6854372 342.766419,7.67661589 C343.95847,6.09953456 344.188131,3.95201957 343.181996,2.19597866 C342.692052,1.33697267 341.810591,0.643504284 340.874448,0.379538899 C339.949242,0.11781051 338.71782,0.236371233 337.895415,0.777723971 C337.070822,1.3213137 336.344655,2.13110582 336.121555,3.13999046 C335.889707,4.17795604 335.97501,5.24723955 336.510886,6.18454036" id="Fill-19"></path>
                        <path d="M138.369606,48.3548795 C138.109588,48.4007588 137.889037,48.3067062 137.649914,48.2355932 C137.57098,48.2126535 137.526869,48.1530104 137.464187,48.0979552 C137.164702,47.834149 137.505975,48.1507164 137.447935,48.1323647 C137.417755,48.1231888 137.505975,48.0383121 137.519905,48.0383121 C137.696345,48.0474879 137.382931,48.1163069 137.406147,48.1208949 C137.297032,48.0887793 137.190239,48.1621863 137.07416,48.1163069 C136.897719,48.0474879 136.800212,47.9396715 136.786283,47.7905637 C136.772353,47.7079809 136.779318,47.7286266 136.809498,47.8502068 C136.837358,47.8433249 136.828071,47.9442594 136.82575,47.9832569 C136.81182,48.2677087 136.807177,47.9603172 136.872181,47.9488474 C136.835036,48.0153724 136.79789,48.0773095 136.760745,48.1415406 C136.851287,48.0543698 136.941829,47.9671991 137.032371,47.8823223 C137.090411,47.8410309 137.359715,47.905262 137.36668,47.8823223 C137.338821,47.971787 137.099697,47.627692 137.097375,47.5886946 C137.088089,47.4602325 136.988261,47.7056869 136.983618,47.7102748 C137.167023,47.5382273 137.598839,47.4877601 137.800817,47.6735714 C138.232632,48.0704276 137.668486,48.524633 137.626698,48.8893737 C137.624376,48.9146074 137.522226,48.9490169 137.510618,48.9926022 C137.489724,49.077479 137.830998,49.0866549 137.826354,49.0981247 C137.865821,49.010954 137.71724,48.6897986 137.682416,48.5200451 C137.617411,48.2057716 137.60116,47.8914982 137.608125,47.5657549 C137.610447,47.3845316 137.707953,47.0725521 137.680094,46.9119744 C137.640627,46.6734019 137.494367,47.0656702 137.561693,47.0702581 C137.218098,46.9784994 136.872181,46.8867408 136.528586,46.7949821 C136.47519,46.595407 136.484476,46.5701734 136.54948,46.7146933 C136.62145,46.9349141 136.686454,47.1551349 136.749137,47.3753557 C136.832714,47.6827472 136.939507,47.9993146 136.962723,48.3135881 C136.990582,48.4695778 136.988261,48.6209796 136.955759,48.7723814 C136.918613,48.8916677 136.941829,48.8939617 137.030049,48.7792633 C137.006833,48.7517357 137.427041,48.8480823 137.524548,48.9513108 C135.727638,47.0335547 132.832617,49.905601 134.624883,51.8164753 C137.009155,54.3558964 140.770129,52 141.041755,49.0453635 C141.299451,46.2650758 139.634872,42.0051796 136.1107,43.2095121 C133.074062,44.2463851 133.004414,48.4672839 134.202354,50.8874187 C135.639418,53.8007565 139.34003,53.5530081 141.0789,51.0502904 C142.594898,48.8664341 142.279162,45.5677099 139.83685,44.1569204 C137.492046,42.7965981 133.949301,43.7256546 133.150674,46.4623569 C132.338118,49.2495265 134.938298,52.4197885 137.916896,51.8256511 C140.43582,51.3186845 141.550183,48.4305804 140.544935,46.2214904 C139.068404,42.9778215 134.46005,43.8082374 133.515164,47.006027 C132.44259,50.6350824 136.312678,52.802881 139.460753,52.2615048 C140.5519,52.0756935 141.164799,50.7520747 140.890852,49.770257 C140.575116,48.6301555 139.465396,48.1667742 138.369606,48.3548795" id="Fill-21"></path>
                        <path d="M92.6996572,156.84414 C92.7020132,157.202606 92.7632693,157.030356 92.8834256,156.325063 C92.9776659,156.178417 93.1025342,156.066688 93.2603866,155.987546 C93.0624821,156.099276 93.1025342,156.085309 93.3805429,155.947975 C93.7009597,155.859522 94.0143085,155.906076 94.3205893,156.082982 C94.5703259,156.32739 94.8177065,156.574127 95.0674432,156.818535 C95.1263433,156.948887 95.1687514,157.153724 95.1286993,156.906988 C95.1381233,156.995441 95.1475474,157.086221 95.1569714,157.172346 C95.1546154,157.123464 95.1522594,157.079238 95.1499034,157.030356 C95.1499034,156.983802 95.1499034,156.93492 95.1522594,156.888366 C95.1381233,156.974491 95.1216313,157.060616 95.1074953,157.149069 C95.0697992,157.109498 95.1946675,156.84414 95.2017355,156.799914 C95.2464996,156.5299 95.1428353,157.163035 95.1711074,156.897677 C95.1875995,156.767326 95.420844,156.690512 95.2182275,156.81388 C94.9684909,156.967508 95.3548759,156.664907 95.1522594,156.883711 C94.9755589,157.074582 95.2158715,156.858106 95.3053998,156.811552 C94.4666616,156.704478 93.6255675,156.599731 92.7844734,156.492657 C92.9729539,156.676546 92.8009654,156.497313 92.7326413,156.397221 C92.9258337,156.674218 92.6996572,156.278509 92.7067252,156.280836 C92.7232172,156.280836 92.7797614,156.548522 92.7797614,156.548522 C92.7562013,156.557833 92.7774054,156.020134 92.7397093,156.492657 C92.7185052,156.771981 92.7467773,156.087637 92.7514893,156.362306 C92.7538453,156.564816 92.5795009,156.527573 92.7349973,156.443775 C92.7962534,156.308769 92.7986094,156.287819 92.7444213,156.385583 C92.6855211,156.478691 92.6973012,156.464725 92.7844734,156.346012 C93.031854,156.120225 92.6666731,156.418171 92.650181,156.434465 C93.3239988,156.257559 93.9978165,156.082982 94.6739902,155.906076 C94.8389106,155.959614 94.9802709,156.045738 95.0980712,156.169107 C95.2606356,156.411188 95.2841957,156.43912 95.1663954,156.248248 C95.3501639,156.627664 95.2959757,156.869745 95.1310553,157.239849 C94.8813187,157.484258 94.6339381,157.733322 94.3842014,157.977731 C94.5349858,157.882295 94.5279178,157.875312 94.3653534,157.956781 C94.2357731,158.021957 94.0944127,158.056872 93.9459843,158.052217 C93.6656196,158.054545 93.3899669,157.928849 93.1944184,157.730994 C92.5206007,157.055961 92.8669336,156.17609 93.6703316,155.880472 C92.6525371,156.255232 91.851495,157.286403 92.216676,158.408355 C92.5394488,159.392973 93.6844677,160.247239 94.7776544,159.844547 C95.8543491,159.448838 96.6483231,158.715612 96.9216198,157.579694 C97.2090526,156.380927 96.6907313,155.065776 95.6163925,154.418675 C94.7470263,153.894942 93.6962477,153.797179 92.7585573,154.188233 C91.5310782,154.700327 91.0174689,155.901421 91.1894574,157.160707 C91.3213937,158.136014 91.9151072,159.081061 92.8033214,159.562895 C93.5336833,159.958604 94.4195415,160.095939 95.1711074,159.662986 C95.6234606,159.402284 96.0239816,158.95071 96.3019903,158.520085 C97.2891568,156.981474 97.0205721,154.860938 95.7271248,153.585358 C95.0485951,152.91498 94.0308005,152.838166 93.2061985,153.264135 C91.3378857,154.223148 90.4967916,156.616025 91.3096137,158.517757 C91.9480913,160.012142 93.7315878,160.340347 95.1145633,159.665314 C96.1724099,159.146237 96.9192638,158.02894 96.8627197,156.84414 C96.8108876,155.77107 95.9415214,154.73757 94.7800104,154.786452 C93.6962477,154.835334 92.645469,155.691928 92.6996572,156.84414" id="Fill-23"></path>
                        <path d="M3.02570348,77.2638719 L2.95366104,77.3098048 C3.26884673,77.178568 3.58628376,77.0473311 3.90372078,76.9182815 C3.8541916,76.9445289 3.8024111,76.9576526 3.74612794,76.9642144 C4.09958618,76.9182815 4.4507931,76.8723486 4.80425135,76.8264157 C4.75021952,76.8329775 4.69618768,76.8307902 4.64215585,76.8220411 C4.9956141,76.8657867 5.34682102,76.9139069 5.69802794,76.9576526 C5.64399611,76.9489034 5.5922156,76.9335925 5.54043509,76.9117196 C5.85787212,77.038582 6.17305782,77.1698188 6.49049484,77.3010557 C6.43871433,77.2769956 6.38918515,77.248561 6.34415862,77.2157517 C6.61206647,77.4169816 6.87997431,77.6182115 7.15013348,77.8194414 C7.08034236,77.7647594 7.02631053,77.7100773 6.97002737,77.6422716 C7.17940072,77.9025581 7.38652275,78.1628446 7.59364479,78.423131 C7.56212622,78.3793854 7.5351103,78.3290779 7.51484836,78.2809578 C7.64992795,78.5871771 7.7827562,78.8955838 7.91558446,79.2039905 C7.89757385,79.153683 7.88631722,79.1033755 7.88181457,79.0486935 C7.92909242,79.3920967 7.9786216,79.7333126 8.02589946,80.0767157 C8.02589946,80.0482811 8.02589946,80.024221 8.02815078,79.9979736 C7.9786216,80.3391895 7.93134375,80.6825927 7.88406589,81.0259958 C7.89081987,80.9691265 7.90657916,80.918819 7.93359507,80.8685116 C5.98619772,81.6384346 4.03880037,82.4083576 2.09140302,83.1782806 C2.13868087,83.1979662 2.1837074,83.2242136 2.22423128,83.2548355 C1.95632343,83.0536056 1.68841559,82.8523757 1.42050774,82.6511458 C1.45878029,82.6839551 1.49255019,82.7167643 1.52406876,82.7583226 C1.3146954,82.4980362 1.10757337,82.2355624 0.900451342,81.9752759 C0.929718586,82.0168343 0.954483176,82.0583926 0.972493788,82.1043255 C0.839665529,81.7959188 0.70683727,81.4896995 0.571757685,81.1812928 C0.598773602,81.2556604 0.614532887,81.3212788 0.625789519,81.4000209 L0.483955955,80.374186 C0.488458608,80.4223062 0.488458608,80.4748009 0.483955955,80.5251084 C0.53123381,80.1838925 0.578511664,79.8426766 0.625789519,79.4970862 C0.614532887,79.5780156 0.598773602,79.6458213 0.574009012,79.7223761 C0.70683727,79.4139695 0.841916855,79.1077501 0.974745114,78.7993434 C0.943226544,78.8693364 0.909456648,78.928393 0.862178793,78.9918242 C1.06930082,78.7315377 1.27642285,78.4712512 1.48354488,78.2109648 C1.45202631,78.2481485 1.41600509,78.283145 1.37548122,78.3115797 C1.64338906,78.1103498 1.9112969,77.9091199 2.18145607,77.70789 C2.13868087,77.738512 2.09590567,77.7625721 2.04637649,77.777883 C2.36381351,77.6488335 2.68125054,77.5175966 2.99643624,77.3907343 C2.97167165,77.3972961 2.94690706,77.4016707 2.92214247,77.4104198 C1.95182078,77.6882045 1.05804419,78.3312652 0.544741768,79.1864922 C0.0471986295,80.0154718 -0.164426054,81.2337875 0.144005666,82.1633821 C0.454688711,83.0973512 1.05129021,84.0006984 1.97208272,84.4731512 C2.90863451,84.9543531 3.99377384,85.1577703 5.03613797,84.8624873 C6.13928792,84.5453315 7.1433795,83.8716488 7.72872437,82.8917468 C8.10469588,82.2639971 8.27129404,81.7259258 8.36584975,81.0413068 C8.60674167,79.293669 7.80076682,77.3316777 6.10551802,76.5048853 C4.94158226,75.9383795 3.77989783,75.8137044 2.56643289,76.3102173 C2.07339241,76.4677015 1.64789171,76.7345499 1.28767949,77.1107622 C0.794639001,77.5919641 0.452437385,78.1606573 0.263325966,78.8146544 C-0.34903482,80.3085675 0.357881675,82.239937 1.52406876,83.2832702 C3.00769287,84.6065754 5.27477857,85.0068478 7.03981849,83.9372673 C7.90432783,83.4123198 8.59323372,82.5920893 8.86564421,81.6274982 C9.1290494,80.7022782 9.0097291,79.4708388 8.46715944,78.6506083 C7.91783579,77.8260032 7.10285563,77.0998258 6.08975874,76.8745359 C5.06315389,76.6470586 3.94199333,76.7083025 3.02570348,77.2638719" id="Fill-25"></path>
                        <path d="M118.456318,5.68944604 C119.117798,6.45693447 119.326687,7.05090377 118.83928,7.8762319 C118.447034,8.53916394 117.697357,9.02635224 116.831631,8.77942118 C116.265311,8.61702508 115.710596,8.00080974 115.852176,7.3912682 C116.072669,6.45470986 117.367778,6.82844336 117.922492,7.24666893 C118.38901,7.59815639 118.447034,7.91182557 118.544516,8.44128135 C118.544516,8.33672496 118.544516,8.23216857 118.546837,8.12538757 C118.586293,8.64594493 118.395973,9.09976418 117.975875,9.49351911 C117.720567,9.73600096 117.356173,9.95846137 116.982495,9.96735979 C116.490446,9.97848281 116.146941,9.52243896 116.585607,9.93176612 C116.163188,9.73600096 115.896275,9.39563653 115.787189,8.91289743 C115.784868,8.51246869 115.787189,8.45685358 115.78951,8.75050133 C115.787189,9.04192447 115.796473,8.99075857 115.819682,8.60145285 C116.019287,8.23884238 116.000719,8.25663921 115.7663,8.66151716 C115.972867,8.50579487 116.030892,8.33005115 116.321015,8.23661777 C116.820026,8.06754786 117.771628,8.40791229 118.038541,8.86173153 C118.180121,9.10198878 118.038541,9.33334761 118.108171,9.51798975 C117.994443,9.21099438 118.351874,8.88620218 118.623429,8.48354883 C116.47652,8.74827672 114.329612,9.01522922 112.182703,9.27773251 C111.72547,8.68821241 111.521223,8.05197563 111.576927,7.37124677 C110.903842,9.39118732 112.366061,11.6580589 114.441019,12.2053115 C116.652915,12.7859332 118.806787,11.4867644 119.482192,9.45792544 C120.173845,7.38459439 119.496118,5.28234348 117.980517,3.72289599 C116.107484,1.78971499 112.923097,2.47489307 111.542112,4.51930427 C109.831548,7.04867917 109.360389,10.3388687 111.073274,12.9883722 C113.050751,16.0472029 117.103186,16.8436112 120.301499,15.0661525 C122.73853,13.7091439 124.196107,10.8727737 123.936157,8.21659634 C123.629787,5.05320926 121.148658,2.63061536 117.878394,2.20794057 C114.745068,1.80083801 111.528186,3.44259587 110.61604,6.46805749 C109.796734,9.18429913 110.938657,12.3365632 113.487095,13.827048 C119.663229,17.4375805 126.698126,9.51576515 122.952061,3.99207309 C121.002436,1.11788455 116.908223,0.0700959987 113.839885,1.93431426 C110.372337,4.03878977 110.226115,8.41681071 112.658505,11.2465072 C114.067341,12.8838158 116.99642,12.6457832 118.456318,11.2465072 C120.148314,9.62699536 119.869796,7.33120389 118.456318,5.68944604" id="Fill-27"></path>
                        <path d="M174.500618,63.2169073 C174.449886,63.1923528 174.399155,63.1655661 174.35504,63.1298505 C174.615316,63.3374474 174.880004,63.542812 175.142486,63.7459444 C175.098371,63.7146933 175.056462,63.6745132 175.023376,63.632101 C175.226304,63.8977357 175.429231,64.1633704 175.632158,64.429005 C175.579221,64.3598061 175.541723,64.2928394 175.504226,64.2147115 C175.634364,64.5294551 175.764502,64.8441988 175.896846,65.1567102 C175.865966,65.0741179 175.843908,64.9982222 175.828468,64.9111655 C175.874789,65.2593925 175.921109,65.6076195 175.967429,65.9603109 C175.954195,65.8397708 175.956401,65.7303918 175.969635,65.6098517 C175.923315,65.9603109 175.876994,66.3107701 175.830674,66.6589971 C175.84832,66.5719404 175.870377,66.4960447 175.901257,66.4112202 C175.771119,66.7237316 175.640981,67.0384753 175.508637,67.3532189 C175.546135,67.2728588 175.585838,67.2081243 175.63657,67.1366931 C175.433642,67.4023278 175.230715,67.6679625 175.027788,67.9335972 C175.06308,67.8911849 175.100577,67.8510049 175.144692,67.8175215 C174.88221,68.0228862 174.619728,68.2282508 174.357246,68.4336154 C174.40136,68.3978998 174.447681,68.3688809 174.498413,68.3443265 L173.567594,68.7438946 C173.594063,68.7327335 173.622737,68.7215724 173.647,68.7104112 C172.647804,68.5764778 171.646403,68.4470088 170.645001,68.3130753 C170.671469,68.3331653 170.697938,68.3532554 170.722201,68.3711132 L169.934755,67.7550193 C169.983281,67.7951993 170.027396,67.8398438 170.067099,67.8889527 C169.864172,67.623318 169.661245,67.3554511 169.458317,67.0898164 C169.537724,67.1924987 169.597279,67.2974133 169.64801,67.4157212 C169.517872,67.1009775 169.385528,66.7884661 169.25539,66.4737225 C169.28627,66.5674759 169.310534,66.6545327 169.328179,66.7505183 C169.281859,66.4022913 169.235539,66.0540643 169.189218,65.7013729 C169.206864,65.8330741 169.20907,65.9580787 169.200247,66.0875477 C169.246567,65.7393207 169.292888,65.3910937 169.339208,65.0384023 C169.319356,65.1701035 169.290682,65.2906436 169.246567,65.4111837 C169.376705,65.0986723 169.509049,64.7839287 169.639187,64.4714173 C169.58625,64.5897252 169.526695,64.6924075 169.449495,64.7973221 C169.652422,64.5316874 169.855349,64.2660527 170.058276,63.9981858 C170.018573,64.0472947 169.974459,64.0919392 169.925932,64.1321192 C170.188414,63.9267546 170.453102,63.7213899 170.715584,63.5160253 C170.664852,63.5562053 170.61412,63.5941532 170.556771,63.6254043 C168.902473,64.667853 168.203257,66.7192672 168.964234,68.5496911 C169.279653,69.3064151 169.817852,70.0385847 170.556771,70.4336884 C171.430241,70.9002233 172.599278,71.2082702 173.560977,70.8310243 C174.361657,70.5185129 174.791775,70.3622572 175.413791,69.7506278 C175.700536,69.4671353 175.956401,69.1367661 176.154916,68.7840747 C176.719584,67.7862704 176.911482,66.4893481 176.598268,65.3732359 C176.053453,63.4401297 174.432241,61.9780228 172.376499,61.9780228 C170.37149,61.9757905 168.633374,63.4267363 168.143702,65.364307 C167.854751,66.5072059 168.002535,67.7460904 168.578231,68.7751458 C168.776747,69.1278372 169.030406,69.4604386 169.317151,69.7439311 C169.950195,70.3734184 170.35605,70.489494 171.167759,70.8265599 C172.036817,71.1881802 173.397753,70.8890622 174.169759,70.429224 C174.979262,69.9537602 175.749062,69.0139938 175.960812,68.0742273 C176.188002,67.0652619 176.139476,65.9335242 175.568192,65.0361701 C175.365265,64.7705354 175.162338,64.5026684 174.95941,64.239266 C174.471944,63.7481766 173.900659,63.4111108 173.23894,63.2236039 C173.214677,63.214675 173.19262,63.2035139 173.168357,63.194585 C173.479365,63.3285185 173.788167,63.4579875 174.099175,63.5919209 L174.037415,63.5517409 L174.824861,64.1678348 C174.809421,64.1522092 174.791775,64.1343514 174.774129,64.1187259 C174.977056,64.3843606 175.179983,64.6522275 175.382911,64.9178622 C175.35203,64.8799144 175.325562,64.8419665 175.30571,64.7950898 C175.438054,65.1098335 175.568192,65.4223449 175.69833,65.7370885 C175.678479,65.6902118 175.665244,65.6433351 175.656421,65.5942261 C175.702742,65.9446853 175.749062,66.2929123 175.795382,66.6433715 C175.786559,66.5607793 175.786559,66.4938125 175.795382,66.4134524 L175.656421,67.4581334 C175.665244,67.4090245 175.678479,67.3576833 175.696124,67.3108066 C175.565986,67.6255502 175.433642,67.9380616 175.303504,68.2528053 C175.32115,68.2036963 175.345413,68.1590518 175.374088,68.1166396 C175.168955,68.3822743 174.966027,68.6501412 174.7631,68.9157759 C174.789569,68.8733636 174.822655,68.8398803 174.860152,68.8063969 C174.59767,69.0117615 174.335188,69.2171262 174.072706,69.4224908 C174.107998,69.3934719 174.149907,69.3689174 174.194022,69.3510596 C173.885219,69.4849931 173.574211,69.6144621 173.263203,69.7483955 L173.333787,69.7283055 C172.989693,69.7751822 172.643393,69.8220589 172.299299,69.8689357 C172.350031,69.862239 172.400762,69.862239 172.451494,69.8711679 C172.1074,69.8242912 171.761101,69.7774145 171.417007,69.7305378 C171.439064,69.7372344 171.463327,69.7439311 171.48759,69.75286 C171.176582,69.6189265 170.865574,69.4872253 170.556771,69.3532918 C170.600886,69.3711496 170.640589,69.3979363 170.678087,69.4269552 L169.888435,68.8130936 C169.906081,68.8309514 169.921521,68.8443447 169.939167,68.8622025 C169.73624,68.5965678 169.533312,68.3309331 169.330385,68.0652984 C169.361265,68.1032462 169.38994,68.1456585 169.409791,68.190303 C169.279653,67.8755594 169.149515,67.5608157 169.017171,67.2483043 C169.050257,67.3242 169.067903,67.3889345 169.083343,67.4692945 C169.037023,67.1210675 168.990703,66.7706083 168.944382,66.4223813 C168.950999,66.5027414 168.948794,66.5719404 168.939971,66.6523004 C168.986291,66.3040735 169.032611,65.9536142 169.078932,65.603155 C169.070109,65.6544962 169.054669,65.6991407 169.032611,65.7460174 C169.164955,65.4312738 169.295093,65.1187624 169.427437,64.8040187 C169.414203,64.826341 169.403174,64.846431 169.392146,64.866521 C169.595073,64.6008863 169.798,64.3352516 170.000927,64.0696169 C169.974459,64.109797 169.941373,64.1455126 169.903875,64.1745315 L170.691321,63.5584376 C170.671469,63.5695987 170.649412,63.582992 170.629561,63.5963854 C170.940569,63.4646842 171.249371,63.3329829 171.560379,63.1990495 C171.536116,63.2079784 171.514059,63.2191395 171.48759,63.2280684 C172.488992,65.6299417 173.490394,68.0318151 174.491795,70.4336884 C176.01375,69.473832 177.019563,67.7862704 176.999711,65.9446853 C176.973243,63.6499588 175.493197,61.3574644 173.130859,61.0360241 C171.805215,60.8552139 170.439868,61.3641611 169.517872,62.3575009 C168.659843,63.283874 168.28928,64.368735 168.178994,65.6098517 C168.112822,66.3487179 168.300309,67.056333 168.578231,67.7260003 C168.818656,68.3019142 169.072315,68.7349657 169.513461,69.2081973 C169.800206,69.5162442 170.19062,69.8332201 170.5678,70.0251914 C171.509647,70.5028874 172.530901,70.7104842 173.5698,70.4247595 C174.47415,70.1702859 175.453494,69.4649031 175.899052,68.6099612 C176.377695,67.6969814 176.615914,66.5875659 176.291672,65.5741361 C175.989487,64.6321375 175.404968,63.6745132 174.500618,63.2169073" id="Fill-29"></path>
                        <path d="M243.18595,162.368487 C243.141802,162.379879 243.097653,162.391271 243.053505,162.400384 C243.40007,162.352538 243.744428,162.304692 244.090994,162.254567 C244.004904,162.268237 243.921022,162.265959 243.834933,162.247732 C244.179291,162.297856 244.525856,162.343424 244.872422,162.393549 C244.830481,162.382157 244.790747,162.370765 244.748806,162.359373 C245.060053,162.493799 245.371299,162.628224 245.680339,162.764928 C245.600871,162.735309 245.525819,162.696576 245.455181,162.644173 C245.717865,162.853785 245.980548,163.063398 246.243231,163.27301 C246.13286,163.181874 246.048978,163.097574 245.960681,162.985932 C246.163764,163.25934 246.366847,163.530469 246.56993,163.801598 C246.516952,163.726411 246.470596,163.646667 246.430862,163.560088 C246.5611,163.881342 246.693546,164.202596 246.823784,164.521571 C246.770806,164.387146 246.733279,164.266391 246.70679,164.122852 C246.753146,164.478282 246.799502,164.833712 246.845858,165.19142 C246.834821,165.100284 246.832613,165.009148 246.841443,164.918013 C246.795087,165.273442 246.748731,165.631151 246.702376,165.986581 C246.711205,165.897723 246.731072,165.808866 246.766391,165.724565 C246.633945,166.04354 246.503707,166.364794 246.371262,166.686048 C246.404373,166.597191 246.450729,166.519725 246.508122,166.446817 C246.307247,166.717946 246.101956,166.989075 245.898873,167.260204 C245.960681,167.185017 246.031319,167.121222 246.108579,167.066541 L245.320529,167.6931 C245.395581,167.638418 245.479463,167.597407 245.56776,167.563231 C245.256513,167.699935 244.945267,167.83436 244.636227,167.968786 C244.724524,167.936888 244.815029,167.916382 244.90774,167.90499 C244.561175,167.952837 244.216817,168.000683 243.870252,168.048529 C244.020356,168.037137 244.148387,168.041694 244.296284,168.0622 C243.951926,168.014353 243.605361,167.966507 243.261003,167.918661 C243.355922,167.93461 243.450841,167.96195 243.541345,167.998405 C243.230099,167.861701 242.918852,167.727276 242.609813,167.59285 C242.748881,167.652088 242.863667,167.72044 242.991697,167.807019 C242.726806,167.597407 242.464123,167.387794 242.20144,167.175904 C242.318433,167.276153 242.40673,167.371846 242.501649,167.494879 C242.298566,167.22375 242.095483,166.952621 241.8924,166.681491 C241.945378,166.763514 241.989527,166.852371 242.024846,166.945785 C241.894608,166.624532 241.762162,166.305556 241.631924,165.984302 C241.669451,166.089108 241.693732,166.196193 241.706977,166.307834 C241.660621,165.950126 241.614265,165.592418 241.567909,165.236988 C241.581154,165.346351 241.581154,165.453436 241.572324,165.562799 C241.61868,165.207369 241.665036,164.851939 241.711392,164.494231 C241.68711,164.66511 241.651791,164.810928 241.596606,164.974972 C241.729051,164.653718 241.859289,164.332465 241.989527,164.013489 C241.921097,164.172977 241.848252,164.309681 241.753333,164.45322 C241.954208,164.179812 242.159499,163.908683 242.360374,163.637554 C242.254418,163.774257 242.150669,163.888177 242.022638,164.004375 C242.285322,163.794763 242.548005,163.582872 242.810688,163.37326 C242.673828,163.478066 242.545798,163.55781 242.393485,163.637554 C242.702525,163.50085 243.013771,163.364146 243.322811,163.231999 C243.274247,163.250226 243.221269,163.270732 243.170498,163.288959 C243.514856,163.241113 243.861422,163.193266 244.207987,163.14542 L244.062297,163.14542 C244.406655,163.190988 244.753221,163.241113 245.097579,163.286681 C245.004867,163.277567 244.912155,163.25934 244.823858,163.225164 C245.135105,163.361868 245.444144,163.494015 245.755391,163.630718 C245.618531,163.566923 245.514782,163.503128 245.395581,163.409714 C245.658264,163.621605 245.920948,163.831217 246.183631,164.038551 C246.112994,163.974756 246.046771,163.904126 245.98717,163.826661 C246.190253,164.100068 246.393336,164.368919 246.596419,164.642327 C246.508122,164.512458 246.4419,164.39626 246.377884,164.252721 C246.51033,164.571696 246.640568,164.89295 246.773013,165.214204 C246.720035,165.066108 246.686924,164.931683 246.662642,164.776752 C246.708998,165.132182 246.755354,165.48989 246.80171,165.84532 C246.790672,165.74507 246.790672,165.647099 246.799502,165.549128 C246.753146,165.904558 246.70679,166.259988 246.660434,166.617696 C246.682509,166.460487 246.71562,166.337454 246.773013,166.191636 C246.642775,166.510612 246.512537,166.831866 246.380092,167.15312 C246.426448,167.059705 246.481633,166.973126 246.545648,166.893382 C246.342566,167.164512 246.139483,167.437919 245.9364,167.709048 C246.002622,167.629304 246.075467,167.556396 246.157142,167.494879 C245.894459,167.704492 245.629568,167.916382 245.366884,168.123717 C245.448559,168.0622 245.534649,168.012075 245.62736,167.966507 C245.316114,168.103211 245.007074,168.237636 244.695828,168.372062 C244.841518,168.310545 244.976171,168.271812 245.132898,168.237636 C244.786332,168.287761 244.441974,168.333329 244.095409,168.383454 C244.254343,168.365227 244.397826,168.36067 244.558968,168.369783 C244.212402,168.321937 243.868044,168.274091 243.521479,168.226244 C243.733391,168.258142 243.921022,168.308267 244.117483,168.397124 L243.18595,167.989291 C243.278662,168.034859 243.369166,168.089541 243.450841,168.153336 C243.188158,167.943723 242.925474,167.731832 242.662791,167.524498 C242.795236,167.63614 242.892363,167.738668 242.998319,167.879928 C242.795236,167.608799 242.592153,167.33767 242.389071,167.066541 C242.455293,167.162233 242.510479,167.262483 242.559042,167.369567 C242.426597,167.050592 242.296359,166.729338 242.166121,166.408084 C242.230136,166.581242 242.274285,166.736173 242.309603,166.916166 C242.263247,166.558458 242.216892,166.203028 242.170536,165.84532 C242.197025,166.089108 242.194817,166.31467 242.166121,166.558458 C242.212477,166.203028 242.258833,165.84532 242.305188,165.487612 C242.267662,165.669883 242.223514,165.833928 242.159499,166.009364 C242.291944,165.688111 242.422182,165.364578 242.55242,165.045603 C242.477367,165.214204 242.3979,165.360021 242.296359,165.514952 C242.497234,165.243823 242.702525,164.972694 242.905608,164.699286 C242.848215,164.788144 242.777577,164.865609 242.693695,164.929404 L243.483952,164.302845 C243.415522,164.355249 243.344885,164.400816 243.265418,164.432714 C243.576664,164.298289 243.885704,164.163863 244.19695,164.029438 C244.121898,164.061335 244.042431,164.086398 243.962963,164.100068 C244.307321,164.049943 244.653887,164.004375 244.998245,163.954251 C244.870214,163.9702 244.757636,163.9702 244.629605,163.958808 C244.973963,164.008932 245.320529,164.0545 245.664887,164.104625 C245.534649,164.077284 245.419863,164.045387 245.296247,163.999819 C245.607494,164.131966 245.916533,164.268669 246.22778,164.405373 C246.06443,164.327908 245.91874,164.23905 245.775258,164.127409 C246.037941,164.337021 246.300624,164.546634 246.563308,164.758525 C246.461766,164.66511 246.373469,164.576253 246.285173,164.469168 C246.488255,164.740298 246.691338,165.011427 246.894421,165.282556 C246.814954,165.173193 246.753146,165.070665 246.691338,164.947632 C246.823784,165.266607 246.954022,165.587861 247.086467,165.909115 C247.037904,165.783803 247.004793,165.67444 246.984926,165.542293 C247.031282,165.900001 247.077637,166.255431 247.123993,166.610861 C247.112956,166.526561 247.112956,166.444538 247.121786,166.360238 L246.982718,167.428806 C246.993755,167.342226 247.013622,167.257926 247.044526,167.175904 C246.914288,167.494879 246.781843,167.818411 246.651605,168.137387 L246.70679,168.012075 C247.157105,167.005024 247.395506,166.018478 247.099712,164.911177 C246.85248,163.977035 246.152727,162.965427 245.309491,162.507469 C243.589909,161.566491 240.885815,161.908251 239.97415,163.949694 C239.402427,165.230153 239.128706,166.467322 239.503968,167.868536 C239.81963,169.048746 240.519383,170.023899 241.444293,170.764378 C243.404485,172.32508 246.353603,172.546084 248.207838,170.620839 C249.757449,169.016848 250.454995,166.437703 249.684604,164.268669 C248.832539,161.869518 246.644983,160.131101 244.095409,160.333879 C241.298603,160.557161 238.95432,162.762649 239.000676,165.770133 C239.042617,168.60218 241.263285,171.14487 244.062297,171.192717 C246.497085,171.236006 248.78839,169.053302 249.229875,166.633645 C249.753034,163.781093 248.251987,160.978665 245.475048,160.19034 C242.355959,159.304043 239.027165,161.612059 239.038202,165.054716 C239.042617,166.480993 239.649658,167.884485 240.627547,168.880144 C241.868119,170.146933 243.592116,170.516033 245.258721,170.130984 C247.249816,169.668469 248.609589,167.178182 247.980474,165.180028 C247.305002,163.022387 245.320529,161.874075 243.18595,162.368487" id="Fill-31"></path>
                        <path d="M239.857003,38.4617284 C239.80822,38.441824 239.759436,38.4241313 239.710653,38.4064385 L241.438019,39.410503 C241.409193,39.3751175 241.380366,39.339732 241.353757,39.306558 L242.360463,41.0293913 C242.351594,40.9851593 242.342724,40.9409274 242.333854,40.8966955 L242.333854,42.9711725 C242.489073,42.0688414 242.036721,42.6372215 240.981232,44.6741014 C240.32266,44.851029 239.664088,45.0279567 239.005515,45.207096 C238.7616,45.1717104 238.517684,45.1407481 238.275986,45.1053626 L236.546403,44.101298 C237.231584,42.4072155 237.914548,40.713133 238.599729,39.0190506 C239.01882,39.131842 239.437911,39.2446333 239.857003,39.3552131 C240.136397,39.5343524 240.358138,39.7709932 240.515575,40.0629238 C240.794969,40.5804373 240.848187,41.2240117 240.64862,41.7746991 C240.446835,42.3298097 240.103136,42.5996244 239.548782,42.7809752 C239.990047,42.6681838 239.910221,42.6703954 239.315954,42.78761 C238.699512,42.672607 238.599729,42.6703954 239.021037,42.776552 C238.519902,42.5487577 238.397944,42.5067373 238.655164,42.6549143 C238.89908,42.8119376 238.803731,42.7389549 238.369118,42.4337547 C238.652947,42.7411665 238.610816,42.6748186 238.244942,42.2369226 C238.451162,42.6062592 238.428988,42.5244301 238.180637,41.9892239 C238.446727,42.7566477 238.193942,41.1864146 238.173985,41.933934 C238.154028,41.5579627 238.240508,41.2107421 238.43564,40.8922723 C238.859166,40.4035096 238.932341,40.3061994 238.657381,40.6003417 C239.187343,40.2265819 239.282692,40.1469645 238.938993,40.3614893 C239.522173,40.1447529 239.67074,40.0828282 239.382476,40.1779268 C238.486641,40.4499531 240.207354,40.1801384 239.462303,40.1889848 C239.040994,40.1668688 239.174039,40.1889848 239.863655,40.2575443 C239.471173,40.1403297 239.582043,40.2000428 240.202919,40.4388951 C239.597565,40.111579 240.850404,41.0736232 240.335964,40.5406286 C240.908057,41.1333363 241.109842,41.8056614 240.899187,42.6084708 C241.092102,41.8742209 240.429096,43.225506 240.859274,42.6482795 C240.473444,43.0994451 240.420226,43.1724277 240.69962,42.8672275 C240.209572,43.2078133 240.136397,43.2675263 240.482313,43.0463668 C239.899133,43.25868 239.806002,43.3073351 240.205137,43.1967553 C239.828176,43.3183931 239.446781,43.3360858 239.060951,43.247622 C238.147376,42.3386561 237.236019,41.4296901 236.324662,40.5207242 C236.43775,40.9409274 236.439967,40.8414056 236.329096,40.2221587 C236.315792,40.65342 236.337966,40.5538981 236.393401,39.9280165 C236.267009,40.3305269 236.311357,40.2553327 236.522011,39.7046453 C236.304705,40.0585006 236.366792,40.0076339 236.710492,39.547622 C236.599621,39.6803177 236.482098,39.7997439 236.35127,39.9125353 C236.819145,39.5741611 236.87458,39.514448 236.519794,39.7311845 C237.078582,39.5210828 237.153974,39.4724277 236.750405,39.5918539 C237.377933,39.5277176 237.473282,39.4967553 237.036452,39.4923321 C234.987561,39.3950219 233.027366,41.3611307 233.11828,43.3980105 C233.218064,45.6007601 234.841211,47.1997439 237.036452,47.3059005 C240.105353,47.4518659 242.925904,45.2314235 243.832827,42.3651952 C244.236396,41.0913159 244.265222,39.7223381 243.877175,38.441824 C243.089993,35.8277176 240.282746,35.0956794 237.896808,35.7193494 C235.089562,36.4558109 233.040671,39.4281958 233.182585,42.2745198 C233.342239,45.5233542 236.082963,47.8521647 239.247214,47.9937069 C242.087721,48.1197678 244.894968,46.3416447 245.733151,43.5859962 C246.646725,40.5937069 245.127797,37.4067971 242.500161,35.8431988 C239.608652,34.1225772 235.513088,35.1222185 233.807896,38.0503715 C231.938616,41.266032 233.430936,45.496815 237.069713,46.5981898 C239.291562,47.2683034 241.690804,46.4190506 242.863817,44.3954403 C244.125525,42.2236531 243.511302,39.2601145 241.293887,37.9641193 C239.160735,36.7212024 236.499837,37.6146871 235.260303,39.6559902 C234.661601,40.642362 234.493077,42.0135515 234.80795,43.1082914 C235.242563,44.6165999 236.364575,45.4481599 237.774851,45.9944241 C239.688479,46.7375204 242.156461,45.1805568 242.591075,43.2675263 C243.103297,41.0271797 241.905894,39.2556913 239.857003,38.4617284" id="Fill-33"></path>
                        <path d="M282.530137,59.1941785 C282.71768,58.9515077 282.745074,58.909507 282.608104,59.0611762 C282.728216,58.9165071 282.875722,58.8231722 283.048515,58.7788381 C282.978976,58.809172 282.907331,58.8325057 282.833578,58.8488393 C283.141233,58.8115053 283.191806,58.7951717 282.989512,58.8021718 C283.292953,58.8605062 283.347741,58.8675063 283.147554,58.8208388 C282.957904,58.753171 283.002156,58.7741714 283.28031,58.89084 C283.115946,58.7741714 283.151769,58.8068386 283.3941,58.991175 C283.533177,59.1451777 283.613251,59.3295141 283.632217,59.5465178 C283.729149,59.7471879 283.748114,59.9548581 283.684897,60.1695284 C283.746007,59.9595248 283.729149,60.0038589 283.634324,60.304864 C283.45521,60.5358679 283.43203,60.5708685 283.566893,60.4075324 C283.714398,60.2605299 283.684897,60.2838637 283.478389,60.479867 C283.655396,60.3748652 283.617466,60.3865321 283.364599,60.5172009 C283.564785,60.4612 283.516319,60.4612 283.2192,60.5148676 C283.425708,60.5195343 283.377242,60.5078675 283.073802,60.479867 C282.818827,60.3375312 282.77879,60.323531 282.955797,60.4378663 C282.732431,60.1928621 282.509065,59.9431912 282.287806,59.698187 C282.214053,59.597852 282.17823,59.4858501 282.180337,59.359848 C282.167694,59.1825116 282.165587,59.1895117 282.174016,59.3808483 C282.268841,58.7438375 282.190874,59.3808483 282.142407,59.422849 C282.167694,59.3481811 282.192981,59.2758465 282.218268,59.203512 C282.108692,59.3948486 282.127657,59.3761816 282.270948,59.147511 C281.969615,59.4018487 282.582818,58.9585078 282.214053,59.1731781 C282.966333,59.2828467 283.716506,59.3901818 284.468785,59.497517 C284.420319,59.4321825 284.18431,59.0028419 284.361317,59.3458477 C284.308636,59.2431793 284.243312,59.147511 284.188524,59.047176 C284.022053,58.734504 284.209597,59.0938435 284.207489,59.2571796 C284.192739,59.3388476 284.175881,59.422849 284.16113,59.5045171 C284.211704,59.322514 284.211704,59.3085138 284.165345,59.4648498 C283.973587,59.772855 284.036804,59.9688583 283.520534,60.06686 C282.907331,60.185862 282.249876,59.8568564 281.994902,59.1825116 C281.887433,58.8978401 281.866361,58.6201687 281.931685,58.3191636 C281.923256,58.3518309 281.916934,58.3798313 281.908505,58.4124986 C282.169801,57.5468172 282.772468,57.1734775 283.716506,57.2971463 C282.768254,57.0708091 281.659853,57.6051515 281.428058,58.7368374 C281.215228,59.7705216 281.710426,61.0282096 282.728216,61.2708804 C284.00941,61.5742189 285.265317,60.7855388 285.535042,59.3201806 C285.823732,57.7498206 284.993485,56.2401283 283.522641,56.0231247 C282.133978,55.8177878 280.84857,57.007808 280.561987,58.4848331 C280.266976,60.0248593 280.989754,61.2825473 281.83686,62.4118998 C282.37631,63.1305786 283.408851,63.1305786 284.093699,62.7339052 C285.690977,61.8075562 286.312609,59.5348509 285.554007,57.7568208 C285.143098,56.7931377 284.022053,56.3147963 283.101195,56.4081312 C282.260412,56.494466 281.489167,56.8654723 280.892822,57.5421504 C280.330193,58.1814946 279.959321,59.1101771 280.003572,60.0131924 C280.054146,61.0888773 280.618883,61.9545587 281.451237,62.4772342 C282.943153,63.4152501 284.824907,62.82024 285.743658,61.2755472 C286.281,60.3725318 285.933308,58.9538411 285.075667,58.4544993 C284.144273,57.90849 283.103303,58.2304955 282.530137,59.1941785" id="Fill-35"></path>
                        <path d="M114.983636,179.475754 C114.265052,179.760757 115.961382,179.514827 115.23573,179.498738 C115.591488,179.468859 115.921329,179.533214 116.227611,179.694103 C116.588081,179.85729 116.625777,179.861887 116.3407,179.707894 C116.50562,179.827411 116.670541,179.951525 116.835462,180.073341 C116.611641,179.838903 116.618709,179.864186 116.859022,180.151487 C117.438601,180.999601 116.392532,179.383818 116.939127,180.2779 C117.080488,180.627258 117.101692,180.650242 117.007451,180.342255 C117.040435,180.560604 117.071064,180.776655 117.101692,180.992706 C117.113472,180.670928 117.101692,180.710001 117.066351,181.114521 C117.061639,181.440896 116.967399,181.746585 116.781274,182.026991 C116.4585,182.562521 115.949601,182.882 115.35353,183.068171 C116.036774,182.856717 114.517146,183.134825 115.028401,183.116438 C115.523163,183.09805 114.031807,182.907282 114.722119,183.118736 C114.104844,182.842927 113.989399,182.806152 114.375785,183.008412 C114.225,182.888895 114.074215,182.769378 113.923431,182.647562 C114.017671,182.721111 114.102488,182.801555 114.184948,182.886597 C114.399345,183.114139 114.302749,182.992324 113.895158,182.518851 C113.930499,182.585505 113.968195,182.652159 114.005891,182.716514 C113.77029,182.357962 113.657201,181.962635 113.668981,181.535131 C113.706677,181.328274 113.742018,181.123715 113.777358,180.916858 C113.685473,181.229442 113.709033,181.204159 113.848038,180.843309 C114.012959,180.496249 114.017671,180.461772 113.859818,180.732985 C113.987043,180.569798 114.114268,180.402014 114.241492,180.236528 C113.74673,180.790445 115.018976,179.783741 114.385209,180.10322 C115.014264,179.871081 115.174473,179.804427 114.868192,179.905557 C114.762171,179.940033 114.653794,179.969912 114.543062,179.992897 C114.703271,179.818217 115.629184,180.006687 114.868192,179.926243 C114.451177,179.884871 115.954313,180.238827 115.092013,179.949227 C114.625522,179.790636 115.973162,180.420401 115.38887,180.052655 C115.893057,180.468668 116.032062,180.567499 115.808241,180.346852 C115.5962,180.128503 115.695152,180.250319 116.102742,180.710001 C116.314783,181.284604 116.37604,181.424807 116.284155,181.128312 C116.196983,180.815728 116.211119,180.978915 116.324207,181.62247 C116.41138,181.493759 116.218187,180.700807 116.298291,181.443194 C116.239391,181.822432 116.251171,181.843118 116.331276,181.509848 C116.069758,182.054572 116.010858,182.190178 116.154575,181.914369 C116.571589,181.181175 116.119234,182.045378 115.996722,182.017797 C116.076826,181.925861 116.163999,181.836223 116.258239,181.755778 C116.491484,181.548921 116.373684,181.636261 115.909549,182.017797 C116.566877,181.574204 115.051961,182.249937 115.831801,182.061467 C114.371073,182.415422 112.596995,181.135207 112.587571,179.632046 C112.719508,178.951716 112.726576,178.827602 112.611131,179.257405 C112.679456,179.078129 112.750136,178.898853 112.820817,178.721875 C113.150658,178.131183 113.381548,178.167958 113.897514,177.866866 C113.694897,177.984085 113.148302,178.144974 112.938617,178.105901 C113.08469,178.087513 113.233119,178.071425 113.379192,178.050739 C113.157726,178.073723 112.936261,178.09211 112.714796,178.108199 C110.551976,178.282878 108.448057,179.852693 108.554078,182.169492 C108.648318,184.217377 110.391768,186.416957 112.714796,186.228487 C115.779969,185.982557 119.01713,185.166621 120.334141,182.123524 C121.651152,179.07583 120.437806,175.297242 116.986247,174.269852 C111.079723,172.516164 105.898851,179.694103 108.858003,184.700043 C111.543858,189.239406 118.71556,189.034847 121.252986,184.461008 C124.329939,178.914942 117.252476,172.808062 111.836003,175.782207 C108.766119,177.469241 108.089943,181.185772 109.626063,184.097859 C110.957211,186.61462 114.340445,188.441857 117.195932,187.304143 C119.203255,186.506595 120.852464,184.569034 120.103252,182.309695 C119.476552,180.420401 117.141744,178.616148 114.983636,179.475754" id="Fill-37"></path>
                        <path d="M68.1406286,169.370047 C67.7073637,169.276675 67.7318043,169.327807 68.2161723,169.52789 C67.8451198,169.305576 67.876226,169.332253 68.307269,169.612369 C68.5694498,169.983633 68.6272185,170.045881 68.4783531,169.799113 C68.3405971,169.547898 68.3717033,169.627931 68.5716717,170.039212 C68.4672437,169.596807 68.4650219,169.643493 68.5605623,170.17927 C68.5761154,169.725749 68.5627842,169.779104 68.5227905,170.337113 C68.3228221,170.715047 68.1917317,171.041848 67.7940167,171.281947 C67.5496109,171.435344 67.2852082,171.513154 66.9985868,171.519823 C66.4742251,171.419782 66.4342314,171.424228 66.8830494,171.535385 C66.7652903,171.488699 66.6475311,171.442014 66.5297719,171.395328 C66.9052682,171.633204 66.8963807,171.617642 66.5053313,171.353088 C66.2431505,170.952923 66.2253755,170.939584 66.4542283,171.310848 C66.3275816,171.137443 66.2542598,170.94403 66.234263,170.735055 C66.1120601,170.112576 66.3564659,169.747981 66.6897466,169.256666 C67.1563396,168.940981 67.2074427,168.896518 66.8452776,169.125501 C66.9919211,169.0677 67.1363428,169.009898 67.2829863,168.954319 C67.1052366,169.014344 66.925265,169.06103 66.7408497,169.094377 C67.3140925,169.027683 67.3785268,169.001005 66.9341525,169.01879 C68.1384068,169.009898 66.9452618,169.183303 66.8608307,168.954319 C67.3607518,169.18108 67.4251861,169.189972 67.0519117,168.978774 C67.3274237,169.116609 67.5429452,169.321138 67.6918106,169.592361 C67.8251229,169.992526 67.8540072,170.050328 67.771798,169.759096 C67.6984762,169.472311 67.7118075,169.525666 67.8117917,169.919162 C67.7362481,170.372683 67.7562449,170.37046 67.8717822,169.912493 C67.7162512,170.29265 67.7473574,170.279311 67.9695445,169.872476 L67.8184573,170.085898 C68.1561817,169.774658 68.1761786,169.741311 67.8828916,169.98808 C68.289494,169.767989 68.3117127,169.743534 67.9495477,169.921385 C68.4094751,169.805782 68.4250282,169.803559 68.0006507,169.912493 C66.8719401,169.263336 65.7410076,168.614179 64.6122969,167.967245 C65.1722085,168.852055 64.4101066,166.780088 64.6078531,167.789394 C64.6300719,167.656005 64.6522906,167.520394 64.6745093,167.382559 C64.5456407,167.809402 64.5723032,167.804956 64.7567185,167.366997 C64.6589562,167.573749 64.1034883,168.227352 64.6256281,167.629328 C65.0211212,167.36922 65.0344525,167.355881 64.6611781,167.587088 C64.8944746,167.442584 65.1477679,167.378113 65.4210581,167.398121 C66.5519906,168.047278 67.6807013,168.694212 68.8094119,169.343369 C68.4072532,168.818708 68.8049682,169.679063 68.8294088,169.954733 C68.7294246,170.446047 68.7183152,170.546088 68.7938588,170.25041 C68.8738462,169.976964 68.8382963,170.052551 68.6894309,170.477171 C68.6027779,170.572766 68.5161249,170.670584 68.4316938,170.766179 C68.7449777,170.457162 68.7094277,170.468278 68.3294877,170.797303 C68.0939693,170.863997 67.0363586,170.984047 67.789573,171.072972 C66.6586404,170.423815 65.5299298,169.776881 64.4012191,169.127724 C63.8013138,166.99351 64.4501003,165.748551 66.3431347,165.399518 C64.230135,165.212774 62.4193098,167.338096 62.4193098,169.325584 C62.4193098,171.604303 64.2234694,173.064906 66.3431347,173.25165 C71.6422979,173.718509 74.4440778,164.903758 68.8338525,163.358675 C64.9122495,162.278229 61.13729,165.828584 60.9950903,169.654609 C60.9262123,171.542055 61.7416391,173.720732 63.4413707,174.714476 C65.5343735,175.94165 68.2828284,174.903443 69.9403445,173.398377 C72.4932747,171.077419 73.2842609,166.966832 71.3890046,164.003386 C68.6760996,159.76608 62.72815,163.067444 60.9151029,166.384369 C59.1264964,169.659055 59.9752513,174.005294 63.3258334,175.903856 C66.1120601,177.484509 69.9536757,177.111022 72.2399813,174.807848 C75.1639641,171.86441 74.2285562,167.238055 71.0246177,164.970452 C67.547389,162.513882 62.4281973,163.767733 61.0506371,167.969468 C59.8797108,171.544278 62.0615885,176.399617 66.0542914,176.944286 C68.151738,177.228848 70.2669596,176.439633 70.8824179,174.200931 C71.3845609,172.371286 70.2558502,169.659055 68.1406286,169.370047" id="Fill-39"></path>
                        <path d="M323.784957,162.103981 C324.269503,162.467337 323.629368,161.941178 323.891646,162.184202 C323.982776,162.309254 323.97833,162.288018 323.880532,162.122856 C323.907204,162.186562 323.936099,162.250267 323.962772,162.316332 C323.947213,162.247908 323.891646,161.804329 323.907204,162.10634 C323.924986,162.424867 323.933877,161.893989 323.936099,161.882192 C323.927209,162.052073 323.94499,162.188921 323.953881,161.945897 C323.964994,161.599056 323.889423,162.014321 323.971662,161.912864 C324.096133,161.761859 323.864973,162.203078 323.998335,161.88691 L323.840524,162.011962 C323.929431,161.952975 324.022784,161.898708 324.120583,161.858597 C323.616032,161.927021 323.111482,161.997805 322.606931,162.066229 C322.478015,162.035556 322.366881,161.964773 322.275751,161.863316 C322.426894,162.033197 322.420226,162.0214 322.255747,161.832643 C322.089045,161.561305 322.231297,161.731186 322.271305,161.964773 C322.186843,161.476365 322.142389,162.188921 322.246856,161.691075 C322.362436,161.455129 322.369104,161.438613 322.262415,161.646246 C322.41578,161.445692 322.411335,161.426816 322.253524,161.589619 C322.715843,161.384346 323.178162,161.181432 323.640482,160.978519 C323.315969,161.011551 323.922763,161.124805 324.042788,161.197948 C324.316179,161.400862 324.391751,161.443332 324.269503,161.32064 C324.198377,161.240419 324.207267,161.259294 324.30062,161.367829 C324.378414,161.488162 324.493994,161.879832 324.425091,161.563664 C324.453986,161.688716 324.433982,161.955335 324.445095,161.679278 C324.420646,162.23611 324.509553,161.683997 324.391751,161.93174 C324.247276,162.23847 324.11836,162.467337 323.733835,162.568794 C323.620478,162.597108 323.469335,162.613624 323.355978,162.578232 C323.269293,162.552278 323.00257,162.304535 323.149268,162.474416 C323.29152,162.639578 323.115927,162.403632 323.098146,162.344646 C323.067028,162.23611 323.067028,162.240829 323.098146,162.354083 C323.138154,162.507448 323.133709,162.474416 323.089255,162.259705 C323.113704,162.15117 323.140377,162.014321 323.158158,161.903427 C323.193721,161.858597 323.231507,161.809048 323.26707,161.761859 C323.127041,161.903427 323.109259,161.924662 323.215948,161.827924 C323.304856,161.75714 323.30041,161.752421 323.207057,161.813767 C323.107036,161.868035 323.107036,161.870394 323.20928,161.818486 C323.340419,161.7595 323.311524,161.761859 323.122595,161.830283 C323.182608,161.823205 323.24262,161.816127 323.302633,161.809048 C323.189276,161.818486 323.071473,161.820846 322.958116,161.806689 C323.422658,161.858597 322.753629,161.617932 323.135931,161.830283 C322.195734,161.313562 321.006595,161.568383 320.450923,162.575873 C319.937482,163.510218 320.210873,164.909378 321.155516,165.426099 C323.653818,166.792226 327.356818,165.180716 326.972292,161.797251 C326.805591,160.334386 325.77204,158.947024 324.398419,158.560073 C322.871431,158.128292 321.204415,158.935227 320.699864,160.570332 C320.326453,161.778375 320.570948,163.227083 321.406679,164.166148 C322.449121,165.331721 324.173927,165.539353 325.254154,164.305356 C326.156566,163.271913 326.38328,161.6722 325.914293,160.376856 C325.340839,158.784221 323.700494,157.366186 322.066818,158.295813 C320.810999,159.00837 320.099738,160.400451 320.008608,161.882192 C319.913032,163.453591 320.619848,164.807921 321.804541,165.699797 C322.669167,166.353367 323.987221,165.864959 324.489549,164.954207 C325.065225,163.911326 324.651805,162.755191 323.784957,162.103981" id="Fill-41"></path>
                        <path d="M408.151174,182.611723 C408.72898,182.259827 409.692771,182.510861 410.041326,183.037584 C410.49515,183.723444 410.071737,183.855685 410.050683,184.214305 C410.015594,184.832924 410.413275,183.615858 410.584043,183.828788 C410.544275,183.779478 409.791021,183.418617 409.589842,183.223618 C409.227251,182.869481 409.582824,182.436896 409.409716,183.037584 C409.543056,182.578102 409.589842,182.376379 410.064719,182.120862 C410.413275,181.93707 411.203957,181.818277 411.46128,182.114138 C411.39578,182.040173 411.482334,182.663275 411.547834,182.759654 C411.674156,182.947929 411.297529,183.012929 411.220332,182.811205 C411.110385,182.517585 412.209855,183.931892 411.9268,183.579996 C411.9268,183.579996 411.786442,184.18965 411.702228,184.111201 C411.82855,184.229994 413.131538,184.424994 412.62625,184.351028 C412.974806,184.40258 412.724501,185.180336 412.609875,184.286029 C412.668358,184.743269 412.207516,186.034299 412.808715,185.254302 C414.132758,183.530686 413.108146,180.836556 411.325601,179.839145 C409.227251,178.660183 407.000239,179.532077 405.673858,181.257934 C403.495971,184.088788 404.614156,188.1905 407.250544,190.348942 C410.399239,192.92428 414.972566,192.366178 417.72358,189.51291 C423.546092,183.470169 417.344614,172.541234 408.759391,175.497605 C404.969729,176.802084 402.476038,180.605694 403.594222,184.438442 C404.691353,188.201707 408.953553,190.680665 412.909305,189.521876 C416.315323,188.524465 418.032367,184.965165 417.564508,181.755519 C417.038166,178.122253 413.856721,175.690363 410.02963,175.941397 C405.29957,176.252948 401.056084,180.625867 402.183626,185.287922 C403.184845,189.427738 408.513765,191.78118 412.322142,189.450152 C416.7902,186.713435 412.649643,179.857076 408.151174,182.611723" id="Fill-43"></path>
                    </g>
                </g>
                <text id="Huge-Congratulations" font-family=".SFNSDisplay, .SF NS Display" font-size="46" font-weight="normal" line-spacing="50" fill="#08413C">
                    <tspan x="186.980469" y="105">Huge </tspan>
                    <tspan x="78" y="155">Congratulations!</tspan>
                </text>
            </g>
        </g>
    </g>
</svg>