<?xml version="1.0" encoding="UTF-8"?>
<svg width="193px" height="40px" viewBox="0 0 193 40" version="1.1" xmlns="http://www.w3.org/2000/svg" xmlns:xlink="http://www.w3.org/1999/xlink">
    <!-- Generator: Sketch 57.1 (83088) - https://sketch.com -->
    <title>Color logo - no background</title>
    <desc>Created with Sketch.</desc>
    <g id="Final-Template" stroke="none" stroke-width="1" fill="none" fill-rule="evenodd">
        <g id="01-Home-Page" transform="translate(-164.000000, -20.000000)" fill-rule="nonzero">
            <g id="01-Navigation-Bar">
                <g id="Color-logo---no-background" transform="translate(164.000000, 20.000000)">
                    <g id="SvgjsG3455" fill="#35AB9B">
                        <g id="SvgjsG3456">
                            <g id="Group">
                                <path d="M37.6576263,39.4864735 L2.16136487,39.4864735 C1.24694127,39.4864735 0.498776508,38.7383088 0.498776508,37.8238852 C0.498776508,36.9094616 1.24694127,36.1612968 2.16136487,36.1612968 L37.6576263,36.1612968 C38.5720499,36.1612968 39.3202147,36.9094616 39.3202147,37.8238852 C39.3202147,38.7383088 38.5720499,39.4864735 37.6576263,39.4864735 Z" id="Path"></path>
                                <g transform="translate(0.831294, 0.000000)">
                                    <path d="M37.5744969,17.7896954 L19.4522838,7.98042413 C19.2028956,7.81416529 18.9535073,7.81416529 18.704119,7.98042413 L0.498776508,17.7896954 C0.166258836,17.9559543 0,18.3716014 0.083129418,18.7872485 C0.166258836,19.2028956 0.498776508,19.4522838 0.914423598,19.4522838 L5.90218868,19.4522838 L5.90218868,38.987697 L10.7236949,38.987697 L10.7236949,19.3691544 L27.3495785,19.3691544 L27.3495785,38.9045676 L32.1710848,38.9045676 L32.1710848,19.3691544 L37.1588498,19.3691544 C37.5744969,19.3691544 37.9070146,19.1197661 37.990144,18.704119 C38.0732734,18.3716014 37.9070146,17.9559543 37.5744969,17.7896954 Z" id="Path"></path>
                                    <path d="M38.4057911,8.97797714 L32.420473,0.665035344 C32.2542142,0.41564709 31.8385671,0.332517672 31.5891788,0.581905926 L22.4449429,7.64790645 L33.418026,13.6332245 L38.3226617,9.89240074 C38.5720499,9.64301249 38.6551794,9.2273654 38.4057911,8.97797714 Z M29.427814,6.06844751 L31.7554377,4.23960032 C32.0879553,3.99021206 32.6698613,4.07334148 32.9192495,4.40585915 C33.1686378,4.82150624 33.0855084,5.32028275 32.7529907,5.65280042 L30.425367,7.48164762 C30.2591081,7.56477704 30.0928493,7.64790645 29.9265905,7.64790645 C29.6772022,7.64790645 29.427814,7.56477704 29.2615551,7.31538878 C28.9290375,6.89974169 29.0121669,6.31783577 29.427814,6.06844751 Z M34.6649673,8.64545947 L31.0072729,11.4718597 C30.8410141,11.5549891 30.6747552,11.6381185 30.5084964,11.6381185 C30.2591081,11.6381185 30.0097199,11.5549891 29.8434611,11.3056008 C29.5940728,10.8899538 29.6772022,10.3911772 30.0097199,10.0586596 L33.6674143,7.23225936 C33.999932,6.98287111 34.5818379,7.06600053 34.8312261,7.3985182 C35.1637438,7.81416529 35.0806144,8.3129418 34.6649673,8.64545947 Z" id="Shape"></path>
                                </g>
                            </g>
                        </g>
                    </g>
                    <g id="SvgjsG3457" transform="translate(47.991994, 15.128139)" fill="#08413C">
                        <path d="M8.54322301,0.725142536 L11.7532621,0.725142536 L11.7532621,13.1099386 L7.93662251,13.1099386 L3.21003907,5.07220165 L3.21003907,13.1099386 L0,13.1099386 L0,0.725142536 L3.7745373,0.725142536 L8.54322301,8.72077724 L8.54322301,0.725142536 Z M22.9757105,8.55185052 L22.941977,9.25957411 L16.5724561,9.25957411 C16.6988319,10.3717469 17.4992236,10.9025116 18.4765484,10.9025116 C19.2348292,10.9025116 19.7908638,10.6076231 20.04365,9.95046541 L22.8745961,10.312752 C22.3269474,12.2337542 20.6334268,13.2784599 18.4934583,13.2784599 C15.418181,13.2784599 13.5225436,11.5934201 13.5225436,8.66135956 C13.5225436,5.70410664 15.4941031,4.00215699 18.3923438,4.00215699 C20.9957824,4.00215699 22.9588869,5.34175106 22.9757105,8.55179013 L22.9757105,8.55185052 Z M18.4091356,6.12536226 C17.482368,6.12536226 16.8841362,6.46237883 16.6566287,7.31337091 L19.9593272,7.31337091 C19.7908233,6.52982011 19.1841969,6.12536226 18.4090493,6.12536226 L18.4091356,6.12536226 Z M26.1014781,3.32806346 C25.1662556,3.32806346 24.4079834,2.58663217 24.4079834,1.65139242 C24.4079834,0.741448538 25.1662642,0 26.1014781,0 C26.9945983,0 27.7528705,0.741431283 27.7528705,1.65139242 C27.7528705,2.58661492 26.9945897,3.32806346 26.1014781,3.32806346 L26.1014781,3.32806346 Z M24.5343765,13.1099386 L24.5343765,4.18736383 L27.6264774,4.18736383 L27.6264774,13.1099386 L24.5343765,13.1099386 L24.5343765,13.1099386 Z M35.773765,4.18736383 L38.6889156,4.18736383 L38.6889156,12.3177603 C38.6889156,16.0417404 36.6499753,17.3055849 33.718001,17.3055849 C30.954522,17.3055849 29.5727394,16.1850434 28.957684,14.5083723 L31.5105653,13.4720354 C32.0076568,14.5083723 32.5805496,14.9549325 33.6000629,14.9549325 C34.9902142,14.9549325 35.5969009,14.1292535 35.5969009,12.5537228 L35.5969009,11.8375701 C35.0998095,12.3852188 34.1898397,12.7643377 33.1451341,12.7643377 C30.954522,12.7643377 29.092532,11.070843 29.092532,8.36628996 C29.092532,5.65336823 30.954522,4.01879947 33.1787814,4.01879947 C34.3415114,4.01879947 35.251369,4.46534233 35.7063841,5.11406235 L35.773765,4.18736383 Z M33.9791558,10.3127261 C35.0828737,10.3127261 35.9085267,9.48704714 35.9085267,8.36644525 C35.9085267,7.24584336 35.0996973,6.41179572 33.9791558,6.41179572 C32.8501594,6.41179572 32.0413299,7.24590376 32.0413299,8.36644525 C32.0413299,9.48698675 32.875438,10.3127261 33.9791558,10.3127261 Z M46.9877778,4.01912731 C49.1278326,4.01912731 50.2821076,5.15657873 50.2821076,7.44821895 L50.2821076,13.1100249 L47.1984617,13.1100249 L47.1984617,7.93688134 C47.1984617,6.7741513 46.5749857,6.44561557 45.7830317,6.44561557 C44.9994809,6.44561557 43.9884226,6.740504 43.9715989,8.45082234 L43.9715989,13.1100249 L40.8963216,13.1100249 L40.8963216,0.16875417 L43.9715989,0.16875417 L43.9715989,5.21550465 C44.6456235,4.47407337 45.6819173,4.01912731 46.987864,4.01912731 L46.9877778,4.01912731 Z M57.8648781,4.01912731 C60.2408091,4.01912731 62.2291922,5.70416704 62.2291922,8.67832987 C62.2291922,11.6440377 60.2408091,13.3375324 57.8648781,13.3375324 C56.7443366,13.3375324 55.7501019,12.9668168 55.2698945,12.2590932 L55.202492,13.1100508 L52.304165,13.1100508 L52.304165,0.168780053 L55.3794423,0.168780053 L55.3794423,4.94592073 C55.8933833,4.3308739 56.8286058,4.01915319 57.8649428,4.01915319 L57.8648781,4.01912731 Z M57.1403395,10.8182121 C58.2777909,10.8182121 59.1540012,10.0346613 59.1540012,8.67815732 C59.1540012,7.31328464 58.2777909,6.53810252 57.1403395,6.53810252 C55.9945194,6.53810252 55.1182228,7.31323287 55.1182228,8.67815732 C55.1182228,10.0346613 55.9944331,10.8182121 57.1403395,10.8182121 Z M68.1438005,13.2784426 C65.1275354,13.2784426 63.0212142,11.5934029 63.0212142,8.64451865 C63.0212142,5.70408939 65.1107117,4.01904966 68.1438005,4.01904966 C71.2021679,4.01904966 73.2916654,5.70408939 73.2916654,8.64451865 C73.2916654,11.5934029 71.1853442,13.2784426 68.1438005,13.2784426 Z M68.1100669,10.8856793 C69.4243824,10.8856793 70.2332118,9.96728044 70.2332118,8.64451002 C70.2332118,7.31328464 69.4243824,6.39497207 68.1100669,6.39497207 C66.8715873,6.39497207 66.0795815,7.31337091 66.0795815,8.64451002 C66.0795815,9.96728044 66.8715614,10.8856793 68.1100669,10.8856793 Z M77.7064532,5.52713045 C78.1698456,4.81940687 79.3662143,4.08642192 80.6721611,4.08642192 L80.6721611,6.77406502 C78.692233,6.77406502 77.8834035,7.2121788 77.8834035,9.02360298 L77.8834035,13.1098523 L74.7744789,13.1098523 L74.7744789,4.18727756 L77.7064532,4.18727756 L77.7064532,5.52687163 L77.7064532,5.52713045 Z M89.8726551,10.2959024 L93.4955207,10.2959024 L93.4955207,13.1099386 L86.662616,13.1099386 L86.662616,0.725142536 L89.8726551,0.725142536 L89.8726551,10.2965064 L89.8726551,10.2959024 Z M103.605893,8.55185052 L103.57216,9.25957411 L97.2026389,9.25957411 C97.3290147,10.3717469 98.1294064,10.9025116 99.1067312,10.9025116 C99.865012,10.9025116 100.421047,10.6076231 100.673833,9.95046541 L103.504779,10.312752 C102.95713,12.2337542 101.26361,13.2784599 99.1236411,13.2784599 C96.0483638,13.2784599 94.1527265,11.5934201 94.1527265,8.66135956 C94.1527265,5.70410664 96.124286,4.00215699 99.0225267,4.00215699 C101.625965,4.00215699 103.58907,5.34175106 103.605893,8.55179013 L103.605893,8.55185052 Z M99.0393184,6.12536226 C98.1125509,6.12536226 97.5143191,6.46237883 97.2868115,7.31337091 L100.58951,7.31337091 C100.421006,6.52982011 99.8143797,6.12536226 99.0392321,6.12536226 L99.0393184,6.12536226 Z M108.770601,13.1099386 C106.874878,13.1099386 105.838627,12.0230444 105.838627,10.1104972 L105.838627,6.52127887 L104.128309,6.52127887 L104.128309,4.18745011 L104.633829,4.18745011 C105.577507,4.18745011 106.217754,3.84201308 106.217754,2.2917265 L106.217754,1.37332765 L108.96441,1.37332765 L108.96441,4.18736383 L110.666359,4.18736383 L110.666359,6.52119259 L108.96441,6.52119259 L108.96441,9.76496524 C108.96441,10.5232461 109.267719,10.8181259 109.874354,10.8181259 L110.666359,10.8181259 L110.666359,13.1099386 L108.77061,13.1099386 L108.770601,13.1099386 Z M115.999514,13.1099386 C114.103791,13.1099386 113.06754,12.0230444 113.06754,10.1104972 L113.06754,6.52127887 L111.357222,6.52127887 L111.357222,4.18745011 L111.862742,4.18745011 C112.80642,4.18745011 113.446667,3.84201308 113.446667,2.2917265 L113.446667,1.37332765 L116.193323,1.37332765 L116.193323,4.18736383 L117.895272,4.18736383 L117.895272,6.52119259 L116.193323,6.52119259 L116.193323,9.76496524 C116.193323,10.5232461 116.496632,10.8181259 117.103267,10.8181259 L117.895272,10.8181259 L117.895272,13.1099386 L115.999523,13.1099386 L115.999514,13.1099386 Z M128.367869,8.55185052 L128.334136,9.25957411 L121.964615,9.25957411 C122.09099,10.3717469 122.891382,10.9025116 123.868707,10.9025116 C124.626988,10.9025116 125.183022,10.6076231 125.435809,9.95046541 L128.266755,10.312752 C127.719106,12.2337542 126.025585,13.2784599 123.885617,13.2784599 C120.81034,13.2784599 118.914702,11.5934201 118.914702,8.66135956 C118.914702,5.70410664 120.886262,4.00215699 123.784502,4.00215699 C126.387941,4.00215699 128.351045,5.34175106 128.367869,8.55179013 L128.367869,8.55185052 Z M123.801294,6.12536226 C122.874527,6.12536226 122.276295,6.46237883 122.048787,7.31337091 L125.351486,7.31337091 C125.182982,6.52982011 124.576355,6.12536226 123.801208,6.12536226 L123.801294,6.12536226 Z M132.858509,5.52713045 C133.321902,4.81940687 134.51827,4.08642192 135.824217,4.08642192 L135.824217,6.77406502 C133.844289,6.77406502 133.03546,7.2121788 133.03546,9.02360298 L133.03546,13.1098523 L129.926535,13.1098523 L129.926535,4.18727756 L132.858509,4.18727756 L132.858509,5.52687163 L132.858509,5.52713045 Z M140.382321,13.2784426 C138.318103,13.2784426 136.675165,12.5370113 136.329719,10.8013971 L138.865777,10.0936735 C139.177515,10.9698838 139.750442,11.1973914 140.399145,11.1973914 C140.854108,11.1973914 141.351191,11.0878651 141.351191,10.6076231 C141.351191,9.76509465 139.800913,9.76509465 138.402307,9.20901688 C137.433437,8.82988078 136.540317,8.2064135 136.540317,6.77407365 C136.540317,4.89525997 138.107419,4.01896339 140.247473,4.01896339 C142.042083,4.01896339 143.558627,4.63401022 143.93772,6.39489442 L141.612346,6.90041496 C141.300608,6.20954091 140.870915,5.99892605 140.247473,5.99892605 C139.691404,5.99892605 139.312251,6.15900956 139.312251,6.48759706 C139.312251,7.01838759 140.331678,7.10264389 141.435396,7.41436459 C142.800269,7.79350069 144.299989,8.4675252 144.299989,10.3968961 C144.299989,12.5369509 142.437999,13.2783132 140.382235,13.2783132 L140.382321,13.2784426 Z" id="Shape"></path>
                    </g>
                </g>
            </g>
        </g>
    </g>
</svg>