<?xml version="1.0" encoding="UTF-8"?>
<svg width="460px" height="237px" viewBox="0 0 460 237" version="1.1" xmlns="http://www.w3.org/2000/svg" xmlns:xlink="http://www.w3.org/1999/xlink">
    <title>image</title>
    <g id="Page-1" stroke="none" stroke-width="1" fill="none" fill-rule="evenodd">
        <g id="About-Us" transform="translate(-830.000000, -123.000000)" fill-rule="nonzero">
            <g id="02-Header" transform="translate(-6.000000, 78.000000)">
                <g id="image" transform="translate(836.000000, 45.000000)">
                    <path d="M9.66319142,185.940373 C12.5478073,191.290025 18.6699909,193.586512 18.6699909,193.586512 C18.6699909,193.586512 20.1152948,187.209509 17.230675,181.859857 C14.3460551,176.510205 8.22387551,174.213718 8.22387551,174.213718 C8.22387551,174.213718 6.7785756,180.590725 9.66319142,185.940373 Z" id="Path" fill="#3F3D56"></path>
                    <path d="M11.6458993,184.180377 C16.853819,187.313637 18.8595549,193.537152 18.8595549,193.537152 C18.8595549,193.537152 12.4215793,194.680652 7.21365957,191.547393 C2.00573988,188.414133 1.99999986e-05,182.190617 1.99999986e-05,182.190617 C1.99999986e-05,182.190617 6.43797562,181.047117 11.6458993,184.180377 Z" id="Path" fill="#34AD9A"></path>
                    <path d="M284.282423,97.1886862 C284.282423,139.962432 258.854113,154.897423 227.486702,154.897423 C196.119292,154.897423 170.690978,139.962432 170.690978,97.1886862 C170.690978,54.4149408 227.486702,1.59999991e-05 227.486702,1.59999991e-05 C227.486702,1.59999991e-05 284.282423,54.4149448 284.282423,97.1886862 Z" id="Path" fill="#FFFFFF"></path>
                    <polygon id="Path" fill="#3F3D56" points="225.417587 148.354391 225.999187 112.556393 250.207185 68.2695959 226.090387 106.940794 226.351987 90.8447946 243.035986 58.8035965 226.421187 86.5851948 226.421187 86.5851948 226.891586 57.6355966 244.757185 32.1267981 226.965586 53.0831968 227.259186 0 225.412787 70.2727958 225.564387 67.373996 207.400388 39.5707976 225.273187 72.9387957 223.580787 105.270394 223.530387 104.412394 202.590388 75.1539955 223.466787 107.443994 223.255187 111.487593 223.217187 111.548393 223.234787 111.880393 218.940787 193.908788 224.677587 193.908788 225.365987 151.539191 246.191185 119.328393"></polygon>
                    <path d="M443.082414,97.1886862 C443.082414,139.962432 417.654103,154.897423 386.286693,154.897423 C354.919283,154.897423 329.490968,139.962432 329.490968,97.1886862 C329.490968,54.4149408 386.286693,1.59999991e-05 386.286693,1.59999991e-05 C386.286693,1.59999991e-05 443.082414,54.4149448 443.082414,97.1886862 Z" id="Path" fill="#FFFFFF"></path>
                    <polygon id="Path" fill="#3F3D56" points="384.217577 148.354391 384.799177 112.556393 409.007176 68.2695959 384.890377 106.940794 385.151977 90.8447946 401.835976 58.8035965 385.221177 86.5851948 385.221177 86.5851948 385.691577 57.6355966 403.557176 32.1267981 385.765577 53.0831968 386.059177 0 384.212777 70.2727958 384.364377 67.373996 366.200378 39.5707976 384.073177 72.9387957 382.380777 105.270394 382.330377 104.412394 361.390378 75.1539955 382.266777 107.443994 382.055177 111.487593 382.017177 111.548393 382.034777 111.880393 377.740777 193.908788 383.477577 193.908788 384.165977 151.539191 404.991176 119.328393"></polygon>
                    <circle id="Oval" fill="#FF6584" cx="43.6863254" cy="109.788749" r="21.7260627"></circle>
                    <polygon id="Path" fill="#3F3D56" points="16.121199 150.653991 12.9319992 145.338391 42.6983975 119.824393 119.241193 119.824393 119.241193 127.265992 91.6007945 157.032391 59.7079964 163.41119"></polygon>
                    <polygon id="Path" fill="#CCCCCC" points="132.417192 134.797192 132.417192 118.164393 122.395993 118.164393 122.395993 123.409193 119.241193 119.824393 93.7267944 145.338391 89.4743947 149.590791 84.159195 170.85279 93.7267944 194.240788 142.629191 194.240788 142.629191 146.401591"></polygon>
                    <rect id="Rectangle" fill="#F2F2F2" x="12.9318912" y="145.338547" width="80.7950552" height="48.9022731"></rect>
                    <rect id="Rectangle" fill="#3F3D56" x="65.5549841" y="160.753394" width="17.009487" height="14.8832991"></rect>
                    <rect id="Rectangle" fill="#CCCCCC" x="43.7615814" y="160.22185" width="14.8832991" height="34.01897"></rect>
                    <polygon id="Path" fill="#3F3D56" points="26.7519984 165.53719 26.7519984 160.22199 20.3735988 160.22199 20.3735988 165.53719 26.2203984 165.53719"></polygon>
                    <polygon id="Path" fill="#3F3D56" points="26.2203984 169.78959 20.3735988 169.78959 20.3735988 175.10519 26.7519984 175.10519 26.7519984 169.78959"></polygon>
                    <rect id="Rectangle" fill="#3F3D56" x="31.0044662" y="160.22185" width="6.37855562" height="5.31546368"></rect>
                    <rect id="Rectangle" fill="#3F3D56" x="31.0044662" y="169.789686" width="6.37855562" height="5.31546368"></rect>
                    <polygon id="Path" fill="#3F3D56" points="116.583593 166.06879 116.583593 160.75359 110.204793 160.75359 110.204793 166.06879 116.051993 166.06879"></polygon>
                    <polygon id="Path" fill="#3F3D56" points="116.051993 170.32119 110.204793 170.32119 110.204793 175.63679 116.583593 175.63679 116.583593 170.32119"></polygon>
                    <rect id="Rectangle" fill="#3F3D56" x="120.835813" y="160.753394" width="6.37855562" height="5.31546368"></rect>
                    <rect id="Rectangle" fill="#3F3D56" x="120.835813" y="170.32123" width="6.37855562" height="5.31546368"></rect>
                    <polygon id="Path" fill="#3F3D56" points="169.52479 150.624791 166.33559 145.309591 196.102388 119.795193 272.644784 119.795193 272.644784 127.236792 245.004385 157.003591 213.111587 163.38199"></polygon>
                    <polygon id="Path" fill="#CCCCCC" points="285.821183 134.767992 285.821183 118.135193 275.799584 118.135193 275.799584 123.379993 272.644784 119.795193 247.130785 145.309591 242.878386 149.561591 237.562786 170.82359 247.130785 194.211588 296.032782 194.211588 296.032782 146.372391"></polygon>
                    <rect id="Rectangle" fill="#F2F2F2" x="166.335666" y="145.309423" width="80.7950552" height="48.9022731"></rect>
                    <rect id="Rectangle" fill="#3F3D56" x="218.958763" y="160.724266" width="17.009487" height="14.8832991"></rect>
                    <rect id="Rectangle" fill="#CCCCCC" x="197.165356" y="160.192722" width="14.8832991" height="34.01897"></rect>
                    <polygon id="Path" fill="#3F3D56" points="180.155989 165.50799 180.155989 160.19279 173.77719 160.19279 173.77719 165.50799 179.624389 165.50799"></polygon>
                    <polygon id="Path" fill="#3F3D56" points="179.624389 169.76039 173.77719 169.76039 173.77719 175.07599 180.155989 175.07599 180.155989 169.76039"></polygon>
                    <rect id="Rectangle" fill="#3F3D56" x="184.408245" y="160.192722" width="6.37855562" height="5.31546368"></rect>
                    <rect id="Rectangle" fill="#3F3D56" x="184.408245" y="169.760558" width="6.37855562" height="5.31546368"></rect>
                    <polygon id="Path" fill="#3F3D56" points="269.987184 166.03959 269.987184 160.72439 263.608784 160.72439 263.608784 166.03959 269.455584 166.03959"></polygon>
                    <polygon id="Path" fill="#3F3D56" points="269.455584 170.29199 263.608784 170.29199 263.608784 175.60759 269.987184 175.60759 269.987184 170.29199"></polygon>
                    <rect id="Rectangle" fill="#3F3D56" x="274.239592" y="160.724266" width="6.37855562" height="5.31546368"></rect>
                    <rect id="Rectangle" fill="#3F3D56" x="274.239592" y="170.292106" width="6.37855562" height="5.31546368"></rect>
                    <polygon id="Path" fill="#3F3D56" points="318.324781 150.624791 315.135581 145.309591 344.902379 119.795193 421.444775 119.795193 421.444775 127.236792 393.804377 157.003591 361.911578 163.38199"></polygon>
                    <g id="Group-15" transform="translate(449.199973, 184.399990) scale(-1, 1) translate(-449.199973, -184.399990) translate(439.199973, 174.399990)">
                        <path d="M9.66317142,11.7266553 C12.5477873,17.076307 18.6699709,19.3727948 18.6699709,19.3727948 C18.6699709,19.3727948 20.1152748,12.9957912 17.230655,7.64613954 C14.3460351,2.29648786 8.22385551,1.8189893e-13 8.22385551,1.8189893e-13 C8.22385551,1.8189893e-13 6.7785556,6.37700762 9.66317142,11.7266553 Z" id="Path" fill="#3F3D56"></path>
                        <path d="M11.6458793,9.96665941 C16.853799,13.0999192 18.8595349,19.3234348 18.8595349,19.3234348 C18.8595349,19.3234348 12.4215593,20.4669348 7.21363957,17.333675 C2.00571988,14.2004152 3.31112895e-13,7.97689952 3.31112895e-13,7.97689952 C3.31112895e-13,7.97689952 6.43795562,6.83339959 11.6458793,9.96665941 Z" id="Path" fill="#34AD9A"></path>
                    </g>
                    <polygon id="Path" fill="#CCCCCC" points="434.621174 134.767992 434.621174 118.135193 424.599575 118.135193 424.599575 123.379993 421.444775 119.795193 395.930776 145.309591 391.678377 149.561591 386.362777 170.82359 395.930776 194.211588 444.832773 194.211588 444.832773 146.372391"></polygon>
                    <rect id="Rectangle" fill="#F2F2F2" x="315.135657" y="145.309423" width="80.7950552" height="48.9022731"></rect>
                    <rect id="Rectangle" fill="#3F3D56" x="367.758754" y="160.724266" width="17.009487" height="14.8832991"></rect>
                    <rect id="Rectangle" fill="#CCCCCC" x="345.965347" y="160.192722" width="14.8832991" height="34.01897"></rect>
                    <polygon id="Path" fill="#3F3D56" points="328.95598 165.50799 328.95598 160.19279 322.577181 160.19279 322.577181 165.50799 328.42438 165.50799"></polygon>
                    <polygon id="Path" fill="#3F3D56" points="328.42438 169.76039 322.577181 169.76039 322.577181 175.07599 328.95598 175.07599 328.95598 169.76039"></polygon>
                    <rect id="Rectangle" fill="#3F3D56" x="333.208236" y="160.192722" width="6.37855562" height="5.31546368"></rect>
                    <rect id="Rectangle" fill="#3F3D56" x="333.208236" y="169.760558" width="6.37855562" height="5.31546368"></rect>
                    <polygon id="Path" fill="#3F3D56" points="418.787175 166.03959 418.787175 160.72439 412.408775 160.72439 412.408775 166.03959 418.255575 166.03959"></polygon>
                    <polygon id="Path" fill="#3F3D56" points="418.255575 170.29199 412.408775 170.29199 412.408775 175.60759 418.787175 175.60759 418.787175 170.29199"></polygon>
                    <rect id="Rectangle" fill="#3F3D56" x="423.039583" y="160.724266" width="6.37855562" height="5.31546368"></rect>
                    <rect id="Rectangle" fill="#3F3D56" x="423.039583" y="170.292106" width="6.37855562" height="5.31546368"></rect>
                    <rect id="Rectangle" fill="#3F3D56" x="303.63297" y="162.638974" width="1" height="31.5999981"></rect>
                    <path d="M311.816061,166.66603 C311.866989,177.715761 304.092918,186.709357 304.092918,186.709357 C304.092918,186.709357 296.236278,177.787801 296.18535,166.73807 C296.134422,155.688339 303.908498,146.694739 303.908498,146.694739 C303.908498,146.694739 311.765137,155.616299 311.816061,166.66603 Z" id="Path" fill="#34AD9A"></path>
                    <g id="Group-2" transform="translate(140.185111, 145.894739)">
                        <rect id="Rectangle" fill="#3F3D56" x="17.8478681" y="15.944235" width="1" height="31.5999981"></rect>
                        <path d="M26.0309596,19.9712908 C26.0818876,31.0210222 18.307816,40.0146176 18.307816,40.0146176 C18.307816,40.0146176 10.4511765,31.0930621 10.4002485,20.0433308 C10.3493205,8.99359946 18.1233961,1.77635684e-14 18.1233961,1.77635684e-14 C18.1233961,1.77635684e-14 25.9800356,8.92155947 26.0309596,19.9712908 Z" id="Path" fill="#000000" opacity="0.1"></path>
                        <rect id="Rectangle" fill="#3F3D56" x="7.44786869" y="15.944235" width="1" height="31.5999981"></rect>
                        <path d="M15.6309602,19.9712908 C15.6818882,31.0210222 7.90781666,40.0146176 7.90781666,40.0146176 C7.90781666,40.0146176 0.0511771307,31.0930621 0.000249133772,20.0433308 C-0.0506788632,8.99359946 7.72339667,1.77635684e-14 7.72339667,1.77635684e-14 C7.72339667,1.77635684e-14 15.5800362,8.92155947 15.6309602,19.9712908 Z" id="Path" fill="#34AD9A"></path>
                    </g>
                    <path d="M166.21607,165.86603 C166.266998,176.915761 158.492927,185.909357 158.492927,185.909357 C158.492927,185.909357 150.636287,176.987801 150.585359,165.93807 C150.534431,154.888339 158.308507,145.894739 158.308507,145.894739 C158.308507,145.894739 166.165146,154.816299 166.21607,165.86603 Z" id="Path" fill="#34AD9A"></path>
                    <rect id="Rectangle" fill="#38AA9D" x="1.48243991" y="193.44082" width="454.799973" height="1"></rect>
                    <g id="Group-3" transform="translate(328.282420, 165.966441)">
                        <path d="M45.0839374,6.03059665 L51.5350891,4.77183273 C51.5350891,4.77183273 53.108541,-0.577902951 54.9966888,0.0514770113 C56.8848367,0.680856974 53.7379289,6.03059665 53.7379289,6.03059665 L44.7692495,10.1215644 L45.0839374,6.03059665 Z" id="Path" fill="#A0616A"></path>
                        <path d="M5.90498777,11.3803323 L3.07277594,14.9992721 C3.07277594,14.9992721 -1.01819981,14.8419241 0.240564112,17.04476 C1.49932804,19.2475959 4.33153587,17.9888279 4.48888386,17.516792 C4.64623185,17.044756 9.20923958,12.9537842 9.20923958,12.9537842 L5.90498777,11.3803323 Z" id="Path" fill="#A0616A"></path>
                        <path d="M17.4698591,7.21068458 L19.8300389,5.95192466 C19.8300389,5.95192466 29.9001303,5.16519671 33.6764141,7.68272456 C37.4526979,10.2002524 17.7845511,10.5149364 17.7845511,10.5149364 L17.4698591,7.21068458 Z" id="Path" fill="#34AD9A"></path>
                        <path d="M21.9541988,4.92916472 C21.9541988,4.92916472 20.6954349,1.9396049 22.4262348,1.62491292 C23.4133543,1.43135302 24.4286711,1.43135302 25.4157906,1.62491292 L23.5276507,3.19836482 L21.9541988,4.92916472 Z" id="Path" fill="#3F3D56"></path>
                        <path d="M21.9541988,4.92916472 C21.9541988,4.92916472 20.6954349,1.9396049 22.4262348,1.62491292 C23.4133543,1.43135302 24.4286711,1.43135302 25.4157906,1.62491292 L23.5276507,3.19836482 L21.9541988,4.92916472 Z" id="Path" fill="#000000" opacity="0.1"></path>
                        <path d="M13.3002113,23.0238756 L8.73720361,22.7091837 L9.52392756,24.1252916 C9.52392756,24.1252916 3.23011993,26.0134315 5.27560781,31.3631711 C6.71218402,34.9642296 8.44910648,38.4380745 10.4680075,41.7479705 L12.5134954,45.6816023 C12.5134954,45.6816023 16.7618151,46.3109823 16.9191591,45.0522183 C17.0765031,43.7934544 16.9191591,43.1640784 16.1324352,42.5346985 C15.4104677,41.8842257 14.9608703,40.9850321 14.8736712,40.0171746 C14.8736712,39.3877947 15.0310192,38.7584107 14.5589833,38.4437227 C14.0869473,38.1290347 13.9296033,37.6569948 13.9296033,36.7129228 C13.9296033,35.7688509 12.1988034,32.3072551 12.1988034,32.3072551 C12.1988034,32.3072551 17.7058871,32.1499111 19.436683,33.566019 C21.1674789,34.9821269 26.8319065,40.3318586 26.8319065,40.3318586 C27.145203,40.6597083 27.4101143,41.0305862 27.6186305,41.4332785 C27.9333225,42.0626585 27.9333225,42.3773465 28.5627024,42.6920385 C29.1920824,43.0067305 28.7200464,44.2654904 28.5627024,44.4228384 C28.4053584,44.5801864 26.8318985,50.873962 26.8318985,50.873962 C26.8318985,50.873962 25.1010986,53.8635218 26.9892425,54.0208658 C28.8773864,54.1782098 30.6081823,54.3355578 30.7655263,54.0208658 C30.9403906,53.5847042 31.1508975,53.1636931 31.3949103,52.7621059 C31.8669422,51.9753779 31.3949103,50.244582 31.3949103,50.244582 C31.3949103,50.244582 35.957918,44.4228104 34.5418101,40.8038706 C33.1257022,37.1849308 30.1361463,29.0029833 30.1361463,29.0029833 L25.5731386,27.1148434 L17.2338431,24.1252836 L13.3002113,23.0238756 Z" id="Path" fill="#2F2E41"></path>
                        <path d="M12.9855234,44.8948543 C12.9855234,44.8948543 12.0414514,48.5137941 11.7267594,48.6711381 C11.4120674,48.8284821 7.95047565,51.8180419 10.3106555,52.2900779 C12.6708354,52.7621139 14.4016273,52.6047699 14.8736632,52.1327339 C15.3456992,51.6606979 15.1883552,51.188662 15.9750792,51.031318 C16.7618031,50.873974 18.177915,50.401934 18.0205671,49.3005181 C17.8632191,48.1991021 17.0764991,45.2095463 16.6044631,44.8948543 C16.1324272,44.5801624 12.9855234,44.8948543 12.9855234,44.8948543 Z" id="Path" fill="#2F2E41"></path>
                        <path d="M26.6745545,52.9194579 C26.6745545,52.9194579 25.2584466,54.0208738 26.0451706,56.0663617 C26.8318945,58.1118496 27.9333145,60.3146814 27.9333145,60.3146814 C27.9333145,60.3146814 29.1920744,64.2483132 31.2375623,63.6189292 C31.9865375,63.3533351 32.5376884,62.7093795 32.6844742,61.9283813 C32.9769216,60.8005961 32.7686522,59.6014724 32.1130462,58.6383495 L30.9228743,56.8530896 L29.6641104,53.5488378 L26.6745545,52.9194579 Z" id="Path" fill="#2F2E41"></path>
                        <path d="M22.7409228,6.65996462 C22.7409228,6.65996462 20.8527829,6.50262063 20.5380909,6.9746566 C20.2233989,7.44669257 18.807291,13.7404962 20.5380909,14.3698762 C22.2688908,14.9992561 27.4612905,16.1006761 28.2480064,15.3139481 C29.0347224,14.5272201 29.3494224,7.60403656 29.3494224,7.60403656 L22.7409228,6.65996462 Z" id="Path" fill="#A0616A"></path>
                        <path d="M22.7409228,6.65996462 C22.7409228,6.65996462 20.8527829,6.50262063 20.5380909,6.9746566 C20.2233989,7.44669257 18.807291,13.7404962 20.5380909,14.3698762 C22.2688908,14.9992561 27.4612905,16.1006761 28.2480064,15.3139481 C29.0347224,14.5272201 29.3494224,7.60403656 29.3494224,7.60403656 L22.7409228,6.65996462 Z" id="Path" fill="#000000" opacity="0.1"></path>
                        <path d="M19.9087109,11.8523643 C19.9087109,11.8523643 22.1115428,14.0551962 23.5276507,13.7405042 C24.9437586,13.4258122 28.2480064,12.0097043 28.5626944,11.3803283 C28.8773824,10.7509524 32.8110142,10.5936004 32.8110142,10.5936004 L28.5626944,22.3944917 L31.5522542,32.3072351 C31.5522542,32.3072351 33.2830541,30.2617472 28.5626944,30.1044032 C23.8423347,29.9470592 17.5485311,27.5868794 16.4471151,24.4399756 C16.4471151,24.4399756 9.52391556,23.4959076 9.20923958,23.3385596 C8.8945636,23.1812116 9.99597953,22.2371637 9.99597953,22.2371637 L14.5589913,20.9784038 L17.8632391,16.730084 L19.9087109,11.8523643 Z" id="Path" fill="#F2F2F2"></path>
                        <path d="M21.3248189,6.9746686 C21.3248189,6.9746686 22.1115428,5.87324866 21.3248189,5.87324866 C20.0640089,5.84710918 18.8027962,5.8996606 17.5485311,6.03059665 C16.7618071,6.18794065 13.7722473,5.40121669 13.4575593,6.34528464 C13.1428713,7.28935258 13.1428673,13.1111282 13.7722473,13.5831642 C14.4016273,14.0552002 14.7163192,14.0552002 13.9295953,14.9992721 C13.1428713,15.9433441 11.2547275,19.0902439 11.7267594,20.1916718 C12.1987914,21.2930997 6.69171573,21.6077797 7.47843968,22.8665437 C7.91204442,23.5967169 8.67669771,24.0672721 9.52392756,24.1253036 C9.52392756,24.1253036 9.83861954,21.6077797 11.7267594,22.8665437 C13.6148993,24.1253076 16.1324272,27.2722074 18.177915,25.2267195 C20.2234029,23.1812316 21.0101269,21.2930917 21.1674709,18.6182239 C21.3321826,16.6201049 21.2263302,14.6088941 20.8527829,12.6391043 C20.5380909,11.0656404 21.3248189,6.9746686 21.3248189,6.9746686 Z" id="Path" fill="#34AD9A"></path>
                        <path d="M29.5067784,9.96422442 C29.5067784,9.96422442 30.7655383,11.0656404 29.5067784,13.7405082 C28.2480184,16.415376 24.9437666,22.7091837 27.6186345,26.8001594 C30.2935023,30.8911352 31.3949223,31.9925591 30.7655383,32.7792751 C30.3827806,33.2777754 30.1630073,33.8821536 30.1361583,34.510075 L31.8669582,33.880695 C32.0568654,32.5939835 32.3730835,31.3291127 32.8110302,30.1044112 C33.4404101,28.5309593 31.5522702,23.8106036 31.5522702,23.8106036 L32.1816502,17.674144 C32.1816502,17.674144 34.6991741,13.7405122 35.013862,13.5831682 C35.32855,13.4258242 34.3844821,6.65996862 34.3844821,6.65996862 C34.3844821,6.65996862 32.8110302,6.18793265 32.0243062,6.65996862 C31.2375823,7.13200459 29.5067784,9.96422442 29.5067784,9.96422442 Z" id="Path" fill="#34AD9A"></path>
                        <path d="M14.4016273,6.50263263 L13.4575793,6.50263263 L7.00642771,9.80688043 C7.00642771,9.80688043 6.53439174,7.76139255 6.21969976,8.23342852 C5.90500777,8.7054645 6.06235577,9.96422842 5.27562781,10.2789164 C4.48889986,10.5936044 4.01686789,11.0656404 5.27562781,11.6950203 C6.53438774,12.3244003 6.69173573,11.8523683 6.69173573,12.9537842 C6.69173573,14.0552002 7.63580767,14.2125442 8.42253562,13.8978562 C9.20926358,13.5831682 9.36660757,13.4258202 10.1533355,13.7405082 C10.9400635,14.0551962 10.4680275,14.5272361 11.5694434,14.0552002 C12.6708594,13.5831642 15.5030752,13.7405082 15.5030752,13.7405082 L14.4016273,6.50263263 Z" id="Path" fill="#34AD9A"></path>
                        <path d="M33.2830501,6.9746686 L34.3844661,6.65997662 C34.3844661,6.65997662 37.6887139,6.9746686 38.4754418,6.9746686 C39.2621698,6.9746686 40.0488937,6.81732061 40.5209297,6.81732061 C40.9929657,6.81732061 43.3531415,6.50263263 43.6678335,6.18794065 C43.9825255,5.87324866 45.3986334,5.08652471 45.5559734,5.55856068 C45.7133134,6.03059665 47.4441173,9.02016048 45.8706654,10.4362604 C44.2972135,11.8523603 43.9825215,11.2229883 43.0384496,11.8523683 C42.0943776,12.4817483 34.5418101,13.7405082 34.3844501,13.5831682 C34.2270901,13.4258282 33.2830501,6.9746686 33.2830501,6.9746686 Z" id="Path" fill="#34AD9A"></path>
                        <circle id="Oval" fill="#A0616A" cx="26.8318985" cy="8.23342852" r="4.72035572"></circle>
                        <path d="M23.3583427,8.42325651 C23.4119919,8.52600429 23.4451499,8.63820379 23.4559707,8.75360849 C23.5855042,9.3045741 24.0727598,9.69713226 24.6386707,9.70645244 C24.5931955,9.9113282 24.6370261,10.1258761 24.759213,10.2964997 C24.8814,10.4671233 25.0704043,10.5777094 25.2790106,10.6006324 C25.5981478,10.1917929 25.8361878,9.72571502 25.9803146,9.22749246 C26.0157342,9.03182708 26.0969341,8.84731454 26.2172826,8.6890245 C26.405943,8.53079206 26.6429655,8.441701 26.8891425,8.43648851 C28.1451956,8.27466648 29.4090412,8.18049856 30.6752063,8.15439253 C30.8473266,8.16674543 31.0195304,8.13154277 31.1729943,8.05263253 C31.5287062,7.82336855 31.4100223,7.27055258 31.1853463,6.9119286 C30.7425996,6.2106414 30.0694827,5.68540101 29.2816024,5.42641669 C28.7082174,5.27206399 28.1209779,5.17477224 27.5284505,5.13596071 C26.7436116,5.01042603 25.952446,4.92827593 25.1585586,4.88988472 C24.3586967,4.85316195 23.5670708,5.06487959 22.8923268,5.49598069 C22.4192268,5.82940067 21.6427988,6.76380061 22.0226868,7.35344058 C22.0835188,7.44784057 22.2756388,7.49438857 22.3573788,7.59064056 C22.4686108,7.72159255 22.4691148,7.91955254 22.5954788,8.03842454 C22.8064188,8.23684052 23.1889227,8.17380053 23.3583427,8.42325651 Z" id="Path" fill="#2F2E41"></path>
                        <path d="M26.8318985,0.366168993 C26.8318985,0.366168993 21.4821628,2.25431288 21.9541988,4.92918072 C22.4262348,7.60404856 23.8423387,10.7509524 26.8318985,10.5936044 C29.8214583,10.4362564 31.3949103,7.18218859 31.3949103,7.18218859 L30.6081823,2.72634885 C30.6081823,2.72634885 27.6186225,0.366168993 26.8318985,0.366168993 Z" id="Path" fill="#3F3D56"></path>
                        <path d="M26.1568306,9.80820843 C26.1568306,9.80820843 28.2600704,7.52630857 29.3189264,8.84944849 C29.3189264,8.84944849 29.2707504,8.78413649 26.1568306,9.80820843 Z" id="Path" fill="#2F2E41"></path>
                        <path d="M30.1280023,68.152901 C27.3074665,68.152901 23.8177547,67.218501 20.4170109,63.8412732 C12.0918514,55.5729697 4.18264388,54.7436738 4.10373988,54.7363018 L4.13308788,54.4228418 C4.21314388,54.4303738 12.2345234,55.2710297 20.6388909,63.6178532 C24.9574306,67.906893 29.4148904,68.169649 32.3936902,67.634461 C34.361261,67.2771837 36.235171,66.5219517 37.9006179,65.4150331 L38.0865419,65.6688731 C36.3857655,66.8013177 34.4717855,67.5747823 32.4617422,67.941929 C31.6916657,68.0816243 30.9106467,68.152229 30.1280023,68.152901 Z" id="Path" fill="#2F2E41"></path>
                        <circle id="Oval" fill="#2F2E41" cx="8.34383963" cy="59.4492815" r="1.88814389"></circle>
                        <circle id="Oval" fill="#2F2E41" cx="21.7181788" cy="68.2606129" r="1.88814389"></circle>
                    </g>
                </g>
            </g>
        </g>
    </g>
</svg>