<svg xmlns="http://www.w3.org/2000/svg" width="269" height="230" viewBox="0 0 269 230">
    <g fill="none" transform="matrix(-1 0 0 1 269 0)">
        <path fill="#38AA9D" d="M78.88 227.37c4.31-3.641 6.927-9.393 6.24-14.992-.686-5.6-4.937-10.747-10.452-11.936-5.514-1.189-11.8 2.103-13.475 7.49-.922-10.386-1.984-21.206-7.505-30.05-5-8.009-13.66-13.739-23.044-14.764-9.385-1.025-19.266 2.847-25.12 10.254-5.852 7.407-7.285 18.176-3.186 26.68 3.02 6.265 8.583 10.927 14.413 14.72 18.836 12.154 41.427 17.096 63.618 13.918"/>
        <path fill="#FFF" d="M14.805 166.18c7.744 6.307 14.848 13.36 21.21 21.06 9.955 12.008 18.012 25.471 23.888 39.92.43 1.054-1.281 1.513-1.707.47-3.737-9.135-8.36-17.882-13.803-26.116-8.488-12.862-18.887-24.355-30.84-34.083-.883-.72.376-1.965 1.252-1.252z"/>
        <path fill="#38AA9D" d="M81.857 227.37c-4.309-3.641-6.926-9.393-6.24-14.992.687-5.6 4.938-10.747 10.452-11.936s11.8 2.103 13.475 7.49c.922-10.386 1.984-21.206 7.506-30.05 5-8.009 13.659-13.739 23.044-14.764 9.385-1.025 19.266 2.847 25.119 10.254 5.853 7.407 7.286 18.176 3.186 26.68-3.02 6.265-8.583 10.927-14.412 14.72-18.836 12.154-41.428 17.096-63.618 13.918"/>
        <path fill="#FFF" d="M145.932 166.18c-7.744 6.307-14.848 13.36-21.21 21.06-9.955 12.008-18.011 25.471-23.888 39.92-.43 1.054 1.282 1.513 1.707.47 9.615-23.482 24.964-44.18 44.643-60.2.883-.719-.375-1.964-1.252-1.25z"/>
        <circle cx="94.643" cy="88.927" r="14.433" fill="#FFF"/>
        <path fill="#FFF" d="M50.142 39.173h99.44v5.44H62.836c-10.3 0-20.18 4.093-27.463 11.376-7.284 7.284-11.376 17.163-11.376 27.463v61.811h-10.88c-1.002 0-1.814-.812-1.814-1.813V78.012c0-10.3 4.092-20.18 11.376-27.463 7.283-7.284 17.162-11.376 27.463-11.376z"/>
        <path fill="#3F3D56" d="M69.269 227.672V145.03h24.21v82.642c-.001 1.157-.938 2.094-2.095 2.095h-20.02c-1.157-.001-2.094-.938-2.095-2.095z"/>
        <path fill="#3F3D56" d="M6.181 143.4V76.2c.026-22.274 18.076-40.325 40.35-40.35h102.586V145.73H8.509c-1.285-.002-2.326-1.043-2.328-2.328zM148.186 36.782H46.532c-21.76.025-39.395 17.66-39.42 39.42v67.2c0 .77.626 1.397 1.397 1.397h139.677V36.78z"/>
        <path fill="#38AA9D" d="M94.643 96.377c-4.626-.006-8.375-3.755-8.38-8.381v-60.06c-.001-.772-.626-1.397-1.397-1.398H52.275c-1.285-.001-2.327-1.042-2.328-2.327V2.328C49.948 1.043 50.99 0 52.275 0h48.42c1.286.001 2.327 1.043 2.329 2.328v85.668c-.006 4.626-3.755 8.375-8.381 8.38z"/>
        <path fill="#3F3D56" d="M152.841 34.919c14.627-.03 26.508 11.801 26.539 26.427v76.5h52.146c4.362-.008 7.905 3.52 7.915 7.883H126.303V61.346c.03-14.626 11.912-26.458 26.538-26.427z"/>
        <path fill="#FFF" d="M146.473 78.483l5.495 22.7 107.496-26.022-5.496-22.7c-.135-.565-.549-1.02-1.097-1.209-.2-.07-.41-.102-.621-.093l-62.137-32.173c-.753-.384-1.673-.163-2.168.52l-29.947 41.761-11.29 15.748c-.04.055-.056.126-.04.194-.23.383-.3.84-.195 1.274z"/>
        <path fill="#3F3D56" d="M146.667 77.21c.011.059.045.112.095.146.059.04.132.055.202.04.056-.015.105-.049.139-.096l.039-.054.587-.822 10.676-14.882 29.937-41.75c.353-.49 1.01-.647 1.547-.372l61.656 31.924.553.287c.022.01.045.018.069.024.041-.007.084-.011.126-.012.058-.02.106-.06.135-.114.03-.057.036-.124.017-.186-.019-.062-.062-.113-.119-.144l-.076-.04-62.137-32.173c-.753-.384-1.673-.163-2.168.52l-29.947 41.761-11.29 15.748c-.04.055-.056.127-.04.194z"/>
        <path fill="#E6E6E6" d="M178.952 79.524l2.392.266 17.76 1.967 11.772 1.303.695.077 14.69-11.474.563-.44 3.47-2.71 12.344-9.64.074-.677 4.391-39.628c.125-1.136-.693-2.159-1.83-2.287l-58.596-6.49c-1.136-.125-2.158.693-2.287 1.829l-3.096 27.952-1.718 15.498-1.536 13.864-.712 6.439-.208 1.865c-.124 1.136.695 2.159 1.832 2.286z"/>
        <path fill="#FFF" d="M195.054 44.788l25.382 2.812 9.002.996c1.08.12 2.144-.346 2.788-1.223.644-.876.772-2.03.335-3.026s-1.372-1.683-2.453-1.803l-11.196-1.24-23.186-2.571c-1.672-.185-3.177 1.02-3.362 2.692-.186 1.671 1.018 3.177 2.69 3.363zM193.609 56.017c.065.011.13.023.197.03l29.465 3.264 4.92.546c1.672.185 3.177-1.02 3.362-2.693.185-1.672-1.02-3.177-2.693-3.362l-7.113-.787-23.34-2.587-3.928-.435c-1.633-.182-3.116.964-3.35 2.59-.236 1.627.862 3.146 2.48 3.434zM190.274 65.973c.49.812 1.33 1.35 2.272 1.455l12.077 1.337 21.509 2.383.005-.001.687.077 3.47-2.71c.021-.206.022-.414 0-.62-.15-1.423-1.27-2.551-2.694-2.71l-2.988-.333-11.852-1.312-8.528-.945-11.016-1.221c-1.152-.128-2.276.41-2.9 1.386-.624.976-.64 2.222-.042 3.214zM207.237 31.064l6.315.7 2.79.309 4.213.466c1.672.185 3.178-1.02 3.363-2.692.185-1.672-1.021-3.178-2.693-3.363l-13.316-1.473c-1.671-.186-3.177 1.018-3.362 2.69-.186 1.671 1.018 3.177 2.69 3.363z"/>
        <path fill="#38AA9D" d="M155.596 47.924l7.7 31.806 12.85 2.443 11.888 2.263 12.754 2.427 4.075.776c.483.091.981-.03 1.369-.332l3.27-2.553 2.07-1.617 14.69-11.474-9.341-38.585c-.092-.384-.294-.733-.58-1.005-.509-.49-1.233-.686-1.92-.52l-57.3 13.87c-1.11.27-1.793 1.39-1.525 2.5z"/>
        <path fill="#FFF" d="M173.251 73.227c.397 1.633 2.042 2.637 3.676 2.243l33.623-8.14c1.633-.397 2.636-2.041 2.243-3.676-.009-.039-.02-.077-.033-.115-.446-1.572-2.055-2.512-3.643-2.128l-33.622 8.14c-1.634.396-2.638 2.041-2.244 3.676zM176.146 82.173l11.888 2.263 25.18-6.095c1.635-.396 2.64-2.042 2.244-3.677-.396-1.634-2.041-2.638-3.676-2.243l-33.622 8.14c-.703.168-1.322.583-1.745 1.169-.102.14-.192.288-.269.443zM200.788 86.863l4.075.776c.483.091.981-.03 1.369-.332l3.27-2.553-8.714 2.11zM180.026 56.172c.397 1.633 2.042 2.637 3.676 2.243l13.023-3.153c1.633-.398 2.636-2.042 2.243-3.676-.101-.422-.293-.817-.561-1.158-.736-.94-1.954-1.365-3.115-1.085l-13.023 3.152c-1.634.396-2.638 2.042-2.243 3.676z"/>
        <path fill="#FFF" d="M188.033 84.436l12.756 2.428 4.074.775c.482.09.98-.03 1.368-.33l3.272-2.555-1.148.278-2.424 1.89c-.277.216-.633.302-.977.237l-3.017-.573-12.756-2.428-1.148.278zm38.102-13.287l.125.513.565-.44-.69-.073zm-38.102 13.287l12.756 2.428 4.074.775c.482.09.98-.03 1.368-.33l3.272-2.555-1.148.278-2.424 1.89c-.277.216-.633.302-.977.237l-3.017-.573-12.756-2.428-1.148.278zm0 0l12.756 2.428 4.074.775c.482.09.98-.03 1.368-.33l3.272-2.555-1.148.278-2.424 1.89c-.277.216-.633.302-.977.237l-3.017-.573-12.756-2.428-1.148.278zm-41.56-5.953l14.394 59.46c.223.915 1.144 1.477 2.059 1.256l104.18-25.22c.915-.222 1.477-1.143 1.256-2.058l-14.394-59.46c-.135-.565-.549-1.02-1.097-1.209-.2-.07-.41-.102-.621-.093-.247.007-.488.07-.705.185-.1.048-.196.107-.283.176l-8.55 6.676-12.418 9.7-4.16 3.25.001.003h-.003l-15.255 11.91-2.522 1.973-2.424 1.89c-.277.216-.633.302-.977.237l-3.017-.573-12.756-2.428-12.767-2.428-27.964-5.322c-.239-.047-.484-.042-.72.016-.319.078-.608.245-.833.482-.087.093-.163.195-.23.303-.23.383-.3.84-.194 1.274zm41.56 5.953l12.756 2.428 4.074.775c.482.09.98-.03 1.368-.33l3.272-2.555-1.148.278-2.424 1.89c-.277.216-.633.302-.977.237l-3.017-.573-12.756-2.428-1.148.278zm0 0l12.756 2.428 4.074.775c.482.09.98-.03 1.368-.33l3.272-2.555-1.148.278-2.424 1.89c-.277.216-.633.302-.977.237l-3.017-.573-12.756-2.428-1.148.278zm0 0l12.756 2.428 4.074.775c.482.09.98-.03 1.368-.33l3.272-2.555-1.148.278-2.424 1.89c-.277.216-.633.302-.977.237l-3.017-.573-12.756-2.428-1.148.278z"/>
        <path fill="#3F3D56" d="M188.033 84.436l12.756 2.428 4.074.775c.482.09.98-.03 1.368-.33l3.272-2.555-1.148.278-2.424 1.89c-.277.216-.633.302-.977.237l-3.017-.573-12.756-2.428-1.148.278zm38.102-13.287l.125.513.565-.44-.69-.073zm-38.102 13.287l12.756 2.428 4.074.775c.482.09.98-.03 1.368-.33l3.272-2.555-1.148.278-2.424 1.89c-.277.216-.633.302-.977.237l-3.017-.573-12.756-2.428-1.148.278zm0 0l12.756 2.428 4.074.775c.482.09.98-.03 1.368-.33l3.272-2.555-1.148.278-2.424 1.89c-.277.216-.633.302-.977.237l-3.017-.573-12.756-2.428-1.148.278zm-40.891-7.19l.063.048c.01-.018.029-.033.043-.052.286-.298.704-.432 1.11-.357l27.79 5.286 11.885 2.265 12.756 2.428 4.074.775c.482.09.98-.03 1.368-.33l3.272-2.555-1.148.278-2.424 1.89c-.277.216-.633.302-.977.237l-3.017-.573-12.756-2.428-12.767-2.428-27.964-5.322c-.239-.047-.484-.042-.72.016l-.588.822zm-.669 1.237l14.394 59.46c.223.915 1.144 1.477 2.059 1.256l104.18-25.22c.915-.222 1.477-1.143 1.256-2.058l-14.394-59.46c-.135-.565-.549-1.02-1.097-1.209-.2-.07-.41-.102-.621-.093-.247.007-.488.07-.705.185-.1.048-.196.107-.283.176l-8.55 6.676-12.418 9.7-4.16 3.25.001.003h-.003l-15.255 11.91-2.522 1.973-2.424 1.89c-.277.216-.633.302-.977.237l-3.017-.573-12.756-2.428-12.767-2.428-27.964-5.322c-.239-.047-.484-.042-.72.016-.319.078-.608.245-.833.482-.087.093-.163.195-.23.303-.23.383-.3.84-.194 1.274zm.475-.115c-.086-.355-.007-.73.215-1.02.01-.021.024-.04.042-.054.01-.018.029-.033.043-.052.286-.298.704-.432 1.11-.357l27.79 5.286 11.885 2.265 12.756 2.428 4.074.775c.482.09.98-.03 1.368-.33l3.272-2.555 2.069-1.616 14.688-11.476.565-.44 3.467-2.709 12.347-9.642 8.926-6.97c.136-.106.292-.182.46-.222.046-.012.094-.02.142-.024.041-.007.083-.012.126-.012.143-.001.284.022.42.069.39.136.686.46.784.863l14.394 59.46c.077.314.025.647-.144.923-.168.276-.44.474-.755.55l-104.18 25.22c-.655.158-1.313-.245-1.47-.9l-14.394-59.46zm41.085 6.068l12.756 2.428 4.074.775c.482.09.98-.03 1.368-.33l3.272-2.555-1.148.278-2.424 1.89c-.277.216-.633.302-.977.237l-3.017-.573-12.756-2.428-1.148.278zm0 0l12.756 2.428 4.074.775c.482.09.98-.03 1.368-.33l3.272-2.555-1.148.278-2.424 1.89c-.277.216-.633.302-.977.237l-3.017-.573-12.756-2.428-1.148.278zm0 0l12.756 2.428 4.074.775c.482.09.98-.03 1.368-.33l3.272-2.555-1.148.278-2.424 1.89c-.277.216-.633.302-.977.237l-3.017-.573-12.756-2.428-1.148.278z"/>
        <path fill="#38AA9D" d="M239.954 102.298c-.489-2.03.757-4.07 2.784-4.564l13.15-3.183c2.025-.483 4.06.764 4.55 2.788.49 2.024-.75 4.063-2.772 4.56l-13.149 3.183c-2.029.489-4.07-.757-4.563-2.784z"/>
        <circle cx="94.643" cy="87.996" r="3.259" fill="#FFF"/>
    </g>
</svg>
