<?xml version="1.0" encoding="UTF-8"?>
<svg width="269px" height="230px" viewBox="0 0 269 230" version="1.1" xmlns="http://www.w3.org/2000/svg" xmlns:xlink="http://www.w3.org/1999/xlink">
    <title>undraw_Mailbox_re_dvds (1)</title>
    <g id="Page-1" stroke="none" stroke-width="1" fill="none" fill-rule="evenodd">
        <g id="Contact-Us" transform="translate(-975.000000, -117.000000)" fill-rule="nonzero">
            <g id="undraw_Mailbox_re_dvds-(1)" transform="translate(1109.500000, 232.000000) scale(-1, 1) translate(-1109.500000, -232.000000) translate(975.000000, 117.000000)">
                <path d="M78.8806743,227.36961 C83.1894868,223.728719 85.8067239,217.977132 85.1203555,212.377935 C84.433987,206.778739 80.1828049,201.631362 74.6684478,200.442351 C69.1540907,199.253339 62.868065,202.544718 61.1931668,207.931444 C60.2713929,197.54606 59.2092119,186.725523 53.6876755,177.881395 C48.6880575,169.873251 40.0286273,164.143113 30.643766,163.117997 C21.2589047,162.092882 11.3778439,165.964634 5.52484676,173.371993 C-0.328150405,180.779353 -1.76123198,191.548111 2.33805709,200.052366 C5.35785466,206.317161 10.9213917,210.979494 16.7505927,214.772543 C35.5868368,226.925986 58.1784546,231.868292 80.3687557,228.690113" id="Path" fill="#38AA9D"></path>
                <path d="M14.8053794,166.179255 C22.5490521,172.486588 29.6530582,179.540855 36.0146431,187.24002 C45.9704946,199.247921 54.0268803,212.710965 59.9031322,227.160129 C60.3332834,228.214218 58.6216225,228.673063 58.1962528,227.630697 C54.4593843,218.495168 49.8361741,209.747863 44.3929146,201.514211 C35.9047446,188.652112 25.5055781,177.159022 13.5537184,167.430935 C12.6700342,166.711342 13.9289816,165.465622 14.8053794,166.179279 L14.8053794,166.179255 Z" id="Path" fill="#FFFFFF"></path>
                <path d="M81.856837,227.36961 C77.5480245,223.728719 74.9307874,217.977132 75.6171559,212.377935 C76.3035243,206.778739 80.5547065,201.631362 86.0690636,200.442351 C91.5834206,199.253339 97.869451,202.544718 99.5443445,207.931444 C100.466123,197.54606 101.528299,186.725523 107.04984,177.881395 C112.049454,169.873251 120.708884,164.143113 130.09375,163.117997 C139.478616,162.092882 149.359667,165.964634 155.212665,173.371993 C161.065662,180.779353 162.498743,191.548111 158.399459,200.052366 C155.379661,206.317161 149.81612,210.979494 143.986919,214.772543 C125.150675,226.925986 102.559057,231.868292 80.3687557,228.690113" id="Path" fill="#38AA9D"></path>
                <path d="M145.932137,166.179255 C138.188461,172.486587 131.084454,179.540854 124.722868,187.24002 C114.767017,199.247921 106.710631,212.710965 100.834379,227.160129 C100.404228,228.214218 102.115889,228.673063 102.541259,227.630697 C112.15582,204.147782 127.504601,183.45019 147.183793,167.430935 C148.067477,166.711342 146.80853,165.465622 145.932137,166.179279 L145.932137,166.179255 Z" id="Path" fill="#FFFFFF"></path>
                <circle id="Oval" fill="#FFFFFF" cx="94.6430352" cy="88.9271255" r="14.4331984"></circle>
                <path d="M50.1415551,39.1734231 L149.582306,39.1734231 L149.582306,44.6139474 L62.8360559,44.6139474 C52.5354231,44.613919 42.656668,48.7058111 35.3730128,55.9894505 C28.0893577,63.27309 23.9974442,73.1518362 23.9974504,83.452469 L23.9974504,145.263158 L13.116453,145.263158 C12.1148938,145.263158 11.3029543,144.451218 11.3029543,143.449659 L11.3029543,78.0119447 C11.3029543,67.7113124 15.3948593,57.8325661 22.6785137,50.5489265 C29.9621681,43.265287 39.8409227,39.1734231 50.1415551,39.1734231 Z" id="Path" fill="#FFFFFF"></path>
                <path d="M69.2685413,227.672065 L69.2685413,145.030364 L93.4790676,145.030364 L93.4790676,227.672065 C93.4777642,228.828639 92.5405004,229.765903 91.3839259,229.767206 L71.363683,229.767206 C70.2071085,229.765903 69.2698447,228.828639 69.2685413,227.672065 Z" id="Path" fill="#3F3D56"></path>
                <path d="M6.18149676,143.40081 L6.18149676,76.2005504 C6.20664673,53.9261398 24.2573178,35.8754167 46.5317283,35.8502024 L149.116719,35.8502024 L149.116719,145.728745 L8.50943198,145.728745 C7.22435832,145.727275 6.18296693,144.685883 6.18149676,143.40081 L6.18149676,143.40081 Z M148.185545,36.7813765 L46.5317283,36.7813765 C24.7713634,36.8060416 7.13727167,54.4401854 7.11267085,76.2005504 L7.11267085,143.40081 C7.11267085,144.171871 7.738371,144.797571 8.50943198,144.797571 L148.185545,144.797571 L148.185545,36.7813765 Z" id="Shape" fill="#3F3D56"></path>
                <path d="M94.6430352,96.3765182 C90.0167362,96.371307 86.2676796,92.6222504 86.2624684,87.9959514 L86.2624684,27.9352227 C86.2616268,27.1641617 85.6367683,26.5393032 84.8657073,26.5384615 L52.2746142,26.5384615 C50.9895479,26.5369734 49.948167,25.4955925 49.9466789,24.2105263 L49.9466789,2.32793522 C49.948167,1.04286899 50.9895479,0.00148808905 52.2746142,-1.32327797e-14 L100.695667,-1.32327797e-14 C101.98074,0.00147016865 103.022132,1.04286156 103.023602,2.32793522 L103.023602,87.9959514 C103.018391,92.6222504 99.2693342,96.371307 94.6430352,96.3765182 Z" id="Path" fill="#38AA9D"></path>
                <path d="M152.841416,34.9189689 L152.841416,34.9189689 C167.467523,34.8883789 179.349184,46.7203122 179.379877,61.3464194 L179.379877,137.846859 L231.525626,137.846859 C235.887785,137.83776 239.431415,141.366563 239.440606,145.728722 L126.302954,145.728722 L126.302954,61.3464148 C126.33365,46.7203094 138.21531,34.8883789 152.841416,34.9189689 Z" id="Path" fill="#3F3D56"></path>
                <path d="M146.473093,78.4828395 L151.968342,101.183029 L259.463638,75.1606478 L253.968388,52.4604579 C253.833468,51.896346 253.419308,51.4404818 252.870688,51.2522223 C252.671403,51.1821403 252.460651,51.1504262 252.249567,51.1587557 L190.112697,18.985797 C189.36037,18.6016522 188.440341,18.8228035 187.944793,19.5069053 L157.998295,61.2671532 L146.708768,77.0146154 C146.667317,77.0704216 146.652193,77.1414991 146.667331,77.2093472 C146.437568,77.5917602 146.367779,78.0493192 146.473093,78.4828395 Z" id="Path" fill="#FFFFFF"></path>
                <path d="M146.66734,77.2093518 C146.678076,77.2689873 146.712107,77.3218971 146.76192,77.3563982 C146.82086,77.3967783 146.893801,77.4111741 146.963663,77.3962152 C147.019882,77.3812559 147.069106,77.3471209 147.102823,77.299713 L147.141587,77.2459982 L147.72941,76.4239856 L158.404804,61.5418356 L188.342433,19.7911555 C188.695455,19.3022374 189.352777,19.1446831 189.889085,19.4204364 L251.544621,51.344185 L252.097916,51.6313591 C252.120275,51.6407502 252.143182,51.6487807 252.166511,51.6554067 C252.208225,51.6478164 252.250507,51.6437669 252.292904,51.6433014 C252.350776,51.6239285 252.399052,51.583163 252.427845,51.5293536 C252.45815,51.4720988 252.464439,51.4051419 252.445327,51.343245 C252.426215,51.2813481 252.38327,51.2295937 252.32596,51.1993921 L252.249567,51.158765 L190.112697,18.985797 C189.36037,18.6016522 188.440341,18.8228035 187.944793,19.5069053 L157.998295,61.2671532 L146.708768,77.0146154 C146.667319,77.0704243 146.652198,77.1415037 146.66734,77.2093518 L146.66734,77.2093518 Z" id="Path" fill="#3F3D56"></path>
                <path d="M178.951584,79.5240644 L181.344394,79.7895049 L199.103057,81.7567731 L210.875812,83.0601188 L211.571203,83.1374063 L226.261485,71.6631206 L226.824301,71.2236065 L230.294018,68.5138014 L242.63836,58.8732211 L242.712477,58.1960666 L247.103168,18.5680304 C247.227775,17.4318971 246.409593,16.4091449 245.27382,16.2812903 L186.676958,9.79019211 C185.540965,9.66613041 184.518539,10.4840599 184.390195,11.6195767 L181.29384,39.5722868 L179.57629,55.0697287 L178.039853,68.9341986 L177.327616,75.3728903 L177.119792,77.2379063 C176.996387,78.3744457 177.81548,79.3967103 178.951584,79.5240644 L178.951584,79.5240644 Z" id="Path" fill="#E6E6E6"></path>
                <path d="M195.053958,44.7884308 L220.436218,47.5996733 L229.437664,48.5963508 C230.518853,48.7160969 231.581796,48.2499396 232.226093,47.3734759 C232.870391,46.4970122 232.998158,45.3433978 232.561267,44.347188 C232.124376,43.3509783 231.1892,42.6635211 230.108012,42.5437751 L218.912119,41.3038144 L195.726159,38.7328986 C194.054487,38.5482102 192.549417,39.7531623 192.363862,41.4247386 C192.178307,43.0963149 193.382478,44.6020091 195.053958,44.7884308 Z" id="Path" fill="#FFFFFF"></path>
                <path d="M193.608771,56.0165326 C193.67427,56.0282421 193.739769,56.0399563 193.806436,56.0463814 L223.271182,59.3105656 L228.190715,59.8566573 C229.862746,60.0416091 231.368128,58.8360935 231.553079,57.1640626 C231.738031,55.4920318 230.532516,53.9866498 228.860485,53.8016978 L221.747088,53.014702 L198.407,50.4284591 L194.47921,49.9932051 C192.846306,49.8110404 191.363423,50.9573803 191.128426,52.5835212 C190.893429,54.2096621 191.991102,55.728923 193.608771,56.0165047 L193.608771,56.0165326 Z" id="Path" fill="#FFFFFF"></path>
                <path d="M190.274023,65.9725621 C190.763396,66.7851151 191.603547,67.3231334 192.546306,67.4276939 L204.623029,68.765237 L226.131791,71.1481115 L226.136531,71.1469615 L226.824301,71.2236065 L230.294018,68.5138014 C230.315458,68.3079567 230.31563,68.1004506 230.29453,67.8945706 C230.143795,66.4705668 229.023258,65.3428651 227.600243,65.1830569 L224.612436,64.8510933 L212.759987,63.5394787 L204.23188,62.5936387 L193.215988,61.3727623 C192.064348,61.2452988 190.940167,61.7824925 190.315869,62.7585939 C189.691571,63.7346953 189.675359,64.9805275 190.274046,65.9725435 L190.274023,65.9725621 Z" id="Path" fill="#FFFFFF"></path>
                <path d="M207.236723,31.0637534 L213.552132,31.7632142 L216.341576,32.0730018 L220.555199,32.5393291 C222.22723,32.724281 223.732612,31.5187653 223.917564,29.8467345 C224.102516,28.1747037 222.897,26.6693217 221.224969,26.4843696 L207.909496,25.0105771 C206.237963,24.8247959 204.732312,26.029236 204.546531,27.7007693 C204.36075,29.3723027 205.56519,30.8779536 207.236723,31.0637348 L207.236723,31.0637534 Z" id="Path" fill="#FFFFFF"></path>
                <path d="M155.596089,47.9237126 L163.29567,79.7297328 L176.146445,82.1732407 L188.033814,84.4364081 L200.7879,86.8632247 L204.863184,87.638753 C205.345802,87.729965 205.844341,87.6092789 206.231809,87.3074366 L209.501189,84.7539198 L211.571213,83.1374016 L226.261494,71.663116 L216.920887,33.0782322 C216.828622,32.6943565 216.627463,32.3452927 216.341585,32.0729925 C215.832066,31.5833496 215.10807,31.3872635 214.42109,31.552848 L157.121492,45.4239152 C156.010423,45.6936164 155.327788,46.8123048 155.596089,47.9237126 L155.596089,47.9237126 Z" id="Path" fill="#38AA9D"></path>
                <path d="M173.251322,73.2265433 C173.64829,74.8602092 175.293145,75.8639 176.927491,75.4697417 L210.54958,67.3305259 C212.182658,66.9327507 213.185951,65.2885452 212.792778,63.654353 C212.784189,63.6154298 212.773227,63.5770683 212.759954,63.5394834 C212.313791,61.967006 210.705494,61.0274843 209.11661,61.4111453 L175.494521,69.5503565 C173.860846,69.9473234 172.857152,71.5921913 173.251322,73.2265433 L173.251322,73.2265433 Z" id="Path" fill="#FFFFFF"></path>
                <path d="M176.146445,82.1732407 L188.033814,84.4364081 L213.214884,78.3406073 C214.849476,77.9449062 215.853795,76.2990285 215.458094,74.6644367 C215.062393,73.0298449 213.416515,72.0255256 211.781923,72.4212267 L178.159839,80.5604425 C177.457198,80.7291834 176.838229,81.1440004 176.415056,81.7297504 C176.313154,81.8697288 176.223296,82.0180895 176.146445,82.1732407 Z" id="Path" fill="#FFFFFF"></path>
                <path d="M200.7879,86.8632247 L204.863184,87.638753 C205.345802,87.729965 205.844341,87.6092789 206.231809,87.3074366 L209.501189,84.7539198 L200.7879,86.8632247 Z" id="Path" fill="#FFFFFF"></path>
                <path d="M180.025963,56.1715126 C180.422926,57.8051817 182.067785,58.8088747 183.702131,58.4147109 L196.724773,55.2621978 C198.357851,54.8644247 199.361144,53.2202206 198.967972,51.5860296 C198.86656,51.164264 198.675199,50.7693958 198.40699,50.4284638 C197.671173,49.4872329 196.453234,49.0627796 195.291803,49.3428172 L182.269162,52.4953304 C180.634724,52.8912406 179.630512,54.5369502 180.025963,56.1714986 L180.025963,56.1715126 Z" id="Path" fill="#FFFFFF"></path>
                <path d="M188.03285,84.4362312 L200.789004,86.8636065 L204.863086,87.6394747 C205.34542,87.7295658 205.843255,87.6090483 206.230981,87.3083306 L209.502726,84.7541899 L208.354616,85.0321221 L205.930961,86.9228711 C205.653965,87.1376806 205.298327,87.2237746 204.953754,87.1594358 L201.937095,86.5856557 L189.180941,84.158285 L188.03285,84.4362312 Z M226.135409,71.1488425 L226.25959,71.661831 L226.825376,71.2219443 L226.135409,71.1488425 Z M188.03285,84.4362312 L200.789004,86.8636065 L204.863086,87.6394747 C205.34542,87.7295658 205.843255,87.6090483 206.230981,87.3083306 L209.502726,84.7541899 L208.354616,85.0321221 L205.930961,86.9228711 C205.653965,87.1376806 205.298327,87.2237746 204.953754,87.1594358 L201.937095,86.5856557 L189.180941,84.158285 L188.03285,84.4362312 Z M188.03285,84.4362312 L200.789004,86.8636065 L204.863086,87.6394747 C205.34542,87.7295658 205.843255,87.6090483 206.230981,87.3083306 L209.502726,84.7541899 L208.354616,85.0321221 L205.930961,86.9228711 C205.653965,87.1376806 205.298327,87.2237746 204.953754,87.1594358 L201.937095,86.5856557 L189.180941,84.158285 L188.03285,84.4362312 Z M146.473093,78.4828395 L160.867182,137.943049 C161.089584,138.857933 162.010728,139.420017 162.926036,139.199366 L267.106161,113.979503 C268.021086,113.757157 268.583197,112.835968 268.362478,111.920649 L253.968388,52.4604439 C253.833468,51.896332 253.419308,51.4404679 252.870688,51.2522083 C252.671403,51.1821263 252.460651,51.1504122 252.249567,51.1587417 C252.003498,51.1658516 251.762337,51.2292917 251.544621,51.344185 C251.44408,51.3918917 251.34924,51.450785 251.261898,51.5197486 L242.711797,58.1961551 L230.294479,67.8959395 L226.134561,71.1453227 L226.135409,71.1488192 L226.131828,71.1496852 L210.876543,83.0584706 L208.354626,85.0321174 L205.93097,86.9228664 C205.653975,87.137676 205.298336,87.2237699 204.953764,87.1594312 L201.937104,86.585651 L189.18095,84.1582804 L176.413557,81.7299506 L148.449864,76.4084211 C148.211437,76.3611652 147.965574,76.3664753 147.72941,76.423981 C147.411412,76.5016773 147.122427,76.6690863 146.896833,76.9062919 C146.810468,76.9994438 146.733591,77.1009629 146.66734,77.2093472 C146.437574,77.5917589 146.367782,78.049318 146.473093,78.4828395 L146.473093,78.4828395 Z M188.03285,84.4362312 L200.789004,86.8636065 L204.863086,87.6394747 C205.34542,87.7295658 205.843255,87.6090483 206.230981,87.3083306 L209.502726,84.7541899 L208.354616,85.0321221 L205.930961,86.9228711 C205.653965,87.1376806 205.298327,87.2237746 204.953754,87.1594358 L201.937095,86.5856557 L189.180941,84.158285 L188.03285,84.4362312 Z M188.03285,84.4362312 L200.789004,86.8636065 L204.863086,87.6394747 C205.34542,87.7295658 205.843255,87.6090483 206.230981,87.3083306 L209.502726,84.7541899 L208.354616,85.0321221 L205.930961,86.9228711 C205.653965,87.1376806 205.298327,87.2237746 204.953754,87.1594358 L201.937095,86.5856557 L189.180941,84.158285 L188.03285,84.4362312 Z M188.03285,84.4362312 L200.789004,86.8636065 L204.863086,87.6394747 C205.34542,87.7295658 205.843255,87.6090483 206.230981,87.3083306 L209.502726,84.7541899 L208.354616,85.0321221 L205.930961,86.9228711 C205.653965,87.1376806 205.298327,87.2237746 204.953754,87.1594358 L201.937095,86.5856557 L189.180941,84.158285 L188.03285,84.4362312 Z" id="Shape" fill="#FFFFFF"></path>
                <path d="M188.03285,84.4362312 L200.789004,86.8636065 L204.863086,87.6394747 C205.34542,87.7295658 205.843255,87.6090483 206.230981,87.3083306 L209.502726,84.7541899 L208.354616,85.0321221 L205.930961,86.9228711 C205.653965,87.1376806 205.298327,87.2237746 204.953754,87.1594358 L201.937095,86.5856557 L189.180941,84.158285 L188.03285,84.4362312 Z M226.135409,71.1488425 L226.25959,71.661831 L226.825376,71.2219443 L226.135409,71.1488425 Z M188.03285,84.4362312 L200.789004,86.8636065 L204.863086,87.6394747 C205.34542,87.7295658 205.843255,87.6090483 206.230981,87.3083306 L209.502726,84.7541899 L208.354616,85.0321221 L205.930961,86.9228711 C205.653965,87.1376806 205.298327,87.2237746 204.953754,87.1594358 L201.937095,86.5856557 L189.180941,84.158285 L188.03285,84.4362312 Z M188.03285,84.4362312 L200.789004,86.8636065 L204.863086,87.6394747 C205.34542,87.7295658 205.843255,87.6090483 206.230981,87.3083306 L209.502726,84.7541899 L208.354616,85.0321221 L205.930961,86.9228711 C205.653965,87.1376806 205.298327,87.2237746 204.953754,87.1594358 L201.937095,86.5856557 L189.180941,84.158285 L188.03285,84.4362312 Z M147.141587,77.2460121 L147.204856,77.293502 C147.215448,77.2761496 147.233876,77.2606176 147.247872,77.2424364 C147.534416,76.9442142 147.951622,76.8099093 148.358329,76.8849634 L176.147204,82.1712387 L188.03285,84.4362219 L200.789004,86.8635972 L204.863086,87.6394654 C205.34542,87.7295565 205.843255,87.609039 206.230981,87.3083213 L209.502726,84.7541806 L208.354616,85.0321128 L205.930961,86.9228617 C205.653965,87.1376713 205.298327,87.2237653 204.953754,87.1594265 L201.937095,86.5856464 L189.180941,84.1582757 L176.413557,81.7299506 L148.449864,76.4084211 C148.211437,76.3611652 147.965574,76.3664753 147.72941,76.423981 L147.141587,77.2460121 Z M146.473093,78.4828534 L160.867182,137.943063 C161.089584,138.857947 162.010728,139.420031 162.926036,139.19938 L267.106161,113.979517 C268.021086,113.757171 268.583197,112.835982 268.362478,111.920663 L253.968388,52.4604579 C253.833468,51.896346 253.419308,51.4404818 252.870688,51.2522223 C252.671403,51.1821403 252.460651,51.1504262 252.249567,51.1587557 C252.003498,51.1658656 251.762337,51.2293057 251.544621,51.344199 C251.44408,51.3919056 251.34924,51.450799 251.261898,51.5197626 L242.711797,58.196169 L230.294479,67.8959534 L226.134561,71.1453366 L226.135409,71.1488332 L226.131828,71.1496992 L210.876543,83.0584846 L208.354626,85.0321314 L205.93097,86.9228804 C205.653975,87.13769 205.298336,87.2237839 204.953764,87.1594451 L201.937104,86.585665 L189.18095,84.1582943 L176.413557,81.7299506 L148.449864,76.4084211 C148.211437,76.3611652 147.965574,76.3664753 147.72941,76.423981 C147.411412,76.5016773 147.122427,76.6690863 146.896833,76.9062919 C146.810468,76.9994438 146.733591,77.1009629 146.66734,77.2093472 C146.437574,77.5917589 146.367782,78.049318 146.473093,78.4828395 L146.473093,78.4828534 Z M146.947805,78.3679372 C146.861751,78.0129692 146.940727,77.6381241 147.162683,77.3480502 C147.172576,77.3270005 147.186973,77.3083818 147.204856,77.2935113 C147.215448,77.2761589 147.233876,77.2606269 147.247872,77.2424457 C147.534416,76.9442235 147.951622,76.8099187 148.358329,76.8849727 L176.147204,82.171248 L188.03285,84.4362312 L200.789004,86.8636065 L204.863086,87.6394747 C205.34542,87.7295658 205.843255,87.6090483 206.230981,87.3083306 L209.502726,84.7541899 L211.571771,83.1376949 L226.259581,71.6618077 L226.825367,71.2219211 L230.292417,68.5133777 L242.638947,58.8713587 L251.564814,51.9007897 C251.700515,51.7949805 251.857188,51.719274 252.024414,51.6787047 C252.071103,51.6672748 252.118608,51.6594824 252.166501,51.6553974 C252.208216,51.6478071 252.250497,51.6432361 252.292894,51.6432361 C252.435559,51.6419404 252.577398,51.6650758 252.712239,51.7116915 C253.103131,51.8478117 253.398563,52.1725289 253.497242,52.5745081 L267.891331,112.034718 C267.967818,112.349404 267.916008,112.68159 267.747323,112.958037 C267.578639,113.234484 267.306931,113.432492 266.992106,113.508403 L162.81199,138.728253 C162.157479,138.885611 161.499319,138.482625 161.341899,137.828129 L146.947805,78.3679372 Z M188.03285,84.4362451 L200.789004,86.8636204 L204.863086,87.6394887 C205.34542,87.7295798 205.843255,87.6090623 206.230981,87.3083445 L209.502726,84.7542038 L208.354616,85.032136 L205.930961,86.922885 C205.653965,87.1376946 205.298327,87.2237885 204.953754,87.1594498 L201.937095,86.5856696 L189.180941,84.158299 L188.03285,84.4362451 Z M188.03285,84.4362451 L200.789004,86.8636204 L204.863086,87.6394887 C205.34542,87.7295798 205.843255,87.6090623 206.230981,87.3083445 L209.502726,84.7542038 L208.354616,85.032136 L205.930961,86.922885 C205.653965,87.1376946 205.298327,87.2237885 204.953754,87.1594498 L201.937095,86.5856696 L189.180941,84.158299 L188.03285,84.4362451 Z M188.03285,84.4362451 L200.789004,86.8636204 L204.863086,87.6394887 C205.34542,87.7295798 205.843255,87.6090623 206.230981,87.3083445 L209.502726,84.7542038 L208.354616,85.032136 L205.930961,86.922885 C205.653965,87.1376946 205.298327,87.2237885 204.953754,87.1594498 L201.937095,86.5856696 L189.180941,84.158299 L188.03285,84.4362451 Z" id="Shape" fill="#3F3D56"></path>
                <path d="M239.953664,102.297584 C239.465001,100.26891 240.710673,98.2275025 242.738233,97.7342352 L255.887138,94.5511563 C257.912897,94.0682786 259.947639,95.3147877 260.43762,97.33884 C260.927602,99.3628924 259.688239,101.401995 257.665918,101.899074 L244.517013,105.082153 C242.488339,105.570817 240.446932,104.325144 239.953664,102.297584 Z" id="Path" fill="#38AA9D"></path>
                <circle id="Oval" fill="#FFFFFF" cx="94.6430352" cy="87.9959514" r="3.25910931"></circle>
            </g>
        </g>
    </g>
</svg>