<?xml version="1.0" encoding="UTF-8"?>
<svg width="293px" height="230px" viewBox="0 0 293 230" version="1.1" xmlns="http://www.w3.org/2000/svg" xmlns:xlink="http://www.w3.org/1999/xlink">
    <title>undraw_plans_y8ru (1)</title>
    <g id="Page-1" stroke="none" stroke-width="1" fill="none" fill-rule="evenodd">
        <g id="FAQ" transform="translate(-871.000000, -109.000000)" fill-rule="nonzero">
            <g id="undraw_plans_y8ru-(1)" transform="translate(871.000000, 109.000000)">
                <circle id="Oval" fill="#F2F2F2" cx="145.5813" cy="159.643735" r="67.8132678"></circle>
                <path d="M150.384746,228.304668 C149.600819,228.304668 148.808892,228.29225 148.031588,228.26797 L148.049248,227.70341 C149.165398,227.738179 150.304449,227.747837 151.42584,227.732384 L151.433565,228.297494 C151.084506,228.302185 150.734899,228.304576 150.384746,228.304668 Z M154.83361,228.173599 L154.800491,227.609582 C155.918297,227.543634 157.050451,227.450922 158.165493,227.334201 L158.224547,227.896 C157.100946,228.013834 155.960239,228.107377 154.833604,228.173599 L154.83361,228.173599 Z M144.634579,228.085578 C143.507392,227.999212 142.368341,227.886077 141.248883,227.748664 L141.317866,227.187967 C142.428771,227.324004 143.558993,227.436582 144.677623,227.522123 L144.634579,228.085578 Z M161.598932,227.464177 L161.514222,226.905689 C162.624851,226.737094 163.744036,226.541458 164.839765,226.323747 L164.949863,226.877821 C163.845572,227.097185 162.718111,227.294477 161.598927,227.464177 L161.598932,227.464177 Z M137.882638,227.257504 C136.769113,227.068757 135.6451,226.851882 134.541919,226.612371 L134.661813,226.059953 C135.756576,226.297808 136.871895,226.513036 137.977008,226.700119 L137.882638,227.257504 Z M168.270984,226.138034 L168.135224,225.589482 C169.225436,225.319893 170.321719,225.021887 171.393717,224.704013 L171.55431,225.245954 C170.474033,225.566309 169.369474,225.866524 168.270984,226.138034 Z M131.23472,225.81409 C130.14244,225.523533 129.04326,225.204003 127.967674,224.863778 L128.137925,224.325157 C129.205371,224.662621 130.296133,224.979668 131.37986,225.267742 L131.23472,225.81409 Z M174.792933,224.203203 L174.607506,223.669538 C175.665433,223.301722 176.729432,222.904096 177.770526,222.487443 L177.980236,223.012267 C176.931413,223.431969 175.859139,223.832623 174.792933,224.203203 L174.792933,224.203203 Z M124.739536,223.760614 C123.678711,223.370722 122.611265,222.949924 121.567136,222.510087 L121.7865,221.989125 C122.822631,222.425651 123.881798,222.843137 124.934621,223.230272 L124.739536,223.760614 Z M181.102141,221.678699 L180.868149,221.164361 C181.884133,220.702725 182.905372,220.209909 183.903411,219.69971 L184.160579,220.203012 C183.154804,220.717064 182.12585,221.213469 181.102141,221.678699 L181.102141,221.678699 Z M118.456682,221.115244 C117.436971,220.629328 116.413398,220.112506 115.414797,219.57885 L115.681071,219.080515 C116.672224,219.610024 117.687796,220.122992 118.699779,220.605322 L118.456682,221.115244 Z M187.148381,218.587976 L186.868586,218.097367 C187.842904,217.541363 188.815567,216.956937 189.758982,216.360093 L190.060853,216.837459 C189.110264,217.438982 188.130427,218.028099 187.148381,218.587976 L187.148381,218.587976 Z M112.447545,217.904758 C111.47764,217.32778 110.506357,216.719351 109.560873,216.096571 L109.871848,215.624723 C110.810022,216.242813 111.773854,216.846554 112.736447,217.419116 L112.447545,217.904758 Z M192.890814,214.955036 L192.567418,214.492018 C193.484895,213.851028 194.400442,213.179682 195.288668,212.497025 L195.633033,212.945141 C194.738191,213.633042 193.81547,214.309352 192.890822,214.955036 L192.890814,214.955036 Z M106.760713,214.159244 C105.848625,213.496729 104.937489,212.802759 104.052421,212.096094 L104.405064,211.654601 C105.283359,212.355748 106.18759,213.044476 107.092651,213.701748 L106.760713,214.159244 Z M198.281169,210.812179 L197.916938,210.380068 C198.772055,209.658503 199.623033,208.906587 200.446693,208.14501 L200.830239,208.560013 C200.000507,209.327382 199.142909,210.085094 198.281169,210.812179 Z M101.441562,209.912085 C100.592102,209.168171 99.7481603,208.394456 98.9333189,207.612184 L99.324593,207.204355 C100.133351,207.980817 100.970808,208.748752 101.813784,209.487148 L101.441562,209.912085 Z M203.274735,206.193339 L202.872424,205.796546 C203.660753,204.99772 204.440549,204.171025 205.189708,203.33964 L205.609678,203.717668 C204.854719,204.555676 204.069139,205.38844 203.274729,206.193339 L203.274735,206.193339 Z M96.5329779,205.201084 C95.7536057,204.381563 94.9838883,203.534448 94.2452182,202.683471 L94.6720857,202.313171 C95.405102,203.157799 96.1688828,203.998291 96.9424598,204.811465 L96.5329779,205.201084 Z M207.829543,201.137972 L207.393017,200.779257 C208.105201,199.912553 208.806345,199.018254 209.477691,198.120644 L209.93022,198.458939 C209.253918,199.363446 208.547253,200.264919 207.829551,201.137972 L207.829543,201.137972 Z M92.0748658,200.065144 C91.3749623,199.18078 90.6858241,198.267717 90.0264785,197.351345 L90.4850657,197.02132 C91.1394412,197.930518 91.8233408,198.836681 92.5180001,199.714702 L92.0748658,200.065144 Z M211.906451,195.686365 L211.439023,195.369041 C212.069254,194.441079 212.686504,193.486076 213.273422,192.529968 L213.755202,192.82577 C213.163336,193.789051 212.541381,194.751511 211.906459,195.686365 L211.906451,195.686365 Z M88.1046053,194.547865 C87.4888636,193.603899 86.8862269,192.632615 86.31325,191.660229 L86.7999967,191.373257 C87.3686929,192.338184 87.9667776,193.302305 88.5778345,194.23882 L88.1046053,194.547865 Z M215.470954,189.882668 L214.976482,189.609494 C215.518965,188.627727 216.045996,187.619457 216.543505,186.612588 L217.050127,186.863136 C216.549021,187.877464 216.017585,188.893448 215.470962,189.882668 L215.470954,189.882668 Z M84.6561424,188.694501 C84.1291118,187.698383 83.6180851,186.67633 83.1372721,185.657031 L83.6482988,185.415868 C84.1255346,186.427438 84.6325518,187.441766 85.1555814,188.430167 L84.6561424,188.694501 Z M218.488839,183.773518 L217.971198,183.546699 C218.42152,182.518297 218.8539,181.465064 219.256494,180.416518 L219.784078,180.619054 C219.378447,181.675873 218.942473,182.737111 218.488839,183.773518 L218.488839,183.773518 Z M81.7596767,182.554165 C81.3264629,181.514449 80.9115955,180.450727 80.5266704,179.39225 L81.0578404,179.199095 C81.4397308,180.249573 81.8514252,181.305016 82.2811889,182.33673 L81.7596767,182.554165 Z M220.932501,177.407191 L220.396087,177.229487 C220.74873,176.16687 221.081504,175.080798 221.385031,174.001072 L221.92917,174.153935 C221.623163,175.241945 221.287628,176.336572 220.932501,177.407191 L220.932501,177.407191 Z M79.4381149,176.168802 C79.101891,175.091834 78.7859462,173.991691 78.4991158,172.898445 L79.0457388,172.754958 C79.3303624,173.839928 79.643962,174.931795 79.9775638,176.000481 L79.4381149,176.168802 Z M222.774352,170.858198 L222.223867,170.730164 C222.476898,169.641058 222.70813,168.528776 222.911493,167.424765 L223.46722,167.526857 C223.262478,168.639699 223.029316,169.760262 222.774352,170.858198 L222.774352,170.858198 Z M77.7121655,169.588353 C77.4765144,168.484621 77.2632219,167.360195 77.0783488,166.245701 L77.6357314,166.152989 C77.819367,167.259193 78.0310065,168.375077 78.2648606,169.470253 L77.7121655,169.588353 Z M224.005852,164.167931 L223.445709,164.091217 C223.597749,162.984448 223.726058,161.855885 223.827326,160.736701 L224.390227,160.787473 C224.288122,161.915479 224.158709,163.052609 224.005841,164.167931 L224.005852,164.167931 Z M76.5984993,162.877665 C76.4652264,161.759028 76.3558182,160.619706 76.2731764,159.491418 L76.8369053,159.450026 C76.918722,160.570038 77.027438,161.700536 77.1597473,162.810888 L76.5984993,162.877665 Z M224.620357,157.393501 L224.055811,157.368114 C224.10603,156.248378 224.131694,155.112639 224.131694,153.992626 L224.696805,153.992626 C224.696785,155.121194 224.671115,156.265504 224.620345,157.393501 L224.620357,157.393501 Z M76.1019536,156.093303 C76.0826381,155.400435 76.0728504,154.693496 76.0727063,153.992626 C76.0727063,153.557757 76.0764313,153.123714 76.0838813,152.690498 L76.6489919,152.700433 C76.6415419,153.130341 76.6378168,153.561073 76.6378168,153.992629 C76.6379525,154.688255 76.6477486,155.389952 76.6667872,156.077853 L76.1019536,156.093303 Z M224.127529,153.2043 C224.115944,152.083875 224.078413,150.948274 224.016327,149.828812 L224.580335,149.797356 C224.642972,150.92537 224.680772,152.069527 224.69264,153.19823 L224.127529,153.2043 Z M76.7830898,149.326743 L76.2190812,149.291423 C76.2895816,148.162304 76.3869869,147.021874 76.5082596,145.901723 L77.0700586,145.962569 C76.9496138,147.074302 76.8531748,148.206041 76.7830898,149.326743 Z M223.751985,146.46311 C223.639127,145.349031 223.498677,144.221845 223.334772,143.112595 L223.893814,143.030089 C224.058826,144.147753 224.200386,145.283495 224.314335,146.405989 L223.751985,146.46311 Z M77.5100339,142.615227 L76.9515464,142.528858 C77.1246935,141.410917 77.3258474,140.284146 77.5494928,139.179448 L78.1033011,139.291475 C77.8814387,140.387759 77.6818021,141.505977 77.5100339,142.615227 Z M222.76442,139.785258 C222.548915,138.682905 222.305833,137.573243 222.041474,136.487171 L222.590581,136.353618 C222.856858,137.447955 223.101885,138.566187 223.319045,139.676816 L222.76442,139.785258 Z M78.848583,135.99863 L78.3004428,135.861218 C78.5748576,134.766728 78.8787995,133.663135 79.2038483,132.580926 L79.7449416,132.743452 C79.4225235,133.817382 79.1209296,134.912558 78.848583,135.99863 Z M221.167319,133.225782 C220.852205,132.14978 220.507835,131.067436 220.143884,130.008404 L220.678092,129.824633 C221.045083,130.891802 221.392205,131.982703 221.709805,133.066845 L221.167319,133.225782 Z M80.7939225,129.52428 L80.2608198,129.33692 C80.636364,128.268646 81.0418478,127.195267 81.4659576,126.146588 L81.9899536,126.358505 C81.5690055,127.399046 81.1665592,128.464285 80.7939225,129.52428 Z M218.972836,126.841522 C218.560588,125.801532 218.119101,124.757815 217.6605,123.739209 L218.175943,123.507149 C218.63813,124.533619 219.082945,125.585343 219.498214,126.633194 L218.972836,126.841522 Z M83.3302856,123.252324 L82.8167753,123.01639 C83.2887585,121.988542 83.7910937,120.957794 84.3098483,119.952847 L84.8120451,120.21195 C84.2971559,121.209319 83.7986832,122.2322 83.3302856,123.252324 Z M216.207151,120.699256 C215.701378,119.701621 215.165503,118.701915 214.614466,117.728286 L215.106178,117.44987 C215.66163,118.431089 216.201362,119.438381 216.711004,120.443741 L216.207151,120.699256 Z M86.4319091,117.243749 L85.9421278,116.961759 C86.5058595,115.982888 87.1003586,115.003049 87.7092031,114.049702 L88.1854641,114.353779 C87.5813072,115.299938 86.9912244,116.272327 86.4319091,117.243749 Z M212.887127,114.832094 C212.290008,113.881505 211.664742,112.934504 211.028718,112.017304 L211.492838,111.69529 C212.133829,112.619528 212.764054,113.573717 213.365595,114.531605 L212.887127,114.832094 Z M90.0692574,111.547805 L89.6073445,111.222202 C90.2588237,110.298246 90.9399628,109.377317 91.6322797,108.484948 L92.0787397,108.831245 C91.3918026,109.716988 90.7156308,110.630879 90.0692574,111.547805 Z M209.043115,109.289569 C208.362114,108.397615 207.652965,107.510906 206.934713,106.654134 L207.367927,106.291143 C208.091423,107.154539 208.806091,108.047871 209.492335,108.946584 L209.043115,109.289569 Z M94.2096303,106.210019 L93.7794512,105.843581 C94.5105348,104.984879 95.2725242,104.130166 96.0441714,103.303206 L96.4572418,103.688682 C95.6915283,104.509446 94.935334,105.357801 94.2096303,106.210019 Z M204.708474,104.116793 C203.949383,103.290511 203.161871,102.471544 202.368289,101.682927 L202.766734,101.281998 C203.566388,102.076826 204.359696,102.901862 205.124582,103.734349 L204.708474,104.116793 Z M98.8166066,101.273182 L98.42147,100.869215 C99.2295386,100.078668 100.065755,99.2970778 100.90666,98.5462747 L101.283023,98.967898 C100.448468,99.7129115 99.6186031,100.488551 98.8166066,101.273182 Z M199.919936,99.3575163 C199.087997,98.6029779 198.229018,97.8587866 197.367004,97.1456397 L197.727372,96.710222 C198.595735,97.4287601 199.461335,98.1785996 200.29962,98.9389305 L199.919936,99.3575163 Z M103.851281,96.7772526 L103.494499,96.3390715 C104.368516,95.6273147 105.271771,94.9253316 106.179339,94.252607 L106.515978,94.7065151 C105.615178,95.3742752 104.718672,96.0708644 103.851281,96.7772526 Z M194.715844,95.0517072 C193.818234,94.3758096 192.894688,93.7126043 191.970865,93.0805818 L192.289841,92.6142554 C193.220838,93.2509683 194.151285,93.9191409 195.055792,94.60028 L194.715844,95.0517072 Z M109.271291,92.7600737 L108.955897,92.2912636 C109.89131,91.6618604 110.854315,91.045565 111.818289,90.4590678 L112.111881,90.9419548 C111.155358,91.5238943 110.199665,92.1356491 109.271291,92.7600737 Z M189.138135,91.2367871 C188.183129,90.645738 187.202465,90.0695908 186.223456,89.5240698 L186.498283,89.0304259 C187.48502,89.5800835 188.473136,90.1607855 189.435589,90.7561097 L189.138135,91.2367871 Z M115.03194,89.2560124 L114.760687,88.7601505 C115.75032,88.2186333 116.765064,87.6932557 117.776634,87.1983714 L118.024972,87.7060865 C117.021141,88.1971195 116.014125,88.7184962 115.03194,89.2560124 L115.03194,89.2560124 Z M183.232343,87.9466993 C182.226841,87.4457287 181.196786,86.9617568 180.170856,86.5082612 L180.399327,85.9914393 C181.433248,86.4483849 182.471305,86.9360951 183.484534,87.440914 L183.232343,87.9466993 Z M121.084805,86.2953897 L120.860194,85.7768894 C121.894391,85.3286381 122.952318,84.898733 124.004449,84.4990445 L124.205063,85.0274568 C123.160923,85.4239948 122.111134,85.8505883 121.084805,86.2953897 L121.084805,86.2953897 Z M177.045374,85.2119286 C175.999037,84.8061792 174.928142,84.4190361 173.862213,84.0614257 L174.042122,83.5255652 C175.116052,83.8860719 176.195224,84.2761027 177.249565,84.6851721 L177.045374,85.2119286 Z M127.388215,83.9018102 L127.212169,83.3648337 C128.2861,83.0127443 129.381829,82.6812109 130.468729,82.3797527 L130.619803,82.9241689 C129.541182,83.2234289 128.453867,83.552343 127.388215,83.9018102 L127.388215,83.9018102 Z M170.63711,83.061584 C169.559314,82.7543334 168.459999,82.4681897 167.369788,82.2111576 L167.499481,81.6612259 C168.598248,81.9201878 169.705842,82.2085355 170.792188,82.5179957 L170.63711,83.061584 Z M133.893195,82.0965193 L133.76737,81.54561 C134.868341,81.2940962 135.989871,81.0649326 137.100638,80.8646065 L137.201078,81.4206103 C136.098589,81.6195688 134.985751,81.846941 133.893195,82.0965193 L133.893195,82.0965193 Z M164.066595,81.5124973 C162.966175,81.3059494 161.845335,81.1221896 160.734986,80.9662869 L160.813352,80.4066946 C161.932271,80.5638405 163.061927,80.7489905 164.170903,80.9570445 L164.066595,81.5124973 Z M140.536694,80.8975807 L140.461915,80.3374375 C141.580552,80.1881579 142.718218,80.0626072 143.843198,79.964651 L143.892315,80.5275548 C142.775888,80.6249714 141.647048,80.7494144 140.536694,80.897592 L140.536694,80.8975807 Z M157.381569,80.5733598 C156.268456,80.4685036 155.135475,80.387656 154.013809,80.3334365 L154.041401,79.768891 C155.171339,79.8236644 156.31288,79.9050629 157.434548,80.0107584 L157.381569,80.5733598 Z M147.262007,80.3108095 L147.238272,79.7462499 C148.276883,79.7029285 149.335364,79.6808553 150.384737,79.6805784 L150.640526,79.6809909 L150.63887,80.2461015 L150.384746,80.2457002 C149.343368,80.2459828 148.292616,80.2679119 147.262007,80.3108208 L147.262007,80.3108095 Z" id="Shape" fill="#3F3D56"></path>
                <ellipse id="Oval" fill="#3F3D56" cx="147.063941" cy="227.457002" rx="46.3390663" ry="2.54299754"></ellipse>
                <path d="M150.395615,38.9440295 C150.395615,38.9440295 146.085133,43.6855586 145.869608,47.1339452 C145.654084,50.5823318 138.259236,59.1269505 145.587053,61.928763 C145.587053,61.928763 146.880198,61.0666671 148.173344,61.928763 C149.466489,62.790859 158.128218,60.9361068 158.128218,60.9361068 L150.395615,38.9440295 Z" id="Path" fill="#2F2E41"></path>
                <path d="M154.166728,58.0760087 C154.166728,58.0760087 158.892643,64.6922893 154.639319,66.1100641 C150.385994,67.5278389 157.474869,95.8833268 157.474869,95.8833268 L175.433345,68.0004296 C175.433345,68.0004296 165.981515,57.6034152 165.981515,52.8775029 L154.166728,58.0760087 Z" id="Path" fill="#FFB9B9"></path>
                <path d="M196.699961,91.6300023 C196.699961,91.6300023 202.843649,97.7736923 200.953283,99.1914643 C199.062918,100.609236 180.15926,109.588476 180.15926,110.061083 C180.15926,110.533691 177.32371,112.89663 177.32371,112.89663 L174.01557,107.698124 L186.775541,99.664069 L196.699961,91.6300023 Z" id="Path" fill="#FFB9B9"></path>
                <path d="M129.119381,88.321862 C129.119381,88.321862 124.393466,95.883324 128.174197,99.1914812 C131.954928,102.499638 143.29712,111.478861 143.29712,111.478861 C143.29712,111.478861 140.826248,119.154529 143.243152,119.570018 C145.660057,119.985507 149.440799,109.115902 148.968208,108.170721 C148.495618,107.225539 135.903946,99.0344115 135.903946,99.0344115 L129.119381,88.321862 Z" id="Path" fill="#FFB9B9"></path>
                <polygon id="Path" fill="#FFB9B9" points="124.773587 203.819275 121.283747 216.719902 128.065074 217.002457 130.917187 206.654717"></polygon>
                <polygon id="Path" fill="#FFB9B9" points="165.98145 204.579349 165.98145 214.976253 170.707469 214.976253 173.070479 204.579349"></polygon>
                <circle id="Oval" fill="#FFB9B9" cx="157.474869" cy="50.5145468" r="10.3970115"></circle>
                <path d="M160.783009,87.3766807 L154.639319,66.1100641 C154.639319,66.1100641 143.297123,64.6926029 138.098617,71.3085699 C132.900112,77.9248505 127.229015,90.2122303 127.229015,90.2122303 C127.229015,90.2122303 130.064562,94.465552 130.537156,97.3011016 C131.009749,100.136651 138.571208,98.7188764 138.571208,98.7188764 C138.571208,98.7188764 145.660082,100.136651 145.660082,106.280338 C145.660082,112.424025 123.448281,206.469731 123.448281,206.469731 C123.448281,206.469731 150.385997,212.613421 152.276363,207.887506 C154.166728,203.161591 163.618558,146.450615 163.618558,146.450615 L164.56374,209.777872 C164.56374,209.777872 187.248126,213.086012 188.193315,207.414915 C189.138505,201.743819 184.412582,131.327689 184.412582,131.327689 C184.412582,131.327689 183.4674,115.259578 175.905936,105.807748 C175.905936,105.807748 175.433345,102.972198 175.433345,102.499607 C175.433345,102.027017 187.248131,100.136651 187.248131,100.136651 C187.248131,100.136651 200.008102,102.972198 199.535508,93.0477771 C199.062915,83.1233563 184.412584,69.4182044 179.214076,68.0004296 C174.015567,66.5826548 172.629018,64.6926029 172.629018,64.6926029 L160.783009,87.3766807 Z" id="Path" fill="#2F2E41"></path>
                <path d="M122.131478,214.176904 C122.131478,214.176904 123.651766,213.32424 119.871036,214.742015 C116.090305,216.15979 107.721158,220.110565 107.721158,220.110565 C107.721158,220.110565 93.6750188,221.675181 105.962399,227.34628 C105.962399,227.34628 115.414226,228.013905 115.414226,227.068723 C115.414226,226.123542 118.722366,224.705764 119.66755,226.123539 C120.612735,227.541314 130.043026,227.174447 130.06956,225.840984 C130.099294,224.346815 129.124379,213.831164 129.124379,213.831164 C129.124379,213.831164 123.076662,217.485044 122.131478,214.176904 Z" id="Path" fill="#2F2E41"></path>
                <path d="M172.125205,212.140831 C172.125205,212.140831 164.091149,208.83269 163.618558,210.723056 C163.145968,212.613421 162.200784,219.702293 162.200784,220.647477 C162.200784,221.592661 160.310418,228.681532 166.926699,229.626713 C173.542979,230.571895 174.960751,224.428208 174.488161,223.955617 C174.01557,223.483026 172.125205,212.140831 172.125205,212.140831 Z" id="Path" fill="#2F2E41"></path>
                <path d="M158.488852,34.9568297 C158.488852,34.9568297 165.98434,27.4018101 175.251871,44.6437346 C175.251871,44.6437346 184.610554,59.3925101 172.325683,63.7029926 C172.325683,63.7029926 161.689217,61.5970516 161.398423,56.4014816 C161.398423,56.4014816 165.277856,55.970435 162.260519,52.7375872 C159.243181,49.5047394 156.441369,47.9960581 156.441369,47.9960581 C156.441369,47.9960581 154.070606,46.4873881 154.070606,44.9787209 C154.070606,44.9787209 154.070606,47.5650087 154.501652,47.5650087 C154.501652,47.5650087 150.406694,47.1339622 150.191173,45.4097703 C149.975651,43.6855784 149.113552,40.883763 149.113552,40.883763 C149.113552,40.883763 150.406697,33.7714482 158.488852,34.9568297 Z" id="Path" fill="#2F2E41"></path>
                <circle id="Oval" fill="#F2F2F2" cx="208.591128" cy="44.9262899" r="7.34643735"></circle>
                <path d="M209.4388,52.8378378 C204.289118,52.8378378 200.114475,48.6631956 200.114475,43.5135135 C200.114475,38.3638314 204.289118,34.1891892 209.4388,34.1891892 C214.588482,34.1891892 218.763124,38.3638314 218.763124,43.5135135 C218.75731,48.6607853 214.586071,52.8320235 209.4388,52.8378378 Z M209.4388,34.7542998 C204.601219,34.7542998 200.679586,38.6759333 200.679586,43.5135135 C200.679586,48.3510937 204.601219,52.2727273 209.4388,52.2727273 C214.27638,52.2727273 218.198013,48.3510937 218.198013,43.5135135 C218.192507,38.6782158 214.274097,34.7598057 209.4388,34.7542998 Z" id="Shape" fill="#3F3D56"></path>
                <path d="M213.711341,59.2810251 L202.040773,59.2810251 C201.244349,54.6769096 201.244349,49.970231 202.040773,45.3661155 L213.711341,45.3661155 C212.396557,49.9112458 212.396557,54.7358947 213.711341,59.2810251 L213.711341,59.2810251 Z" id="Path" fill="#FF6584"></path>
                <circle id="Oval" fill="#F2F2F2" cx="102.774175" cy="59.7604423" r="7.34643735"></circle>
                <path d="M101.926515,67.6719902 C96.7768325,67.6719902 92.6021903,63.497348 92.6021903,58.3476658 C92.6021903,53.1979837 96.7768325,49.0233415 101.926515,49.0233415 C107.076197,49.0233415 111.250839,53.1979837 111.250839,58.3476658 C111.245025,63.4949377 107.073786,67.6661758 101.926515,67.6719902 L101.926515,67.6719902 Z M101.926515,49.5884521 C97.0889344,49.5884521 93.1673009,53.5100857 93.1673009,58.3476658 C93.1673009,63.185246 97.0889344,67.1068796 101.926515,67.1068796 C106.764095,67.1068796 110.685728,63.185246 110.685728,58.3476658 C110.680222,53.5123681 106.761812,49.593958 101.926515,49.5884521 Z" id="Shape" fill="#3F3D56"></path>
                <path d="M96.0999054,72.554828 L107.770473,72.554828 C108.566897,67.9507135 108.566897,63.2440358 107.770473,58.6399213 L96.0999054,58.6399213 C97.4146889,63.1850506 97.4146889,68.0096986 96.0999054,72.554828 L96.0999054,72.554828 Z" id="Path" fill="#38AA9D"></path>
                <circle id="Oval" fill="#FFFFFF" cx="146.428966" cy="10.7371007" r="7.34643735"></circle>
                <path d="M147.276683,18.6486486 C142.127001,18.6486486 137.952358,14.4740065 137.952358,9.32432432 C137.952358,4.1746422 142.127001,2.00767603e-15 147.276683,2.00767603e-15 C152.426365,2.00767603e-15 156.601007,4.1746422 156.601007,9.32432432 C156.595193,14.4715961 152.423954,18.6428343 147.276683,18.6486486 Z M147.276683,0.565110565 C142.439102,0.565110565 138.517469,4.48674414 138.517469,9.32432432 C138.517469,14.1619045 142.439102,18.0835381 147.276683,18.0835381 C152.114263,18.0835381 156.035896,14.1619045 156.035896,9.32432432 C156.030446,4.48900341 152.112004,0.570560574 147.276683,0.565110565 L147.276683,0.565110565 Z" id="Shape" fill="#3F3D56"></path>
                <path d="M140.74364,23.1076536 L152.414207,23.1076536 C153.210632,18.503539 153.210632,13.7968613 152.414207,9.19274681 L140.74364,9.19274681 C142.058423,13.7378762 142.058423,18.5625242 140.74364,23.1076536 L140.74364,23.1076536 Z" id="Path" fill="#38AA9D"></path>
                <path d="M29.4390563,154.910679 C39.147523,184.128899 35.7379029,211.562963 35.7379029,211.562963 C35.7379029,211.562963 16.5877554,191.624935 6.87928022,162.406716 C-2.82919496,133.188496 0.580433538,105.754432 0.580433538,105.754432 C0.580433538,105.754432 19.7305896,125.692457 29.4390563,154.910679 Z" id="Path" fill="#38AA9D"></path>
                <path d="M42.0367496,154.910679 C32.3282829,184.128899 35.7379029,211.562963 35.7379029,211.562963 C35.7379029,211.562963 54.888059,191.624935 64.5965285,162.406716 C74.304998,133.188496 70.8953752,105.754432 70.8953752,105.754432 C70.8953752,105.754432 51.7452192,125.692457 42.0367496,154.910679 Z" id="Path" fill="#38AA9D"></path>
                <path d="M45.9469587,155.226636 C46.5977146,186.008694 35.241637,211.213713 35.241637,211.213713 C35.241637,211.213713 22.8304753,186.511154 22.1797194,155.729092 C21.5289635,124.947031 32.8850383,99.7420147 32.8850383,99.7420147 C32.8850383,99.7420147 45.2962028,124.444574 45.9469587,155.226636 Z" id="Path" fill="#3F3D56"></path>
                <ellipse id="Oval" fill="#3F3D56" cx="35.2352258" cy="211.56099" rx="27.4556199" ry="1.50671192"></ellipse>
                <circle id="Oval" fill="#38AA9D" cx="34.0633391" cy="128.022244" r="3.01342101"></circle>
                <circle id="Oval" fill="#38AA9D" cx="28.2039082" cy="152.129618" r="1.6741231"></circle>
                <circle id="Oval" fill="#3F3D56" cx="7.7796059" cy="135.555798" r="1.6741231"></circle>
                <circle id="Oval" fill="#3F3D56" cx="66.8761534" cy="119.316803" r="1.6741231"></circle>
                <circle id="Oval" fill="#3F3D56" cx="16.4850466" cy="151.292556" r="1.6741231"></circle>
                <circle id="Oval" fill="#3F3D56" cx="51.6416344" cy="141.58264" r="1.6741231"></circle>
                <circle id="Oval" fill="#3F3D56" cx="17.4895193" cy="175.902166" r="1.6741231"></circle>
                <circle id="Oval" fill="#3F3D56" cx="53.3157575" cy="166.359664" r="1.6741231"></circle>
                <circle id="Oval" fill="#38AA9D" cx="37.0767629" cy="168.033787" r="1.6741231"></circle>
                <path d="M257.733211,174.390049 C265.715864,198.414332 262.91235,220.971616 262.91235,220.971616 C262.91235,220.971616 247.166392,204.577846 239.183742,180.553563 C231.201092,156.52928 234.004602,133.971996 234.004602,133.971996 C234.004602,133.971996 249.750555,150.365769 257.733211,174.390049 Z" id="Path" fill="#38AA9D"></path>
                <path d="M268.091492,174.390049 C260.108837,198.414332 262.91235,220.971616 262.91235,220.971616 C262.91235,220.971616 278.658308,204.577846 286.640961,180.553563 C294.623614,156.52928 291.820101,133.971996 291.820101,133.971996 C291.820101,133.971996 276.074145,150.365769 268.091492,174.390049 Z" id="Path" fill="#38AA9D"></path>
                <path d="M271.306607,174.649839 C271.841682,199.959968 262.504304,220.684449 262.504304,220.684449 C262.504304,220.684449 252.299396,200.373107 251.764318,175.06298 C251.22924,149.752853 260.566613,129.02837 260.566613,129.02837 C260.566613,129.02837 270.771532,149.339712 271.306607,174.649839 Z" id="Path" fill="#3F3D56"></path>
                <ellipse id="Oval" fill="#3F3D56" cx="262.499031" cy="220.969994" rx="22.5750086" ry="1.23887211"></ellipse>
                <circle id="Oval" fill="#38AA9D" cx="261.535464" cy="152.281401" r="2.47774423"></circle>
                <circle id="Oval" fill="#38AA9D" cx="256.717628" cy="172.10336" r="1.37652457"></circle>
                <circle id="Oval" fill="#3F3D56" cx="239.924022" cy="158.475761" r="1.37652457"></circle>
                <circle id="Oval" fill="#3F3D56" cx="288.515351" cy="145.12347" r="1.37652457"></circle>
                <circle id="Oval" fill="#3F3D56" cx="247.081953" cy="171.415098" r="1.37652457"></circle>
                <circle id="Oval" fill="#3F3D56" cx="275.988975" cy="163.431253" r="1.37652457"></circle>
                <circle id="Oval" fill="#3F3D56" cx="247.907868" cy="191.650012" r="1.37652457"></circle>
                <circle id="Oval" fill="#3F3D56" cx="277.365499" cy="183.803822" r="1.37652457"></circle>
                <circle id="Oval" fill="#38AA9D" cx="264.013208" cy="185.180346" r="1.37652457"></circle>
            </g>
        </g>
    </g>
</svg>