<svg xmlns="http://www.w3.org/2000/svg" width="498" height="349" viewBox="0 0 498 349">
    <g fill="none" fill-rule="evenodd">
        <g fill-rule="nonzero">
            <g transform="translate(-777 -120) translate(777 120)">
                <path fill="#F2F2F2" d="M406.344 218.774H85.925c-4.554-.005-8.245-3.696-8.25-8.25V12.947c.004-3.336 2.708-6.04 6.044-6.044h324.727c3.394.004 6.144 2.754 6.148 6.149v197.472c-.005 4.554-3.695 8.245-8.25 8.25z"/>
                <path fill="#FFF" d="M394.656 207.09H96.033c-4.377 0-7.939-3.334-7.939-7.434V27.604c0-3.04 2.64-5.513 5.883-5.513h302.637c3.298 0 5.98 2.514 5.98 5.604v171.961c0 4.1-3.56 7.435-7.938 7.435z"/>
                <path fill="#34AD9A" d="M414.48 12.475H77.56v-4.2C77.565 3.705 81.27.004 85.84 0H406.2c4.569.004 8.273 3.706 8.28 8.275v4.2z"/>
                <circle cx="92.607" cy="6.25" r="2.142" fill="#FFF"/>
                <circle cx="100.736" cy="6.25" r="2.142" fill="#FFF"/>
                <circle cx="108.866" cy="6.25" r="2.142" fill="#FFF"/>
                <path fill="#34AD9A" d="M361.786 178.235H130.367c-4.83-.006-8.744-3.92-8.75-8.75V57.908c.004-3.613 2.932-6.54 6.544-6.545h235.727c3.67.005 6.644 2.979 6.648 6.65v111.472c-.005 4.83-3.92 8.744-8.75 8.75zM128.161 52.363c-3.06.004-5.54 2.484-5.544 5.545v111.577c.005 4.278 3.472 7.745 7.75 7.75h231.42c4.278-.005 7.745-3.472 7.75-7.75V58.012c-.004-3.118-2.531-5.645-5.65-5.649H128.162z"/>
                <path fill="#ECFCF7" d="M138.367 169.485h215.42c4.418 0 8-3.582 8-8V68.21c0-4.419-3.582-8-8-8h-215.42c-4.418 0-8 3.581-8 8v93.274c0 4.418 3.582 8 8 8z"/>
                <circle cx="162.827" cy="82.848" r="4.5" fill="#CCC"/>
                <circle cx="162.827" cy="99.848" r="4.5" fill="#CCC"/>
                <circle cx="162.827" cy="116.848" r="4.5" fill="#CCC"/>
                <circle cx="162.827" cy="133.848" r="4.5" fill="#CCC"/>
                <path fill="#CCC" d="M333.327 83.348h-148c-.276 0-.5-.224-.5-.5 0-.277.224-.5.5-.5h148c.276 0 .5.223.5.5 0 .276-.224.5-.5.5zM333.327 100.348h-148c-.276 0-.5-.224-.5-.5 0-.277.224-.5.5-.5h148c.276 0 .5.223.5.5 0 .276-.224.5-.5.5zM333.327 117.348h-148c-.276 0-.5-.224-.5-.5 0-.277.224-.5.5-.5h148c.276 0 .5.223.5.5 0 .276-.224.5-.5.5zM333.327 134.348h-148c-.276 0-.5-.224-.5-.5 0-.277.224-.5.5-.5h148c.276 0 .5.223.5.5 0 .276-.224.5-.5.5z"/>
                <path fill="#34AD9A" d="M213.327 151.348h-14.5c-1.38-.002-2.499-1.12-2.5-2.5v-13.5c.001-1.38 1.12-2.499 2.5-2.5h14.5c1.38.001 2.498 1.12 2.5 2.5v13.5c-.002 1.38-1.12 2.498-2.5 2.5zM245.827 151.348h-14.5c-1.38-.002-2.499-1.12-2.5-2.5v-30.5c.001-1.38 1.12-2.499 2.5-2.5h14.5c1.38.001 2.498 1.12 2.5 2.5v30.5c-.002 1.38-1.12 2.498-2.5 2.5zM278.827 151.348h-14.5c-1.38-.002-2.499-1.12-2.5-2.5v-47.5c.001-1.38 1.12-2.499 2.5-2.5h14.5c1.38.001 2.498 1.12 2.5 2.5v47.5c-.002 1.38-1.12 2.498-2.5 2.5zM312.827 151.348h-14.5c-1.38-.002-2.499-1.12-2.5-2.5v-64c.001-1.38 1.12-2.499 2.5-2.5h14.5c1.38.001 2.498 1.12 2.5 2.5v64c-.002 1.38-1.12 2.498-2.5 2.5z"/>
                <path fill="#3F3D56" d="M333.327 151.348h-148c-.276 0-.5-.224-.5-.5 0-.277.224-.5.5-.5h148c.276 0 .5.223.5.5 0 .276-.224.5-.5.5z"/>
                <path fill="#FFB8B8" d="M398.35 244.621c.82-1.241 2.149-2.056 3.627-2.224 1.479-.168 2.956.327 4.034 1.353l15.877-8.195-.987 9.233-14.926 6.366c-1.884 1.735-4.769 1.786-6.714.12-1.945-1.667-2.336-4.525-.91-6.653z"/>
                <path fill="#3F3D56" d="M412.012 248.065c-.36-.283-.626-.669-.762-1.106l-1.263-4.08c-.277-.905.04-1.888.794-2.46l12.869-9.72 13.937-25.857c1.588-2.045 4.147-3.088 6.713-2.735 2.565.352 4.748 2.047 5.725 4.445.977 2.398.6 5.136-.988 7.181l-7.929 16.735c-2.406 5.08-6.575 9.113-11.731 11.348l-15.082 6.542c-.586.254-1.253.247-1.834-.02-.16-.073-.31-.165-.449-.273z"/>
                <circle cx="449.388" cy="181.771" r="12.281" fill="#FFB8B8"/>
                <path fill="#FFB8B8" d="M444.406 342.868L438.276 342.868 435.361 319.224 444.409 319.224z"/>
                <path fill="#2F2E41" d="M433.898 341.116h11.822v7.444h-19.266c0-1.974.784-3.868 2.18-5.264 1.396-1.395 3.29-2.18 5.264-2.18z"/>
                <path fill="#FFB8B8" d="M464.406 342.87L458.276 342.869 455.361 319.224 464.409 319.226z"/>
                <path fill="#2F2E41" d="M453.898 341.117h11.822v7.444h-19.266c0-1.974.784-3.868 2.18-5.264 1.396-1.396 3.29-2.18 5.264-2.18zM464.854 336.87h-7.183c-1.017-.002-1.907-.684-2.173-1.665l-10.34-38.35c-.033-.125-.155-.203-.281-.182-.127.02-.217.133-.21.261l2.09 36.371c.037.651-.21 1.286-.677 1.74-.467.456-1.108.686-1.757.631l-8.074-.673c-1.066-.091-1.922-.919-2.048-1.982l-7.355-76.372 2.845 1.707 26.665-4.527 10.728 80.493c.086.643-.11 1.292-.537 1.78-.427.488-1.044.768-1.693.768z"/>
                <path fill="#3F3D56" d="M435.763 264.71c-2.941-.024-5.823-.835-8.345-2.35-.796-.47-1.22-1.382-1.069-2.294.938-5.743 5.842-35.204 10.304-51.264 1.818-6.542 5.836-10.065 11.944-10.472 8.934-.586 16.875 6.404 17.702 15.6 1.458 16.224-4.467 39.275-7.082 48.433-.206.718-.755 1.287-1.466 1.518-.71.231-1.489.094-2.078-.365l-5.33-4.147c-.678-.517-1.627-.478-2.259.094-4.493 4.008-8.761 5.247-12.32 5.247z"/>
                <path fill="#000" d="M453.394 221.869L457.893 240.869 451.392 256.869 455.893 241.369z" opacity=".2"/>
                <path fill="#2F2E41" d="M456.395 191.87c1.092.02 2.178-.177 3.194-.578.447-.173.911-.314 1.357-.487 3.941-1.522 6.538-5.719 6.63-9.943.094-4.223-2.093-8.323-5.341-11.025s-7.455-4.089-11.667-4.41c-4.538-.345-9.648.805-12.183 4.584-.675 1.006-1.147 2.226-.747 3.44.12.367.333.696.62.954 1.132 1.007 2.261.25 3.415.183 1.587-.092 3.012 1.192 3.524 2.697.512 1.504.287 3.16-.127 4.695-.315.923-.514 1.883-.591 2.855-.068.992.382 1.948 1.189 2.527.991.6 2.293.253 3.285-.345.993-.599 1.85-1.43 2.921-1.87 1.072-.44 2.512-.343 3.135.633.198.355.333.743.396 1.144.56 2.548.431 2.398.99 4.945z"/>
                <path fill="#E6E6E6" d="M437.36 325.716l-76.897-26.78c-2.748-.96-4.2-3.964-3.245-6.713l19.983-57.38c.703-2.012 2.903-3.076 4.917-2.377l79.498 27.686c2.048.715 3.13 2.953 2.418 5.003l-19.96 57.316c-.96 2.747-3.964 4.199-6.713 3.245z"/>
                <path fill="#FFF" d="M367.025 295.638l67.242 23.418c2.666.928 5.58-.48 6.509-3.147l16.136-46.333c.929-2.667-.48-5.581-3.147-6.51l-67.242-23.417c-2.666-.929-5.58.48-6.509 3.146l-16.136 46.334c-.446 1.28-.365 2.685.225 3.906.59 1.22 1.641 2.157 2.922 2.603z"/>
                <path fill="#34AD9A" d="M383.91 263.085l-3.33-1.16c-.376-.131-.575-.542-.444-.918l1.16-3.33c.131-.376.542-.575.918-.445l3.33 1.16c.376.132.575.542.444.919l-1.16 3.33c-.131.376-.542.574-.918.444z"/>
                <path fill="#3F3D56" d="M380.905 271.713l-3.33-1.16c-.376-.131-.574-.542-.444-.918l1.16-3.33c.131-.376.542-.575.918-.444l3.33 1.16c.376.13.575.542.444.918l-1.16 3.33c-.13.376-.542.574-.918.444z"/>
                <path fill="#CCC" d="M377.9 280.34l-3.33-1.159c-.376-.131-.574-.542-.444-.918l1.16-3.33c.131-.376.542-.575.918-.444l3.33 1.16c.376.13.575.542.445.918l-1.16 3.33c-.132.376-.542.574-.919.444zM406.287 269.01l-16.045-5.587c-.244-.084-.424-.293-.473-.546-.049-.254.042-.514.238-.682.195-.169.466-.22.71-.135l16.045 5.588c.244.085.424.293.473.546.048.254-.042.514-.238.683-.196.168-.466.22-.71.134zM403.282 277.639l-16.045-5.588c-.376-.131-.575-.542-.444-.918.131-.377.542-.575.919-.444l16.045 5.587c.244.085.424.293.472.546.049.254-.042.514-.237.682-.196.169-.466.22-.71.135zM400.277 286.267l-16.045-5.588c-.376-.131-.575-.542-.444-.918.131-.377.543-.575.919-.444l16.045 5.588c.376.13.575.542.444.918-.131.376-.542.575-.919.444z"/>
                <path fill="#34AD9A" d="M442.977 290.942c.117-.28.227-.566.328-.856 2.746-7.886-1.42-16.505-9.306-19.251l-5.274 15.143 14.252 4.964z"/>
                <path fill="#3F3D56" d="M427.192 286.9l5.274-15.144c-7.773-2.707-16.284 1.3-19.148 9.018-2.864 7.717.971 16.306 8.629 19.326 7.657 3.019 16.323-.642 19.496-8.237l-14.251-4.963z"/>
                <path fill="#FFB8B8" d="M446.072 265.176c-.12-1.483.422-2.943 1.482-3.988s2.527-1.566 4.008-1.425L459 243.517l4.92 7.874-7.816 14.22c-.412 2.529-2.65 4.35-5.209 4.238-2.559-.11-4.63-2.118-4.822-4.673z"/>
                <path fill="#3F3D56" d="M458.947 259.455c-.458 0-.905-.14-1.282-.4l-3.511-2.43c-.778-.542-1.135-1.51-.894-2.427l4.127-15.59-4.99-28.946c-.015-2.592 1.355-4.995 3.592-6.302 2.238-1.308 5.003-1.321 7.253-.035s3.643 3.675 3.652 6.267l4.089 18.061c1.241 5.482.45 11.228-2.228 16.17l-7.83 14.454c-.305.562-.834.968-1.456 1.116-.171.041-.346.062-.522.062z"/>
                <path fill="#E2F9F2" d="M497 348.84h-95c-.276 0-.5-.223-.5-.5 0-.276.224-.5.5-.5h95c.276 0 .5.224.5.5 0 .277-.224.5-.5.5z"/>
                <path fill="#A0616A" d="M245.27 342.62L251.4 342.619 254.316 318.976 245.269 318.976z"/>
                <path fill="#2F2E41" d="M243.707 340.618h12.072c2.04 0 3.998.81 5.44 2.253 1.443 1.443 2.254 3.4 2.254 5.44v.25h-19.766v-7.943z"/>
                <path fill="#A0616A" d="M220.77 342.62L226.9 342.619 229.816 318.976 220.769 318.976z"/>
                <path fill="#2F2E41" d="M219.207 340.618h12.072c2.04 0 3.998.81 5.44 2.253 1.443 1.443 2.254 3.4 2.254 5.44v.25h-19.766v-7.943z"/>
                <circle cx="246.494" cy="166.649" r="12.281" fill="#A0616A"/>
                <path fill="#2F2E41" d="M254.752 337.516h-11.375c-.602 0-1.178-.24-1.6-.668-.423-.428-.657-1.007-.65-1.609l.661-54.016c.005-.398-.302-.73-.7-.757-.397-.027-.746.262-.794.657l-6.62 54.415c-.139 1.13-1.097 1.978-2.234 1.978h-11.485c-.627 0-1.226-.261-1.652-.722-.426-.46-.64-1.078-.591-1.703l7.584-97.037.206-.023 36.314-3.922L257 335.373c-.056 1.2-1.046 2.145-2.248 2.143z"/>
                <path fill="#3F3D56" d="M225.738 244.01c-1.213-.002-2.205-.966-2.242-2.179-.198-6.135-.538-27.366 3.41-42.952 2.214-8.743 9.889-15.005 18.897-15.42 8.857-.483 17.028 4.76 20.28 13.012 6.637 16.852 12.908 37.623 5.09 40.88-10.247 4.27-37.262 6.174-45.297 6.655-.046.003-.092.005-.138.005z"/>
                <path fill="#A0616A" d="M272.673 154.236c.193.199.402.382.623.547l-1.289 24.763-5.362 2.745 3.086 8.634 9.964-3.937c1.654-.654 2.678-2.32 2.513-4.09l-2.61-28.09c1.749-1.305 2.508-3.556 1.906-5.654-.601-2.098-2.438-3.604-4.613-3.784-2.175-.18-4.234 1.006-5.172 2.977-.937 1.97-.557 4.315.954 5.89z"/>
                <path fill="#3F3D56" d="M272.109 180.468l3.772 10.72c.217.617.155 1.298-.17 1.865-.326.568-.882.966-1.524 1.09l-11.123 2.154c-3.256 1.125-6.808-.596-7.942-3.849-1.134-3.253.578-6.81 3.828-7.952l9.987-5.271c.579-.306 1.261-.344 1.87-.105.61.239 1.085.73 1.302 1.348z"/>
                <path fill="#A0616A" d="M219.48 154.236c-.193.199-.401.382-.623.547l1.29 24.763 5.361 2.745-3.085 8.634-9.965-3.937c-1.653-.654-2.677-2.32-2.513-4.09l2.61-28.09c-1.748-1.305-2.507-3.556-1.906-5.654.602-2.098 2.439-3.604 4.614-3.784 2.175-.18 4.234 1.006 5.171 2.977.938 1.97.558 4.315-.954 5.89z"/>
                <path fill="#3F3D56" d="M221.346 179.12c.61-.24 1.292-.2 1.87.105l9.987 5.271c3.25 1.143 4.962 4.7 3.828 7.952-1.133 3.253-4.686 4.974-7.941 3.849l-11.123-2.154c-.642-.124-1.199-.522-1.524-1.09-.326-.567-.388-1.248-.17-1.866l3.772-10.72c.216-.616.692-1.109 1.301-1.347z"/>
                <path fill="#2F2E41" d="M251.264 168.742c-.132-3.201 1.642-6.177 4.52-7.584 3.733-1.927 6.078-6.038 5.05-9.791-1.315-4.805-7.854-7.92-13.152-6.267-1.434.509-2.817 1.151-4.13 1.92l-3.462 1.855c-1.479.74-2.905 1.582-4.267 2.519-4.157 3.063-6.316 8.146-5.635 13.265.681 4.884 3.88 9.363 8.259 12.43 1.674 1.252 3.608 2.111 5.659 2.516 2.099.346 4.435-.048 5.97-1.353 2.398-2.04 2.15-5.455 1.374-8.308-.102-.393-.165-.796-.186-1.202z"/>
                <path fill="#E2F9F2" d="M293 348.84h-95c-.276 0-.5-.223-.5-.5 0-.276.224-.5.5-.5h95c.276 0 .5.224.5.5 0 .277-.224.5-.5.5z"/>
                <path fill="#E6E6E6" d="M137.955 257.627l-78.389 32.158c-2.803 1.147-6.005-.192-7.157-2.993l-23.996-58.491c-.84-2.054.14-4.4 2.193-5.244l81.038-33.246c2.09-.854 4.476.144 5.335 2.23l23.97 58.428c1.145 2.803-.194 6.005-2.994 7.158z"/>
                <path fill="#FFF" d="M62.406 282.69l68.545-28.12c2.718-1.115 4.018-4.222 2.903-6.94l-19.377-47.232c-.535-1.305-1.568-2.344-2.87-2.888-1.3-.545-2.765-.55-4.07-.014l-68.546 28.12c-1.305.536-2.344 1.568-2.889 2.87-.544 1.301-.549 2.766-.014 4.07l19.377 47.232c.536 1.306 1.568 2.345 2.87 2.89 1.3.543 2.765.548 4.07.013z"/>
                <path fill="#E6E6E6" d="M113.084 213.479H114.173V214.479H113.084z" transform="rotate(-22.306 113.629 213.57)"/>
                <path fill="#E6E6E6" d="M111.124 214.696l-2.036.835-.07-.168 2.037-.835.069.168zm-4.072 1.67l-2.036.835-.069-.168 2.036-.835.069.168zm-4.072 1.67l-2.036.836-.069-.168 2.036-.836.07.168zm-4.072 1.67l-2.036.836-.068-.168 2.035-.835.07.168zm-4.071 1.671l-2.036.835-.07-.167 2.037-.836.069.168zm-4.072 1.67l-2.036.836-.069-.168 2.036-.835.069.168zm-4.072 1.671l-2.036.835-.069-.168 2.036-.835.069.168zm-4.072 1.67l-2.036.836-.068-.168 2.035-.835.07.168zm-4.071 1.671l-2.036.835-.07-.168 2.037-.835.069.168zm-4.072 1.67l-2.036.836-.069-.168 2.036-.836.069.168zm-4.072 1.67l-2.036.836-.069-.168 2.036-.835.069.168zm-4.072 1.671l-2.036.835-.069-.167 2.036-.836.07.168zm-4.072 1.67l-2.035.836-.07-.168 2.037-.835.068.168zm-4.071 1.671l-2.036.835-.07-.168 2.037-.835.069.168zm-4.072 1.67l-2.036.836-.069-.168 2.036-.835.069.168zm-4.072 1.671l-2.036.835-.069-.168 2.036-.835.07.168z"/>
                <path fill="#E6E6E6" d="M44.893 241.454H45.982V242.454H44.893z" transform="rotate(-22.306 45.437 241.545)"/>
                <path fill="#E6E6E6" d="M86.404 242.673H87.493V243.673H86.404z" transform="rotate(-22.306 86.949 242.764)"/>
                <path fill="#E6E6E6" d="M84.474 243.878l-2.006.823-.069-.168 2.006-.823.069.168zm-4.011 1.645l-2.006.823-.069-.168 2.006-.823.069.168zm-4.012 1.646l-2.005.823-.07-.168 2.006-.823.07.168zm-4.011 1.646l-2.006.822-.069-.168 2.006-.822.069.168zm-4.011 1.645l-2.006.823-.069-.168 2.006-.823.069.168zm-4.012 1.646l-2.005.823-.07-.168 2.007-.823.068.168zm-4.01 1.645l-2.006.823-.07-.168 2.006-.822.07.167zm-4.012 1.646l-2.006.823-.069-.168 2.006-.823.069.168z"/>
                <path fill="#E6E6E6" d="M51.301 257.075H52.39V258.075H51.301z" transform="rotate(-22.306 51.845 257.165)"/>
                <path fill="#E6E6E6" d="M69.785 258.126H70.874V259.126H69.785z" transform="rotate(-22.306 70.33 258.216)"/>
                <path fill="#E6E6E6" d="M67.797 259.354l-2.064.846-.069-.168 2.064-.846.069.168zm-4.127 1.693l-2.064.846-.069-.168 2.064-.846.069.168zm-4.128 1.693l-2.063.846-.069-.168 2.064-.846.069.168z"/>
                <path fill="#E6E6E6" d="M54.333 264.465H55.422V265.465H54.333z" transform="rotate(-22.306 54.877 264.556)"/>
                <path fill="#E6E6E6" d="M74.959 270.737H76.048V271.737H74.959z" transform="rotate(-22.306 75.503 270.828)"/>
                <path fill="#E6E6E6" d="M72.97 271.965l-2.063.847-.069-.168 2.064-.847.068.168zm-4.127 1.693l-2.063.847-.069-.168 2.063-.847.07.168zm-4.127 1.693l-2.063.847-.069-.168 2.063-.847.07.168z"/>
                <path fill="#E6E6E6" d="M59.506 277.077H60.595V278.077H59.506z" transform="rotate(-22.306 60.051 277.167)"/>
                <path fill="#34AD9A" d="M65.316 275.256l58.088-23.83c2.927-1.205 4.326-4.552 3.128-7.482l-11.736-28.607-.113.05-14.255 34.083-10.572-4.42c-.396-.166-.847-.138-1.218.076-.275.166-.488.418-.606.717l-7.47 17.86-7.73-3.23c-.338-.141-.717-.143-1.055-.004-.337.138-.606.406-.747.743-.05.12-4.816 11.815-5.714 14.044z"/>
                <path fill="#3F3D56" d="M65.137 275.525l-.167-.07 5.977-14.293c.33-.785 1.233-1.156 2.02-.828l7.576 3.169 7.429-17.763c.329-.785 1.232-1.156 2.018-.828l10.42 4.357 14.328-34.261.168.07-14.398 34.429-10.588-4.428c-.333-.139-.708-.14-1.042-.003-.334.137-.6.401-.739.734l-7.498 17.93-7.745-3.239c-.694-.289-1.49.038-1.781.731l-5.978 14.293z"/>
                <circle cx="70.833" cy="258.01" r="1.271" fill="#3F3D56"/>
                <circle cx="87.453" cy="242.558" r="1.271" fill="#3F3D56"/>
                <circle cx="113.331" cy="213.318" r="1.271" fill="#3F3D56"/>
                <path fill="#FFB8B8" d="M42.2 256.568c1.338-.666 2.312-1.89 2.66-3.342.348-1.453.036-2.985-.854-4.185l3.774-36.902h-8.157l-3 36.033c-1.959 1.666-2.363 4.533-.94 6.675 1.423 2.142 4.223 2.881 6.518 1.72z"/>
                <circle cx="49.69" cy="180.234" r="11.54" fill="#FFB8B8"/>
                <path fill="#FF6584" d="M51.862 233.63c-.95 0-1.782-.635-2.034-1.55-.924-3.36-3.33-9.039-7.15-16.882-1.742-3.586-1.872-7.745-.355-11.432 1.517-3.688 4.535-6.552 8.297-7.874 3.56-1.257 7.478-1.02 10.862.657 3.383 1.677 5.944 4.652 7.099 8.247 2.96 9.281 2.817 19.224 2.618 23.067-.05.951-.73 1.752-1.66 1.957l-17.223 3.76c-.15.034-.301.05-.454.05z"/>
                <path fill="#FFB8B8" d="M68.541 343.212L74.301 343.212 77.041 320.994 68.54 320.995z"/>
                <path fill="#2F2E41" d="M67.307 341.567H85.41v6.994H74.301c-1.855 0-3.634-.737-4.946-2.048-1.311-1.312-2.048-3.091-2.048-4.946z" transform="rotate(179.997 76.358 345.064)"/>
                <path fill="#FFB8B8" d="M10.941 335.748L15.989 338.522 29.095 320.373 21.645 316.277z"/>
                <path fill="#2F2E41" d="M7.848 337.639h18.104v6.994h-11.11c-3.863 0-6.994-3.131-6.994-6.994z" transform="rotate(-151.199 16.9 341.136)"/>
                <path fill="#2F2E41" d="M68.272 330.88c-1.062 0-1.958-.789-2.095-1.842l-7.204-55.512c-.065-.504-.447-.908-.946-1.003-.499-.095-1.002.142-1.247.587l-30.023 54.47c-.512.92-1.62 1.325-2.604.956l-6.544-2.494c-.532-.202-.96-.61-1.187-1.132-.227-.522-.234-1.113-.02-1.64L37.2 272.18c.053-.13.089-.267.107-.405 2.817-21.803 9.984-32.89 12.113-35.77.316-.429.403-.985.233-1.49l-.292-.878c-.238-.71-.084-1.492.406-2.057 7.674-8.74 21.048-3.97 21.182-3.921l.067.024.042.058c14.997 20.566 9.452 87.366 8.188 100.548-.097 1.023-.918 1.826-1.942 1.903l-8.868.682c-.055.005-.11.006-.164.006z"/>
                <path fill="#FFB8B8" d="M94.553 193.639c-.058.253-.095.51-.112.77l-20.184 11.644-4.906-2.824-5.23 6.847 8.2 5.844c1.36.97 3.197.925 4.509-.11l20.813-16.42c1.923.712 4.086.16 5.432-1.387s1.595-3.765.625-5.572c-.97-1.806-2.958-2.824-4.99-2.556-2.034.269-3.689 1.767-4.157 3.764z"/>
                <path fill="#FF6584" d="M73.582 206.605l-6.523 8.454c-.376.487-.944.786-1.558.82-.614.033-1.212-.202-1.639-.645l-7.385-7.668c-2.55-1.992-3.01-5.673-1.025-8.23 1.985-2.556 5.664-3.025 8.227-1.047l9.262 5.179c.536.3.916.82 1.039 1.421.123.603-.022 1.229-.398 1.716zM48.299 221.293l-10.509-1.897c-.605-.11-1.132-.477-1.445-1.006-.312-.53-.379-1.169-.182-1.751l3.407-10.087c.593-3.182 3.649-5.284 6.832-4.7 3.184.585 5.294 3.636 4.718 6.82l-.332 10.607c-.02.615-.306 1.19-.783 1.577-.478.387-1.101.547-1.706.437z"/>
                <path fill="#2F2E41" d="M51.516 177.58c2.966 2.03 6.86 4.116 9.89 1.954 1.946-1.482 2.683-4.07 1.81-6.354-1.451-4.148-5.437-5.975-9.248-7.374-4.954-1.82-10.348-3.268-15.463-1.965-5.114 1.304-9.634 6.255-8.711 11.452.742 4.179 4.684 7.656 4.125 11.864-.564 4.234-5.326 6.463-9.53 7.22-4.204.756-8.908 1-11.93 4.02-3.854 3.851-2.891 10.737.735 14.804 3.627 4.067 9.1 5.91 14.403 7.164 7.027 1.66 14.626 2.533 21.3-.223 6.673-2.755 11.866-10.174 9.933-17.13-.817-2.939-2.74-5.422-4.6-7.84-1.858-2.417-3.74-4.945-4.45-7.911-.591-2.472-.154-5.342 1.486-7.196.611-.666.724-1.65.279-2.437l-.029-.049z"/>
                <path fill="#E2F9F2" d="M95.5 348.84H.5c-.276 0-.5-.223-.5-.5 0-.276.224-.5.5-.5h95c.276 0 .5.224.5.5 0 .277-.224.5-.5.5z"/>
            </g>
        </g>
    </g>
</svg>
