<?xml version="1.0" encoding="UTF-8"?>
<svg width="1440px" height="887px" viewBox="0 0 1440 887" version="1.1" xmlns="http://www.w3.org/2000/svg" xmlns:xlink="http://www.w3.org/1999/xlink">
    <title>Bg</title>
    <defs>
        <path d="M0,77.092615 C134.639376,14.5058335 273.022428,-9.52503814 415.149156,5 C628.339247,26.7875572 828.202062,70.928073 1032,77.092615 C1167.86529,81.2023097 1303.86529,56.171438 1440,2 L1440,876 C1320.47366,827.878111 1184.47366,809.154987 1032,819.830627 C803.289506,835.844088 610.234058,880.487969 374,886 C216.510628,889.674688 91.8439612,862.28041 0,803.817166 L0,77.092615 Z" id="path-1"></path>
    </defs>
    <g id="Page-1" stroke="none" stroke-width="1" fill="none" fill-rule="evenodd">
        <g id="About-Us" transform="translate(0.000000, -1032.000000)">
            <g id="Bg" transform="translate(0.000000, 1032.000000)">
                <mask id="mask-2" fill="white">
                    <use xlink:href="#path-1"></use>
                </mask>
                <use id="Rectangle" fill="#ECFCF7" xlink:href="#path-1"></use>
                <path d="M-86.5278199,-177.07323 L409.846807,-691.402228 C411.762215,-693.391368 414.927541,-693.447598 416.914536,-691.529966 C416.915277,-691.52925 416.916018,-691.528534 416.914612,-691.525597 L890.404375,-233.998946 C892.387167,-232.078701 892.442389,-228.915043 890.52782,-226.92677 L394.153193,287.402228 C392.237785,289.391368 389.072459,289.447598 387.085464,287.529966 C387.084723,287.52925 387.083982,287.528534 387.085388,287.525597 L-86.4043747,-170.001054 C-88.3871674,-171.921299 -88.4423893,-175.084957 -86.5278199,-177.07323 Z" id="Rectangle" fill="#E2F9F2" opacity="0.845238095" mask="url(#mask-2)"></path>
                <path d="M539.464685,1044.93088 L1035.33146,530.605423 C1037.24808,528.617455 1040.41337,528.559617 1042.40134,530.476239 C1042.4033,530.47813 1042.40526,530.480022 1042.40722,530.481916 L1515.41201,988.004904 C1517.39455,989.922555 1517.44972,993.083444 1515.53532,995.069116 L1019.66854,1509.39458 C1017.75192,1511.38255 1014.58663,1511.44038 1012.59866,1509.52376 C1012.5967,1509.52187 1012.59474,1509.51998 1012.59278,1509.51808 L539.587991,1051.9951 C537.60545,1050.07745 537.550277,1046.91656 539.464685,1044.93088 Z" id="Rectangle-Copy-14" fill="#E2F9F2" opacity="0.845238095" mask="url(#mask-2)"></path>
                <path d="M1094.474,489.399601 L1590.84498,-24.4039887 C1592.76451,-26.3880791 1595.92877,-26.4433115 1597.91637,-24.5274203 L2071.40261,432.531808 C2073.39077,434.448236 2073.44665,437.613568 2071.52879,439.60035 C2071.52834,439.600825 2071.52788,439.601299 2071.526,439.600399 L1575.15502,953.403989 C1573.23549,955.388079 1570.07123,955.443311 1568.08363,953.52742 L1094.59739,496.468192 C1092.60923,494.551764 1092.55335,491.386432 1094.47121,489.39965 C1094.47166,489.399175 1094.47212,489.398701 1094.474,489.399601 Z" id="Rectangle-Copy-12" fill="#E7FBF5" mask="url(#mask-2)"></path>
                <path d="M-611.525996,924.399601 L-115.155017,410.596011 C-113.235491,408.611921 -110.071228,408.556689 -108.083627,410.47258 L365.402613,867.531808 C367.39077,869.448236 367.446648,872.613568 365.528795,874.60035 C365.528337,874.600825 365.527878,874.601299 365.525996,874.600399 L-130.844983,1388.40399 C-132.764509,1390.38808 -135.928772,1390.44331 -137.916373,1388.52742 L-611.402613,931.468192 C-613.39077,929.551764 -613.446648,926.386432 -611.528795,924.39965 C-611.528337,924.399175 -611.527878,924.398701 -611.525996,924.399601 Z" id="Rectangle-Copy-13" fill="#E7FBF5" mask="url(#mask-2)"></path>
            </g>
        </g>
    </g>
</svg>